%TF.GenerationSoftware,KiCad,Pcbnew,9.0.1*%
%TF.CreationDate,2025-06-17T17:02:24+01:00*%
%TF.ProjectId,Test_22,54657374-5f32-4322-9e6b-696361645f70,rev?*%
%TF.SameCoordinates,Original*%
%TF.FileFunction,Legend,Top*%
%TF.FilePolarity,Positive*%
%FSLAX46Y46*%
G04 Gerber Fmt 4.6, Leading zero omitted, Abs format (unit mm)*
G04 Created by KiCad (PCBNEW 9.0.1) date 2025-06-17 17:02:24*
%MOMM*%
%LPD*%
G01*
G04 APERTURE LIST*
%ADD10C,0.150000*%
%ADD11C,0.120000*%
G04 APERTURE END LIST*
D10*
X151063809Y-116803628D02*
X151063809Y-117279819D01*
X150730476Y-116279819D02*
X151063809Y-116803628D01*
X151063809Y-116803628D02*
X151397142Y-116279819D01*
X152254285Y-117279819D02*
X151682857Y-117279819D01*
X151968571Y-117279819D02*
X151968571Y-116279819D01*
X151968571Y-116279819D02*
X151873333Y-116422676D01*
X151873333Y-116422676D02*
X151778095Y-116517914D01*
X151778095Y-116517914D02*
X151682857Y-116565533D01*
X149784819Y-92456666D02*
X149308628Y-92789999D01*
X149784819Y-93028094D02*
X148784819Y-93028094D01*
X148784819Y-93028094D02*
X148784819Y-92647142D01*
X148784819Y-92647142D02*
X148832438Y-92551904D01*
X148832438Y-92551904D02*
X148880057Y-92504285D01*
X148880057Y-92504285D02*
X148975295Y-92456666D01*
X148975295Y-92456666D02*
X149118152Y-92456666D01*
X149118152Y-92456666D02*
X149213390Y-92504285D01*
X149213390Y-92504285D02*
X149261009Y-92551904D01*
X149261009Y-92551904D02*
X149308628Y-92647142D01*
X149308628Y-92647142D02*
X149308628Y-93028094D01*
X148784819Y-92123332D02*
X148784819Y-91456666D01*
X148784819Y-91456666D02*
X149784819Y-91885237D01*
X116447200Y-105633332D02*
X116494819Y-105490475D01*
X116494819Y-105490475D02*
X116494819Y-105252380D01*
X116494819Y-105252380D02*
X116447200Y-105157142D01*
X116447200Y-105157142D02*
X116399580Y-105109523D01*
X116399580Y-105109523D02*
X116304342Y-105061904D01*
X116304342Y-105061904D02*
X116209104Y-105061904D01*
X116209104Y-105061904D02*
X116113866Y-105109523D01*
X116113866Y-105109523D02*
X116066247Y-105157142D01*
X116066247Y-105157142D02*
X116018628Y-105252380D01*
X116018628Y-105252380D02*
X115971009Y-105442856D01*
X115971009Y-105442856D02*
X115923390Y-105538094D01*
X115923390Y-105538094D02*
X115875771Y-105585713D01*
X115875771Y-105585713D02*
X115780533Y-105633332D01*
X115780533Y-105633332D02*
X115685295Y-105633332D01*
X115685295Y-105633332D02*
X115590057Y-105585713D01*
X115590057Y-105585713D02*
X115542438Y-105538094D01*
X115542438Y-105538094D02*
X115494819Y-105442856D01*
X115494819Y-105442856D02*
X115494819Y-105204761D01*
X115494819Y-105204761D02*
X115542438Y-105061904D01*
X115494819Y-104728570D02*
X116494819Y-104490475D01*
X116494819Y-104490475D02*
X115780533Y-104299999D01*
X115780533Y-104299999D02*
X116494819Y-104109523D01*
X116494819Y-104109523D02*
X115494819Y-103871428D01*
X116494819Y-102966666D02*
X116494819Y-103538094D01*
X116494819Y-103252380D02*
X115494819Y-103252380D01*
X115494819Y-103252380D02*
X115637676Y-103347618D01*
X115637676Y-103347618D02*
X115732914Y-103442856D01*
X115732914Y-103442856D02*
X115780533Y-103538094D01*
X120533333Y-126009580D02*
X120485714Y-126057200D01*
X120485714Y-126057200D02*
X120342857Y-126104819D01*
X120342857Y-126104819D02*
X120247619Y-126104819D01*
X120247619Y-126104819D02*
X120104762Y-126057200D01*
X120104762Y-126057200D02*
X120009524Y-125961961D01*
X120009524Y-125961961D02*
X119961905Y-125866723D01*
X119961905Y-125866723D02*
X119914286Y-125676247D01*
X119914286Y-125676247D02*
X119914286Y-125533390D01*
X119914286Y-125533390D02*
X119961905Y-125342914D01*
X119961905Y-125342914D02*
X120009524Y-125247676D01*
X120009524Y-125247676D02*
X120104762Y-125152438D01*
X120104762Y-125152438D02*
X120247619Y-125104819D01*
X120247619Y-125104819D02*
X120342857Y-125104819D01*
X120342857Y-125104819D02*
X120485714Y-125152438D01*
X120485714Y-125152438D02*
X120533333Y-125200057D01*
X121390476Y-125438152D02*
X121390476Y-126104819D01*
X121152381Y-125057200D02*
X120914286Y-125771485D01*
X120914286Y-125771485D02*
X121533333Y-125771485D01*
X164791905Y-128514819D02*
X164791905Y-127514819D01*
X164791905Y-127514819D02*
X165030000Y-127514819D01*
X165030000Y-127514819D02*
X165172857Y-127562438D01*
X165172857Y-127562438D02*
X165268095Y-127657676D01*
X165268095Y-127657676D02*
X165315714Y-127752914D01*
X165315714Y-127752914D02*
X165363333Y-127943390D01*
X165363333Y-127943390D02*
X165363333Y-128086247D01*
X165363333Y-128086247D02*
X165315714Y-128276723D01*
X165315714Y-128276723D02*
X165268095Y-128371961D01*
X165268095Y-128371961D02*
X165172857Y-128467200D01*
X165172857Y-128467200D02*
X165030000Y-128514819D01*
X165030000Y-128514819D02*
X164791905Y-128514819D01*
X165744286Y-127610057D02*
X165791905Y-127562438D01*
X165791905Y-127562438D02*
X165887143Y-127514819D01*
X165887143Y-127514819D02*
X166125238Y-127514819D01*
X166125238Y-127514819D02*
X166220476Y-127562438D01*
X166220476Y-127562438D02*
X166268095Y-127610057D01*
X166268095Y-127610057D02*
X166315714Y-127705295D01*
X166315714Y-127705295D02*
X166315714Y-127800533D01*
X166315714Y-127800533D02*
X166268095Y-127943390D01*
X166268095Y-127943390D02*
X165696667Y-128514819D01*
X165696667Y-128514819D02*
X166315714Y-128514819D01*
X179216666Y-109962319D02*
X179216666Y-110676604D01*
X179216666Y-110676604D02*
X179169047Y-110819461D01*
X179169047Y-110819461D02*
X179073809Y-110914700D01*
X179073809Y-110914700D02*
X178930952Y-110962319D01*
X178930952Y-110962319D02*
X178835714Y-110962319D01*
X180121428Y-110295652D02*
X180121428Y-110962319D01*
X179883333Y-109914700D02*
X179645238Y-110628985D01*
X179645238Y-110628985D02*
X180264285Y-110628985D01*
X154754819Y-94866666D02*
X154278628Y-95199999D01*
X154754819Y-95438094D02*
X153754819Y-95438094D01*
X153754819Y-95438094D02*
X153754819Y-95057142D01*
X153754819Y-95057142D02*
X153802438Y-94961904D01*
X153802438Y-94961904D02*
X153850057Y-94914285D01*
X153850057Y-94914285D02*
X153945295Y-94866666D01*
X153945295Y-94866666D02*
X154088152Y-94866666D01*
X154088152Y-94866666D02*
X154183390Y-94914285D01*
X154183390Y-94914285D02*
X154231009Y-94961904D01*
X154231009Y-94961904D02*
X154278628Y-95057142D01*
X154278628Y-95057142D02*
X154278628Y-95438094D01*
X153754819Y-94009523D02*
X153754819Y-94199999D01*
X153754819Y-94199999D02*
X153802438Y-94295237D01*
X153802438Y-94295237D02*
X153850057Y-94342856D01*
X153850057Y-94342856D02*
X153992914Y-94438094D01*
X153992914Y-94438094D02*
X154183390Y-94485713D01*
X154183390Y-94485713D02*
X154564342Y-94485713D01*
X154564342Y-94485713D02*
X154659580Y-94438094D01*
X154659580Y-94438094D02*
X154707200Y-94390475D01*
X154707200Y-94390475D02*
X154754819Y-94295237D01*
X154754819Y-94295237D02*
X154754819Y-94104761D01*
X154754819Y-94104761D02*
X154707200Y-94009523D01*
X154707200Y-94009523D02*
X154659580Y-93961904D01*
X154659580Y-93961904D02*
X154564342Y-93914285D01*
X154564342Y-93914285D02*
X154326247Y-93914285D01*
X154326247Y-93914285D02*
X154231009Y-93961904D01*
X154231009Y-93961904D02*
X154183390Y-94009523D01*
X154183390Y-94009523D02*
X154135771Y-94104761D01*
X154135771Y-94104761D02*
X154135771Y-94295237D01*
X154135771Y-94295237D02*
X154183390Y-94390475D01*
X154183390Y-94390475D02*
X154231009Y-94438094D01*
X154231009Y-94438094D02*
X154326247Y-94485713D01*
X138944819Y-131633333D02*
X139659104Y-131633333D01*
X139659104Y-131633333D02*
X139801961Y-131680952D01*
X139801961Y-131680952D02*
X139897200Y-131776190D01*
X139897200Y-131776190D02*
X139944819Y-131919047D01*
X139944819Y-131919047D02*
X139944819Y-132014285D01*
X139040057Y-131204761D02*
X138992438Y-131157142D01*
X138992438Y-131157142D02*
X138944819Y-131061904D01*
X138944819Y-131061904D02*
X138944819Y-130823809D01*
X138944819Y-130823809D02*
X138992438Y-130728571D01*
X138992438Y-130728571D02*
X139040057Y-130680952D01*
X139040057Y-130680952D02*
X139135295Y-130633333D01*
X139135295Y-130633333D02*
X139230533Y-130633333D01*
X139230533Y-130633333D02*
X139373390Y-130680952D01*
X139373390Y-130680952D02*
X139944819Y-131252380D01*
X139944819Y-131252380D02*
X139944819Y-130633333D01*
X126804819Y-104571904D02*
X127614342Y-104571904D01*
X127614342Y-104571904D02*
X127709580Y-104524285D01*
X127709580Y-104524285D02*
X127757200Y-104476666D01*
X127757200Y-104476666D02*
X127804819Y-104381428D01*
X127804819Y-104381428D02*
X127804819Y-104190952D01*
X127804819Y-104190952D02*
X127757200Y-104095714D01*
X127757200Y-104095714D02*
X127709580Y-104048095D01*
X127709580Y-104048095D02*
X127614342Y-104000476D01*
X127614342Y-104000476D02*
X126804819Y-104000476D01*
X127804819Y-103000476D02*
X127804819Y-103571904D01*
X127804819Y-103286190D02*
X126804819Y-103286190D01*
X126804819Y-103286190D02*
X126947676Y-103381428D01*
X126947676Y-103381428D02*
X127042914Y-103476666D01*
X127042914Y-103476666D02*
X127090533Y-103571904D01*
X150554819Y-82958094D02*
X149554819Y-82958094D01*
X149554819Y-82958094D02*
X149554819Y-82719999D01*
X149554819Y-82719999D02*
X149602438Y-82577142D01*
X149602438Y-82577142D02*
X149697676Y-82481904D01*
X149697676Y-82481904D02*
X149792914Y-82434285D01*
X149792914Y-82434285D02*
X149983390Y-82386666D01*
X149983390Y-82386666D02*
X150126247Y-82386666D01*
X150126247Y-82386666D02*
X150316723Y-82434285D01*
X150316723Y-82434285D02*
X150411961Y-82481904D01*
X150411961Y-82481904D02*
X150507200Y-82577142D01*
X150507200Y-82577142D02*
X150554819Y-82719999D01*
X150554819Y-82719999D02*
X150554819Y-82958094D01*
X149554819Y-81529523D02*
X149554819Y-81719999D01*
X149554819Y-81719999D02*
X149602438Y-81815237D01*
X149602438Y-81815237D02*
X149650057Y-81862856D01*
X149650057Y-81862856D02*
X149792914Y-81958094D01*
X149792914Y-81958094D02*
X149983390Y-82005713D01*
X149983390Y-82005713D02*
X150364342Y-82005713D01*
X150364342Y-82005713D02*
X150459580Y-81958094D01*
X150459580Y-81958094D02*
X150507200Y-81910475D01*
X150507200Y-81910475D02*
X150554819Y-81815237D01*
X150554819Y-81815237D02*
X150554819Y-81624761D01*
X150554819Y-81624761D02*
X150507200Y-81529523D01*
X150507200Y-81529523D02*
X150459580Y-81481904D01*
X150459580Y-81481904D02*
X150364342Y-81434285D01*
X150364342Y-81434285D02*
X150126247Y-81434285D01*
X150126247Y-81434285D02*
X150031009Y-81481904D01*
X150031009Y-81481904D02*
X149983390Y-81529523D01*
X149983390Y-81529523D02*
X149935771Y-81624761D01*
X149935771Y-81624761D02*
X149935771Y-81815237D01*
X149935771Y-81815237D02*
X149983390Y-81910475D01*
X149983390Y-81910475D02*
X150031009Y-81958094D01*
X150031009Y-81958094D02*
X150126247Y-82005713D01*
X146459580Y-125816666D02*
X146507200Y-125864285D01*
X146507200Y-125864285D02*
X146554819Y-126007142D01*
X146554819Y-126007142D02*
X146554819Y-126102380D01*
X146554819Y-126102380D02*
X146507200Y-126245237D01*
X146507200Y-126245237D02*
X146411961Y-126340475D01*
X146411961Y-126340475D02*
X146316723Y-126388094D01*
X146316723Y-126388094D02*
X146126247Y-126435713D01*
X146126247Y-126435713D02*
X145983390Y-126435713D01*
X145983390Y-126435713D02*
X145792914Y-126388094D01*
X145792914Y-126388094D02*
X145697676Y-126340475D01*
X145697676Y-126340475D02*
X145602438Y-126245237D01*
X145602438Y-126245237D02*
X145554819Y-126102380D01*
X145554819Y-126102380D02*
X145554819Y-126007142D01*
X145554819Y-126007142D02*
X145602438Y-125864285D01*
X145602438Y-125864285D02*
X145650057Y-125816666D01*
X146554819Y-124864285D02*
X146554819Y-125435713D01*
X146554819Y-125149999D02*
X145554819Y-125149999D01*
X145554819Y-125149999D02*
X145697676Y-125245237D01*
X145697676Y-125245237D02*
X145792914Y-125340475D01*
X145792914Y-125340475D02*
X145840533Y-125435713D01*
X144954819Y-95046666D02*
X144478628Y-95379999D01*
X144954819Y-95618094D02*
X143954819Y-95618094D01*
X143954819Y-95618094D02*
X143954819Y-95237142D01*
X143954819Y-95237142D02*
X144002438Y-95141904D01*
X144002438Y-95141904D02*
X144050057Y-95094285D01*
X144050057Y-95094285D02*
X144145295Y-95046666D01*
X144145295Y-95046666D02*
X144288152Y-95046666D01*
X144288152Y-95046666D02*
X144383390Y-95094285D01*
X144383390Y-95094285D02*
X144431009Y-95141904D01*
X144431009Y-95141904D02*
X144478628Y-95237142D01*
X144478628Y-95237142D02*
X144478628Y-95618094D01*
X144954819Y-94094285D02*
X144954819Y-94665713D01*
X144954819Y-94379999D02*
X143954819Y-94379999D01*
X143954819Y-94379999D02*
X144097676Y-94475237D01*
X144097676Y-94475237D02*
X144192914Y-94570475D01*
X144192914Y-94570475D02*
X144240533Y-94665713D01*
X169654819Y-82888094D02*
X168654819Y-82888094D01*
X168654819Y-82888094D02*
X168654819Y-82649999D01*
X168654819Y-82649999D02*
X168702438Y-82507142D01*
X168702438Y-82507142D02*
X168797676Y-82411904D01*
X168797676Y-82411904D02*
X168892914Y-82364285D01*
X168892914Y-82364285D02*
X169083390Y-82316666D01*
X169083390Y-82316666D02*
X169226247Y-82316666D01*
X169226247Y-82316666D02*
X169416723Y-82364285D01*
X169416723Y-82364285D02*
X169511961Y-82411904D01*
X169511961Y-82411904D02*
X169607200Y-82507142D01*
X169607200Y-82507142D02*
X169654819Y-82649999D01*
X169654819Y-82649999D02*
X169654819Y-82888094D01*
X168654819Y-81983332D02*
X168654819Y-81364285D01*
X168654819Y-81364285D02*
X169035771Y-81697618D01*
X169035771Y-81697618D02*
X169035771Y-81554761D01*
X169035771Y-81554761D02*
X169083390Y-81459523D01*
X169083390Y-81459523D02*
X169131009Y-81411904D01*
X169131009Y-81411904D02*
X169226247Y-81364285D01*
X169226247Y-81364285D02*
X169464342Y-81364285D01*
X169464342Y-81364285D02*
X169559580Y-81411904D01*
X169559580Y-81411904D02*
X169607200Y-81459523D01*
X169607200Y-81459523D02*
X169654819Y-81554761D01*
X169654819Y-81554761D02*
X169654819Y-81840475D01*
X169654819Y-81840475D02*
X169607200Y-81935713D01*
X169607200Y-81935713D02*
X169559580Y-81983332D01*
X159484819Y-94656666D02*
X159008628Y-94989999D01*
X159484819Y-95228094D02*
X158484819Y-95228094D01*
X158484819Y-95228094D02*
X158484819Y-94847142D01*
X158484819Y-94847142D02*
X158532438Y-94751904D01*
X158532438Y-94751904D02*
X158580057Y-94704285D01*
X158580057Y-94704285D02*
X158675295Y-94656666D01*
X158675295Y-94656666D02*
X158818152Y-94656666D01*
X158818152Y-94656666D02*
X158913390Y-94704285D01*
X158913390Y-94704285D02*
X158961009Y-94751904D01*
X158961009Y-94751904D02*
X159008628Y-94847142D01*
X159008628Y-94847142D02*
X159008628Y-95228094D01*
X158484819Y-93751904D02*
X158484819Y-94228094D01*
X158484819Y-94228094D02*
X158961009Y-94275713D01*
X158961009Y-94275713D02*
X158913390Y-94228094D01*
X158913390Y-94228094D02*
X158865771Y-94132856D01*
X158865771Y-94132856D02*
X158865771Y-93894761D01*
X158865771Y-93894761D02*
X158913390Y-93799523D01*
X158913390Y-93799523D02*
X158961009Y-93751904D01*
X158961009Y-93751904D02*
X159056247Y-93704285D01*
X159056247Y-93704285D02*
X159294342Y-93704285D01*
X159294342Y-93704285D02*
X159389580Y-93751904D01*
X159389580Y-93751904D02*
X159437200Y-93799523D01*
X159437200Y-93799523D02*
X159484819Y-93894761D01*
X159484819Y-93894761D02*
X159484819Y-94132856D01*
X159484819Y-94132856D02*
X159437200Y-94228094D01*
X159437200Y-94228094D02*
X159389580Y-94275713D01*
X156854819Y-82728094D02*
X155854819Y-82728094D01*
X155854819Y-82728094D02*
X155854819Y-82489999D01*
X155854819Y-82489999D02*
X155902438Y-82347142D01*
X155902438Y-82347142D02*
X155997676Y-82251904D01*
X155997676Y-82251904D02*
X156092914Y-82204285D01*
X156092914Y-82204285D02*
X156283390Y-82156666D01*
X156283390Y-82156666D02*
X156426247Y-82156666D01*
X156426247Y-82156666D02*
X156616723Y-82204285D01*
X156616723Y-82204285D02*
X156711961Y-82251904D01*
X156711961Y-82251904D02*
X156807200Y-82347142D01*
X156807200Y-82347142D02*
X156854819Y-82489999D01*
X156854819Y-82489999D02*
X156854819Y-82728094D01*
X155854819Y-81251904D02*
X155854819Y-81728094D01*
X155854819Y-81728094D02*
X156331009Y-81775713D01*
X156331009Y-81775713D02*
X156283390Y-81728094D01*
X156283390Y-81728094D02*
X156235771Y-81632856D01*
X156235771Y-81632856D02*
X156235771Y-81394761D01*
X156235771Y-81394761D02*
X156283390Y-81299523D01*
X156283390Y-81299523D02*
X156331009Y-81251904D01*
X156331009Y-81251904D02*
X156426247Y-81204285D01*
X156426247Y-81204285D02*
X156664342Y-81204285D01*
X156664342Y-81204285D02*
X156759580Y-81251904D01*
X156759580Y-81251904D02*
X156807200Y-81299523D01*
X156807200Y-81299523D02*
X156854819Y-81394761D01*
X156854819Y-81394761D02*
X156854819Y-81632856D01*
X156854819Y-81632856D02*
X156807200Y-81728094D01*
X156807200Y-81728094D02*
X156759580Y-81775713D01*
X163254819Y-82358094D02*
X162254819Y-82358094D01*
X162254819Y-82358094D02*
X162254819Y-82119999D01*
X162254819Y-82119999D02*
X162302438Y-81977142D01*
X162302438Y-81977142D02*
X162397676Y-81881904D01*
X162397676Y-81881904D02*
X162492914Y-81834285D01*
X162492914Y-81834285D02*
X162683390Y-81786666D01*
X162683390Y-81786666D02*
X162826247Y-81786666D01*
X162826247Y-81786666D02*
X163016723Y-81834285D01*
X163016723Y-81834285D02*
X163111961Y-81881904D01*
X163111961Y-81881904D02*
X163207200Y-81977142D01*
X163207200Y-81977142D02*
X163254819Y-82119999D01*
X163254819Y-82119999D02*
X163254819Y-82358094D01*
X162588152Y-80929523D02*
X163254819Y-80929523D01*
X162207200Y-81167618D02*
X162921485Y-81405713D01*
X162921485Y-81405713D02*
X162921485Y-80786666D01*
X128116666Y-76054819D02*
X128116666Y-76769104D01*
X128116666Y-76769104D02*
X128069047Y-76911961D01*
X128069047Y-76911961D02*
X127973809Y-77007200D01*
X127973809Y-77007200D02*
X127830952Y-77054819D01*
X127830952Y-77054819D02*
X127735714Y-77054819D01*
X128497619Y-76054819D02*
X129116666Y-76054819D01*
X129116666Y-76054819D02*
X128783333Y-76435771D01*
X128783333Y-76435771D02*
X128926190Y-76435771D01*
X128926190Y-76435771D02*
X129021428Y-76483390D01*
X129021428Y-76483390D02*
X129069047Y-76531009D01*
X129069047Y-76531009D02*
X129116666Y-76626247D01*
X129116666Y-76626247D02*
X129116666Y-76864342D01*
X129116666Y-76864342D02*
X129069047Y-76959580D01*
X129069047Y-76959580D02*
X129021428Y-77007200D01*
X129021428Y-77007200D02*
X128926190Y-77054819D01*
X128926190Y-77054819D02*
X128640476Y-77054819D01*
X128640476Y-77054819D02*
X128545238Y-77007200D01*
X128545238Y-77007200D02*
X128497619Y-76959580D01*
X138484819Y-92456666D02*
X138008628Y-92789999D01*
X138484819Y-93028094D02*
X137484819Y-93028094D01*
X137484819Y-93028094D02*
X137484819Y-92647142D01*
X137484819Y-92647142D02*
X137532438Y-92551904D01*
X137532438Y-92551904D02*
X137580057Y-92504285D01*
X137580057Y-92504285D02*
X137675295Y-92456666D01*
X137675295Y-92456666D02*
X137818152Y-92456666D01*
X137818152Y-92456666D02*
X137913390Y-92504285D01*
X137913390Y-92504285D02*
X137961009Y-92551904D01*
X137961009Y-92551904D02*
X138008628Y-92647142D01*
X138008628Y-92647142D02*
X138008628Y-93028094D01*
X137913390Y-91885237D02*
X137865771Y-91980475D01*
X137865771Y-91980475D02*
X137818152Y-92028094D01*
X137818152Y-92028094D02*
X137722914Y-92075713D01*
X137722914Y-92075713D02*
X137675295Y-92075713D01*
X137675295Y-92075713D02*
X137580057Y-92028094D01*
X137580057Y-92028094D02*
X137532438Y-91980475D01*
X137532438Y-91980475D02*
X137484819Y-91885237D01*
X137484819Y-91885237D02*
X137484819Y-91694761D01*
X137484819Y-91694761D02*
X137532438Y-91599523D01*
X137532438Y-91599523D02*
X137580057Y-91551904D01*
X137580057Y-91551904D02*
X137675295Y-91504285D01*
X137675295Y-91504285D02*
X137722914Y-91504285D01*
X137722914Y-91504285D02*
X137818152Y-91551904D01*
X137818152Y-91551904D02*
X137865771Y-91599523D01*
X137865771Y-91599523D02*
X137913390Y-91694761D01*
X137913390Y-91694761D02*
X137913390Y-91885237D01*
X137913390Y-91885237D02*
X137961009Y-91980475D01*
X137961009Y-91980475D02*
X138008628Y-92028094D01*
X138008628Y-92028094D02*
X138103866Y-92075713D01*
X138103866Y-92075713D02*
X138294342Y-92075713D01*
X138294342Y-92075713D02*
X138389580Y-92028094D01*
X138389580Y-92028094D02*
X138437200Y-91980475D01*
X138437200Y-91980475D02*
X138484819Y-91885237D01*
X138484819Y-91885237D02*
X138484819Y-91694761D01*
X138484819Y-91694761D02*
X138437200Y-91599523D01*
X138437200Y-91599523D02*
X138389580Y-91551904D01*
X138389580Y-91551904D02*
X138294342Y-91504285D01*
X138294342Y-91504285D02*
X138103866Y-91504285D01*
X138103866Y-91504285D02*
X138008628Y-91551904D01*
X138008628Y-91551904D02*
X137961009Y-91599523D01*
X137961009Y-91599523D02*
X137913390Y-91694761D01*
X175283333Y-98409580D02*
X175235714Y-98457200D01*
X175235714Y-98457200D02*
X175092857Y-98504819D01*
X175092857Y-98504819D02*
X174997619Y-98504819D01*
X174997619Y-98504819D02*
X174854762Y-98457200D01*
X174854762Y-98457200D02*
X174759524Y-98361961D01*
X174759524Y-98361961D02*
X174711905Y-98266723D01*
X174711905Y-98266723D02*
X174664286Y-98076247D01*
X174664286Y-98076247D02*
X174664286Y-97933390D01*
X174664286Y-97933390D02*
X174711905Y-97742914D01*
X174711905Y-97742914D02*
X174759524Y-97647676D01*
X174759524Y-97647676D02*
X174854762Y-97552438D01*
X174854762Y-97552438D02*
X174997619Y-97504819D01*
X174997619Y-97504819D02*
X175092857Y-97504819D01*
X175092857Y-97504819D02*
X175235714Y-97552438D01*
X175235714Y-97552438D02*
X175283333Y-97600057D01*
X175616667Y-97504819D02*
X176235714Y-97504819D01*
X176235714Y-97504819D02*
X175902381Y-97885771D01*
X175902381Y-97885771D02*
X176045238Y-97885771D01*
X176045238Y-97885771D02*
X176140476Y-97933390D01*
X176140476Y-97933390D02*
X176188095Y-97981009D01*
X176188095Y-97981009D02*
X176235714Y-98076247D01*
X176235714Y-98076247D02*
X176235714Y-98314342D01*
X176235714Y-98314342D02*
X176188095Y-98409580D01*
X176188095Y-98409580D02*
X176140476Y-98457200D01*
X176140476Y-98457200D02*
X176045238Y-98504819D01*
X176045238Y-98504819D02*
X175759524Y-98504819D01*
X175759524Y-98504819D02*
X175664286Y-98457200D01*
X175664286Y-98457200D02*
X175616667Y-98409580D01*
X175404761Y-107522557D02*
X175309523Y-107474938D01*
X175309523Y-107474938D02*
X175214285Y-107379700D01*
X175214285Y-107379700D02*
X175071428Y-107236842D01*
X175071428Y-107236842D02*
X174976190Y-107189223D01*
X174976190Y-107189223D02*
X174880952Y-107189223D01*
X174928571Y-107427319D02*
X174833333Y-107379700D01*
X174833333Y-107379700D02*
X174738095Y-107284461D01*
X174738095Y-107284461D02*
X174690476Y-107093985D01*
X174690476Y-107093985D02*
X174690476Y-106760652D01*
X174690476Y-106760652D02*
X174738095Y-106570176D01*
X174738095Y-106570176D02*
X174833333Y-106474938D01*
X174833333Y-106474938D02*
X174928571Y-106427319D01*
X174928571Y-106427319D02*
X175119047Y-106427319D01*
X175119047Y-106427319D02*
X175214285Y-106474938D01*
X175214285Y-106474938D02*
X175309523Y-106570176D01*
X175309523Y-106570176D02*
X175357142Y-106760652D01*
X175357142Y-106760652D02*
X175357142Y-107093985D01*
X175357142Y-107093985D02*
X175309523Y-107284461D01*
X175309523Y-107284461D02*
X175214285Y-107379700D01*
X175214285Y-107379700D02*
X175119047Y-107427319D01*
X175119047Y-107427319D02*
X174928571Y-107427319D01*
X176309523Y-107427319D02*
X175738095Y-107427319D01*
X176023809Y-107427319D02*
X176023809Y-106427319D01*
X176023809Y-106427319D02*
X175928571Y-106570176D01*
X175928571Y-106570176D02*
X175833333Y-106665414D01*
X175833333Y-106665414D02*
X175738095Y-106713033D01*
X119184819Y-134113333D02*
X119899104Y-134113333D01*
X119899104Y-134113333D02*
X120041961Y-134160952D01*
X120041961Y-134160952D02*
X120137200Y-134256190D01*
X120137200Y-134256190D02*
X120184819Y-134399047D01*
X120184819Y-134399047D02*
X120184819Y-134494285D01*
X120184819Y-133113333D02*
X120184819Y-133684761D01*
X120184819Y-133399047D02*
X119184819Y-133399047D01*
X119184819Y-133399047D02*
X119327676Y-133494285D01*
X119327676Y-133494285D02*
X119422914Y-133589523D01*
X119422914Y-133589523D02*
X119470533Y-133684761D01*
X167324819Y-116356666D02*
X166848628Y-116689999D01*
X167324819Y-116928094D02*
X166324819Y-116928094D01*
X166324819Y-116928094D02*
X166324819Y-116547142D01*
X166324819Y-116547142D02*
X166372438Y-116451904D01*
X166372438Y-116451904D02*
X166420057Y-116404285D01*
X166420057Y-116404285D02*
X166515295Y-116356666D01*
X166515295Y-116356666D02*
X166658152Y-116356666D01*
X166658152Y-116356666D02*
X166753390Y-116404285D01*
X166753390Y-116404285D02*
X166801009Y-116451904D01*
X166801009Y-116451904D02*
X166848628Y-116547142D01*
X166848628Y-116547142D02*
X166848628Y-116928094D01*
X166324819Y-116023332D02*
X166324819Y-115404285D01*
X166324819Y-115404285D02*
X166705771Y-115737618D01*
X166705771Y-115737618D02*
X166705771Y-115594761D01*
X166705771Y-115594761D02*
X166753390Y-115499523D01*
X166753390Y-115499523D02*
X166801009Y-115451904D01*
X166801009Y-115451904D02*
X166896247Y-115404285D01*
X166896247Y-115404285D02*
X167134342Y-115404285D01*
X167134342Y-115404285D02*
X167229580Y-115451904D01*
X167229580Y-115451904D02*
X167277200Y-115499523D01*
X167277200Y-115499523D02*
X167324819Y-115594761D01*
X167324819Y-115594761D02*
X167324819Y-115880475D01*
X167324819Y-115880475D02*
X167277200Y-115975713D01*
X167277200Y-115975713D02*
X167229580Y-116023332D01*
X160159580Y-124566666D02*
X160207200Y-124614285D01*
X160207200Y-124614285D02*
X160254819Y-124757142D01*
X160254819Y-124757142D02*
X160254819Y-124852380D01*
X160254819Y-124852380D02*
X160207200Y-124995237D01*
X160207200Y-124995237D02*
X160111961Y-125090475D01*
X160111961Y-125090475D02*
X160016723Y-125138094D01*
X160016723Y-125138094D02*
X159826247Y-125185713D01*
X159826247Y-125185713D02*
X159683390Y-125185713D01*
X159683390Y-125185713D02*
X159492914Y-125138094D01*
X159492914Y-125138094D02*
X159397676Y-125090475D01*
X159397676Y-125090475D02*
X159302438Y-124995237D01*
X159302438Y-124995237D02*
X159254819Y-124852380D01*
X159254819Y-124852380D02*
X159254819Y-124757142D01*
X159254819Y-124757142D02*
X159302438Y-124614285D01*
X159302438Y-124614285D02*
X159350057Y-124566666D01*
X159350057Y-124185713D02*
X159302438Y-124138094D01*
X159302438Y-124138094D02*
X159254819Y-124042856D01*
X159254819Y-124042856D02*
X159254819Y-123804761D01*
X159254819Y-123804761D02*
X159302438Y-123709523D01*
X159302438Y-123709523D02*
X159350057Y-123661904D01*
X159350057Y-123661904D02*
X159445295Y-123614285D01*
X159445295Y-123614285D02*
X159540533Y-123614285D01*
X159540533Y-123614285D02*
X159683390Y-123661904D01*
X159683390Y-123661904D02*
X160254819Y-124233332D01*
X160254819Y-124233332D02*
X160254819Y-123614285D01*
X120323333Y-110584819D02*
X119990000Y-110108628D01*
X119751905Y-110584819D02*
X119751905Y-109584819D01*
X119751905Y-109584819D02*
X120132857Y-109584819D01*
X120132857Y-109584819D02*
X120228095Y-109632438D01*
X120228095Y-109632438D02*
X120275714Y-109680057D01*
X120275714Y-109680057D02*
X120323333Y-109775295D01*
X120323333Y-109775295D02*
X120323333Y-109918152D01*
X120323333Y-109918152D02*
X120275714Y-110013390D01*
X120275714Y-110013390D02*
X120228095Y-110061009D01*
X120228095Y-110061009D02*
X120132857Y-110108628D01*
X120132857Y-110108628D02*
X119751905Y-110108628D01*
X120704286Y-109680057D02*
X120751905Y-109632438D01*
X120751905Y-109632438D02*
X120847143Y-109584819D01*
X120847143Y-109584819D02*
X121085238Y-109584819D01*
X121085238Y-109584819D02*
X121180476Y-109632438D01*
X121180476Y-109632438D02*
X121228095Y-109680057D01*
X121228095Y-109680057D02*
X121275714Y-109775295D01*
X121275714Y-109775295D02*
X121275714Y-109870533D01*
X121275714Y-109870533D02*
X121228095Y-110013390D01*
X121228095Y-110013390D02*
X120656667Y-110584819D01*
X120656667Y-110584819D02*
X121275714Y-110584819D01*
X164254819Y-94556666D02*
X163778628Y-94889999D01*
X164254819Y-95128094D02*
X163254819Y-95128094D01*
X163254819Y-95128094D02*
X163254819Y-94747142D01*
X163254819Y-94747142D02*
X163302438Y-94651904D01*
X163302438Y-94651904D02*
X163350057Y-94604285D01*
X163350057Y-94604285D02*
X163445295Y-94556666D01*
X163445295Y-94556666D02*
X163588152Y-94556666D01*
X163588152Y-94556666D02*
X163683390Y-94604285D01*
X163683390Y-94604285D02*
X163731009Y-94651904D01*
X163731009Y-94651904D02*
X163778628Y-94747142D01*
X163778628Y-94747142D02*
X163778628Y-95128094D01*
X163588152Y-93699523D02*
X164254819Y-93699523D01*
X163207200Y-93937618D02*
X163921485Y-94175713D01*
X163921485Y-94175713D02*
X163921485Y-93556666D01*
X144954819Y-82928094D02*
X143954819Y-82928094D01*
X143954819Y-82928094D02*
X143954819Y-82689999D01*
X143954819Y-82689999D02*
X144002438Y-82547142D01*
X144002438Y-82547142D02*
X144097676Y-82451904D01*
X144097676Y-82451904D02*
X144192914Y-82404285D01*
X144192914Y-82404285D02*
X144383390Y-82356666D01*
X144383390Y-82356666D02*
X144526247Y-82356666D01*
X144526247Y-82356666D02*
X144716723Y-82404285D01*
X144716723Y-82404285D02*
X144811961Y-82451904D01*
X144811961Y-82451904D02*
X144907200Y-82547142D01*
X144907200Y-82547142D02*
X144954819Y-82689999D01*
X144954819Y-82689999D02*
X144954819Y-82928094D01*
X144954819Y-81404285D02*
X144954819Y-81975713D01*
X144954819Y-81689999D02*
X143954819Y-81689999D01*
X143954819Y-81689999D02*
X144097676Y-81785237D01*
X144097676Y-81785237D02*
X144192914Y-81880475D01*
X144192914Y-81880475D02*
X144240533Y-81975713D01*
X138754819Y-83058094D02*
X137754819Y-83058094D01*
X137754819Y-83058094D02*
X137754819Y-82819999D01*
X137754819Y-82819999D02*
X137802438Y-82677142D01*
X137802438Y-82677142D02*
X137897676Y-82581904D01*
X137897676Y-82581904D02*
X137992914Y-82534285D01*
X137992914Y-82534285D02*
X138183390Y-82486666D01*
X138183390Y-82486666D02*
X138326247Y-82486666D01*
X138326247Y-82486666D02*
X138516723Y-82534285D01*
X138516723Y-82534285D02*
X138611961Y-82581904D01*
X138611961Y-82581904D02*
X138707200Y-82677142D01*
X138707200Y-82677142D02*
X138754819Y-82819999D01*
X138754819Y-82819999D02*
X138754819Y-83058094D01*
X137754819Y-82153332D02*
X137754819Y-81486666D01*
X137754819Y-81486666D02*
X138754819Y-81915237D01*
D11*
%TO.C,Y1*%
X154665000Y-110775000D02*
X148415000Y-110775000D01*
X154665000Y-115825000D02*
X148415000Y-115825000D01*
X148415000Y-115825000D02*
G75*
G02*
X148415000Y-110775000I0J2525000D01*
G01*
X154665000Y-110775000D02*
G75*
G02*
X154665000Y-115825000I0J-2525000D01*
G01*
%TO.C,R7*%
X150330000Y-89020000D02*
X150660000Y-89020000D01*
X150330000Y-95560000D02*
X150330000Y-89020000D01*
X150660000Y-95560000D02*
X150330000Y-95560000D01*
X152740000Y-95560000D02*
X153070000Y-95560000D01*
X153070000Y-89020000D02*
X152740000Y-89020000D01*
X153070000Y-95560000D02*
X153070000Y-89020000D01*
%TO.C,SW1*%
X117040000Y-102050000D02*
X117040000Y-106550000D01*
X119540000Y-107800000D02*
X121040000Y-107800000D01*
X121040000Y-100800000D02*
X119540000Y-100800000D01*
X123540000Y-106550000D02*
X123540000Y-102050000D01*
%TO.C,C4*%
X116830000Y-120666000D02*
X116830000Y-119280000D01*
X116830000Y-124520000D02*
X116830000Y-123134000D01*
X124570000Y-119280000D02*
X116830000Y-119280000D01*
X124570000Y-120666000D02*
X124570000Y-119280000D01*
X124570000Y-124520000D02*
X116830000Y-124520000D01*
X124570000Y-124520000D02*
X124570000Y-123134000D01*
%TO.C,D2*%
X167090000Y-124020000D02*
X167090000Y-123864000D01*
X167090000Y-126336000D02*
X167090000Y-126180000D01*
X163858603Y-124019939D02*
G75*
G02*
X167090000Y-123864484I1671397J-1080061D01*
G01*
X164489090Y-124019951D02*
G75*
G02*
X166570961Y-124020000I1040910J-1080049D01*
G01*
X166570961Y-126180000D02*
G75*
G02*
X164489090Y-126180049I-1040961J1080000D01*
G01*
X167090000Y-126335516D02*
G75*
G02*
X163858603Y-126180061I-1560000J1235516D01*
G01*
%TO.C,J4*%
X170000000Y-120007500D02*
X170000000Y-121057500D01*
X170200000Y-111657500D02*
X172100000Y-111657500D01*
X170200000Y-114357500D02*
X170200000Y-111657500D01*
X170200000Y-120857500D02*
X170200000Y-118257500D01*
X171050000Y-121057500D02*
X170000000Y-121057500D01*
X176100000Y-111657500D02*
X184900000Y-111657500D01*
X184900000Y-111657500D02*
X184900000Y-120857500D01*
X184900000Y-120857500D02*
X170200000Y-120857500D01*
%TO.C,R6*%
X155230000Y-89020000D02*
X155560000Y-89020000D01*
X155230000Y-95560000D02*
X155230000Y-89020000D01*
X155560000Y-95560000D02*
X155230000Y-95560000D01*
X157640000Y-95560000D02*
X157970000Y-95560000D01*
X157970000Y-89020000D02*
X157640000Y-89020000D01*
X157970000Y-95560000D02*
X157970000Y-89020000D01*
%TO.C,J2*%
X140930000Y-129970000D02*
X142260000Y-129970000D01*
X140930000Y-131300000D02*
X140930000Y-129970000D01*
X143530000Y-129970000D02*
X161370000Y-129970000D01*
X143530000Y-132630000D02*
X143530000Y-129970000D01*
X143530000Y-132630000D02*
X161370000Y-132630000D01*
X161370000Y-132630000D02*
X161370000Y-129970000D01*
%TO.C,U1*%
X128350000Y-101160000D02*
X128350000Y-102810000D01*
X128350000Y-104810000D02*
X128350000Y-106460000D01*
X128350000Y-106460000D02*
X164030000Y-106460000D01*
X164030000Y-101160000D02*
X128350000Y-101160000D01*
X164030000Y-106460000D02*
X164030000Y-101160000D01*
X128350000Y-102810000D02*
G75*
G02*
X128350000Y-104810000I0J-1000000D01*
G01*
%TO.C,D6*%
X152120000Y-82060000D02*
X151964000Y-82060000D01*
X154436000Y-82060000D02*
X154280000Y-82060000D01*
X152119939Y-85291397D02*
G75*
G02*
X151964484Y-82060000I1080061J1671397D01*
G01*
X152119951Y-84660910D02*
G75*
G02*
X152120000Y-82579039I1080049J1040910D01*
G01*
X154280000Y-82579039D02*
G75*
G02*
X154280049Y-84660910I-1080000J-1040961D01*
G01*
X154435516Y-82060000D02*
G75*
G02*
X154280061Y-85291397I-1235516J-1560000D01*
G01*
%TO.C,C1*%
X147280000Y-118580000D02*
X147280000Y-126320000D01*
X148666000Y-118580000D02*
X147280000Y-118580000D01*
X148666000Y-126320000D02*
X147280000Y-126320000D01*
X152520000Y-118580000D02*
X151134000Y-118580000D01*
X152520000Y-118580000D02*
X152520000Y-126320000D01*
X152520000Y-126320000D02*
X151134000Y-126320000D01*
%TO.C,R1*%
X145530000Y-89020000D02*
X145860000Y-89020000D01*
X145530000Y-95560000D02*
X145530000Y-89020000D01*
X145860000Y-95560000D02*
X145530000Y-95560000D01*
X147940000Y-95560000D02*
X148270000Y-95560000D01*
X148270000Y-89020000D02*
X147940000Y-89020000D01*
X148270000Y-95560000D02*
X148270000Y-89020000D01*
%TO.C,D3*%
X171120000Y-81960000D02*
X170964000Y-81960000D01*
X173436000Y-81960000D02*
X173280000Y-81960000D01*
X171119939Y-85191397D02*
G75*
G02*
X170964484Y-81960000I1080061J1671397D01*
G01*
X171119951Y-84560910D02*
G75*
G02*
X171120000Y-82479039I1080049J1040910D01*
G01*
X173280000Y-82479039D02*
G75*
G02*
X173280049Y-84560910I-1080000J-1040961D01*
G01*
X173435516Y-81960000D02*
G75*
G02*
X173280061Y-85191397I-1235516J-1560000D01*
G01*
%TO.C,R5*%
X160030000Y-89020000D02*
X160360000Y-89020000D01*
X160030000Y-95560000D02*
X160030000Y-89020000D01*
X160360000Y-95560000D02*
X160030000Y-95560000D01*
X162440000Y-95560000D02*
X162770000Y-95560000D01*
X162770000Y-89020000D02*
X162440000Y-89020000D01*
X162770000Y-95560000D02*
X162770000Y-89020000D01*
%TO.C,D5*%
X158520000Y-82030000D02*
X158364000Y-82030000D01*
X160836000Y-82030000D02*
X160680000Y-82030000D01*
X158519939Y-85261397D02*
G75*
G02*
X158364484Y-82030000I1080061J1671397D01*
G01*
X158519951Y-84630910D02*
G75*
G02*
X158520000Y-82549039I1080049J1040910D01*
G01*
X160680000Y-82549039D02*
G75*
G02*
X160680049Y-84630910I-1080000J-1040961D01*
G01*
X160835516Y-82030000D02*
G75*
G02*
X160680061Y-85261397I-1235516J-1560000D01*
G01*
%TO.C,D4*%
X164720000Y-82090000D02*
X164564000Y-82090000D01*
X167036000Y-82090000D02*
X166880000Y-82090000D01*
X164719939Y-85321397D02*
G75*
G02*
X164564484Y-82090000I1080061J1671397D01*
G01*
X164719951Y-84690910D02*
G75*
G02*
X164720000Y-82609039I1080049J1040910D01*
G01*
X166880000Y-82609039D02*
G75*
G02*
X166880049Y-84690910I-1080000J-1040961D01*
G01*
X167035516Y-82090000D02*
G75*
G02*
X166880061Y-85321397I-1235516J-1560000D01*
G01*
%TO.C,J3*%
X122090000Y-77690000D02*
X134810000Y-77690000D01*
X122090000Y-78910000D02*
X123310000Y-78910000D01*
X122090000Y-86110000D02*
X122090000Y-77690000D01*
X123310000Y-78910000D02*
X123310000Y-83910000D01*
X123310000Y-82910000D02*
X133590000Y-82910000D01*
X123310000Y-83910000D02*
X122090000Y-83910000D01*
X123310000Y-83910000D02*
X123310000Y-86110000D01*
X123310000Y-86110000D02*
X122090000Y-86110000D01*
X124380000Y-79490000D02*
X124700000Y-79410000D01*
X124380000Y-82910000D02*
X124380000Y-79490000D01*
X124400000Y-86600000D02*
X125000000Y-86600000D01*
X124700000Y-79410000D02*
X125020000Y-79490000D01*
X124700000Y-82910000D02*
X124380000Y-82910000D01*
X124700000Y-86000000D02*
X124400000Y-86600000D01*
X125000000Y-86600000D02*
X124700000Y-86000000D01*
X125020000Y-79490000D02*
X125020000Y-82910000D01*
X125020000Y-82910000D02*
X124700000Y-82910000D01*
X125870000Y-83910000D02*
X126030000Y-83910000D01*
X126880000Y-79490000D02*
X127200000Y-79410000D01*
X126880000Y-82910000D02*
X126880000Y-79490000D01*
X127200000Y-79410000D02*
X127520000Y-79490000D01*
X127200000Y-82910000D02*
X126880000Y-82910000D01*
X127520000Y-79490000D02*
X127520000Y-82910000D01*
X127520000Y-82910000D02*
X127200000Y-82910000D01*
X128370000Y-83910000D02*
X128530000Y-83910000D01*
X129380000Y-79490000D02*
X129700000Y-79410000D01*
X129380000Y-82910000D02*
X129380000Y-79490000D01*
X129700000Y-79410000D02*
X130020000Y-79490000D01*
X129700000Y-82910000D02*
X129380000Y-82910000D01*
X130020000Y-79490000D02*
X130020000Y-82910000D01*
X130020000Y-82910000D02*
X129700000Y-82910000D01*
X130870000Y-83910000D02*
X131030000Y-83910000D01*
X131880000Y-79490000D02*
X132200000Y-79410000D01*
X131880000Y-82910000D02*
X131880000Y-79490000D01*
X132200000Y-79410000D02*
X132520000Y-79490000D01*
X132200000Y-82910000D02*
X131880000Y-82910000D01*
X132520000Y-79490000D02*
X132520000Y-82910000D01*
X132520000Y-82910000D02*
X132200000Y-82910000D01*
X133590000Y-78910000D02*
X133590000Y-83910000D01*
X133590000Y-83910000D02*
X134810000Y-83910000D01*
X133590000Y-86110000D02*
X133590000Y-83910000D01*
X134810000Y-77690000D02*
X134810000Y-86110000D01*
X134810000Y-78910000D02*
X133590000Y-78910000D01*
X134810000Y-86110000D02*
X133590000Y-86110000D01*
%TO.C,R8*%
X139030000Y-89020000D02*
X139360000Y-89020000D01*
X139030000Y-95560000D02*
X139030000Y-89020000D01*
X139360000Y-95560000D02*
X139030000Y-95560000D01*
X141440000Y-95560000D02*
X141770000Y-95560000D01*
X141770000Y-89020000D02*
X141440000Y-89020000D01*
X141770000Y-95560000D02*
X141770000Y-89020000D01*
%TO.C,C3*%
X171580000Y-93066000D02*
X171580000Y-91680000D01*
X171580000Y-96920000D02*
X171580000Y-95534000D01*
X179320000Y-91680000D02*
X171580000Y-91680000D01*
X179320000Y-93066000D02*
X179320000Y-91680000D01*
X179320000Y-96920000D02*
X171580000Y-96920000D01*
X179320000Y-96920000D02*
X179320000Y-95534000D01*
%TO.C,Q1*%
X170250000Y-105973000D02*
X170250000Y-101032000D01*
X171857000Y-103213000D02*
X170250000Y-103213000D01*
X173649000Y-105973000D02*
X173649000Y-103955000D01*
X174397000Y-103213000D02*
X174062000Y-103213000D01*
X176937000Y-103213000D02*
X176602000Y-103213000D01*
X177350000Y-105973000D02*
X177350000Y-103955000D01*
X180750000Y-101032000D02*
X170250000Y-101032000D01*
X180750000Y-103213000D02*
X179143000Y-103213000D01*
X180750000Y-105973000D02*
X170250000Y-105973000D01*
X180750000Y-105973000D02*
X180750000Y-101032000D01*
%TO.C,J1*%
X121170000Y-128290000D02*
X122500000Y-128290000D01*
X121170000Y-129400000D02*
X121170000Y-128290000D01*
X121170000Y-130860000D02*
X136530000Y-130860000D01*
X121170000Y-139490000D02*
X121170000Y-130860000D01*
X121170000Y-139490000D02*
X136530000Y-139490000D01*
X121290000Y-139490000D02*
X121290000Y-130860000D01*
X121408095Y-139490000D02*
X121408095Y-130860000D01*
X121526190Y-139490000D02*
X121526190Y-130860000D01*
X121644285Y-139490000D02*
X121644285Y-130860000D01*
X121762380Y-139490000D02*
X121762380Y-130860000D01*
X121880475Y-139490000D02*
X121880475Y-130860000D01*
X121998570Y-139490000D02*
X121998570Y-130860000D01*
X122116665Y-139490000D02*
X122116665Y-130860000D01*
X122140000Y-130860000D02*
X122140000Y-130510000D01*
X122234760Y-139490000D02*
X122234760Y-130860000D01*
X122352855Y-139490000D02*
X122352855Y-130860000D01*
X122470950Y-139490000D02*
X122470950Y-130860000D01*
X122589045Y-139490000D02*
X122589045Y-130860000D01*
X122707140Y-139490000D02*
X122707140Y-130860000D01*
X122825235Y-139490000D02*
X122825235Y-130860000D01*
X122860000Y-130860000D02*
X122860000Y-130510000D01*
X122943330Y-139490000D02*
X122943330Y-130860000D01*
X123061425Y-139490000D02*
X123061425Y-130860000D01*
X123179520Y-139490000D02*
X123179520Y-130860000D01*
X123297615Y-139490000D02*
X123297615Y-130860000D01*
X123415710Y-139490000D02*
X123415710Y-130860000D01*
X123533805Y-139490000D02*
X123533805Y-130860000D01*
X123651900Y-139490000D02*
X123651900Y-130860000D01*
X123770000Y-139490000D02*
X123770000Y-130860000D01*
X124680000Y-130860000D02*
X124680000Y-130450000D01*
X125400000Y-130860000D02*
X125400000Y-130450000D01*
X126310000Y-139490000D02*
X126310000Y-130860000D01*
X127220000Y-130860000D02*
X127220000Y-130450000D01*
X127940000Y-130860000D02*
X127940000Y-130450000D01*
X128850000Y-139490000D02*
X128850000Y-130860000D01*
X129760000Y-130860000D02*
X129760000Y-130450000D01*
X130480000Y-130860000D02*
X130480000Y-130450000D01*
X131390000Y-139490000D02*
X131390000Y-130860000D01*
X132300000Y-130860000D02*
X132300000Y-130450000D01*
X133020000Y-130860000D02*
X133020000Y-130450000D01*
X133930000Y-139490000D02*
X133930000Y-130860000D01*
X134840000Y-130860000D02*
X134840000Y-130450000D01*
X135560000Y-130860000D02*
X135560000Y-130450000D01*
X136530000Y-139490000D02*
X136530000Y-130860000D01*
%TO.C,R3*%
X163130000Y-112920000D02*
X163130000Y-119460000D01*
X163130000Y-119460000D02*
X163460000Y-119460000D01*
X163460000Y-112920000D02*
X163130000Y-112920000D01*
X165540000Y-112920000D02*
X165870000Y-112920000D01*
X165870000Y-112920000D02*
X165870000Y-119460000D01*
X165870000Y-119460000D02*
X165540000Y-119460000D01*
%TO.C,C2*%
X153380000Y-118530000D02*
X153380000Y-126270000D01*
X154766000Y-118530000D02*
X153380000Y-118530000D01*
X154766000Y-126270000D02*
X153380000Y-126270000D01*
X158620000Y-118530000D02*
X157234000Y-118530000D01*
X158620000Y-118530000D02*
X158620000Y-126270000D01*
X158620000Y-126270000D02*
X157234000Y-126270000D01*
%TO.C,R2*%
X117220000Y-111130000D02*
X123760000Y-111130000D01*
X117220000Y-111460000D02*
X117220000Y-111130000D01*
X117220000Y-113540000D02*
X117220000Y-113870000D01*
X117220000Y-113870000D02*
X123760000Y-113870000D01*
X123760000Y-111130000D02*
X123760000Y-111460000D01*
X123760000Y-113870000D02*
X123760000Y-113540000D01*
%TO.C,R4*%
X164930000Y-88920000D02*
X165260000Y-88920000D01*
X164930000Y-95460000D02*
X164930000Y-88920000D01*
X165260000Y-95460000D02*
X164930000Y-95460000D01*
X167340000Y-95460000D02*
X167670000Y-95460000D01*
X167670000Y-88920000D02*
X167340000Y-88920000D01*
X167670000Y-95460000D02*
X167670000Y-88920000D01*
%TO.C,D1*%
X146420000Y-82030000D02*
X146264000Y-82030000D01*
X148736000Y-82030000D02*
X148580000Y-82030000D01*
X146419939Y-85261397D02*
G75*
G02*
X146264484Y-82030000I1080061J1671397D01*
G01*
X146419951Y-84630910D02*
G75*
G02*
X146420000Y-82549039I1080049J1040910D01*
G01*
X148580000Y-82549039D02*
G75*
G02*
X148580049Y-84630910I-1080000J-1040961D01*
G01*
X148735516Y-82030000D02*
G75*
G02*
X148580061Y-85261397I-1235516J-1560000D01*
G01*
%TO.C,D7*%
X140220000Y-82160000D02*
X140064000Y-82160000D01*
X142536000Y-82160000D02*
X142380000Y-82160000D01*
X140219939Y-85391397D02*
G75*
G02*
X140064484Y-82160000I1080061J1671397D01*
G01*
X140219951Y-84760910D02*
G75*
G02*
X140220000Y-82679039I1080049J1040910D01*
G01*
X142380000Y-82679039D02*
G75*
G02*
X142380049Y-84760910I-1080000J-1040961D01*
G01*
X142535516Y-82160000D02*
G75*
G02*
X142380061Y-85391397I-1235516J-1560000D01*
G01*
%TD*%
M02*
