%TF.GenerationSoftware,KiCad,Pcbnew,9.0.1*%
%TF.CreationDate,2025-06-17T17:02:24+01:00*%
%TF.ProjectId,Test_22,54657374-5f32-4322-9e6b-696361645f70,rev?*%
%TF.SameCoordinates,Original*%
%TF.FileFunction,Soldermask,Bot*%
%TF.FilePolarity,Negative*%
%FSLAX46Y46*%
G04 Gerber Fmt 4.6, Leading zero omitted, Abs format (unit mm)*
G04 Created by KiCad (PCBNEW 9.0.1) date 2025-06-17 17:02:24*
%MOMM*%
%LPD*%
G01*
G04 APERTURE LIST*
G04 Aperture macros list*
%AMRoundRect*
0 Rectangle with rounded corners*
0 $1 Rounding radius*
0 $2 $3 $4 $5 $6 $7 $8 $9 X,Y pos of 4 corners*
0 Add a 4 corners polygon primitive as box body*
4,1,4,$2,$3,$4,$5,$6,$7,$8,$9,$2,$3,0*
0 Add four circle primitives for the rounded corners*
1,1,$1+$1,$2,$3*
1,1,$1+$1,$4,$5*
1,1,$1+$1,$6,$7*
1,1,$1+$1,$8,$9*
0 Add four rect primitives between the rounded corners*
20,1,$1+$1,$2,$3,$4,$5,0*
20,1,$1+$1,$4,$5,$6,$7,0*
20,1,$1+$1,$6,$7,$8,$9,0*
20,1,$1+$1,$8,$9,$2,$3,0*%
G04 Aperture macros list end*
%ADD10C,1.500000*%
%ADD11C,1.600000*%
%ADD12O,1.600000X1.600000*%
%ADD13C,2.000000*%
%ADD14R,1.800000X1.800000*%
%ADD15C,1.800000*%
%ADD16R,3.500000X3.500000*%
%ADD17RoundRect,0.750000X0.750000X1.000000X-0.750000X1.000000X-0.750000X-1.000000X0.750000X-1.000000X0*%
%ADD18RoundRect,0.875000X0.875000X0.875000X-0.875000X0.875000X-0.875000X-0.875000X0.875000X-0.875000X0*%
%ADD19R,1.700000X1.700000*%
%ADD20C,1.700000*%
%ADD21RoundRect,0.250000X0.550000X-0.550000X0.550000X0.550000X-0.550000X0.550000X-0.550000X-0.550000X0*%
%ADD22RoundRect,0.250000X-0.600000X-0.725000X0.600000X-0.725000X0.600000X0.725000X-0.600000X0.725000X0*%
%ADD23O,1.700000X1.950000*%
%ADD24R,1.905000X2.000000*%
%ADD25O,1.905000X2.000000*%
G04 APERTURE END LIST*
D10*
%TO.C,Y1*%
X153980000Y-113300000D03*
X149100000Y-113300000D03*
%TD*%
D11*
%TO.C,R7*%
X151700000Y-96100000D03*
D12*
X151700000Y-88480000D03*
%TD*%
D13*
%TO.C,SW1*%
X118040000Y-107550000D03*
X118040000Y-101050000D03*
X122540000Y-107550000D03*
X122540000Y-101050000D03*
%TD*%
%TO.C,C4*%
X124450000Y-121900000D03*
X116950000Y-121900000D03*
%TD*%
D14*
%TO.C,D2*%
X166800000Y-125100000D03*
D15*
X164260000Y-125100000D03*
%TD*%
D16*
%TO.C,J4*%
X171100000Y-116257500D03*
D17*
X177100000Y-116257500D03*
D18*
X174100000Y-111557500D03*
%TD*%
D11*
%TO.C,R6*%
X156600000Y-96100000D03*
D12*
X156600000Y-88480000D03*
%TD*%
D19*
%TO.C,J2*%
X142260000Y-131300000D03*
D20*
X144800000Y-131300000D03*
X147340000Y-131300000D03*
X149880000Y-131300000D03*
X152420000Y-131300000D03*
X154960000Y-131300000D03*
X157500000Y-131300000D03*
X160040000Y-131300000D03*
%TD*%
D21*
%TO.C,U1*%
X129680000Y-107620000D03*
D11*
X132220000Y-107620000D03*
X134760000Y-107620000D03*
X137300000Y-107620000D03*
X139840000Y-107620000D03*
X142380000Y-107620000D03*
X144920000Y-107620000D03*
X147460000Y-107620000D03*
X150000000Y-107620000D03*
X152540000Y-107620000D03*
X155080000Y-107620000D03*
X157620000Y-107620000D03*
X160160000Y-107620000D03*
X162700000Y-107620000D03*
X162700000Y-100000000D03*
X160160000Y-100000000D03*
X157620000Y-100000000D03*
X155080000Y-100000000D03*
X152540000Y-100000000D03*
X150000000Y-100000000D03*
X147460000Y-100000000D03*
X144920000Y-100000000D03*
X142380000Y-100000000D03*
X139840000Y-100000000D03*
X137300000Y-100000000D03*
X134760000Y-100000000D03*
X132220000Y-100000000D03*
X129680000Y-100000000D03*
%TD*%
D14*
%TO.C,D6*%
X153200000Y-82350000D03*
D15*
X153200000Y-84890000D03*
%TD*%
D13*
%TO.C,C1*%
X149900000Y-118700000D03*
X149900000Y-126200000D03*
%TD*%
D11*
%TO.C,R1*%
X146900000Y-96100000D03*
D12*
X146900000Y-88480000D03*
%TD*%
D14*
%TO.C,D3*%
X172200000Y-82250000D03*
D15*
X172200000Y-84790000D03*
%TD*%
D11*
%TO.C,R5*%
X161400000Y-96100000D03*
D12*
X161400000Y-88480000D03*
%TD*%
D14*
%TO.C,D5*%
X159600000Y-82320000D03*
D15*
X159600000Y-84860000D03*
%TD*%
D14*
%TO.C,D4*%
X165800000Y-82380000D03*
D15*
X165800000Y-84920000D03*
%TD*%
D22*
%TO.C,J3*%
X124700000Y-84500000D03*
D23*
X127200000Y-84500000D03*
X129700000Y-84500000D03*
X132200000Y-84500000D03*
%TD*%
D11*
%TO.C,R8*%
X140400000Y-96100000D03*
D12*
X140400000Y-88480000D03*
%TD*%
D13*
%TO.C,C3*%
X179200000Y-94300000D03*
X171700000Y-94300000D03*
%TD*%
D24*
%TO.C,Q1*%
X178040000Y-102805000D03*
D25*
X175500000Y-102805000D03*
X172960000Y-102805000D03*
%TD*%
D19*
%TO.C,J1*%
X122500000Y-129400000D03*
D20*
X125040000Y-129400000D03*
X127580000Y-129400000D03*
X130120000Y-129400000D03*
X132660000Y-129400000D03*
X135200000Y-129400000D03*
%TD*%
D11*
%TO.C,R3*%
X164500000Y-112380000D03*
D12*
X164500000Y-120000000D03*
%TD*%
D13*
%TO.C,C2*%
X156000000Y-118650000D03*
X156000000Y-126150000D03*
%TD*%
D11*
%TO.C,R2*%
X116680000Y-112500000D03*
D12*
X124300000Y-112500000D03*
%TD*%
D11*
%TO.C,R4*%
X166300000Y-96000000D03*
D12*
X166300000Y-88380000D03*
%TD*%
D14*
%TO.C,D1*%
X147500000Y-82320000D03*
D15*
X147500000Y-84860000D03*
%TD*%
D14*
%TO.C,D7*%
X141300000Y-82450000D03*
D15*
X141300000Y-84990000D03*
%TD*%
M02*
