%TF.GenerationSoftware,KiCad,Pcbnew,9.0.1*%
%TF.CreationDate,2025-06-17T17:02:24+01:00*%
%TF.ProjectId,Test_22,54657374-5f32-4322-9e6b-696361645f70,rev?*%
%TF.SameCoordinates,Original*%
%TF.FileFunction,Copper,L2,Bot*%
%TF.FilePolarity,Positive*%
%FSLAX46Y46*%
G04 Gerber Fmt 4.6, Leading zero omitted, Abs format (unit mm)*
G04 Created by KiCad (PCBNEW 9.0.1) date 2025-06-17 17:02:24*
%MOMM*%
%LPD*%
G01*
G04 APERTURE LIST*
G04 Aperture macros list*
%AMRoundRect*
0 Rectangle with rounded corners*
0 $1 Rounding radius*
0 $2 $3 $4 $5 $6 $7 $8 $9 X,Y pos of 4 corners*
0 Add a 4 corners polygon primitive as box body*
4,1,4,$2,$3,$4,$5,$6,$7,$8,$9,$2,$3,0*
0 Add four circle primitives for the rounded corners*
1,1,$1+$1,$2,$3*
1,1,$1+$1,$4,$5*
1,1,$1+$1,$6,$7*
1,1,$1+$1,$8,$9*
0 Add four rect primitives between the rounded corners*
20,1,$1+$1,$2,$3,$4,$5,0*
20,1,$1+$1,$4,$5,$6,$7,0*
20,1,$1+$1,$6,$7,$8,$9,0*
20,1,$1+$1,$8,$9,$2,$3,0*%
G04 Aperture macros list end*
%ADD10C,0.300000*%
%TA.AperFunction,NonConductor*%
%ADD11C,0.300000*%
%TD*%
%TA.AperFunction,ComponentPad*%
%ADD12C,1.500000*%
%TD*%
%TA.AperFunction,ComponentPad*%
%ADD13C,1.600000*%
%TD*%
%TA.AperFunction,ComponentPad*%
%ADD14O,1.600000X1.600000*%
%TD*%
%TA.AperFunction,ComponentPad*%
%ADD15C,2.000000*%
%TD*%
%TA.AperFunction,ComponentPad*%
%ADD16R,1.800000X1.800000*%
%TD*%
%TA.AperFunction,ComponentPad*%
%ADD17C,1.800000*%
%TD*%
%TA.AperFunction,ComponentPad*%
%ADD18R,3.500000X3.500000*%
%TD*%
%TA.AperFunction,ComponentPad*%
%ADD19RoundRect,0.750000X0.750000X1.000000X-0.750000X1.000000X-0.750000X-1.000000X0.750000X-1.000000X0*%
%TD*%
%TA.AperFunction,ComponentPad*%
%ADD20RoundRect,0.875000X0.875000X0.875000X-0.875000X0.875000X-0.875000X-0.875000X0.875000X-0.875000X0*%
%TD*%
%TA.AperFunction,ComponentPad*%
%ADD21R,1.700000X1.700000*%
%TD*%
%TA.AperFunction,ComponentPad*%
%ADD22C,1.700000*%
%TD*%
%TA.AperFunction,ComponentPad*%
%ADD23RoundRect,0.250000X0.550000X-0.550000X0.550000X0.550000X-0.550000X0.550000X-0.550000X-0.550000X0*%
%TD*%
%TA.AperFunction,ComponentPad*%
%ADD24RoundRect,0.250000X-0.600000X-0.725000X0.600000X-0.725000X0.600000X0.725000X-0.600000X0.725000X0*%
%TD*%
%TA.AperFunction,ComponentPad*%
%ADD25O,1.700000X1.950000*%
%TD*%
%TA.AperFunction,ComponentPad*%
%ADD26R,1.905000X2.000000*%
%TD*%
%TA.AperFunction,ComponentPad*%
%ADD27O,1.905000X2.000000*%
%TD*%
%TA.AperFunction,Conductor*%
%ADD28C,0.508000*%
%TD*%
%TA.AperFunction,Conductor*%
%ADD29C,1.016000*%
%TD*%
%TA.AperFunction,Conductor*%
%ADD30C,0.200000*%
%TD*%
G04 APERTURE END LIST*
D10*
D11*
X115599171Y-94859774D02*
X115599171Y-94002632D01*
X114099171Y-94431203D02*
X115599171Y-94431203D01*
X114884885Y-93502632D02*
X114884885Y-93002632D01*
X114099171Y-92788346D02*
X114099171Y-93502632D01*
X114099171Y-93502632D02*
X115599171Y-93502632D01*
X115599171Y-93502632D02*
X115599171Y-92788346D01*
X114099171Y-92145489D02*
X115599171Y-92145489D01*
X114099171Y-91288346D02*
X114956314Y-91931203D01*
X115599171Y-91288346D02*
X114742028Y-92145489D01*
X114884885Y-90145489D02*
X114813457Y-89931203D01*
X114813457Y-89931203D02*
X114742028Y-89859774D01*
X114742028Y-89859774D02*
X114599171Y-89788346D01*
X114599171Y-89788346D02*
X114384885Y-89788346D01*
X114384885Y-89788346D02*
X114242028Y-89859774D01*
X114242028Y-89859774D02*
X114170600Y-89931203D01*
X114170600Y-89931203D02*
X114099171Y-90074060D01*
X114099171Y-90074060D02*
X114099171Y-90645489D01*
X114099171Y-90645489D02*
X115599171Y-90645489D01*
X115599171Y-90645489D02*
X115599171Y-90145489D01*
X115599171Y-90145489D02*
X115527742Y-90002632D01*
X115527742Y-90002632D02*
X115456314Y-89931203D01*
X115456314Y-89931203D02*
X115313457Y-89859774D01*
X115313457Y-89859774D02*
X115170600Y-89859774D01*
X115170600Y-89859774D02*
X115027742Y-89931203D01*
X115027742Y-89931203D02*
X114956314Y-90002632D01*
X114956314Y-90002632D02*
X114884885Y-90145489D01*
X114884885Y-90145489D02*
X114884885Y-90645489D01*
X115599171Y-88859774D02*
X115599171Y-88574060D01*
X115599171Y-88574060D02*
X115527742Y-88431203D01*
X115527742Y-88431203D02*
X115384885Y-88288346D01*
X115384885Y-88288346D02*
X115099171Y-88216917D01*
X115099171Y-88216917D02*
X114599171Y-88216917D01*
X114599171Y-88216917D02*
X114313457Y-88288346D01*
X114313457Y-88288346D02*
X114170600Y-88431203D01*
X114170600Y-88431203D02*
X114099171Y-88574060D01*
X114099171Y-88574060D02*
X114099171Y-88859774D01*
X114099171Y-88859774D02*
X114170600Y-89002632D01*
X114170600Y-89002632D02*
X114313457Y-89145489D01*
X114313457Y-89145489D02*
X114599171Y-89216917D01*
X114599171Y-89216917D02*
X115099171Y-89216917D01*
X115099171Y-89216917D02*
X115384885Y-89145489D01*
X115384885Y-89145489D02*
X115527742Y-89002632D01*
X115527742Y-89002632D02*
X115599171Y-88859774D01*
X115599171Y-87788345D02*
X115599171Y-86931203D01*
X114099171Y-87359774D02*
X115599171Y-87359774D01*
X114670600Y-86431203D02*
X114670600Y-85288346D01*
X115456314Y-84645488D02*
X115527742Y-84574060D01*
X115527742Y-84574060D02*
X115599171Y-84431203D01*
X115599171Y-84431203D02*
X115599171Y-84074060D01*
X115599171Y-84074060D02*
X115527742Y-83931203D01*
X115527742Y-83931203D02*
X115456314Y-83859774D01*
X115456314Y-83859774D02*
X115313457Y-83788345D01*
X115313457Y-83788345D02*
X115170600Y-83788345D01*
X115170600Y-83788345D02*
X114956314Y-83859774D01*
X114956314Y-83859774D02*
X114099171Y-84716917D01*
X114099171Y-84716917D02*
X114099171Y-83788345D01*
X115599171Y-82431203D02*
X115599171Y-83145489D01*
X115599171Y-83145489D02*
X114884885Y-83216917D01*
X114884885Y-83216917D02*
X114956314Y-83145489D01*
X114956314Y-83145489D02*
X115027742Y-83002632D01*
X115027742Y-83002632D02*
X115027742Y-82645489D01*
X115027742Y-82645489D02*
X114956314Y-82502632D01*
X114956314Y-82502632D02*
X114884885Y-82431203D01*
X114884885Y-82431203D02*
X114742028Y-82359774D01*
X114742028Y-82359774D02*
X114384885Y-82359774D01*
X114384885Y-82359774D02*
X114242028Y-82431203D01*
X114242028Y-82431203D02*
X114170600Y-82502632D01*
X114170600Y-82502632D02*
X114099171Y-82645489D01*
X114099171Y-82645489D02*
X114099171Y-83002632D01*
X114099171Y-83002632D02*
X114170600Y-83145489D01*
X114170600Y-83145489D02*
X114242028Y-83216917D01*
X114670600Y-81716918D02*
X114670600Y-80574061D01*
D12*
%TO.P,Y1,1,1*%
%TO.N,XTAL2*%
X153980000Y-113300000D03*
%TO.P,Y1,2,2*%
%TO.N,XTAL1*%
X149100000Y-113300000D03*
%TD*%
D13*
%TO.P,R7,1*%
%TO.N,FRONT*%
X151700000Y-96100000D03*
D14*
%TO.P,R7,2*%
%TO.N,Net-(D6-A)*%
X151700000Y-88480000D03*
%TD*%
D15*
%TO.P,SW1,1,1*%
%TO.N,V-*%
X118040000Y-107550000D03*
X118040000Y-101050000D03*
%TO.P,SW1,2,2*%
%TO.N,RST*%
X122540000Y-107550000D03*
X122540000Y-101050000D03*
%TD*%
%TO.P,C4,1*%
%TO.N,Net-(J1-Pin_1)*%
X124450000Y-121900000D03*
%TO.P,C4,2*%
%TO.N,RST*%
X116950000Y-121900000D03*
%TD*%
D16*
%TO.P,D2,1,K*%
%TO.N,V-*%
X166800000Y-125100000D03*
D17*
%TO.P,D2,2,A*%
%TO.N,Net-(D2-A)*%
X164260000Y-125100000D03*
%TD*%
D18*
%TO.P,J4,1*%
%TO.N,V+*%
X171100000Y-116257500D03*
D19*
%TO.P,J4,2*%
%TO.N,GND*%
X177100000Y-116257500D03*
D20*
%TO.P,J4,3*%
%TO.N,N/C*%
X174100000Y-111557500D03*
%TD*%
D13*
%TO.P,R6,1*%
%TO.N,RIGHT*%
X156600000Y-96100000D03*
D14*
%TO.P,R6,2*%
%TO.N,Net-(D5-A)*%
X156600000Y-88480000D03*
%TD*%
D21*
%TO.P,J2,1,Pin_1*%
%TO.N,V+*%
X142260000Y-131300000D03*
D22*
%TO.P,J2,2,Pin_2*%
%TO.N,V-*%
X144800000Y-131300000D03*
%TO.P,J2,3,Pin_3*%
%TO.N,D4*%
X147340000Y-131300000D03*
%TO.P,J2,4,Pin_4*%
%TO.N,D5*%
X149880000Y-131300000D03*
%TO.P,J2,5,Pin_5*%
%TO.N,D6*%
X152420000Y-131300000D03*
%TO.P,J2,6,Pin_6*%
%TO.N,D7*%
X154960000Y-131300000D03*
%TO.P,J2,7,Pin_7*%
%TO.N,RS*%
X157500000Y-131300000D03*
%TO.P,J2,8,Pin_8*%
%TO.N,E*%
X160040000Y-131300000D03*
%TD*%
D23*
%TO.P,U1,1,~{RESET}/PC6*%
%TO.N,RST*%
X129680000Y-107620000D03*
D13*
%TO.P,U1,2,PD0*%
%TO.N,Tx*%
X132220000Y-107620000D03*
%TO.P,U1,3,PD1*%
%TO.N,Rx*%
X134760000Y-107620000D03*
%TO.P,U1,4,PD2*%
%TO.N,D4*%
X137300000Y-107620000D03*
%TO.P,U1,5,PD3*%
%TO.N,D5*%
X139840000Y-107620000D03*
%TO.P,U1,6,PD4*%
%TO.N,D6*%
X142380000Y-107620000D03*
%TO.P,U1,7,VCC*%
%TO.N,V+*%
X144920000Y-107620000D03*
%TO.P,U1,8,GND*%
%TO.N,V-*%
X147460000Y-107620000D03*
%TO.P,U1,9,XTAL1/PB6*%
%TO.N,XTAL1*%
X150000000Y-107620000D03*
%TO.P,U1,10,XTAL2/PB7*%
%TO.N,XTAL2*%
X152540000Y-107620000D03*
%TO.P,U1,11,PD5*%
%TO.N,D7*%
X155080000Y-107620000D03*
%TO.P,U1,12,PD6*%
%TO.N,RS*%
X157620000Y-107620000D03*
%TO.P,U1,13,PD7*%
%TO.N,E*%
X160160000Y-107620000D03*
%TO.P,U1,14,PB0*%
%TO.N,UP*%
X162700000Y-107620000D03*
%TO.P,U1,15,PB1*%
%TO.N,DOWN*%
X162700000Y-100000000D03*
%TO.P,U1,16,PB2*%
%TO.N,LEFT*%
X160160000Y-100000000D03*
%TO.P,U1,17,PB3*%
%TO.N,RIGHT*%
X157620000Y-100000000D03*
%TO.P,U1,18,PB4*%
%TO.N,FRONT*%
X155080000Y-100000000D03*
%TO.P,U1,19,PB5*%
%TO.N,Lbuilt*%
X152540000Y-100000000D03*
%TO.P,U1,20,AVCC*%
%TO.N,V+*%
X150000000Y-100000000D03*
%TO.P,U1,21,AREF*%
X147460000Y-100000000D03*
%TO.P,U1,22,GND*%
%TO.N,V-*%
X144920000Y-100000000D03*
%TO.P,U1,23,PC0*%
%TO.N,BACK*%
X142380000Y-100000000D03*
%TO.P,U1,24,PC1*%
%TO.N,unconnected-(U1-PC1-Pad24)*%
X139840000Y-100000000D03*
%TO.P,U1,25,PC2*%
%TO.N,unconnected-(U1-PC2-Pad25)*%
X137300000Y-100000000D03*
%TO.P,U1,26,PC3*%
%TO.N,unconnected-(U1-PC3-Pad26)*%
X134760000Y-100000000D03*
%TO.P,U1,27,PC4*%
%TO.N,SDA*%
X132220000Y-100000000D03*
%TO.P,U1,28,PC5*%
%TO.N,SCL*%
X129680000Y-100000000D03*
%TD*%
D16*
%TO.P,D6,1,K*%
%TO.N,V-*%
X153200000Y-82350000D03*
D17*
%TO.P,D6,2,A*%
%TO.N,Net-(D6-A)*%
X153200000Y-84890000D03*
%TD*%
D15*
%TO.P,C1,1*%
%TO.N,XTAL1*%
X149900000Y-118700000D03*
%TO.P,C1,2*%
%TO.N,V-*%
X149900000Y-126200000D03*
%TD*%
D13*
%TO.P,R1,1*%
%TO.N,Lbuilt*%
X146900000Y-96100000D03*
D14*
%TO.P,R1,2*%
%TO.N,Net-(D1-A)*%
X146900000Y-88480000D03*
%TD*%
D16*
%TO.P,D3,1,K*%
%TO.N,V-*%
X172200000Y-82250000D03*
D17*
%TO.P,D3,2,A*%
%TO.N,Net-(D3-A)*%
X172200000Y-84790000D03*
%TD*%
D13*
%TO.P,R5,1*%
%TO.N,LEFT*%
X161400000Y-96100000D03*
D14*
%TO.P,R5,2*%
%TO.N,Net-(D4-A)*%
X161400000Y-88480000D03*
%TD*%
D16*
%TO.P,D5,1,K*%
%TO.N,V-*%
X159600000Y-82320000D03*
D17*
%TO.P,D5,2,A*%
%TO.N,Net-(D5-A)*%
X159600000Y-84860000D03*
%TD*%
D16*
%TO.P,D4,1,K*%
%TO.N,V-*%
X165800000Y-82380000D03*
D17*
%TO.P,D4,2,A*%
%TO.N,Net-(D4-A)*%
X165800000Y-84920000D03*
%TD*%
D24*
%TO.P,J3,1,Pin_1*%
%TO.N,V+*%
X124700000Y-84500000D03*
D25*
%TO.P,J3,2,Pin_2*%
%TO.N,V-*%
X127200000Y-84500000D03*
%TO.P,J3,3,Pin_3*%
%TO.N,SCL*%
X129700000Y-84500000D03*
%TO.P,J3,4,Pin_4*%
%TO.N,SDA*%
X132200000Y-84500000D03*
%TD*%
D13*
%TO.P,R8,1*%
%TO.N,BACK*%
X140400000Y-96100000D03*
D14*
%TO.P,R8,2*%
%TO.N,Net-(D7-A)*%
X140400000Y-88480000D03*
%TD*%
D15*
%TO.P,C3,1*%
%TO.N,V+*%
X179200000Y-94300000D03*
%TO.P,C3,2*%
%TO.N,V-*%
X171700000Y-94300000D03*
%TD*%
D26*
%TO.P,Q1,1,D*%
%TO.N,GND*%
X178040000Y-102805000D03*
D27*
%TO.P,Q1,2,G*%
%TO.N,V+*%
X175500000Y-102805000D03*
%TO.P,Q1,3,S*%
%TO.N,V-*%
X172960000Y-102805000D03*
%TD*%
D21*
%TO.P,J1,1,Pin_1*%
%TO.N,Net-(J1-Pin_1)*%
X122500000Y-129400000D03*
D22*
%TO.P,J1,2,Pin_2*%
%TO.N,Rx*%
X125040000Y-129400000D03*
%TO.P,J1,3,Pin_3*%
%TO.N,Tx*%
X127580000Y-129400000D03*
%TO.P,J1,4,Pin_4*%
%TO.N,V+*%
X130120000Y-129400000D03*
%TO.P,J1,5,Pin_5*%
%TO.N,unconnected-(J1-Pin_5-Pad5)*%
X132660000Y-129400000D03*
%TO.P,J1,6,Pin_6*%
%TO.N,V-*%
X135200000Y-129400000D03*
%TD*%
D13*
%TO.P,R3,1*%
%TO.N,UP*%
X164500000Y-112380000D03*
D14*
%TO.P,R3,2*%
%TO.N,Net-(D2-A)*%
X164500000Y-120000000D03*
%TD*%
D15*
%TO.P,C2,1*%
%TO.N,XTAL2*%
X156000000Y-118650000D03*
%TO.P,C2,2*%
%TO.N,V-*%
X156000000Y-126150000D03*
%TD*%
D13*
%TO.P,R2,1*%
%TO.N,V+*%
X116680000Y-112500000D03*
D14*
%TO.P,R2,2*%
%TO.N,RST*%
X124300000Y-112500000D03*
%TD*%
D13*
%TO.P,R4,1*%
%TO.N,DOWN*%
X166300000Y-96000000D03*
D14*
%TO.P,R4,2*%
%TO.N,Net-(D3-A)*%
X166300000Y-88380000D03*
%TD*%
D16*
%TO.P,D1,1,K*%
%TO.N,V-*%
X147500000Y-82320000D03*
D17*
%TO.P,D1,2,A*%
%TO.N,Net-(D1-A)*%
X147500000Y-84860000D03*
%TD*%
D16*
%TO.P,D7,1,K*%
%TO.N,V-*%
X141300000Y-82450000D03*
D17*
%TO.P,D7,2,A*%
%TO.N,Net-(D7-A)*%
X141300000Y-84990000D03*
%TD*%
D28*
%TO.N,Net-(D7-A)*%
X140400000Y-85890000D02*
X141300000Y-84990000D01*
X140400000Y-88480000D02*
X140400000Y-85890000D01*
%TO.N,BACK*%
X142400000Y-99980000D02*
X142380000Y-100000000D01*
X142400000Y-98100000D02*
X142400000Y-99980000D01*
X140400000Y-96100000D02*
X142400000Y-98100000D01*
%TO.N,V+*%
X130120000Y-128080000D02*
X130120000Y-129400000D01*
X131800000Y-126400000D02*
X130120000Y-128080000D01*
X137360000Y-126400000D02*
X131800000Y-126400000D01*
X136045000Y-125085000D02*
X137360000Y-126400000D01*
X136045000Y-106455000D02*
X136045000Y-125085000D01*
X142260000Y-131300000D02*
X137360000Y-126400000D01*
X130120000Y-130980000D02*
X130120000Y-129400000D01*
X137000000Y-105500000D02*
X136045000Y-106455000D01*
X142800000Y-105500000D02*
X137000000Y-105500000D01*
X144920000Y-107620000D02*
X142800000Y-105500000D01*
%TO.N,XTAL2*%
X153980000Y-116680000D02*
X153980000Y-113300000D01*
X153980000Y-113080000D02*
X152540000Y-111640000D01*
X156000000Y-118650000D02*
X155950000Y-118650000D01*
X155950000Y-118650000D02*
X153980000Y-116680000D01*
X152540000Y-111640000D02*
X152540000Y-107620000D01*
X153980000Y-113300000D02*
X153980000Y-113080000D01*
%TO.N,V-*%
X127150000Y-84550000D02*
X127200000Y-84500000D01*
X118040000Y-107550000D02*
X118040000Y-101050000D01*
X144800000Y-131300000D02*
X144800000Y-132400000D01*
%TO.N,XTAL1*%
X148900000Y-113100000D02*
X148900000Y-108720000D01*
X148900000Y-108720000D02*
X150000000Y-107620000D01*
X150400000Y-114600000D02*
X149100000Y-113300000D01*
X150400000Y-118200000D02*
X150400000Y-114600000D01*
X149900000Y-118700000D02*
X150400000Y-118200000D01*
X149100000Y-113300000D02*
X148900000Y-113100000D01*
%TO.N,Net-(D1-A)*%
X146900000Y-85460000D02*
X147500000Y-84860000D01*
X146900000Y-88480000D02*
X146900000Y-85460000D01*
D29*
%TO.N,GND*%
X177100000Y-116257500D02*
X179600000Y-113757500D01*
X179600000Y-104365000D02*
X178040000Y-102805000D01*
X179600000Y-113757500D02*
X179600000Y-104365000D01*
D28*
%TO.N,Net-(D2-A)*%
X164260000Y-120240000D02*
X164500000Y-120000000D01*
X164260000Y-125100000D02*
X164260000Y-120240000D01*
%TO.N,Net-(D3-A)*%
X168610000Y-88380000D02*
X172200000Y-84790000D01*
X166300000Y-88380000D02*
X168610000Y-88380000D01*
%TO.N,Net-(D4-A)*%
X161400000Y-88480000D02*
X164960000Y-84920000D01*
X164960000Y-84920000D02*
X165800000Y-84920000D01*
%TO.N,Net-(D5-A)*%
X158840000Y-84860000D02*
X159600000Y-84860000D01*
X156600000Y-87100000D02*
X158840000Y-84860000D01*
X156600000Y-88480000D02*
X156600000Y-87100000D01*
%TO.N,Net-(D6-A)*%
X151700000Y-86390000D02*
X153200000Y-84890000D01*
X151700000Y-88480000D02*
X151700000Y-86390000D01*
%TO.N,Rx*%
X134760000Y-107620000D02*
X134760000Y-119680000D01*
X134760000Y-119680000D02*
X125040000Y-129400000D01*
%TO.N,RST*%
X125600000Y-107550000D02*
X129610000Y-107550000D01*
X122540000Y-107550000D02*
X125600000Y-107550000D01*
X116950000Y-121900000D02*
X116950000Y-116350000D01*
X124300000Y-112500000D02*
X124300000Y-108850000D01*
X129610000Y-107550000D02*
X129680000Y-107620000D01*
X116950000Y-116350000D02*
X120800000Y-112500000D01*
X124300000Y-108850000D02*
X125600000Y-107550000D01*
X122540000Y-101050000D02*
X122540000Y-107550000D01*
X120800000Y-112500000D02*
X124300000Y-112500000D01*
%TO.N,Tx*%
X132220000Y-107620000D02*
X132220000Y-113980000D01*
X129400000Y-116800000D02*
X121700000Y-116800000D01*
X120100000Y-118400000D02*
X120100000Y-131100000D01*
X121700000Y-116800000D02*
X120100000Y-118400000D01*
X132220000Y-113980000D02*
X129400000Y-116800000D01*
X121200000Y-132200000D02*
X124800000Y-132200000D01*
X127580000Y-129420000D02*
X127580000Y-129400000D01*
X120100000Y-131100000D02*
X121200000Y-132200000D01*
X124800000Y-132200000D02*
X127580000Y-129420000D01*
%TO.N,V+*%
X179200000Y-94300000D02*
X179200000Y-97182897D01*
X142260000Y-131300000D02*
X142260000Y-132660000D01*
X150000000Y-100000000D02*
X147460000Y-100000000D01*
X146200000Y-92600000D02*
X166800000Y-92600000D01*
X147460000Y-100000000D02*
X145000000Y-97540000D01*
X113800000Y-130800000D02*
X113800000Y-115380000D01*
X127300000Y-133800000D02*
X116800000Y-133800000D01*
X147460000Y-100000000D02*
X147460000Y-99560000D01*
X175500000Y-101300000D02*
X175500000Y-102805000D01*
D29*
X171100000Y-109400000D02*
X175500000Y-105000000D01*
D28*
X113800000Y-115380000D02*
X116680000Y-112500000D01*
X130120000Y-130980000D02*
X127300000Y-133800000D01*
X124700000Y-89500000D02*
X124700000Y-84500000D01*
X142260000Y-132660000D02*
X145700000Y-136100000D01*
X145000000Y-93800000D02*
X146200000Y-92600000D01*
X116800000Y-133800000D02*
X113800000Y-130800000D01*
X163400000Y-136100000D02*
X171100000Y-128400000D01*
X114600000Y-99600000D02*
X124700000Y-89500000D01*
X179200000Y-97182897D02*
X175500000Y-100882897D01*
X171100000Y-128400000D02*
X171100000Y-116257500D01*
D29*
X171100000Y-116257500D02*
X171100000Y-109400000D01*
X175500000Y-105000000D02*
X175500000Y-102805000D01*
D28*
X145700000Y-136100000D02*
X163400000Y-136100000D01*
X145000000Y-97540000D02*
X145000000Y-93800000D01*
X116680000Y-112500000D02*
X114600000Y-110420000D01*
X175500000Y-100882897D02*
X175500000Y-102805000D01*
X114600000Y-110420000D02*
X114600000Y-99600000D01*
X166800000Y-92600000D02*
X175500000Y-101300000D01*
%TO.N,D6*%
X142380000Y-122980000D02*
X142380000Y-107620000D01*
X149400000Y-128300000D02*
X147700000Y-128300000D01*
X147700000Y-128300000D02*
X142380000Y-122980000D01*
X152400000Y-131300000D02*
X149400000Y-128300000D01*
X152420000Y-131300000D02*
X152400000Y-131300000D01*
%TO.N,E*%
X162100000Y-109560000D02*
X160160000Y-107620000D01*
X162100000Y-129240000D02*
X162100000Y-109560000D01*
X160040000Y-131300000D02*
X162100000Y-129240000D01*
%TO.N,RS*%
X160500000Y-128300000D02*
X160500000Y-110500000D01*
X160500000Y-110500000D02*
X157620000Y-107620000D01*
X157500000Y-131300000D02*
X160500000Y-128300000D01*
%TO.N,D4*%
X147340000Y-131300000D02*
X145440000Y-129400000D01*
X137300000Y-122100000D02*
X137300000Y-107620000D01*
X147340000Y-131300000D02*
X147200000Y-131300000D01*
X145440000Y-129400000D02*
X144600000Y-129400000D01*
X144600000Y-129400000D02*
X137300000Y-122100000D01*
%TO.N,D7*%
X159100000Y-111640000D02*
X159100000Y-127160000D01*
X159100000Y-127160000D02*
X154960000Y-131300000D01*
X155080000Y-107620000D02*
X159100000Y-111640000D01*
%TO.N,D5*%
X149880000Y-131300000D02*
X149880000Y-130080000D01*
X149880000Y-130080000D02*
X149300000Y-129500000D01*
X147200000Y-129500000D02*
X139840000Y-122140000D01*
X139840000Y-122140000D02*
X139840000Y-107620000D01*
X149300000Y-129500000D02*
X147200000Y-129500000D01*
D30*
%TO.N,SCL*%
X129700000Y-99980000D02*
X129680000Y-100000000D01*
D28*
X129700000Y-84600000D02*
X129680000Y-84620000D01*
X129680000Y-84620000D02*
X129680000Y-100000000D01*
X129700000Y-84500000D02*
X129700000Y-84600000D01*
%TO.N,SDA*%
X132200000Y-84500000D02*
X132200000Y-99980000D01*
X132200000Y-99980000D02*
X132220000Y-100000000D01*
%TO.N,Lbuilt*%
X148640000Y-96100000D02*
X146900000Y-96100000D01*
X152540000Y-100000000D02*
X148640000Y-96100000D01*
%TO.N,UP*%
X164500000Y-109420000D02*
X162700000Y-107620000D01*
X164500000Y-112380000D02*
X164500000Y-109420000D01*
%TO.N,DOWN*%
X162700000Y-100000000D02*
X162700000Y-98300000D01*
X162700000Y-98300000D02*
X165000000Y-96000000D01*
X165000000Y-96000000D02*
X166300000Y-96000000D01*
%TO.N,LEFT*%
X160160000Y-97340000D02*
X161400000Y-96100000D01*
X160160000Y-100000000D02*
X160160000Y-97340000D01*
%TO.N,RIGHT*%
X157620000Y-100000000D02*
X157620000Y-97120000D01*
X157620000Y-97120000D02*
X156600000Y-96100000D01*
%TO.N,FRONT*%
X155080000Y-100000000D02*
X151700000Y-96620000D01*
X151700000Y-96620000D02*
X151700000Y-96100000D01*
%TO.N,Net-(J1-Pin_1)*%
X122500000Y-123850000D02*
X124450000Y-121900000D01*
X122500000Y-129400000D02*
X122500000Y-123850000D01*
%TD*%
%TA.AperFunction,Conductor*%
%TO.N,V-*%
G36*
X127450000Y-85952230D02*
G01*
X127516126Y-85941757D01*
X127516129Y-85941757D01*
X127718217Y-85876095D01*
X127907557Y-85779620D01*
X128079459Y-85654727D01*
X128079464Y-85654723D01*
X128229721Y-85504466D01*
X128349371Y-85339781D01*
X128404701Y-85297115D01*
X128474314Y-85291136D01*
X128536110Y-85323741D01*
X128550008Y-85339781D01*
X128669890Y-85504785D01*
X128669894Y-85504790D01*
X128669896Y-85504792D01*
X128820208Y-85655104D01*
X128874385Y-85694465D01*
X128917051Y-85749793D01*
X128925500Y-85794783D01*
X128925500Y-98877488D01*
X128905815Y-98944527D01*
X128874385Y-98977806D01*
X128832787Y-99008028D01*
X128832782Y-99008032D01*
X128688028Y-99152786D01*
X128567715Y-99318386D01*
X128474781Y-99500776D01*
X128411522Y-99695465D01*
X128379500Y-99897648D01*
X128379500Y-100102351D01*
X128411522Y-100304534D01*
X128474781Y-100499223D01*
X128531170Y-100609890D01*
X128567585Y-100681359D01*
X128567715Y-100681613D01*
X128688028Y-100847213D01*
X128832786Y-100991971D01*
X128953226Y-101079474D01*
X128998390Y-101112287D01*
X129090266Y-101159100D01*
X129180776Y-101205218D01*
X129180778Y-101205218D01*
X129180781Y-101205220D01*
X129243757Y-101225682D01*
X129375465Y-101268477D01*
X129476557Y-101284488D01*
X129577648Y-101300500D01*
X129577649Y-101300500D01*
X129782351Y-101300500D01*
X129782352Y-101300500D01*
X129984534Y-101268477D01*
X130179219Y-101205220D01*
X130361610Y-101112287D01*
X130454590Y-101044732D01*
X130527213Y-100991971D01*
X130527215Y-100991968D01*
X130527219Y-100991966D01*
X130671966Y-100847219D01*
X130671968Y-100847215D01*
X130671971Y-100847213D01*
X130792284Y-100681614D01*
X130792286Y-100681611D01*
X130792287Y-100681610D01*
X130839516Y-100588917D01*
X130887489Y-100538123D01*
X130955310Y-100521328D01*
X131021445Y-100543865D01*
X131060485Y-100588919D01*
X131107715Y-100681614D01*
X131228028Y-100847213D01*
X131372786Y-100991971D01*
X131493226Y-101079474D01*
X131538390Y-101112287D01*
X131630266Y-101159100D01*
X131720776Y-101205218D01*
X131720778Y-101205218D01*
X131720781Y-101205220D01*
X131783757Y-101225682D01*
X131915465Y-101268477D01*
X132016557Y-101284488D01*
X132117648Y-101300500D01*
X132117649Y-101300500D01*
X132322351Y-101300500D01*
X132322352Y-101300500D01*
X132524534Y-101268477D01*
X132719219Y-101205220D01*
X132901610Y-101112287D01*
X132994590Y-101044732D01*
X133067213Y-100991971D01*
X133067215Y-100991968D01*
X133067219Y-100991966D01*
X133211966Y-100847219D01*
X133211968Y-100847215D01*
X133211971Y-100847213D01*
X133332284Y-100681614D01*
X133332286Y-100681611D01*
X133332287Y-100681610D01*
X133379516Y-100588917D01*
X133427489Y-100538123D01*
X133495310Y-100521328D01*
X133561445Y-100543865D01*
X133600485Y-100588919D01*
X133647715Y-100681614D01*
X133768028Y-100847213D01*
X133912786Y-100991971D01*
X134033226Y-101079474D01*
X134078390Y-101112287D01*
X134170266Y-101159100D01*
X134260776Y-101205218D01*
X134260778Y-101205218D01*
X134260781Y-101205220D01*
X134323757Y-101225682D01*
X134455465Y-101268477D01*
X134556557Y-101284488D01*
X134657648Y-101300500D01*
X134657649Y-101300500D01*
X134862351Y-101300500D01*
X134862352Y-101300500D01*
X135064534Y-101268477D01*
X135259219Y-101205220D01*
X135441610Y-101112287D01*
X135534590Y-101044732D01*
X135607213Y-100991971D01*
X135607215Y-100991968D01*
X135607219Y-100991966D01*
X135751966Y-100847219D01*
X135751968Y-100847215D01*
X135751971Y-100847213D01*
X135872284Y-100681614D01*
X135872286Y-100681611D01*
X135872287Y-100681610D01*
X135919516Y-100588917D01*
X135967489Y-100538123D01*
X136035310Y-100521328D01*
X136101445Y-100543865D01*
X136140485Y-100588919D01*
X136187715Y-100681614D01*
X136308028Y-100847213D01*
X136452786Y-100991971D01*
X136573226Y-101079474D01*
X136618390Y-101112287D01*
X136710266Y-101159100D01*
X136800776Y-101205218D01*
X136800778Y-101205218D01*
X136800781Y-101205220D01*
X136863757Y-101225682D01*
X136995465Y-101268477D01*
X137096557Y-101284488D01*
X137197648Y-101300500D01*
X137197649Y-101300500D01*
X137402351Y-101300500D01*
X137402352Y-101300500D01*
X137604534Y-101268477D01*
X137799219Y-101205220D01*
X137981610Y-101112287D01*
X138074590Y-101044732D01*
X138147213Y-100991971D01*
X138147215Y-100991968D01*
X138147219Y-100991966D01*
X138291966Y-100847219D01*
X138291968Y-100847215D01*
X138291971Y-100847213D01*
X138412284Y-100681614D01*
X138412286Y-100681611D01*
X138412287Y-100681610D01*
X138459516Y-100588917D01*
X138507489Y-100538123D01*
X138575310Y-100521328D01*
X138641445Y-100543865D01*
X138680485Y-100588919D01*
X138727715Y-100681614D01*
X138848028Y-100847213D01*
X138992786Y-100991971D01*
X139113226Y-101079474D01*
X139158390Y-101112287D01*
X139250266Y-101159100D01*
X139340776Y-101205218D01*
X139340778Y-101205218D01*
X139340781Y-101205220D01*
X139403757Y-101225682D01*
X139535465Y-101268477D01*
X139636557Y-101284488D01*
X139737648Y-101300500D01*
X139737649Y-101300500D01*
X139942351Y-101300500D01*
X139942352Y-101300500D01*
X140144534Y-101268477D01*
X140339219Y-101205220D01*
X140521610Y-101112287D01*
X140614590Y-101044732D01*
X140687213Y-100991971D01*
X140687215Y-100991968D01*
X140687219Y-100991966D01*
X140831966Y-100847219D01*
X140831968Y-100847215D01*
X140831971Y-100847213D01*
X140952284Y-100681614D01*
X140952286Y-100681611D01*
X140952287Y-100681610D01*
X140999516Y-100588917D01*
X141047489Y-100538123D01*
X141115310Y-100521328D01*
X141181445Y-100543865D01*
X141220485Y-100588919D01*
X141267715Y-100681614D01*
X141388028Y-100847213D01*
X141532786Y-100991971D01*
X141653226Y-101079474D01*
X141698390Y-101112287D01*
X141790266Y-101159100D01*
X141880776Y-101205218D01*
X141880778Y-101205218D01*
X141880781Y-101205220D01*
X141943757Y-101225682D01*
X142075465Y-101268477D01*
X142176557Y-101284488D01*
X142277648Y-101300500D01*
X142277649Y-101300500D01*
X142482351Y-101300500D01*
X142482352Y-101300500D01*
X142684534Y-101268477D01*
X142879219Y-101205220D01*
X143061610Y-101112287D01*
X143154590Y-101044732D01*
X143227213Y-100991971D01*
X143227215Y-100991968D01*
X143227219Y-100991966D01*
X143371966Y-100847219D01*
X143371968Y-100847215D01*
X143371971Y-100847213D01*
X143479920Y-100698632D01*
X143492287Y-100681610D01*
X143539795Y-100588369D01*
X143587769Y-100537573D01*
X143655590Y-100520778D01*
X143721725Y-100543315D01*
X143760765Y-100588369D01*
X143808141Y-100681350D01*
X143808147Y-100681359D01*
X143840523Y-100725921D01*
X143840524Y-100725922D01*
X144520000Y-100046446D01*
X144520000Y-100052661D01*
X144547259Y-100154394D01*
X144599920Y-100245606D01*
X144674394Y-100320080D01*
X144765606Y-100372741D01*
X144867339Y-100400000D01*
X144873553Y-100400000D01*
X144194076Y-101079474D01*
X144238650Y-101111859D01*
X144420968Y-101204755D01*
X144615582Y-101267990D01*
X144817683Y-101300000D01*
X145022317Y-101300000D01*
X145224417Y-101267990D01*
X145419031Y-101204755D01*
X145601349Y-101111859D01*
X145645921Y-101079474D01*
X144966447Y-100400000D01*
X144972661Y-100400000D01*
X145074394Y-100372741D01*
X145165606Y-100320080D01*
X145240080Y-100245606D01*
X145292741Y-100154394D01*
X145320000Y-100052661D01*
X145320000Y-100046446D01*
X145999474Y-100725921D01*
X146031861Y-100681347D01*
X146031861Y-100681346D01*
X146079234Y-100588371D01*
X146127208Y-100537575D01*
X146195028Y-100520779D01*
X146261164Y-100543316D01*
X146300203Y-100588369D01*
X146347713Y-100681611D01*
X146468028Y-100847213D01*
X146612786Y-100991971D01*
X146733226Y-101079474D01*
X146778390Y-101112287D01*
X146870266Y-101159100D01*
X146960776Y-101205218D01*
X146960778Y-101205218D01*
X146960781Y-101205220D01*
X147023757Y-101225682D01*
X147155465Y-101268477D01*
X147256557Y-101284488D01*
X147357648Y-101300500D01*
X147357649Y-101300500D01*
X147562351Y-101300500D01*
X147562352Y-101300500D01*
X147764534Y-101268477D01*
X147959219Y-101205220D01*
X148141610Y-101112287D01*
X148234590Y-101044732D01*
X148307213Y-100991971D01*
X148307215Y-100991968D01*
X148307219Y-100991966D01*
X148451966Y-100847219D01*
X148482192Y-100805615D01*
X148537521Y-100762950D01*
X148582511Y-100754500D01*
X148877489Y-100754500D01*
X148944528Y-100774185D01*
X148977808Y-100805616D01*
X149008030Y-100847215D01*
X149152786Y-100991971D01*
X149273226Y-101079474D01*
X149318390Y-101112287D01*
X149410266Y-101159100D01*
X149500776Y-101205218D01*
X149500778Y-101205218D01*
X149500781Y-101205220D01*
X149563757Y-101225682D01*
X149695465Y-101268477D01*
X149796557Y-101284488D01*
X149897648Y-101300500D01*
X149897649Y-101300500D01*
X150102351Y-101300500D01*
X150102352Y-101300500D01*
X150304534Y-101268477D01*
X150499219Y-101205220D01*
X150681610Y-101112287D01*
X150774590Y-101044732D01*
X150847213Y-100991971D01*
X150847215Y-100991968D01*
X150847219Y-100991966D01*
X150991966Y-100847219D01*
X150991968Y-100847215D01*
X150991971Y-100847213D01*
X151112284Y-100681614D01*
X151112286Y-100681611D01*
X151112287Y-100681610D01*
X151159516Y-100588917D01*
X151207489Y-100538123D01*
X151275310Y-100521328D01*
X151341445Y-100543865D01*
X151380485Y-100588919D01*
X151427715Y-100681614D01*
X151548028Y-100847213D01*
X151692786Y-100991971D01*
X151813226Y-101079474D01*
X151858390Y-101112287D01*
X151950266Y-101159100D01*
X152040776Y-101205218D01*
X152040778Y-101205218D01*
X152040781Y-101205220D01*
X152103757Y-101225682D01*
X152235465Y-101268477D01*
X152336557Y-101284488D01*
X152437648Y-101300500D01*
X152437649Y-101300500D01*
X152642351Y-101300500D01*
X152642352Y-101300500D01*
X152844534Y-101268477D01*
X153039219Y-101205220D01*
X153221610Y-101112287D01*
X153314590Y-101044732D01*
X153387213Y-100991971D01*
X153387215Y-100991968D01*
X153387219Y-100991966D01*
X153531966Y-100847219D01*
X153531968Y-100847215D01*
X153531971Y-100847213D01*
X153652284Y-100681614D01*
X153652286Y-100681611D01*
X153652287Y-100681610D01*
X153699516Y-100588917D01*
X153747489Y-100538123D01*
X153815310Y-100521328D01*
X153881445Y-100543865D01*
X153920485Y-100588919D01*
X153967715Y-100681614D01*
X154088028Y-100847213D01*
X154232786Y-100991971D01*
X154353226Y-101079474D01*
X154398390Y-101112287D01*
X154490266Y-101159100D01*
X154580776Y-101205218D01*
X154580778Y-101205218D01*
X154580781Y-101205220D01*
X154643757Y-101225682D01*
X154775465Y-101268477D01*
X154876557Y-101284488D01*
X154977648Y-101300500D01*
X154977649Y-101300500D01*
X155182351Y-101300500D01*
X155182352Y-101300500D01*
X155384534Y-101268477D01*
X155579219Y-101205220D01*
X155761610Y-101112287D01*
X155854590Y-101044732D01*
X155927213Y-100991971D01*
X155927215Y-100991968D01*
X155927219Y-100991966D01*
X156071966Y-100847219D01*
X156071968Y-100847215D01*
X156071971Y-100847213D01*
X156192284Y-100681614D01*
X156192286Y-100681611D01*
X156192287Y-100681610D01*
X156239516Y-100588917D01*
X156287489Y-100538123D01*
X156355310Y-100521328D01*
X156421445Y-100543865D01*
X156460485Y-100588919D01*
X156507715Y-100681614D01*
X156628028Y-100847213D01*
X156772786Y-100991971D01*
X156893226Y-101079474D01*
X156938390Y-101112287D01*
X157030266Y-101159100D01*
X157120776Y-101205218D01*
X157120778Y-101205218D01*
X157120781Y-101205220D01*
X157183757Y-101225682D01*
X157315465Y-101268477D01*
X157416557Y-101284488D01*
X157517648Y-101300500D01*
X157517649Y-101300500D01*
X157722351Y-101300500D01*
X157722352Y-101300500D01*
X157924534Y-101268477D01*
X158119219Y-101205220D01*
X158301610Y-101112287D01*
X158394590Y-101044732D01*
X158467213Y-100991971D01*
X158467215Y-100991968D01*
X158467219Y-100991966D01*
X158611966Y-100847219D01*
X158611968Y-100847215D01*
X158611971Y-100847213D01*
X158732284Y-100681614D01*
X158732286Y-100681611D01*
X158732287Y-100681610D01*
X158779516Y-100588917D01*
X158827489Y-100538123D01*
X158895310Y-100521328D01*
X158961445Y-100543865D01*
X159000485Y-100588919D01*
X159047715Y-100681614D01*
X159168028Y-100847213D01*
X159312786Y-100991971D01*
X159433226Y-101079474D01*
X159478390Y-101112287D01*
X159570266Y-101159100D01*
X159660776Y-101205218D01*
X159660778Y-101205218D01*
X159660781Y-101205220D01*
X159723757Y-101225682D01*
X159855465Y-101268477D01*
X159956557Y-101284488D01*
X160057648Y-101300500D01*
X160057649Y-101300500D01*
X160262351Y-101300500D01*
X160262352Y-101300500D01*
X160464534Y-101268477D01*
X160659219Y-101205220D01*
X160841610Y-101112287D01*
X160934590Y-101044732D01*
X161007213Y-100991971D01*
X161007215Y-100991968D01*
X161007219Y-100991966D01*
X161151966Y-100847219D01*
X161151968Y-100847215D01*
X161151971Y-100847213D01*
X161272284Y-100681614D01*
X161272286Y-100681611D01*
X161272287Y-100681610D01*
X161319516Y-100588917D01*
X161367489Y-100538123D01*
X161435310Y-100521328D01*
X161501445Y-100543865D01*
X161540485Y-100588919D01*
X161587715Y-100681614D01*
X161708028Y-100847213D01*
X161852786Y-100991971D01*
X161973226Y-101079474D01*
X162018390Y-101112287D01*
X162110266Y-101159100D01*
X162200776Y-101205218D01*
X162200778Y-101205218D01*
X162200781Y-101205220D01*
X162263757Y-101225682D01*
X162395465Y-101268477D01*
X162496557Y-101284488D01*
X162597648Y-101300500D01*
X162597649Y-101300500D01*
X162802351Y-101300500D01*
X162802352Y-101300500D01*
X163004534Y-101268477D01*
X163199219Y-101205220D01*
X163381610Y-101112287D01*
X163474590Y-101044732D01*
X163547213Y-100991971D01*
X163547215Y-100991968D01*
X163547219Y-100991966D01*
X163691966Y-100847219D01*
X163691968Y-100847215D01*
X163691971Y-100847213D01*
X163745028Y-100774185D01*
X163812287Y-100681610D01*
X163905220Y-100499219D01*
X163968477Y-100304534D01*
X164000500Y-100102352D01*
X164000500Y-99897648D01*
X163979753Y-99766657D01*
X163968477Y-99695465D01*
X163921050Y-99549500D01*
X163905220Y-99500781D01*
X163905218Y-99500778D01*
X163905218Y-99500776D01*
X163843641Y-99379926D01*
X163812287Y-99318390D01*
X163753191Y-99237050D01*
X163691971Y-99152786D01*
X163547217Y-99008032D01*
X163547212Y-99008028D01*
X163505615Y-98977806D01*
X163502274Y-98973474D01*
X163497297Y-98971201D01*
X163481164Y-98946098D01*
X163462949Y-98922476D01*
X163461696Y-98915804D01*
X163459523Y-98912423D01*
X163454500Y-98877488D01*
X163454500Y-98663885D01*
X163474185Y-98596846D01*
X163490814Y-98576209D01*
X165176238Y-96890784D01*
X165237561Y-96857300D01*
X165307253Y-96862284D01*
X165351600Y-96890785D01*
X165452786Y-96991971D01*
X165590420Y-97091966D01*
X165618390Y-97112287D01*
X165734607Y-97171503D01*
X165800776Y-97205218D01*
X165800778Y-97205218D01*
X165800781Y-97205220D01*
X165869275Y-97227475D01*
X165995465Y-97268477D01*
X166096557Y-97284488D01*
X166197648Y-97300500D01*
X166197649Y-97300500D01*
X166402351Y-97300500D01*
X166402352Y-97300500D01*
X166604534Y-97268477D01*
X166799219Y-97205220D01*
X166981610Y-97112287D01*
X167100364Y-97026008D01*
X167147213Y-96991971D01*
X167147215Y-96991968D01*
X167147219Y-96991966D01*
X167291966Y-96847219D01*
X167291968Y-96847215D01*
X167291971Y-96847213D01*
X167353441Y-96762605D01*
X167412287Y-96681610D01*
X167505220Y-96499219D01*
X167568477Y-96304534D01*
X167600500Y-96102352D01*
X167600500Y-95897648D01*
X167568477Y-95695466D01*
X167505220Y-95500781D01*
X167505218Y-95500778D01*
X167505218Y-95500776D01*
X167469852Y-95431368D01*
X167412287Y-95318390D01*
X167380396Y-95274495D01*
X167291971Y-95152786D01*
X167147213Y-95008028D01*
X166981613Y-94887715D01*
X166981612Y-94887714D01*
X166981610Y-94887713D01*
X166924653Y-94858691D01*
X166799223Y-94794781D01*
X166604534Y-94731522D01*
X166429995Y-94703878D01*
X166402352Y-94699500D01*
X166197648Y-94699500D01*
X166173329Y-94703351D01*
X165995465Y-94731522D01*
X165800776Y-94794781D01*
X165618386Y-94887715D01*
X165452786Y-95008028D01*
X165308030Y-95152784D01*
X165277808Y-95194384D01*
X165222479Y-95237050D01*
X165177489Y-95245500D01*
X164925683Y-95245500D01*
X164779927Y-95274493D01*
X164779919Y-95274495D01*
X164642608Y-95331371D01*
X164519035Y-95413939D01*
X164519034Y-95413940D01*
X164488461Y-95444514D01*
X164413941Y-95519034D01*
X164413939Y-95519036D01*
X162113943Y-97819030D01*
X162113942Y-97819031D01*
X162031372Y-97942607D01*
X162031366Y-97942618D01*
X161974496Y-98079916D01*
X161974493Y-98079926D01*
X161945499Y-98225685D01*
X161945499Y-98380425D01*
X161945500Y-98380446D01*
X161945500Y-98877488D01*
X161925815Y-98944527D01*
X161894385Y-98977806D01*
X161852787Y-99008028D01*
X161852782Y-99008032D01*
X161708028Y-99152786D01*
X161587715Y-99318386D01*
X161540485Y-99411080D01*
X161492510Y-99461876D01*
X161424689Y-99478671D01*
X161358554Y-99456134D01*
X161319515Y-99411080D01*
X161303641Y-99379926D01*
X161272287Y-99318390D01*
X161213191Y-99237050D01*
X161151971Y-99152786D01*
X161007217Y-99008032D01*
X161007212Y-99008028D01*
X160965615Y-98977806D01*
X160922949Y-98922476D01*
X160914500Y-98877488D01*
X160914500Y-97703886D01*
X160934185Y-97636847D01*
X160950819Y-97616205D01*
X161044649Y-97522375D01*
X161139778Y-97427245D01*
X161201099Y-97393762D01*
X161246855Y-97392455D01*
X161265739Y-97395446D01*
X161297648Y-97400500D01*
X161297649Y-97400500D01*
X161502351Y-97400500D01*
X161502352Y-97400500D01*
X161704534Y-97368477D01*
X161899219Y-97305220D01*
X162081610Y-97212287D01*
X162208749Y-97119916D01*
X162247213Y-97091971D01*
X162247215Y-97091968D01*
X162247219Y-97091966D01*
X162391966Y-96947219D01*
X162391968Y-96947215D01*
X162391971Y-96947213D01*
X162447798Y-96870372D01*
X162512287Y-96781610D01*
X162605220Y-96599219D01*
X162668477Y-96404534D01*
X162700500Y-96202352D01*
X162700500Y-95997648D01*
X162668477Y-95795466D01*
X162657468Y-95761585D01*
X162627621Y-95669725D01*
X162605220Y-95600781D01*
X162605218Y-95600778D01*
X162605218Y-95600776D01*
X162525599Y-95444517D01*
X162512287Y-95418390D01*
X162504556Y-95407749D01*
X162391971Y-95252786D01*
X162247213Y-95108028D01*
X162081613Y-94987715D01*
X162081612Y-94987714D01*
X162081610Y-94987713D01*
X162024653Y-94958691D01*
X161899223Y-94894781D01*
X161704534Y-94831522D01*
X161529995Y-94803878D01*
X161502352Y-94799500D01*
X161297648Y-94799500D01*
X161273329Y-94803351D01*
X161095465Y-94831522D01*
X160900776Y-94894781D01*
X160718386Y-94987715D01*
X160552786Y-95108028D01*
X160408028Y-95252786D01*
X160287715Y-95418386D01*
X160194781Y-95600776D01*
X160131522Y-95795465D01*
X160099500Y-95997648D01*
X160099500Y-96202353D01*
X160107544Y-96253145D01*
X160098588Y-96322438D01*
X160072751Y-96360222D01*
X159573942Y-96859031D01*
X159491372Y-96982607D01*
X159491366Y-96982618D01*
X159434496Y-97119916D01*
X159434493Y-97119926D01*
X159405499Y-97265685D01*
X159405499Y-97420425D01*
X159405500Y-97420446D01*
X159405500Y-98877488D01*
X159385815Y-98944527D01*
X159354385Y-98977806D01*
X159312787Y-99008028D01*
X159312782Y-99008032D01*
X159168028Y-99152786D01*
X159047715Y-99318386D01*
X159000485Y-99411080D01*
X158952510Y-99461876D01*
X158884689Y-99478671D01*
X158818554Y-99456134D01*
X158779515Y-99411080D01*
X158763641Y-99379926D01*
X158732287Y-99318390D01*
X158673191Y-99237050D01*
X158611971Y-99152786D01*
X158467217Y-99008032D01*
X158467212Y-99008028D01*
X158425615Y-98977806D01*
X158382949Y-98922476D01*
X158374500Y-98877488D01*
X158374500Y-97200446D01*
X158374501Y-97200425D01*
X158374501Y-97045685D01*
X158345506Y-96899926D01*
X158345505Y-96899925D01*
X158345505Y-96899921D01*
X158330191Y-96862950D01*
X158288633Y-96762618D01*
X158288632Y-96762617D01*
X158288630Y-96762611D01*
X158248086Y-96701932D01*
X158206059Y-96639034D01*
X158206057Y-96639031D01*
X158096647Y-96529621D01*
X158096624Y-96529600D01*
X157927247Y-96360223D01*
X157893762Y-96298900D01*
X157893762Y-96298899D01*
X157892455Y-96253144D01*
X157900500Y-96202350D01*
X157900500Y-95997648D01*
X157868477Y-95795465D01*
X157827621Y-95669725D01*
X157805220Y-95600781D01*
X157805218Y-95600778D01*
X157805218Y-95600776D01*
X157725599Y-95444517D01*
X157712287Y-95418390D01*
X157704556Y-95407749D01*
X157591971Y-95252786D01*
X157447213Y-95108028D01*
X157281613Y-94987715D01*
X157281612Y-94987714D01*
X157281610Y-94987713D01*
X157224653Y-94958691D01*
X157099223Y-94894781D01*
X156904534Y-94831522D01*
X156729995Y-94803878D01*
X156702352Y-94799500D01*
X156497648Y-94799500D01*
X156473329Y-94803351D01*
X156295465Y-94831522D01*
X156100776Y-94894781D01*
X155918386Y-94987715D01*
X155752786Y-95108028D01*
X155608028Y-95252786D01*
X155487715Y-95418386D01*
X155394781Y-95600776D01*
X155331522Y-95795465D01*
X155299500Y-95997648D01*
X155299500Y-96202351D01*
X155331522Y-96404534D01*
X155394781Y-96599223D01*
X155458691Y-96724653D01*
X155478029Y-96762605D01*
X155487715Y-96781613D01*
X155608028Y-96947213D01*
X155752786Y-97091971D01*
X155868600Y-97176113D01*
X155918390Y-97212287D01*
X156019478Y-97263794D01*
X156100776Y-97305218D01*
X156100778Y-97305218D01*
X156100781Y-97305220D01*
X156200729Y-97337695D01*
X156295465Y-97368477D01*
X156385783Y-97382782D01*
X156497648Y-97400500D01*
X156497649Y-97400500D01*
X156702346Y-97400500D01*
X156702352Y-97400500D01*
X156722102Y-97397371D01*
X156791392Y-97406324D01*
X156844845Y-97451319D01*
X156865487Y-97518070D01*
X156865500Y-97519844D01*
X156865500Y-98877488D01*
X156845815Y-98944527D01*
X156814385Y-98977806D01*
X156772787Y-99008028D01*
X156772782Y-99008032D01*
X156628028Y-99152786D01*
X156507715Y-99318386D01*
X156460485Y-99411080D01*
X156412510Y-99461876D01*
X156344689Y-99478671D01*
X156278554Y-99456134D01*
X156239515Y-99411080D01*
X156223641Y-99379926D01*
X156192287Y-99318390D01*
X156133191Y-99237050D01*
X156071971Y-99152786D01*
X155927213Y-99008028D01*
X155761613Y-98887715D01*
X155761612Y-98887714D01*
X155761610Y-98887713D01*
X155704653Y-98858691D01*
X155579223Y-98794781D01*
X155384534Y-98731522D01*
X155209995Y-98703878D01*
X155182352Y-98699500D01*
X154977648Y-98699500D01*
X154977644Y-98699500D01*
X154926855Y-98707544D01*
X154857561Y-98698589D01*
X154819776Y-98672752D01*
X152915263Y-96768238D01*
X152881778Y-96706915D01*
X152886762Y-96637223D01*
X152892461Y-96624259D01*
X152905217Y-96599224D01*
X152905220Y-96599219D01*
X152968477Y-96404534D01*
X153000500Y-96202352D01*
X153000500Y-95997648D01*
X152968477Y-95795466D01*
X152957468Y-95761585D01*
X152927621Y-95669725D01*
X152905220Y-95600781D01*
X152905218Y-95600778D01*
X152905218Y-95600776D01*
X152825599Y-95444517D01*
X152812287Y-95418390D01*
X152804556Y-95407749D01*
X152691971Y-95252786D01*
X152547213Y-95108028D01*
X152381613Y-94987715D01*
X152381612Y-94987714D01*
X152381610Y-94987713D01*
X152324653Y-94958691D01*
X152199223Y-94894781D01*
X152004534Y-94831522D01*
X151829995Y-94803878D01*
X151802352Y-94799500D01*
X151597648Y-94799500D01*
X151573329Y-94803351D01*
X151395465Y-94831522D01*
X151200776Y-94894781D01*
X151018386Y-94987715D01*
X150852786Y-95108028D01*
X150708028Y-95252786D01*
X150587715Y-95418386D01*
X150494781Y-95600776D01*
X150431522Y-95795465D01*
X150403412Y-95972950D01*
X150399500Y-95997648D01*
X150399500Y-96202352D01*
X150407545Y-96253144D01*
X150431523Y-96404535D01*
X150431523Y-96404538D01*
X150474047Y-96535411D01*
X150476042Y-96605252D01*
X150439962Y-96665085D01*
X150377261Y-96695913D01*
X150307847Y-96687948D01*
X150268435Y-96661410D01*
X149120969Y-95513943D01*
X149120968Y-95513942D01*
X149075518Y-95483574D01*
X148997389Y-95431370D01*
X148997386Y-95431368D01*
X148997385Y-95431368D01*
X148916955Y-95398053D01*
X148860080Y-95374495D01*
X148835894Y-95369684D01*
X148714314Y-95345499D01*
X148714312Y-95345499D01*
X148565688Y-95345499D01*
X148559574Y-95345499D01*
X148559554Y-95345500D01*
X148022511Y-95345500D01*
X147955472Y-95325815D01*
X147922192Y-95294384D01*
X147891969Y-95252784D01*
X147747213Y-95108028D01*
X147581613Y-94987715D01*
X147581612Y-94987714D01*
X147581610Y-94987713D01*
X147524653Y-94958691D01*
X147399223Y-94894781D01*
X147204534Y-94831522D01*
X147029995Y-94803878D01*
X147002352Y-94799500D01*
X146797648Y-94799500D01*
X146773329Y-94803351D01*
X146595465Y-94831522D01*
X146400776Y-94894781D01*
X146218386Y-94987715D01*
X146052786Y-95108028D01*
X146052782Y-95108032D01*
X145966181Y-95194634D01*
X145904858Y-95228119D01*
X145835166Y-95223135D01*
X145779233Y-95181263D01*
X145754816Y-95115799D01*
X145754500Y-95106953D01*
X145754500Y-94163886D01*
X145774185Y-94096847D01*
X145790819Y-94076205D01*
X146476205Y-93390819D01*
X146537528Y-93357334D01*
X146563886Y-93354500D01*
X166436113Y-93354500D01*
X166503152Y-93374185D01*
X166523794Y-93390819D01*
X174583265Y-101450290D01*
X174616750Y-101511613D01*
X174611766Y-101581305D01*
X174569894Y-101637238D01*
X174568472Y-101638287D01*
X174553439Y-101649209D01*
X174553434Y-101649213D01*
X174391716Y-101810931D01*
X174391709Y-101810940D01*
X174330007Y-101895864D01*
X174274677Y-101938530D01*
X174205063Y-101944508D01*
X174143269Y-101911901D01*
X174129372Y-101895863D01*
X174067907Y-101811263D01*
X174067902Y-101811257D01*
X173906242Y-101649597D01*
X173721276Y-101515211D01*
X173517568Y-101411417D01*
X173300124Y-101340765D01*
X173210000Y-101326490D01*
X173210000Y-102256517D01*
X173191591Y-102245889D01*
X173038991Y-102205000D01*
X172881009Y-102205000D01*
X172728409Y-102245889D01*
X172710000Y-102256517D01*
X172710000Y-101326490D01*
X172709999Y-101326490D01*
X172619875Y-101340765D01*
X172402431Y-101411417D01*
X172198723Y-101515211D01*
X172013757Y-101649597D01*
X171852097Y-101811257D01*
X171717711Y-101996223D01*
X171613917Y-102199929D01*
X171543265Y-102417371D01*
X171521468Y-102555000D01*
X172411518Y-102555000D01*
X172400889Y-102573409D01*
X172360000Y-102726009D01*
X172360000Y-102883991D01*
X172400889Y-103036591D01*
X172411518Y-103055000D01*
X171521468Y-103055000D01*
X171543265Y-103192628D01*
X171613917Y-103410070D01*
X171717711Y-103613776D01*
X171852097Y-103798742D01*
X172013757Y-103960402D01*
X172198723Y-104094788D01*
X172402429Y-104198582D01*
X172619871Y-104269234D01*
X172710000Y-104283509D01*
X172710000Y-103353482D01*
X172728409Y-103364111D01*
X172881009Y-103405000D01*
X173038991Y-103405000D01*
X173191591Y-103364111D01*
X173210000Y-103353482D01*
X173210000Y-104283508D01*
X173300128Y-104269234D01*
X173517570Y-104198582D01*
X173721276Y-104094788D01*
X173906242Y-103960402D01*
X174067905Y-103798739D01*
X174129371Y-103714137D01*
X174148192Y-103699623D01*
X174163984Y-103681861D01*
X174175351Y-103678679D01*
X174184701Y-103671470D01*
X174208380Y-103669436D01*
X174231268Y-103663031D01*
X174242553Y-103666501D01*
X174254314Y-103665491D01*
X174275331Y-103676580D01*
X174298052Y-103683567D01*
X174309712Y-103694720D01*
X174316109Y-103698096D01*
X174324429Y-103707018D01*
X174327351Y-103710478D01*
X174391714Y-103799066D01*
X174458872Y-103866224D01*
X174462239Y-103870211D01*
X174474325Y-103897593D01*
X174488666Y-103923856D01*
X174489551Y-103932087D01*
X174490453Y-103934131D01*
X174490048Y-103936712D01*
X174491500Y-103950214D01*
X174491500Y-104530903D01*
X174471815Y-104597942D01*
X174455181Y-104618584D01*
X172445738Y-106628028D01*
X170457119Y-108616647D01*
X170398295Y-108675471D01*
X170316645Y-108757120D01*
X170206282Y-108922289D01*
X170206277Y-108922298D01*
X170130256Y-109105830D01*
X170130254Y-109105838D01*
X170091500Y-109300666D01*
X170091500Y-113883000D01*
X170071815Y-113950039D01*
X170019011Y-113995794D01*
X169967500Y-114007000D01*
X169302129Y-114007000D01*
X169302123Y-114007001D01*
X169242516Y-114013408D01*
X169107671Y-114063702D01*
X169107664Y-114063706D01*
X168992455Y-114149952D01*
X168992452Y-114149955D01*
X168906206Y-114265164D01*
X168906202Y-114265171D01*
X168855908Y-114400017D01*
X168850229Y-114452842D01*
X168849501Y-114459623D01*
X168849500Y-114459635D01*
X168849500Y-118055370D01*
X168849501Y-118055376D01*
X168855908Y-118114983D01*
X168906202Y-118249828D01*
X168906206Y-118249835D01*
X168992452Y-118365044D01*
X168992455Y-118365047D01*
X169107664Y-118451293D01*
X169107671Y-118451297D01*
X169242517Y-118501591D01*
X169242516Y-118501591D01*
X169249444Y-118502335D01*
X169302127Y-118508000D01*
X170221500Y-118507999D01*
X170288539Y-118527683D01*
X170334294Y-118580487D01*
X170345500Y-118631999D01*
X170345500Y-128036113D01*
X170325815Y-128103152D01*
X170309181Y-128123794D01*
X163123794Y-135309181D01*
X163062471Y-135342666D01*
X163036113Y-135345500D01*
X146063886Y-135345500D01*
X145996847Y-135325815D01*
X145976205Y-135309181D01*
X143401186Y-132734161D01*
X143367701Y-132672838D01*
X143372685Y-132603146D01*
X143414555Y-132547214D01*
X143467546Y-132507546D01*
X143553796Y-132392331D01*
X143604091Y-132257483D01*
X143610500Y-132197873D01*
X143610499Y-132173979D01*
X143613330Y-132160963D01*
X143623940Y-132141525D01*
X143630179Y-132120275D01*
X143646803Y-132099643D01*
X143646808Y-132099636D01*
X143646811Y-132099634D01*
X143646818Y-132099626D01*
X144317037Y-131429408D01*
X144334075Y-131492993D01*
X144399901Y-131607007D01*
X144492993Y-131700099D01*
X144607007Y-131765925D01*
X144670590Y-131782962D01*
X144038282Y-132415269D01*
X144038282Y-132415270D01*
X144092449Y-132454624D01*
X144281782Y-132551095D01*
X144483870Y-132616757D01*
X144693754Y-132650000D01*
X144906246Y-132650000D01*
X145116127Y-132616757D01*
X145116130Y-132616757D01*
X145318217Y-132551095D01*
X145507554Y-132454622D01*
X145561716Y-132415270D01*
X145561717Y-132415270D01*
X144929408Y-131782962D01*
X144992993Y-131765925D01*
X145107007Y-131700099D01*
X145200099Y-131607007D01*
X145265925Y-131492993D01*
X145282962Y-131429408D01*
X145915270Y-132061717D01*
X145915270Y-132061716D01*
X145954622Y-132007555D01*
X145959232Y-131998507D01*
X146007205Y-131947709D01*
X146075025Y-131930912D01*
X146141161Y-131953447D01*
X146180204Y-131998504D01*
X146184949Y-132007817D01*
X146309890Y-132179786D01*
X146460213Y-132330109D01*
X146632179Y-132455048D01*
X146632181Y-132455049D01*
X146632184Y-132455051D01*
X146821588Y-132551557D01*
X147023757Y-132617246D01*
X147233713Y-132650500D01*
X147233714Y-132650500D01*
X147446286Y-132650500D01*
X147446287Y-132650500D01*
X147656243Y-132617246D01*
X147858412Y-132551557D01*
X148047816Y-132455051D01*
X148134138Y-132392335D01*
X148219786Y-132330109D01*
X148219788Y-132330106D01*
X148219792Y-132330104D01*
X148370104Y-132179792D01*
X148370106Y-132179788D01*
X148370109Y-132179786D01*
X148495048Y-132007820D01*
X148495050Y-132007817D01*
X148495051Y-132007816D01*
X148499514Y-131999054D01*
X148547488Y-131948259D01*
X148615308Y-131931463D01*
X148681444Y-131953999D01*
X148720486Y-131999056D01*
X148724951Y-132007820D01*
X148849890Y-132179786D01*
X149000213Y-132330109D01*
X149172179Y-132455048D01*
X149172181Y-132455049D01*
X149172184Y-132455051D01*
X149361588Y-132551557D01*
X149563757Y-132617246D01*
X149773713Y-132650500D01*
X149773714Y-132650500D01*
X149986286Y-132650500D01*
X149986287Y-132650500D01*
X150196243Y-132617246D01*
X150398412Y-132551557D01*
X150587816Y-132455051D01*
X150674138Y-132392335D01*
X150759786Y-132330109D01*
X150759788Y-132330106D01*
X150759792Y-132330104D01*
X150910104Y-132179792D01*
X150910106Y-132179788D01*
X150910109Y-132179786D01*
X151035048Y-132007820D01*
X151035050Y-132007817D01*
X151035051Y-132007816D01*
X151039514Y-131999054D01*
X151087488Y-131948259D01*
X151155308Y-131931463D01*
X151221444Y-131953999D01*
X151260486Y-131999056D01*
X151264951Y-132007820D01*
X151389890Y-132179786D01*
X151540213Y-132330109D01*
X151712179Y-132455048D01*
X151712181Y-132455049D01*
X151712184Y-132455051D01*
X151901588Y-132551557D01*
X152103757Y-132617246D01*
X152313713Y-132650500D01*
X152313714Y-132650500D01*
X152526286Y-132650500D01*
X152526287Y-132650500D01*
X152736243Y-132617246D01*
X152938412Y-132551557D01*
X153127816Y-132455051D01*
X153214138Y-132392335D01*
X153299786Y-132330109D01*
X153299788Y-132330106D01*
X153299792Y-132330104D01*
X153450104Y-132179792D01*
X153450106Y-132179788D01*
X153450109Y-132179786D01*
X153575048Y-132007820D01*
X153575050Y-132007817D01*
X153575051Y-132007816D01*
X153579514Y-131999054D01*
X153627488Y-131948259D01*
X153695308Y-131931463D01*
X153761444Y-131953999D01*
X153800486Y-131999056D01*
X153804951Y-132007820D01*
X153929890Y-132179786D01*
X154080213Y-132330109D01*
X154252179Y-132455048D01*
X154252181Y-132455049D01*
X154252184Y-132455051D01*
X154441588Y-132551557D01*
X154643757Y-132617246D01*
X154853713Y-132650500D01*
X154853714Y-132650500D01*
X155066286Y-132650500D01*
X155066287Y-132650500D01*
X155276243Y-132617246D01*
X155478412Y-132551557D01*
X155667816Y-132455051D01*
X155754138Y-132392335D01*
X155839786Y-132330109D01*
X155839788Y-132330106D01*
X155839792Y-132330104D01*
X155990104Y-132179792D01*
X155990106Y-132179788D01*
X155990109Y-132179786D01*
X156115048Y-132007820D01*
X156115050Y-132007817D01*
X156115051Y-132007816D01*
X156119514Y-131999054D01*
X156167488Y-131948259D01*
X156235308Y-131931463D01*
X156301444Y-131953999D01*
X156340486Y-131999056D01*
X156344951Y-132007820D01*
X156469890Y-132179786D01*
X156620213Y-132330109D01*
X156792179Y-132455048D01*
X156792181Y-132455049D01*
X156792184Y-132455051D01*
X156981588Y-132551557D01*
X157183757Y-132617246D01*
X157393713Y-132650500D01*
X157393714Y-132650500D01*
X157606286Y-132650500D01*
X157606287Y-132650500D01*
X157816243Y-132617246D01*
X158018412Y-132551557D01*
X158207816Y-132455051D01*
X158294138Y-132392335D01*
X158379786Y-132330109D01*
X158379788Y-132330106D01*
X158379792Y-132330104D01*
X158530104Y-132179792D01*
X158530106Y-132179788D01*
X158530109Y-132179786D01*
X158655048Y-132007820D01*
X158655050Y-132007817D01*
X158655051Y-132007816D01*
X158659514Y-131999054D01*
X158707488Y-131948259D01*
X158775308Y-131931463D01*
X158841444Y-131953999D01*
X158880486Y-131999056D01*
X158884951Y-132007820D01*
X159009890Y-132179786D01*
X159160213Y-132330109D01*
X159332179Y-132455048D01*
X159332181Y-132455049D01*
X159332184Y-132455051D01*
X159521588Y-132551557D01*
X159723757Y-132617246D01*
X159933713Y-132650500D01*
X159933714Y-132650500D01*
X160146286Y-132650500D01*
X160146287Y-132650500D01*
X160356243Y-132617246D01*
X160558412Y-132551557D01*
X160747816Y-132455051D01*
X160834138Y-132392335D01*
X160919786Y-132330109D01*
X160919788Y-132330106D01*
X160919792Y-132330104D01*
X161070104Y-132179792D01*
X161070106Y-132179788D01*
X161070109Y-132179786D01*
X161195048Y-132007820D01*
X161195050Y-132007817D01*
X161195051Y-132007816D01*
X161291557Y-131818412D01*
X161357246Y-131616243D01*
X161390500Y-131406287D01*
X161390500Y-131193713D01*
X161376156Y-131103151D01*
X161385110Y-131033861D01*
X161410945Y-130996078D01*
X162686059Y-129720966D01*
X162768630Y-129597389D01*
X162806366Y-129506287D01*
X162809574Y-129498542D01*
X162825503Y-129460084D01*
X162825505Y-129460080D01*
X162835194Y-129411371D01*
X162854501Y-129314312D01*
X162854501Y-129165688D01*
X162854501Y-129160578D01*
X162854500Y-129160552D01*
X162854500Y-125929801D01*
X162874185Y-125862762D01*
X162926989Y-125817007D01*
X162996147Y-125807063D01*
X163059703Y-125836088D01*
X163078815Y-125856912D01*
X163187865Y-126007007D01*
X163191758Y-126012365D01*
X163347636Y-126168243D01*
X163347641Y-126168247D01*
X163503192Y-126281260D01*
X163525978Y-126297815D01*
X163614644Y-126342993D01*
X163722393Y-126397895D01*
X163722396Y-126397896D01*
X163827221Y-126431955D01*
X163932049Y-126466015D01*
X164149778Y-126500500D01*
X164149779Y-126500500D01*
X164370221Y-126500500D01*
X164370222Y-126500500D01*
X164587951Y-126466015D01*
X164797606Y-126397895D01*
X164994022Y-126297815D01*
X165172365Y-126168242D01*
X165222924Y-126117682D01*
X165284245Y-126084198D01*
X165353936Y-126089182D01*
X165409870Y-126131053D01*
X165426786Y-126162030D01*
X165456646Y-126242087D01*
X165456649Y-126242093D01*
X165542809Y-126357187D01*
X165542812Y-126357190D01*
X165657906Y-126443350D01*
X165657913Y-126443354D01*
X165792620Y-126493596D01*
X165792627Y-126493598D01*
X165852155Y-126499999D01*
X165852172Y-126500000D01*
X166550000Y-126500000D01*
X166550000Y-125475277D01*
X166626306Y-125519333D01*
X166740756Y-125550000D01*
X166859244Y-125550000D01*
X166973694Y-125519333D01*
X167050000Y-125475277D01*
X167050000Y-126500000D01*
X167747828Y-126500000D01*
X167747844Y-126499999D01*
X167807372Y-126493598D01*
X167807379Y-126493596D01*
X167942086Y-126443354D01*
X167942093Y-126443350D01*
X168057187Y-126357190D01*
X168057190Y-126357187D01*
X168143350Y-126242093D01*
X168143354Y-126242086D01*
X168193596Y-126107379D01*
X168193598Y-126107372D01*
X168199999Y-126047844D01*
X168200000Y-126047827D01*
X168200000Y-125350000D01*
X167175278Y-125350000D01*
X167219333Y-125273694D01*
X167250000Y-125159244D01*
X167250000Y-125040756D01*
X167219333Y-124926306D01*
X167175278Y-124850000D01*
X168200000Y-124850000D01*
X168200000Y-124152172D01*
X168199999Y-124152155D01*
X168193598Y-124092627D01*
X168193596Y-124092620D01*
X168143354Y-123957913D01*
X168143350Y-123957906D01*
X168057190Y-123842812D01*
X168057187Y-123842809D01*
X167942093Y-123756649D01*
X167942086Y-123756645D01*
X167807379Y-123706403D01*
X167807372Y-123706401D01*
X167747844Y-123700000D01*
X167050000Y-123700000D01*
X167050000Y-124724722D01*
X166973694Y-124680667D01*
X166859244Y-124650000D01*
X166740756Y-124650000D01*
X166626306Y-124680667D01*
X166550000Y-124724722D01*
X166550000Y-123700000D01*
X165852155Y-123700000D01*
X165792627Y-123706401D01*
X165792620Y-123706403D01*
X165657913Y-123756645D01*
X165657906Y-123756649D01*
X165542812Y-123842809D01*
X165542809Y-123842812D01*
X165456649Y-123957906D01*
X165456643Y-123957918D01*
X165426785Y-124037969D01*
X165409414Y-124061173D01*
X165394442Y-124085998D01*
X165388729Y-124088806D01*
X165384914Y-124093903D01*
X165357752Y-124104033D01*
X165331738Y-124116821D01*
X165325412Y-124116094D01*
X165319449Y-124118319D01*
X165291123Y-124112157D01*
X165262324Y-124108850D01*
X165255835Y-124104480D01*
X165251176Y-124103467D01*
X165232102Y-124090622D01*
X165227309Y-124086702D01*
X165172365Y-124031758D01*
X165062747Y-123952116D01*
X165059998Y-123949868D01*
X165042199Y-123923833D01*
X165022949Y-123898869D01*
X165022121Y-123894464D01*
X165020566Y-123892189D01*
X165020364Y-123885106D01*
X165014500Y-123853881D01*
X165014500Y-121273420D01*
X165034185Y-121206381D01*
X165082205Y-121162935D01*
X165181610Y-121112287D01*
X165347219Y-120991966D01*
X165491966Y-120847219D01*
X165491968Y-120847215D01*
X165491971Y-120847213D01*
X165558615Y-120755484D01*
X165612287Y-120681610D01*
X165705220Y-120499219D01*
X165768477Y-120304534D01*
X165800500Y-120102352D01*
X165800500Y-119897648D01*
X165768477Y-119695466D01*
X165762643Y-119677512D01*
X165705218Y-119500776D01*
X165637297Y-119367475D01*
X165612287Y-119318390D01*
X165581486Y-119275996D01*
X165491971Y-119152786D01*
X165347213Y-119008028D01*
X165181613Y-118887715D01*
X165181612Y-118887714D01*
X165181610Y-118887713D01*
X165124653Y-118858691D01*
X164999223Y-118794781D01*
X164804534Y-118731522D01*
X164629995Y-118703878D01*
X164602352Y-118699500D01*
X164397648Y-118699500D01*
X164373329Y-118703351D01*
X164195465Y-118731522D01*
X164000776Y-118794781D01*
X163818386Y-118887715D01*
X163652786Y-119008028D01*
X163508028Y-119152786D01*
X163387715Y-119318386D01*
X163294781Y-119500776D01*
X163231522Y-119695465D01*
X163199500Y-119897648D01*
X163199500Y-120102351D01*
X163231522Y-120304534D01*
X163294781Y-120499223D01*
X163361718Y-120630592D01*
X163387713Y-120681610D01*
X163481818Y-120811136D01*
X163505298Y-120876941D01*
X163505500Y-120884020D01*
X163505500Y-123853881D01*
X163485815Y-123920920D01*
X163454385Y-123954199D01*
X163347641Y-124031752D01*
X163347636Y-124031756D01*
X163191756Y-124187636D01*
X163191752Y-124187641D01*
X163078818Y-124343083D01*
X163023488Y-124385749D01*
X162953875Y-124391728D01*
X162892080Y-124359123D01*
X162857723Y-124298284D01*
X162854500Y-124270198D01*
X162854500Y-109485687D01*
X162854499Y-109485683D01*
X162825506Y-109339927D01*
X162825505Y-109339920D01*
X162768629Y-109202610D01*
X162768628Y-109202608D01*
X162768628Y-109202607D01*
X162708770Y-109113023D01*
X162708576Y-109112404D01*
X162708081Y-109111982D01*
X162698143Y-109079085D01*
X162687892Y-109046346D01*
X162688063Y-109045719D01*
X162687876Y-109045097D01*
X162697301Y-109012046D01*
X162706377Y-108978966D01*
X162706859Y-108978532D01*
X162707038Y-108977907D01*
X162732821Y-108955211D01*
X162758356Y-108932276D01*
X162759160Y-108932028D01*
X162759485Y-108931743D01*
X162763659Y-108930644D01*
X162793271Y-108921536D01*
X162800099Y-108920500D01*
X162802352Y-108920500D01*
X162853622Y-108912379D01*
X162853940Y-108912331D01*
X162888215Y-108916987D01*
X162922436Y-108921409D01*
X162922849Y-108921691D01*
X162923174Y-108921736D01*
X162924223Y-108922631D01*
X162960222Y-108947247D01*
X163709181Y-109696205D01*
X163742666Y-109757528D01*
X163745500Y-109783886D01*
X163745500Y-111257488D01*
X163725815Y-111324527D01*
X163694385Y-111357806D01*
X163652787Y-111388028D01*
X163652782Y-111388032D01*
X163508028Y-111532786D01*
X163387715Y-111698386D01*
X163294781Y-111880776D01*
X163231522Y-112075465D01*
X163209651Y-112213558D01*
X163199500Y-112277648D01*
X163199500Y-112482352D01*
X163200122Y-112486278D01*
X163231522Y-112684534D01*
X163294781Y-112879223D01*
X163355923Y-112999219D01*
X163370429Y-113027689D01*
X163387715Y-113061613D01*
X163508028Y-113227213D01*
X163652786Y-113371971D01*
X163769075Y-113456458D01*
X163818390Y-113492287D01*
X163913451Y-113540723D01*
X164000776Y-113585218D01*
X164000778Y-113585218D01*
X164000781Y-113585220D01*
X164084085Y-113612287D01*
X164195465Y-113648477D01*
X164296557Y-113664488D01*
X164397648Y-113680500D01*
X164397649Y-113680500D01*
X164602351Y-113680500D01*
X164602352Y-113680500D01*
X164804534Y-113648477D01*
X164999219Y-113585220D01*
X165181610Y-113492287D01*
X165296737Y-113408643D01*
X165347213Y-113371971D01*
X165347215Y-113371968D01*
X165347219Y-113371966D01*
X165491966Y-113227219D01*
X165491968Y-113227215D01*
X165491971Y-113227213D01*
X165544732Y-113154590D01*
X165612287Y-113061610D01*
X165705220Y-112879219D01*
X165768477Y-112684534D01*
X165800500Y-112482352D01*
X165800500Y-112277648D01*
X165790349Y-112213558D01*
X165768477Y-112075465D01*
X165715994Y-111913940D01*
X165705220Y-111880781D01*
X165705218Y-111880778D01*
X165705218Y-111880776D01*
X165651063Y-111774493D01*
X165612287Y-111698390D01*
X165579153Y-111652784D01*
X165491971Y-111532786D01*
X165347217Y-111388032D01*
X165347212Y-111388028D01*
X165305615Y-111357806D01*
X165262949Y-111302476D01*
X165254500Y-111257488D01*
X165254500Y-109345687D01*
X165254499Y-109345683D01*
X165246804Y-109307000D01*
X165225505Y-109199920D01*
X165168629Y-109062610D01*
X165164397Y-109056277D01*
X165086060Y-108939035D01*
X165086054Y-108939028D01*
X164976647Y-108829621D01*
X164976624Y-108829600D01*
X164027247Y-107880222D01*
X163993762Y-107818899D01*
X163992455Y-107773142D01*
X164000500Y-107722350D01*
X164000500Y-107517648D01*
X163968477Y-107315465D01*
X163905218Y-107120776D01*
X163853865Y-107019992D01*
X163812287Y-106938390D01*
X163780092Y-106894077D01*
X163691971Y-106772786D01*
X163547213Y-106628028D01*
X163381613Y-106507715D01*
X163381612Y-106507714D01*
X163381610Y-106507713D01*
X163296853Y-106464527D01*
X163199223Y-106414781D01*
X163004534Y-106351522D01*
X162829995Y-106323878D01*
X162802352Y-106319500D01*
X162597648Y-106319500D01*
X162573329Y-106323351D01*
X162395465Y-106351522D01*
X162200776Y-106414781D01*
X162018386Y-106507715D01*
X161852786Y-106628028D01*
X161708028Y-106772786D01*
X161587715Y-106938386D01*
X161540485Y-107031080D01*
X161492510Y-107081876D01*
X161424689Y-107098671D01*
X161358554Y-107076134D01*
X161319515Y-107031080D01*
X161303679Y-107000000D01*
X161272287Y-106938390D01*
X161240092Y-106894077D01*
X161151971Y-106772786D01*
X161007213Y-106628028D01*
X160841613Y-106507715D01*
X160841612Y-106507714D01*
X160841610Y-106507713D01*
X160756853Y-106464527D01*
X160659223Y-106414781D01*
X160464534Y-106351522D01*
X160289995Y-106323878D01*
X160262352Y-106319500D01*
X160057648Y-106319500D01*
X160033329Y-106323351D01*
X159855465Y-106351522D01*
X159660776Y-106414781D01*
X159478386Y-106507715D01*
X159312786Y-106628028D01*
X159168028Y-106772786D01*
X159047715Y-106938386D01*
X159000485Y-107031080D01*
X158952510Y-107081876D01*
X158884689Y-107098671D01*
X158818554Y-107076134D01*
X158779515Y-107031080D01*
X158763679Y-107000000D01*
X158732287Y-106938390D01*
X158700092Y-106894077D01*
X158611971Y-106772786D01*
X158467213Y-106628028D01*
X158301613Y-106507715D01*
X158301612Y-106507714D01*
X158301610Y-106507713D01*
X158216853Y-106464527D01*
X158119223Y-106414781D01*
X157924534Y-106351522D01*
X157749995Y-106323878D01*
X157722352Y-106319500D01*
X157517648Y-106319500D01*
X157493329Y-106323351D01*
X157315465Y-106351522D01*
X157120776Y-106414781D01*
X156938386Y-106507715D01*
X156772786Y-106628028D01*
X156628028Y-106772786D01*
X156507715Y-106938386D01*
X156460485Y-107031080D01*
X156412510Y-107081876D01*
X156344689Y-107098671D01*
X156278554Y-107076134D01*
X156239515Y-107031080D01*
X156223679Y-107000000D01*
X156192287Y-106938390D01*
X156160092Y-106894077D01*
X156071971Y-106772786D01*
X155927213Y-106628028D01*
X155761613Y-106507715D01*
X155761612Y-106507714D01*
X155761610Y-106507713D01*
X155676853Y-106464527D01*
X155579223Y-106414781D01*
X155384534Y-106351522D01*
X155209995Y-106323878D01*
X155182352Y-106319500D01*
X154977648Y-106319500D01*
X154953329Y-106323351D01*
X154775465Y-106351522D01*
X154580776Y-106414781D01*
X154398386Y-106507715D01*
X154232786Y-106628028D01*
X154088028Y-106772786D01*
X153967715Y-106938386D01*
X153920485Y-107031080D01*
X153872510Y-107081876D01*
X153804689Y-107098671D01*
X153738554Y-107076134D01*
X153699515Y-107031080D01*
X153683679Y-107000000D01*
X153652287Y-106938390D01*
X153620092Y-106894077D01*
X153531971Y-106772786D01*
X153387213Y-106628028D01*
X153221613Y-106507715D01*
X153221612Y-106507714D01*
X153221610Y-106507713D01*
X153136853Y-106464527D01*
X153039223Y-106414781D01*
X152844534Y-106351522D01*
X152669995Y-106323878D01*
X152642352Y-106319500D01*
X152437648Y-106319500D01*
X152413329Y-106323351D01*
X152235465Y-106351522D01*
X152040776Y-106414781D01*
X151858386Y-106507715D01*
X151692786Y-106628028D01*
X151548028Y-106772786D01*
X151427715Y-106938386D01*
X151380485Y-107031080D01*
X151332510Y-107081876D01*
X151264689Y-107098671D01*
X151198554Y-107076134D01*
X151159515Y-107031080D01*
X151143679Y-107000000D01*
X151112287Y-106938390D01*
X151080092Y-106894077D01*
X150991971Y-106772786D01*
X150847213Y-106628028D01*
X150681613Y-106507715D01*
X150681612Y-106507714D01*
X150681610Y-106507713D01*
X150596853Y-106464527D01*
X150499223Y-106414781D01*
X150304534Y-106351522D01*
X150129995Y-106323878D01*
X150102352Y-106319500D01*
X149897648Y-106319500D01*
X149873329Y-106323351D01*
X149695465Y-106351522D01*
X149500776Y-106414781D01*
X149318386Y-106507715D01*
X149152786Y-106628028D01*
X149008028Y-106772786D01*
X148887713Y-106938388D01*
X148840203Y-107031630D01*
X148792228Y-107082426D01*
X148724407Y-107099220D01*
X148658272Y-107076682D01*
X148619234Y-107031628D01*
X148571861Y-106938652D01*
X148539474Y-106894077D01*
X148539474Y-106894076D01*
X147860000Y-107573553D01*
X147860000Y-107567339D01*
X147832741Y-107465606D01*
X147780080Y-107374394D01*
X147705606Y-107299920D01*
X147614394Y-107247259D01*
X147512661Y-107220000D01*
X147506446Y-107220000D01*
X148185922Y-106540524D01*
X148185921Y-106540523D01*
X148141359Y-106508147D01*
X148141350Y-106508141D01*
X147959031Y-106415244D01*
X147764417Y-106352009D01*
X147562317Y-106320000D01*
X147357683Y-106320000D01*
X147155582Y-106352009D01*
X146960968Y-106415244D01*
X146778644Y-106508143D01*
X146734077Y-106540523D01*
X146734077Y-106540524D01*
X147413554Y-107220000D01*
X147407339Y-107220000D01*
X147305606Y-107247259D01*
X147214394Y-107299920D01*
X147139920Y-107374394D01*
X147087259Y-107465606D01*
X147060000Y-107567339D01*
X147060000Y-107573553D01*
X146380524Y-106894077D01*
X146380523Y-106894077D01*
X146348143Y-106938644D01*
X146300765Y-107031630D01*
X146252790Y-107082426D01*
X146184969Y-107099221D01*
X146118834Y-107076683D01*
X146079795Y-107031630D01*
X146063679Y-107000000D01*
X146032287Y-106938390D01*
X146032285Y-106938387D01*
X146032284Y-106938385D01*
X145911971Y-106772786D01*
X145767213Y-106628028D01*
X145601613Y-106507715D01*
X145601612Y-106507714D01*
X145601610Y-106507713D01*
X145516853Y-106464527D01*
X145419223Y-106414781D01*
X145224534Y-106351522D01*
X145049995Y-106323878D01*
X145022352Y-106319500D01*
X144817648Y-106319500D01*
X144817644Y-106319500D01*
X144766855Y-106327544D01*
X144697561Y-106318589D01*
X144659776Y-106292752D01*
X143280969Y-104913943D01*
X143280968Y-104913942D01*
X143239773Y-104886417D01*
X143157389Y-104831370D01*
X143157386Y-104831368D01*
X143157385Y-104831368D01*
X143076955Y-104798053D01*
X143020080Y-104774495D01*
X142995894Y-104769684D01*
X142987911Y-104768096D01*
X142874314Y-104745499D01*
X142874312Y-104745499D01*
X142725688Y-104745499D01*
X142719574Y-104745499D01*
X142719554Y-104745500D01*
X137080446Y-104745500D01*
X137080426Y-104745499D01*
X137074312Y-104745499D01*
X136925688Y-104745499D01*
X136925686Y-104745499D01*
X136812086Y-104768096D01*
X136812082Y-104768097D01*
X136804105Y-104769684D01*
X136779920Y-104774495D01*
X136723045Y-104798053D01*
X136719308Y-104799600D01*
X136719293Y-104799606D01*
X136642614Y-104831368D01*
X136519031Y-104913942D01*
X135458942Y-105974031D01*
X135376372Y-106097607D01*
X135376366Y-106097618D01*
X135319496Y-106234916D01*
X135319494Y-106234922D01*
X135309453Y-106285399D01*
X135277066Y-106347309D01*
X135216349Y-106381881D01*
X135149518Y-106379135D01*
X135064537Y-106351523D01*
X134909635Y-106326989D01*
X134862352Y-106319500D01*
X134657648Y-106319500D01*
X134633329Y-106323351D01*
X134455465Y-106351522D01*
X134260776Y-106414781D01*
X134078386Y-106507715D01*
X133912786Y-106628028D01*
X133768028Y-106772786D01*
X133647715Y-106938386D01*
X133600485Y-107031080D01*
X133552510Y-107081876D01*
X133484689Y-107098671D01*
X133418554Y-107076134D01*
X133379515Y-107031080D01*
X133363679Y-107000000D01*
X133332287Y-106938390D01*
X133300092Y-106894077D01*
X133211971Y-106772786D01*
X133067213Y-106628028D01*
X132901613Y-106507715D01*
X132901612Y-106507714D01*
X132901610Y-106507713D01*
X132816853Y-106464527D01*
X132719223Y-106414781D01*
X132524534Y-106351522D01*
X132349995Y-106323878D01*
X132322352Y-106319500D01*
X132117648Y-106319500D01*
X132093329Y-106323351D01*
X131915465Y-106351522D01*
X131720776Y-106414781D01*
X131538386Y-106507715D01*
X131372786Y-106628028D01*
X131228032Y-106772782D01*
X131228028Y-106772787D01*
X131159978Y-106866451D01*
X131104648Y-106909117D01*
X131035035Y-106915096D01*
X130973240Y-106882490D01*
X130941954Y-106832570D01*
X130914814Y-106750666D01*
X130822712Y-106601344D01*
X130698656Y-106477288D01*
X130586819Y-106408307D01*
X130549336Y-106385187D01*
X130549331Y-106385185D01*
X130531073Y-106379135D01*
X130382797Y-106330001D01*
X130382795Y-106330000D01*
X130280010Y-106319500D01*
X129079998Y-106319500D01*
X129079981Y-106319501D01*
X128977203Y-106330000D01*
X128977200Y-106330001D01*
X128810668Y-106385185D01*
X128810663Y-106385187D01*
X128661342Y-106477289D01*
X128537289Y-106601342D01*
X128453864Y-106736597D01*
X128401916Y-106783321D01*
X128348325Y-106795500D01*
X125674317Y-106795500D01*
X125674312Y-106795499D01*
X125525688Y-106795499D01*
X125525683Y-106795500D01*
X123909725Y-106795500D01*
X123842686Y-106775815D01*
X123809407Y-106744386D01*
X123763277Y-106680894D01*
X123684517Y-106572490D01*
X123517510Y-106405483D01*
X123443241Y-106351523D01*
X123345614Y-106280592D01*
X123302949Y-106225261D01*
X123294500Y-106180274D01*
X123294500Y-102419725D01*
X123314185Y-102352686D01*
X123345614Y-102319407D01*
X123517510Y-102194517D01*
X123684517Y-102027510D01*
X123823343Y-101836433D01*
X123930568Y-101625992D01*
X124003553Y-101401368D01*
X124006870Y-101380425D01*
X124040500Y-101168097D01*
X124040500Y-100931902D01*
X124003553Y-100698631D01*
X123953266Y-100543865D01*
X123930568Y-100474008D01*
X123930566Y-100474005D01*
X123930566Y-100474003D01*
X123852138Y-100320080D01*
X123823343Y-100263567D01*
X123684517Y-100072490D01*
X123517510Y-99905483D01*
X123326433Y-99766657D01*
X123115996Y-99659433D01*
X122891368Y-99586446D01*
X122658097Y-99549500D01*
X122658092Y-99549500D01*
X122421908Y-99549500D01*
X122421903Y-99549500D01*
X122188631Y-99586446D01*
X121964003Y-99659433D01*
X121753566Y-99766657D01*
X121729074Y-99784452D01*
X121562490Y-99905483D01*
X121562488Y-99905485D01*
X121562487Y-99905485D01*
X121395485Y-100072487D01*
X121395485Y-100072488D01*
X121395483Y-100072490D01*
X121373788Y-100102351D01*
X121256657Y-100263566D01*
X121149433Y-100474003D01*
X121076446Y-100698631D01*
X121039500Y-100931902D01*
X121039500Y-101168097D01*
X121076446Y-101401368D01*
X121149433Y-101625996D01*
X121243668Y-101810940D01*
X121256657Y-101836433D01*
X121395483Y-102027510D01*
X121562490Y-102194517D01*
X121670042Y-102272658D01*
X121734386Y-102319407D01*
X121777051Y-102374737D01*
X121785500Y-102419725D01*
X121785500Y-106180274D01*
X121765815Y-106247313D01*
X121734386Y-106280592D01*
X121562488Y-106405484D01*
X121395485Y-106572487D01*
X121395485Y-106572488D01*
X121395483Y-106572490D01*
X121355132Y-106628028D01*
X121256657Y-106763566D01*
X121149433Y-106974003D01*
X121076446Y-107198631D01*
X121039500Y-107431902D01*
X121039500Y-107668097D01*
X121076446Y-107901368D01*
X121149433Y-108125996D01*
X121238781Y-108301350D01*
X121256657Y-108336433D01*
X121395483Y-108527510D01*
X121562490Y-108694517D01*
X121753567Y-108833343D01*
X121832225Y-108873421D01*
X121964003Y-108940566D01*
X121964005Y-108940566D01*
X121964008Y-108940568D01*
X122028815Y-108961625D01*
X122188631Y-109013553D01*
X122421903Y-109050500D01*
X122421908Y-109050500D01*
X122658097Y-109050500D01*
X122891368Y-109013553D01*
X122944756Y-108996206D01*
X123115992Y-108940568D01*
X123326433Y-108833343D01*
X123348613Y-108817227D01*
X123360468Y-108812997D01*
X123369979Y-108804756D01*
X123392747Y-108801480D01*
X123414419Y-108793748D01*
X123426679Y-108796599D01*
X123439137Y-108794807D01*
X123460063Y-108804361D01*
X123482473Y-108809573D01*
X123491245Y-108818599D01*
X123502694Y-108823827D01*
X123515133Y-108843179D01*
X123531168Y-108859679D01*
X123534571Y-108873421D01*
X123540473Y-108882602D01*
X123545495Y-108917522D01*
X123545499Y-108917536D01*
X123545499Y-108924312D01*
X123545499Y-108924314D01*
X123545500Y-108930436D01*
X123545500Y-111377488D01*
X123525815Y-111444527D01*
X123494385Y-111477806D01*
X123452787Y-111508028D01*
X123452782Y-111508032D01*
X123308030Y-111652784D01*
X123277808Y-111694384D01*
X123222479Y-111737050D01*
X123177489Y-111745500D01*
X120725683Y-111745500D01*
X120579927Y-111774493D01*
X120579919Y-111774495D01*
X120442608Y-111831371D01*
X120319035Y-111913939D01*
X120319034Y-111913940D01*
X120280451Y-111952524D01*
X120213941Y-112019034D01*
X120213939Y-112019036D01*
X116363943Y-115869030D01*
X116363942Y-115869031D01*
X116281368Y-115992614D01*
X116248917Y-116070957D01*
X116248909Y-116070977D01*
X116248053Y-116073045D01*
X116224495Y-116129920D01*
X116223584Y-116134501D01*
X116221646Y-116144240D01*
X116221646Y-116144242D01*
X116195499Y-116275686D01*
X116195499Y-116430425D01*
X116195500Y-116430446D01*
X116195500Y-120530274D01*
X116175815Y-120597313D01*
X116144386Y-120630592D01*
X115972488Y-120755484D01*
X115805485Y-120922487D01*
X115805485Y-120922488D01*
X115805483Y-120922490D01*
X115755006Y-120991965D01*
X115666657Y-121113566D01*
X115559433Y-121324003D01*
X115486446Y-121548631D01*
X115449500Y-121781902D01*
X115449500Y-122018097D01*
X115486446Y-122251368D01*
X115559433Y-122475996D01*
X115601784Y-122559113D01*
X115666657Y-122686433D01*
X115805483Y-122877510D01*
X115972490Y-123044517D01*
X116163567Y-123183343D01*
X116262991Y-123234002D01*
X116374003Y-123290566D01*
X116374005Y-123290566D01*
X116374008Y-123290568D01*
X116494412Y-123329689D01*
X116598631Y-123363553D01*
X116831903Y-123400500D01*
X116831908Y-123400500D01*
X117068097Y-123400500D01*
X117301368Y-123363553D01*
X117335456Y-123352477D01*
X117525992Y-123290568D01*
X117736433Y-123183343D01*
X117927510Y-123044517D01*
X118094517Y-122877510D01*
X118233343Y-122686433D01*
X118340568Y-122475992D01*
X118413553Y-122251368D01*
X118442963Y-122065682D01*
X118450500Y-122018097D01*
X118450500Y-121781902D01*
X118413553Y-121548631D01*
X118340566Y-121324003D01*
X118233342Y-121113566D01*
X118094517Y-120922490D01*
X117927510Y-120755483D01*
X117885882Y-120725238D01*
X117755614Y-120630592D01*
X117712949Y-120575261D01*
X117704500Y-120530274D01*
X117704500Y-116713886D01*
X117724185Y-116646847D01*
X117740819Y-116626205D01*
X121076205Y-113290819D01*
X121137528Y-113257334D01*
X121163886Y-113254500D01*
X123177489Y-113254500D01*
X123244528Y-113274185D01*
X123277808Y-113305616D01*
X123308030Y-113347215D01*
X123452786Y-113491971D01*
X123581132Y-113585218D01*
X123618390Y-113612287D01*
X123734607Y-113671503D01*
X123800776Y-113705218D01*
X123800778Y-113705218D01*
X123800781Y-113705220D01*
X123905137Y-113739127D01*
X123995465Y-113768477D01*
X124096557Y-113784488D01*
X124197648Y-113800500D01*
X124197649Y-113800500D01*
X124402351Y-113800500D01*
X124402352Y-113800500D01*
X124604534Y-113768477D01*
X124799219Y-113705220D01*
X124981610Y-113612287D01*
X125103517Y-113523717D01*
X125147213Y-113491971D01*
X125147215Y-113491968D01*
X125147219Y-113491966D01*
X125291966Y-113347219D01*
X125291968Y-113347215D01*
X125291971Y-113347213D01*
X125379150Y-113227219D01*
X125412287Y-113181610D01*
X125505220Y-112999219D01*
X125568477Y-112804534D01*
X125600500Y-112602352D01*
X125600500Y-112397648D01*
X125568477Y-112195466D01*
X125544271Y-112120969D01*
X125521050Y-112049500D01*
X125505220Y-112000781D01*
X125505218Y-112000778D01*
X125505218Y-112000776D01*
X125460972Y-111913939D01*
X125412287Y-111818390D01*
X125380396Y-111774495D01*
X125291971Y-111652786D01*
X125147217Y-111508032D01*
X125147212Y-111508028D01*
X125105615Y-111477806D01*
X125062949Y-111422476D01*
X125054500Y-111377488D01*
X125054500Y-109213886D01*
X125074185Y-109146847D01*
X125090819Y-109126205D01*
X125876205Y-108340819D01*
X125937528Y-108307334D01*
X125963886Y-108304500D01*
X128294397Y-108304500D01*
X128361436Y-108324185D01*
X128407191Y-108376989D01*
X128412102Y-108389494D01*
X128445186Y-108489334D01*
X128537288Y-108638656D01*
X128661344Y-108762712D01*
X128810666Y-108854814D01*
X128977203Y-108909999D01*
X129079991Y-108920500D01*
X130280008Y-108920499D01*
X130382797Y-108909999D01*
X130549334Y-108854814D01*
X130698656Y-108762712D01*
X130822712Y-108638656D01*
X130914814Y-108489334D01*
X130941955Y-108407427D01*
X130981726Y-108349984D01*
X131046242Y-108323161D01*
X131115018Y-108335476D01*
X131159977Y-108373547D01*
X131228034Y-108467219D01*
X131372781Y-108611966D01*
X131414384Y-108642192D01*
X131457050Y-108697520D01*
X131465500Y-108742510D01*
X131465500Y-113616113D01*
X131445815Y-113683152D01*
X131429181Y-113703794D01*
X129123794Y-116009181D01*
X129062471Y-116042666D01*
X129036113Y-116045500D01*
X121780446Y-116045500D01*
X121780426Y-116045499D01*
X121774312Y-116045499D01*
X121625688Y-116045499D01*
X121625686Y-116045499D01*
X121512086Y-116068096D01*
X121512082Y-116068097D01*
X121504105Y-116069684D01*
X121479920Y-116074495D01*
X121423045Y-116098053D01*
X121419308Y-116099600D01*
X121419293Y-116099606D01*
X121342615Y-116131367D01*
X121302501Y-116158171D01*
X121219033Y-116213941D01*
X121166487Y-116266487D01*
X121113941Y-116319034D01*
X121113939Y-116319036D01*
X119513943Y-117919030D01*
X119513942Y-117919031D01*
X119431372Y-118042607D01*
X119431366Y-118042618D01*
X119374496Y-118179916D01*
X119374493Y-118179926D01*
X119345499Y-118325685D01*
X119345499Y-118480425D01*
X119345500Y-118480446D01*
X119345500Y-131020552D01*
X119345499Y-131020578D01*
X119345499Y-131025688D01*
X119345499Y-131174312D01*
X119345499Y-131174314D01*
X119345498Y-131174314D01*
X119374493Y-131320073D01*
X119374496Y-131320083D01*
X119431366Y-131457381D01*
X119431372Y-131457392D01*
X119513942Y-131580968D01*
X119513943Y-131580969D01*
X120348245Y-132415269D01*
X120613939Y-132680963D01*
X120613941Y-132680966D01*
X120719034Y-132786059D01*
X120774569Y-132823166D01*
X120780981Y-132828872D01*
X120795114Y-132851519D01*
X120812239Y-132872009D01*
X120813331Y-132880709D01*
X120817973Y-132888146D01*
X120817618Y-132914842D01*
X120820946Y-132941334D01*
X120817162Y-132949242D01*
X120817046Y-132958010D01*
X120802313Y-132980279D01*
X120790792Y-133004362D01*
X120783333Y-133008969D01*
X120778496Y-133016282D01*
X120754063Y-133027050D01*
X120731349Y-133041082D01*
X120718214Y-133042850D01*
X120714561Y-133044461D01*
X120710731Y-133043858D01*
X120698543Y-133045500D01*
X117163886Y-133045500D01*
X117096847Y-133025815D01*
X117076205Y-133009181D01*
X114590819Y-130523794D01*
X114557334Y-130462471D01*
X114554500Y-130436113D01*
X114554500Y-115743886D01*
X114574185Y-115676847D01*
X114590814Y-115656210D01*
X116419777Y-113827246D01*
X116481100Y-113793762D01*
X116526856Y-113792455D01*
X116577648Y-113800500D01*
X116577649Y-113800500D01*
X116782351Y-113800500D01*
X116782352Y-113800500D01*
X116984534Y-113768477D01*
X117179219Y-113705220D01*
X117361610Y-113612287D01*
X117483517Y-113523717D01*
X117527213Y-113491971D01*
X117527215Y-113491968D01*
X117527219Y-113491966D01*
X117671966Y-113347219D01*
X117671968Y-113347215D01*
X117671971Y-113347213D01*
X117759150Y-113227219D01*
X117792287Y-113181610D01*
X117885220Y-112999219D01*
X117948477Y-112804534D01*
X117980500Y-112602352D01*
X117980500Y-112397648D01*
X117948477Y-112195466D01*
X117924271Y-112120969D01*
X117901050Y-112049500D01*
X117885220Y-112000781D01*
X117885218Y-112000778D01*
X117885218Y-112000776D01*
X117840972Y-111913939D01*
X117792287Y-111818390D01*
X117760396Y-111774495D01*
X117671971Y-111652786D01*
X117527213Y-111508028D01*
X117361613Y-111387715D01*
X117361612Y-111387714D01*
X117361610Y-111387713D01*
X117302914Y-111357806D01*
X117179223Y-111294781D01*
X116984534Y-111231522D01*
X116809995Y-111203878D01*
X116782352Y-111199500D01*
X116577648Y-111199500D01*
X116577644Y-111199500D01*
X116526855Y-111207544D01*
X116457561Y-111198589D01*
X116419776Y-111172752D01*
X115390819Y-110143794D01*
X115357334Y-110082471D01*
X115354500Y-110056113D01*
X115354500Y-107431947D01*
X116540000Y-107431947D01*
X116540000Y-107668052D01*
X116576934Y-107901247D01*
X116649897Y-108125802D01*
X116757087Y-108336174D01*
X116817338Y-108419104D01*
X116817340Y-108419105D01*
X117516212Y-107720233D01*
X117527482Y-107762292D01*
X117599890Y-107887708D01*
X117702292Y-107990110D01*
X117827708Y-108062518D01*
X117869765Y-108073787D01*
X117170893Y-108772658D01*
X117253828Y-108832914D01*
X117464197Y-108940102D01*
X117688752Y-109013065D01*
X117688751Y-109013065D01*
X117921948Y-109050000D01*
X118158052Y-109050000D01*
X118391247Y-109013065D01*
X118615802Y-108940102D01*
X118826163Y-108832918D01*
X118826169Y-108832914D01*
X118909104Y-108772658D01*
X118909105Y-108772658D01*
X118210233Y-108073787D01*
X118252292Y-108062518D01*
X118377708Y-107990110D01*
X118480110Y-107887708D01*
X118552518Y-107762292D01*
X118563787Y-107720234D01*
X119262658Y-108419105D01*
X119262658Y-108419104D01*
X119322914Y-108336169D01*
X119322918Y-108336163D01*
X119430102Y-108125802D01*
X119503065Y-107901247D01*
X119540000Y-107668052D01*
X119540000Y-107431947D01*
X119503065Y-107198752D01*
X119430102Y-106974197D01*
X119322914Y-106763828D01*
X119262658Y-106680894D01*
X119262658Y-106680893D01*
X118563787Y-107379765D01*
X118552518Y-107337708D01*
X118480110Y-107212292D01*
X118377708Y-107109890D01*
X118252292Y-107037482D01*
X118210234Y-107026212D01*
X118909105Y-106327340D01*
X118909104Y-106327338D01*
X118826174Y-106267087D01*
X118615802Y-106159897D01*
X118391247Y-106086934D01*
X118391248Y-106086934D01*
X118158052Y-106050000D01*
X117921948Y-106050000D01*
X117688752Y-106086934D01*
X117464197Y-106159897D01*
X117253830Y-106267084D01*
X117170894Y-106327340D01*
X117869766Y-107026212D01*
X117827708Y-107037482D01*
X117702292Y-107109890D01*
X117599890Y-107212292D01*
X117527482Y-107337708D01*
X117516212Y-107379766D01*
X116817340Y-106680894D01*
X116757084Y-106763830D01*
X116649897Y-106974197D01*
X116576934Y-107198752D01*
X116540000Y-107431947D01*
X115354500Y-107431947D01*
X115354500Y-100931947D01*
X116540000Y-100931947D01*
X116540000Y-101168052D01*
X116576934Y-101401247D01*
X116649897Y-101625802D01*
X116757087Y-101836174D01*
X116817338Y-101919104D01*
X116817340Y-101919105D01*
X117516212Y-101220233D01*
X117527482Y-101262292D01*
X117599890Y-101387708D01*
X117702292Y-101490110D01*
X117827708Y-101562518D01*
X117869765Y-101573787D01*
X117170893Y-102272658D01*
X117253828Y-102332914D01*
X117464197Y-102440102D01*
X117688752Y-102513065D01*
X117688751Y-102513065D01*
X117921948Y-102550000D01*
X118158052Y-102550000D01*
X118391247Y-102513065D01*
X118615802Y-102440102D01*
X118826163Y-102332918D01*
X118826169Y-102332914D01*
X118909104Y-102272658D01*
X118909105Y-102272658D01*
X118210233Y-101573787D01*
X118252292Y-101562518D01*
X118377708Y-101490110D01*
X118480110Y-101387708D01*
X118552518Y-101262292D01*
X118563787Y-101220234D01*
X119262658Y-101919105D01*
X119262658Y-101919104D01*
X119322914Y-101836169D01*
X119322918Y-101836163D01*
X119430102Y-101625802D01*
X119503065Y-101401247D01*
X119540000Y-101168052D01*
X119540000Y-100931947D01*
X119503065Y-100698752D01*
X119430102Y-100474197D01*
X119322914Y-100263828D01*
X119262658Y-100180894D01*
X119262658Y-100180893D01*
X118563787Y-100879765D01*
X118552518Y-100837708D01*
X118480110Y-100712292D01*
X118377708Y-100609890D01*
X118252292Y-100537482D01*
X118210234Y-100526212D01*
X118909105Y-99827340D01*
X118909104Y-99827338D01*
X118826174Y-99767087D01*
X118615802Y-99659897D01*
X118391247Y-99586934D01*
X118391248Y-99586934D01*
X118158052Y-99550000D01*
X117921948Y-99550000D01*
X117688752Y-99586934D01*
X117464197Y-99659897D01*
X117253830Y-99767084D01*
X117170894Y-99827340D01*
X117869766Y-100526212D01*
X117827708Y-100537482D01*
X117702292Y-100609890D01*
X117599890Y-100712292D01*
X117527482Y-100837708D01*
X117516212Y-100879766D01*
X116817340Y-100180894D01*
X116757084Y-100263830D01*
X116649897Y-100474197D01*
X116576934Y-100698752D01*
X116540000Y-100931947D01*
X115354500Y-100931947D01*
X115354500Y-99963887D01*
X115363144Y-99934446D01*
X115369668Y-99904460D01*
X115373422Y-99899444D01*
X115374185Y-99896848D01*
X115390819Y-99876206D01*
X125286057Y-89980968D01*
X125286059Y-89980966D01*
X125368630Y-89857389D01*
X125401946Y-89776955D01*
X125425505Y-89720080D01*
X125450925Y-89592287D01*
X125454501Y-89574312D01*
X125454501Y-89425688D01*
X125454501Y-89420578D01*
X125454500Y-89420552D01*
X125454500Y-86053975D01*
X125474185Y-85986936D01*
X125526989Y-85941181D01*
X125539489Y-85936271D01*
X125619334Y-85909814D01*
X125768656Y-85817712D01*
X125892712Y-85693656D01*
X125984814Y-85544334D01*
X125984814Y-85544331D01*
X125988448Y-85538441D01*
X126040395Y-85491716D01*
X126109358Y-85480493D01*
X126173440Y-85508336D01*
X126181668Y-85515856D01*
X126320535Y-85654723D01*
X126320540Y-85654727D01*
X126492442Y-85779620D01*
X126681782Y-85876095D01*
X126883871Y-85941757D01*
X126950000Y-85952231D01*
X126950000Y-84904145D01*
X127016657Y-84942630D01*
X127137465Y-84975000D01*
X127262535Y-84975000D01*
X127383343Y-84942630D01*
X127450000Y-84904145D01*
X127450000Y-85952230D01*
G37*
%TD.AperFunction*%
%TA.AperFunction,Conductor*%
G36*
X137004703Y-122872174D02*
G01*
X137011181Y-122878206D01*
X144097458Y-129964484D01*
X144130943Y-130025807D01*
X144125959Y-130095499D01*
X144084087Y-130151432D01*
X144082662Y-130152483D01*
X144038282Y-130184726D01*
X144038282Y-130184728D01*
X144670591Y-130817037D01*
X144607007Y-130834075D01*
X144492993Y-130899901D01*
X144399901Y-130992993D01*
X144334075Y-131107007D01*
X144317037Y-131170591D01*
X143646818Y-130500372D01*
X143613333Y-130439049D01*
X143610499Y-130412691D01*
X143610499Y-130402129D01*
X143610498Y-130402123D01*
X143604091Y-130342516D01*
X143553797Y-130207671D01*
X143553793Y-130207664D01*
X143467547Y-130092455D01*
X143467544Y-130092452D01*
X143352335Y-130006206D01*
X143352328Y-130006202D01*
X143217482Y-129955908D01*
X143217483Y-129955908D01*
X143157883Y-129949501D01*
X143157881Y-129949500D01*
X143157873Y-129949500D01*
X143157865Y-129949500D01*
X142027886Y-129949500D01*
X141960847Y-129929815D01*
X141940205Y-129913181D01*
X137836647Y-125809621D01*
X137836624Y-125809600D01*
X136835819Y-124808794D01*
X136802334Y-124747471D01*
X136799500Y-124721113D01*
X136799500Y-122965887D01*
X136819185Y-122898848D01*
X136871989Y-122853093D01*
X136941147Y-122843149D01*
X137004703Y-122872174D01*
G37*
%TD.AperFunction*%
%TA.AperFunction,Conductor*%
G36*
X147060000Y-107672661D02*
G01*
X147087259Y-107774394D01*
X147139920Y-107865606D01*
X147214394Y-107940080D01*
X147305606Y-107992741D01*
X147407339Y-108020000D01*
X147413553Y-108020000D01*
X146734076Y-108699474D01*
X146778650Y-108731859D01*
X146960968Y-108824755D01*
X147155582Y-108887990D01*
X147357683Y-108920000D01*
X147562317Y-108920000D01*
X147764417Y-108887990D01*
X147959030Y-108824755D01*
X147965203Y-108821610D01*
X148033872Y-108808713D01*
X148098613Y-108834988D01*
X148138871Y-108892093D01*
X148145500Y-108932094D01*
X148145500Y-112445988D01*
X148125815Y-112513027D01*
X148121818Y-112518874D01*
X148030476Y-112644594D01*
X147941117Y-112819970D01*
X147880290Y-113007173D01*
X147849500Y-113201577D01*
X147849500Y-113398422D01*
X147880290Y-113592826D01*
X147941117Y-113780029D01*
X147980251Y-113856833D01*
X148030476Y-113955405D01*
X148146172Y-114114646D01*
X148285354Y-114253828D01*
X148444595Y-114369524D01*
X148505154Y-114400380D01*
X148619970Y-114458882D01*
X148619972Y-114458882D01*
X148619975Y-114458884D01*
X148720317Y-114491487D01*
X148807173Y-114519709D01*
X149001578Y-114550500D01*
X149001583Y-114550500D01*
X149198415Y-114550500D01*
X149198417Y-114550500D01*
X149209438Y-114548754D01*
X149278729Y-114557705D01*
X149316520Y-114583545D01*
X149609181Y-114876205D01*
X149642666Y-114937528D01*
X149645500Y-114963886D01*
X149645500Y-117115437D01*
X149625815Y-117182476D01*
X149573011Y-117228231D01*
X149550461Y-117236008D01*
X149548632Y-117236447D01*
X149324005Y-117309433D01*
X149113566Y-117416657D01*
X149004550Y-117495862D01*
X148922490Y-117555483D01*
X148922488Y-117555485D01*
X148922487Y-117555485D01*
X148755485Y-117722487D01*
X148755485Y-117722488D01*
X148755483Y-117722490D01*
X148695862Y-117804550D01*
X148616657Y-117913566D01*
X148509433Y-118124003D01*
X148436446Y-118348631D01*
X148399500Y-118581902D01*
X148399500Y-118818097D01*
X148436446Y-119051368D01*
X148509433Y-119275996D01*
X148616657Y-119486433D01*
X148755483Y-119677510D01*
X148922490Y-119844517D01*
X149113567Y-119983343D01*
X149212991Y-120034002D01*
X149324003Y-120090566D01*
X149324005Y-120090566D01*
X149324008Y-120090568D01*
X149444412Y-120129689D01*
X149548631Y-120163553D01*
X149781903Y-120200500D01*
X149781908Y-120200500D01*
X150018097Y-120200500D01*
X150251368Y-120163553D01*
X150475992Y-120090568D01*
X150686433Y-119983343D01*
X150877510Y-119844517D01*
X151044517Y-119677510D01*
X151183343Y-119486433D01*
X151290568Y-119275992D01*
X151363553Y-119051368D01*
X151400500Y-118818097D01*
X151400500Y-118581902D01*
X151363553Y-118348631D01*
X151308735Y-118179921D01*
X151290568Y-118124008D01*
X151290566Y-118124005D01*
X151290566Y-118124003D01*
X151249092Y-118042607D01*
X151183343Y-117913567D01*
X151180733Y-117909975D01*
X151178180Y-117906460D01*
X151154702Y-117840653D01*
X151154500Y-117833577D01*
X151154500Y-114680446D01*
X151154501Y-114680425D01*
X151154501Y-114525685D01*
X151125506Y-114379925D01*
X151125503Y-114379915D01*
X151123138Y-114374205D01*
X151123132Y-114374194D01*
X151121755Y-114370868D01*
X151090516Y-114295449D01*
X151068630Y-114242611D01*
X151040211Y-114200079D01*
X150986059Y-114119034D01*
X150986057Y-114119031D01*
X150876647Y-114009621D01*
X150876624Y-114009600D01*
X150383545Y-113516520D01*
X150350060Y-113455197D01*
X150348754Y-113409439D01*
X150350500Y-113398417D01*
X150350500Y-113201583D01*
X150350500Y-113201577D01*
X150319709Y-113007173D01*
X150258882Y-112819970D01*
X150169523Y-112644594D01*
X150138832Y-112602352D01*
X150053828Y-112485354D01*
X149914646Y-112346172D01*
X149755405Y-112230476D01*
X149722203Y-112213558D01*
X149671408Y-112165582D01*
X149654500Y-112103074D01*
X149654500Y-109083886D01*
X149663143Y-109054449D01*
X149669667Y-109024460D01*
X149673422Y-109019443D01*
X149674185Y-109016847D01*
X149690818Y-108996206D01*
X149713085Y-108973939D01*
X149739777Y-108947246D01*
X149801098Y-108913762D01*
X149846855Y-108912455D01*
X149869056Y-108915971D01*
X149897648Y-108920500D01*
X149897649Y-108920500D01*
X150102351Y-108920500D01*
X150102352Y-108920500D01*
X150304534Y-108888477D01*
X150499219Y-108825220D01*
X150681610Y-108732287D01*
X150774590Y-108664732D01*
X150847213Y-108611971D01*
X150847215Y-108611968D01*
X150847219Y-108611966D01*
X150991966Y-108467219D01*
X150991968Y-108467215D01*
X150991971Y-108467213D01*
X151112284Y-108301614D01*
X151112286Y-108301611D01*
X151112287Y-108301610D01*
X151159516Y-108208917D01*
X151207489Y-108158123D01*
X151275310Y-108141328D01*
X151341445Y-108163865D01*
X151380483Y-108208917D01*
X151395829Y-108239034D01*
X151427715Y-108301614D01*
X151548028Y-108467213D01*
X151548034Y-108467219D01*
X151692781Y-108611966D01*
X151734384Y-108642192D01*
X151777050Y-108697520D01*
X151785500Y-108742510D01*
X151785500Y-111560552D01*
X151785499Y-111560578D01*
X151785499Y-111565688D01*
X151785499Y-111714312D01*
X151785499Y-111714314D01*
X151785498Y-111714314D01*
X151814493Y-111860073D01*
X151814496Y-111860083D01*
X151871366Y-111997381D01*
X151871372Y-111997392D01*
X151953942Y-112120968D01*
X151953943Y-112120969D01*
X152726647Y-112893672D01*
X152760132Y-112954995D01*
X152759641Y-113002139D01*
X152761053Y-113002363D01*
X152729500Y-113201577D01*
X152729500Y-113398422D01*
X152760290Y-113592826D01*
X152821117Y-113780029D01*
X152860251Y-113856833D01*
X152910476Y-113955405D01*
X153026172Y-114114646D01*
X153165354Y-114253828D01*
X153174383Y-114260388D01*
X153217050Y-114315715D01*
X153225500Y-114360707D01*
X153225500Y-116600552D01*
X153225499Y-116600578D01*
X153225499Y-116605688D01*
X153225499Y-116754312D01*
X153225499Y-116754314D01*
X153225498Y-116754314D01*
X153254493Y-116900073D01*
X153254496Y-116900083D01*
X153311366Y-117037381D01*
X153311372Y-117037392D01*
X153393942Y-117160968D01*
X153393943Y-117160969D01*
X154491109Y-118258133D01*
X154524594Y-118319456D01*
X154525901Y-118365212D01*
X154499500Y-118531902D01*
X154499500Y-118768097D01*
X154536446Y-119001368D01*
X154609433Y-119225996D01*
X154656511Y-119318390D01*
X154716657Y-119436433D01*
X154855483Y-119627510D01*
X155022490Y-119794517D01*
X155213567Y-119933343D01*
X155311696Y-119983342D01*
X155424003Y-120040566D01*
X155424005Y-120040566D01*
X155424008Y-120040568D01*
X155544412Y-120079689D01*
X155648631Y-120113553D01*
X155881903Y-120150500D01*
X155881908Y-120150500D01*
X156118097Y-120150500D01*
X156351368Y-120113553D01*
X156422114Y-120090566D01*
X156575992Y-120040568D01*
X156786433Y-119933343D01*
X156977510Y-119794517D01*
X157144517Y-119627510D01*
X157283343Y-119436433D01*
X157390568Y-119225992D01*
X157463553Y-119001368D01*
X157481554Y-118887713D01*
X157500500Y-118768097D01*
X157500500Y-118531902D01*
X157463553Y-118298631D01*
X157406812Y-118124003D01*
X157390568Y-118074008D01*
X157390566Y-118074005D01*
X157390566Y-118074003D01*
X157305198Y-117906460D01*
X157283343Y-117863567D01*
X157144517Y-117672490D01*
X156977510Y-117505483D01*
X156786433Y-117366657D01*
X156575996Y-117259433D01*
X156351368Y-117186446D01*
X156118097Y-117149500D01*
X156118092Y-117149500D01*
X155881908Y-117149500D01*
X155881903Y-117149500D01*
X155648629Y-117186447D01*
X155643890Y-117187585D01*
X155643620Y-117186462D01*
X155579216Y-117188292D01*
X155523077Y-117156052D01*
X154770819Y-116403794D01*
X154737334Y-116342471D01*
X154734500Y-116316113D01*
X154734500Y-114360707D01*
X154754185Y-114293668D01*
X154785614Y-114260389D01*
X154794646Y-114253828D01*
X154933828Y-114114646D01*
X155049524Y-113955405D01*
X155138884Y-113780025D01*
X155199709Y-113592826D01*
X155215633Y-113492287D01*
X155230500Y-113398422D01*
X155230500Y-113201577D01*
X155199709Y-113007173D01*
X155138882Y-112819970D01*
X155049523Y-112644594D01*
X155018832Y-112602352D01*
X154933828Y-112485354D01*
X154794646Y-112346172D01*
X154635405Y-112230476D01*
X154460029Y-112141117D01*
X154272826Y-112080290D01*
X154078422Y-112049500D01*
X154078417Y-112049500D01*
X154067886Y-112049500D01*
X154000847Y-112029815D01*
X153980205Y-112013181D01*
X153330819Y-111363794D01*
X153297334Y-111302471D01*
X153294500Y-111276113D01*
X153294500Y-108742510D01*
X153314185Y-108675471D01*
X153345613Y-108642193D01*
X153387219Y-108611966D01*
X153531966Y-108467219D01*
X153531968Y-108467215D01*
X153531971Y-108467213D01*
X153652284Y-108301614D01*
X153652286Y-108301611D01*
X153652287Y-108301610D01*
X153699516Y-108208917D01*
X153747489Y-108158123D01*
X153815310Y-108141328D01*
X153881445Y-108163865D01*
X153920483Y-108208917D01*
X153935829Y-108239034D01*
X153967715Y-108301614D01*
X154088028Y-108467213D01*
X154232786Y-108611971D01*
X154353226Y-108699474D01*
X154398390Y-108732287D01*
X154514607Y-108791503D01*
X154580776Y-108825218D01*
X154580778Y-108825218D01*
X154580781Y-108825220D01*
X154671856Y-108854812D01*
X154775465Y-108888477D01*
X154876557Y-108904488D01*
X154977648Y-108920500D01*
X154977649Y-108920500D01*
X155182351Y-108920500D01*
X155182352Y-108920500D01*
X155233142Y-108912455D01*
X155302436Y-108921409D01*
X155340222Y-108947247D01*
X158309181Y-111916205D01*
X158342666Y-111977528D01*
X158345500Y-112003886D01*
X158345500Y-126796112D01*
X158325815Y-126863151D01*
X158309181Y-126883793D01*
X155263923Y-129929050D01*
X155202600Y-129962535D01*
X155156844Y-129963842D01*
X155066292Y-129949500D01*
X155066287Y-129949500D01*
X154853713Y-129949500D01*
X154810837Y-129956291D01*
X154643760Y-129982753D01*
X154441585Y-130048444D01*
X154252179Y-130144951D01*
X154080213Y-130269890D01*
X153929890Y-130420213D01*
X153804949Y-130592182D01*
X153800484Y-130600946D01*
X153752509Y-130651742D01*
X153684688Y-130668536D01*
X153618553Y-130645998D01*
X153579516Y-130600946D01*
X153575050Y-130592182D01*
X153450109Y-130420213D01*
X153299786Y-130269890D01*
X153127820Y-130144951D01*
X152938414Y-130048444D01*
X152938413Y-130048443D01*
X152938412Y-130048443D01*
X152736243Y-129982754D01*
X152736241Y-129982753D01*
X152736240Y-129982753D01*
X152569163Y-129956291D01*
X152526287Y-129949500D01*
X152313713Y-129949500D01*
X152313708Y-129949500D01*
X152205888Y-129966577D01*
X152136594Y-129957622D01*
X152098809Y-129931785D01*
X150059759Y-127892733D01*
X150026274Y-127831410D01*
X150031258Y-127761718D01*
X150073130Y-127705785D01*
X150128043Y-127682579D01*
X150251246Y-127663066D01*
X150251247Y-127663065D01*
X150475802Y-127590102D01*
X150686163Y-127482918D01*
X150686169Y-127482914D01*
X150769104Y-127422658D01*
X150769105Y-127422658D01*
X150759527Y-127413080D01*
X150029408Y-126682962D01*
X150092993Y-126665925D01*
X150207007Y-126600099D01*
X150300099Y-126507007D01*
X150365925Y-126392993D01*
X150382962Y-126329409D01*
X151122658Y-127069105D01*
X151122658Y-127069104D01*
X151182914Y-126986169D01*
X151182918Y-126986163D01*
X151290102Y-126775802D01*
X151363065Y-126551247D01*
X151400000Y-126318052D01*
X151400000Y-126081949D01*
X151394381Y-126046474D01*
X151394381Y-126046473D01*
X151392080Y-126031947D01*
X154500000Y-126031947D01*
X154500000Y-126268052D01*
X154536934Y-126501247D01*
X154609897Y-126725802D01*
X154717087Y-126936174D01*
X154777338Y-127019104D01*
X154777340Y-127019105D01*
X155517037Y-126279408D01*
X155534075Y-126342993D01*
X155599901Y-126457007D01*
X155692993Y-126550099D01*
X155807007Y-126615925D01*
X155870590Y-126632962D01*
X155130893Y-127372658D01*
X155213828Y-127432914D01*
X155424197Y-127540102D01*
X155648752Y-127613065D01*
X155648751Y-127613065D01*
X155881948Y-127650000D01*
X156118052Y-127650000D01*
X156351247Y-127613065D01*
X156575802Y-127540102D01*
X156786163Y-127432918D01*
X156786169Y-127432914D01*
X156869104Y-127372658D01*
X156869105Y-127372658D01*
X156129408Y-126632962D01*
X156192993Y-126615925D01*
X156307007Y-126550099D01*
X156400099Y-126457007D01*
X156465925Y-126342993D01*
X156482962Y-126279409D01*
X157222658Y-127019105D01*
X157222658Y-127019104D01*
X157282914Y-126936169D01*
X157282918Y-126936163D01*
X157390102Y-126725802D01*
X157463065Y-126501247D01*
X157500000Y-126268052D01*
X157500000Y-126031947D01*
X157463065Y-125798752D01*
X157390102Y-125574197D01*
X157282914Y-125363828D01*
X157222658Y-125280894D01*
X157222658Y-125280893D01*
X156482962Y-126020590D01*
X156465925Y-125957007D01*
X156400099Y-125842993D01*
X156307007Y-125749901D01*
X156192993Y-125684075D01*
X156129409Y-125667037D01*
X156869105Y-124927340D01*
X156869104Y-124927338D01*
X156786174Y-124867087D01*
X156575802Y-124759897D01*
X156351247Y-124686934D01*
X156351248Y-124686934D01*
X156118052Y-124650000D01*
X155881948Y-124650000D01*
X155648752Y-124686934D01*
X155424197Y-124759897D01*
X155213830Y-124867084D01*
X155130894Y-124927340D01*
X155870591Y-125667037D01*
X155807007Y-125684075D01*
X155692993Y-125749901D01*
X155599901Y-125842993D01*
X155534075Y-125957007D01*
X155517037Y-126020591D01*
X154777340Y-125280894D01*
X154717084Y-125363830D01*
X154609897Y-125574197D01*
X154536934Y-125798752D01*
X154500000Y-126031947D01*
X151392080Y-126031947D01*
X151363065Y-125848751D01*
X151290102Y-125624197D01*
X151182914Y-125413828D01*
X151122658Y-125330894D01*
X151122658Y-125330893D01*
X150382962Y-126070590D01*
X150365925Y-126007007D01*
X150300099Y-125892993D01*
X150207007Y-125799901D01*
X150092993Y-125734075D01*
X150029409Y-125717037D01*
X150769105Y-124977340D01*
X150769104Y-124977339D01*
X150686174Y-124917087D01*
X150475802Y-124809897D01*
X150251247Y-124736934D01*
X150251248Y-124736934D01*
X150018052Y-124700000D01*
X149781948Y-124700000D01*
X149548752Y-124736934D01*
X149324197Y-124809897D01*
X149113830Y-124917084D01*
X149030894Y-124977340D01*
X149770591Y-125717037D01*
X149707007Y-125734075D01*
X149592993Y-125799901D01*
X149499901Y-125892993D01*
X149434075Y-126007007D01*
X149417037Y-126070591D01*
X148677340Y-125330894D01*
X148617084Y-125413830D01*
X148509897Y-125624197D01*
X148436934Y-125848752D01*
X148400000Y-126081947D01*
X148400000Y-126318052D01*
X148436934Y-126551247D01*
X148509897Y-126775802D01*
X148617087Y-126986174D01*
X148677338Y-127069104D01*
X148677340Y-127069105D01*
X149417037Y-126329408D01*
X149434075Y-126392993D01*
X149499901Y-126507007D01*
X149592993Y-126600099D01*
X149707007Y-126665925D01*
X149770590Y-126682962D01*
X149026913Y-127426638D01*
X149015672Y-127480149D01*
X148966621Y-127529905D01*
X148906419Y-127545500D01*
X148063886Y-127545500D01*
X147996847Y-127525815D01*
X147976205Y-127509181D01*
X145579304Y-125112280D01*
X145507780Y-125040756D01*
X143170819Y-122703794D01*
X143137334Y-122642471D01*
X143134500Y-122616113D01*
X143134500Y-108742510D01*
X143154185Y-108675471D01*
X143185613Y-108642193D01*
X143227219Y-108611966D01*
X143371966Y-108467219D01*
X143371968Y-108467215D01*
X143371971Y-108467213D01*
X143492284Y-108301614D01*
X143492286Y-108301611D01*
X143492287Y-108301610D01*
X143539516Y-108208917D01*
X143587489Y-108158123D01*
X143655310Y-108141328D01*
X143721445Y-108163865D01*
X143760483Y-108208917D01*
X143775829Y-108239034D01*
X143807715Y-108301614D01*
X143928028Y-108467213D01*
X144072786Y-108611971D01*
X144193226Y-108699474D01*
X144238390Y-108732287D01*
X144354607Y-108791503D01*
X144420776Y-108825218D01*
X144420778Y-108825218D01*
X144420781Y-108825220D01*
X144511856Y-108854812D01*
X144615465Y-108888477D01*
X144716557Y-108904488D01*
X144817648Y-108920500D01*
X144817649Y-108920500D01*
X145022351Y-108920500D01*
X145022352Y-108920500D01*
X145224534Y-108888477D01*
X145419219Y-108825220D01*
X145601610Y-108732287D01*
X145694590Y-108664732D01*
X145767213Y-108611971D01*
X145767215Y-108611968D01*
X145767219Y-108611966D01*
X145911966Y-108467219D01*
X145911968Y-108467215D01*
X145911971Y-108467213D01*
X146032286Y-108301611D01*
X146032415Y-108301359D01*
X146079795Y-108208369D01*
X146127769Y-108157573D01*
X146195590Y-108140778D01*
X146261725Y-108163315D01*
X146300765Y-108208369D01*
X146348141Y-108301350D01*
X146348147Y-108301359D01*
X146380523Y-108345921D01*
X146380524Y-108345922D01*
X147060000Y-107666446D01*
X147060000Y-107672661D01*
G37*
%TD.AperFunction*%
%TA.AperFunction,Conductor*%
G36*
X113384048Y-79820185D02*
G01*
X113429803Y-79872989D01*
X113441009Y-79924500D01*
X113441009Y-95515274D01*
X116256870Y-95515274D01*
X116256870Y-79924500D01*
X116276555Y-79857461D01*
X116329359Y-79811706D01*
X116380870Y-79800500D01*
X182375500Y-79800500D01*
X182442539Y-79820185D01*
X182488294Y-79872989D01*
X182499500Y-79924500D01*
X182499500Y-137375500D01*
X182479815Y-137442539D01*
X182427011Y-137488294D01*
X182375500Y-137499500D01*
X111624500Y-137499500D01*
X111557461Y-137479815D01*
X111511706Y-137427011D01*
X111500500Y-137375500D01*
X111500500Y-115305685D01*
X113045499Y-115305685D01*
X113045499Y-115305687D01*
X113045499Y-115305688D01*
X113045499Y-115454312D01*
X113045499Y-115454316D01*
X113045500Y-115460436D01*
X113045500Y-130720552D01*
X113045499Y-130720578D01*
X113045499Y-130874313D01*
X113059085Y-130942609D01*
X113059085Y-130942611D01*
X113074492Y-131020072D01*
X113074495Y-131020081D01*
X113098053Y-131076955D01*
X113131370Y-131157389D01*
X113142678Y-131174312D01*
X113213942Y-131280968D01*
X113213943Y-131280969D01*
X116209600Y-134276624D01*
X116209621Y-134276647D01*
X116319029Y-134386055D01*
X116319032Y-134386057D01*
X116319034Y-134386059D01*
X116401605Y-134441230D01*
X116442611Y-134468630D01*
X116523045Y-134501946D01*
X116579920Y-134525505D01*
X116579929Y-134525506D01*
X116579930Y-134525507D01*
X116604103Y-134530315D01*
X116604110Y-134530316D01*
X116725686Y-134554501D01*
X116725688Y-134554501D01*
X116880426Y-134554501D01*
X116880446Y-134554500D01*
X127219554Y-134554500D01*
X127219574Y-134554501D01*
X127225688Y-134554501D01*
X127374314Y-134554501D01*
X127411009Y-134547200D01*
X127495894Y-134530315D01*
X127520080Y-134525505D01*
X127576955Y-134501946D01*
X127657389Y-134468630D01*
X127780966Y-134386059D01*
X130600963Y-131566060D01*
X130600966Y-131566059D01*
X130706059Y-131460966D01*
X130788629Y-131337390D01*
X130845505Y-131200080D01*
X130874500Y-131054312D01*
X130874500Y-130584314D01*
X130894185Y-130517275D01*
X130925614Y-130483996D01*
X130999792Y-130430104D01*
X131150104Y-130279792D01*
X131150106Y-130279788D01*
X131150109Y-130279786D01*
X131275048Y-130107820D01*
X131275047Y-130107820D01*
X131275051Y-130107816D01*
X131279514Y-130099054D01*
X131327488Y-130048259D01*
X131395308Y-130031463D01*
X131461444Y-130053999D01*
X131500486Y-130099056D01*
X131504951Y-130107820D01*
X131629890Y-130279786D01*
X131780213Y-130430109D01*
X131952179Y-130555048D01*
X131952181Y-130555049D01*
X131952184Y-130555051D01*
X132141588Y-130651557D01*
X132343757Y-130717246D01*
X132553713Y-130750500D01*
X132553714Y-130750500D01*
X132766286Y-130750500D01*
X132766287Y-130750500D01*
X132976243Y-130717246D01*
X133178412Y-130651557D01*
X133367816Y-130555051D01*
X133410838Y-130523794D01*
X133539786Y-130430109D01*
X133539788Y-130430106D01*
X133539792Y-130430104D01*
X133690104Y-130279792D01*
X133690106Y-130279788D01*
X133690109Y-130279786D01*
X133775890Y-130161717D01*
X133815051Y-130107816D01*
X133819793Y-130098508D01*
X133867763Y-130047711D01*
X133935583Y-130030911D01*
X134001719Y-130053445D01*
X134040763Y-130098500D01*
X134045373Y-130107547D01*
X134084728Y-130161716D01*
X134717037Y-129529408D01*
X134734075Y-129592993D01*
X134799901Y-129707007D01*
X134892993Y-129800099D01*
X135007007Y-129865925D01*
X135070590Y-129882962D01*
X134438282Y-130515269D01*
X134438282Y-130515270D01*
X134492449Y-130554624D01*
X134681782Y-130651095D01*
X134883870Y-130716757D01*
X135093754Y-130750000D01*
X135306246Y-130750000D01*
X135516127Y-130716757D01*
X135516130Y-130716757D01*
X135718217Y-130651095D01*
X135907554Y-130554622D01*
X135961716Y-130515270D01*
X135961717Y-130515270D01*
X135329408Y-129882962D01*
X135392993Y-129865925D01*
X135507007Y-129800099D01*
X135600099Y-129707007D01*
X135665925Y-129592993D01*
X135682962Y-129529408D01*
X136315270Y-130161717D01*
X136315270Y-130161716D01*
X136354622Y-130107554D01*
X136451095Y-129918217D01*
X136516757Y-129716130D01*
X136516757Y-129716127D01*
X136550000Y-129506246D01*
X136550000Y-129293753D01*
X136516757Y-129083872D01*
X136516757Y-129083869D01*
X136451095Y-128881782D01*
X136354624Y-128692449D01*
X136315270Y-128638282D01*
X136315269Y-128638282D01*
X135682962Y-129270590D01*
X135665925Y-129207007D01*
X135600099Y-129092993D01*
X135507007Y-128999901D01*
X135392993Y-128934075D01*
X135329409Y-128917037D01*
X135961716Y-128284728D01*
X135907550Y-128245375D01*
X135718217Y-128148904D01*
X135516129Y-128083242D01*
X135306246Y-128050000D01*
X135093754Y-128050000D01*
X134883872Y-128083242D01*
X134883869Y-128083242D01*
X134681782Y-128148904D01*
X134492439Y-128245380D01*
X134438282Y-128284727D01*
X134438282Y-128284728D01*
X135070591Y-128917037D01*
X135007007Y-128934075D01*
X134892993Y-128999901D01*
X134799901Y-129092993D01*
X134734075Y-129207007D01*
X134717037Y-129270591D01*
X134084728Y-128638282D01*
X134084727Y-128638282D01*
X134045380Y-128692440D01*
X134045376Y-128692446D01*
X134040760Y-128701505D01*
X133992781Y-128752297D01*
X133924959Y-128769087D01*
X133858826Y-128746543D01*
X133819794Y-128701493D01*
X133815051Y-128692184D01*
X133815049Y-128692181D01*
X133815048Y-128692179D01*
X133690109Y-128520213D01*
X133539786Y-128369890D01*
X133367820Y-128244951D01*
X133178414Y-128148444D01*
X133178413Y-128148443D01*
X133178412Y-128148443D01*
X132976243Y-128082754D01*
X132976241Y-128082753D01*
X132976240Y-128082753D01*
X132809163Y-128056291D01*
X132766287Y-128049500D01*
X132553713Y-128049500D01*
X132510837Y-128056291D01*
X132343760Y-128082753D01*
X132141585Y-128148444D01*
X131952179Y-128244951D01*
X131780213Y-128369890D01*
X131629890Y-128520213D01*
X131504949Y-128692182D01*
X131500484Y-128700946D01*
X131452509Y-128751742D01*
X131384688Y-128768536D01*
X131318553Y-128745998D01*
X131279516Y-128700946D01*
X131275050Y-128692182D01*
X131150109Y-128520213D01*
X131036141Y-128406245D01*
X131002656Y-128344922D01*
X131007640Y-128275230D01*
X131036141Y-128230883D01*
X132076205Y-127190819D01*
X132137528Y-127157334D01*
X132163886Y-127154500D01*
X136996113Y-127154500D01*
X137063152Y-127174185D01*
X137083794Y-127190819D01*
X140873181Y-130980205D01*
X140906666Y-131041528D01*
X140909500Y-131067886D01*
X140909500Y-132197870D01*
X140909501Y-132197876D01*
X140915908Y-132257483D01*
X140966202Y-132392328D01*
X140966206Y-132392335D01*
X141052452Y-132507544D01*
X141052455Y-132507547D01*
X141167664Y-132593793D01*
X141167671Y-132593797D01*
X141212618Y-132610561D01*
X141302517Y-132644091D01*
X141362127Y-132650500D01*
X141387061Y-132650499D01*
X141417527Y-132659444D01*
X141448419Y-132666743D01*
X141450802Y-132669213D01*
X141454099Y-132670181D01*
X141474891Y-132694174D01*
X141496937Y-132717020D01*
X141498481Y-132721397D01*
X141499856Y-132722984D01*
X141508680Y-132750304D01*
X141515793Y-132786059D01*
X141532217Y-132868630D01*
X141532218Y-132868634D01*
X141532217Y-132868634D01*
X141534493Y-132880076D01*
X141591368Y-133017385D01*
X141591372Y-133017392D01*
X141673942Y-133140968D01*
X141673943Y-133140969D01*
X145109600Y-136576624D01*
X145109621Y-136576647D01*
X145219029Y-136686055D01*
X145219032Y-136686057D01*
X145219034Y-136686059D01*
X145301605Y-136741230D01*
X145342611Y-136768630D01*
X145423045Y-136801946D01*
X145479920Y-136825505D01*
X145479929Y-136825506D01*
X145479930Y-136825507D01*
X145504103Y-136830315D01*
X145504110Y-136830316D01*
X145625686Y-136854501D01*
X145625688Y-136854501D01*
X145780426Y-136854501D01*
X145780446Y-136854500D01*
X163319554Y-136854500D01*
X163319574Y-136854501D01*
X163325688Y-136854501D01*
X163474314Y-136854501D01*
X163511009Y-136847200D01*
X163595894Y-136830315D01*
X163620080Y-136825505D01*
X163676955Y-136801946D01*
X163757389Y-136768630D01*
X163880966Y-136686059D01*
X171580963Y-128986060D01*
X171580966Y-128986059D01*
X171686059Y-128880966D01*
X171768629Y-128757390D01*
X171825505Y-128620080D01*
X171854500Y-128474312D01*
X171854500Y-118631999D01*
X171874185Y-118564960D01*
X171926989Y-118519205D01*
X171978500Y-118507999D01*
X172897871Y-118507999D01*
X172897872Y-118507999D01*
X172957483Y-118501591D01*
X173092331Y-118451296D01*
X173207546Y-118365046D01*
X173293796Y-118249831D01*
X173344091Y-118114983D01*
X173350500Y-118055373D01*
X173350499Y-114459628D01*
X173345299Y-114411257D01*
X173344091Y-114400016D01*
X173293797Y-114265171D01*
X173293793Y-114265164D01*
X173207547Y-114149955D01*
X173207544Y-114149952D01*
X173092335Y-114063706D01*
X173092328Y-114063702D01*
X173045061Y-114046073D01*
X172989127Y-114004202D01*
X172964710Y-113938738D01*
X172979562Y-113870465D01*
X173028967Y-113821059D01*
X173094972Y-113806066D01*
X173108053Y-113806761D01*
X173131349Y-113807999D01*
X173131369Y-113807999D01*
X173131378Y-113808000D01*
X173131386Y-113808000D01*
X175068614Y-113808000D01*
X175068622Y-113808000D01*
X175121241Y-113805205D01*
X175351126Y-113760745D01*
X175570190Y-113678074D01*
X175772132Y-113559570D01*
X175851934Y-113492287D01*
X175951141Y-113408643D01*
X175951143Y-113408641D01*
X176102065Y-113229638D01*
X176102065Y-113229637D01*
X176102070Y-113229632D01*
X176220574Y-113027690D01*
X176303245Y-112808626D01*
X176347705Y-112578741D01*
X176350500Y-112526122D01*
X176350500Y-110588878D01*
X176347705Y-110536259D01*
X176303245Y-110306374D01*
X176220574Y-110087310D01*
X176102070Y-109885368D01*
X176102065Y-109885361D01*
X175951143Y-109706358D01*
X175951141Y-109706356D01*
X175772138Y-109555434D01*
X175772131Y-109555429D01*
X175570189Y-109436925D01*
X175479832Y-109402826D01*
X175351126Y-109354255D01*
X175351121Y-109354254D01*
X175121243Y-109309795D01*
X175068652Y-109307001D01*
X175068629Y-109307000D01*
X175068622Y-109307000D01*
X173131378Y-109307000D01*
X173131370Y-109307000D01*
X173131347Y-109307001D01*
X173078756Y-109309795D01*
X173078752Y-109309795D01*
X172903122Y-109343762D01*
X172833564Y-109337165D01*
X172778616Y-109294010D01*
X172755721Y-109227997D01*
X172772150Y-109160087D01*
X172791892Y-109134341D01*
X176283354Y-105642881D01*
X176393722Y-105477703D01*
X176469744Y-105294168D01*
X176498749Y-105148353D01*
X176508500Y-105099329D01*
X176508500Y-104239277D01*
X176528185Y-104172238D01*
X176580989Y-104126483D01*
X176650147Y-104116539D01*
X176713703Y-104145564D01*
X176723678Y-104156279D01*
X176723683Y-104156275D01*
X176729955Y-104162547D01*
X176845164Y-104248793D01*
X176845171Y-104248797D01*
X176980017Y-104299091D01*
X176980016Y-104299091D01*
X176986944Y-104299835D01*
X177039627Y-104305500D01*
X178062903Y-104305499D01*
X178129942Y-104325183D01*
X178150584Y-104341818D01*
X178555181Y-104746415D01*
X178588666Y-104807738D01*
X178591500Y-104834096D01*
X178591500Y-113288403D01*
X178571815Y-113355442D01*
X178555181Y-113376084D01*
X177960584Y-113970681D01*
X177899261Y-114004166D01*
X177872903Y-114007000D01*
X176285791Y-114007000D01*
X176285776Y-114007001D01*
X176153586Y-114017404D01*
X176153579Y-114017405D01*
X175935321Y-114072402D01*
X175935318Y-114072403D01*
X175730377Y-114165491D01*
X175730367Y-114165497D01*
X175545354Y-114293674D01*
X175545342Y-114293684D01*
X175386184Y-114452842D01*
X175386174Y-114452854D01*
X175257997Y-114637867D01*
X175257991Y-114637877D01*
X175164903Y-114842818D01*
X175164902Y-114842821D01*
X175109905Y-115061079D01*
X175109904Y-115061086D01*
X175099500Y-115193277D01*
X175099500Y-117321708D01*
X175099501Y-117321723D01*
X175109904Y-117453913D01*
X175109905Y-117453920D01*
X175164902Y-117672178D01*
X175164903Y-117672181D01*
X175257991Y-117877122D01*
X175257997Y-117877132D01*
X175386174Y-118062145D01*
X175386178Y-118062150D01*
X175386181Y-118062154D01*
X175545346Y-118221319D01*
X175545350Y-118221322D01*
X175545354Y-118221325D01*
X175684603Y-118317797D01*
X175730374Y-118349507D01*
X175935317Y-118442596D01*
X175935321Y-118442597D01*
X176153579Y-118497594D01*
X176153581Y-118497594D01*
X176153588Y-118497596D01*
X176285783Y-118508000D01*
X177914216Y-118507999D01*
X178046412Y-118497596D01*
X178264683Y-118442596D01*
X178469626Y-118349507D01*
X178654654Y-118221319D01*
X178813819Y-118062154D01*
X178942007Y-117877126D01*
X179035096Y-117672183D01*
X179090096Y-117453912D01*
X179100500Y-117321717D01*
X179100499Y-115734595D01*
X179120184Y-115667557D01*
X179136818Y-115646915D01*
X180383350Y-114400384D01*
X180383350Y-114400383D01*
X180383353Y-114400381D01*
X180493722Y-114235204D01*
X180569744Y-114051668D01*
X180577249Y-114013941D01*
X180608500Y-113856829D01*
X180608500Y-104265671D01*
X180569744Y-104070831D01*
X180493721Y-103887296D01*
X180493720Y-103887295D01*
X180493717Y-103887289D01*
X180383354Y-103722120D01*
X180324265Y-103663031D01*
X180242881Y-103581647D01*
X179529318Y-102868084D01*
X179495833Y-102806761D01*
X179492999Y-102780403D01*
X179492999Y-101757129D01*
X179492998Y-101757123D01*
X179486591Y-101697516D01*
X179436297Y-101562671D01*
X179436293Y-101562664D01*
X179350047Y-101447455D01*
X179350044Y-101447452D01*
X179234835Y-101361206D01*
X179234828Y-101361202D01*
X179099982Y-101310908D01*
X179099983Y-101310908D01*
X179040383Y-101304501D01*
X179040381Y-101304500D01*
X179040373Y-101304500D01*
X179040364Y-101304500D01*
X177039629Y-101304500D01*
X177039623Y-101304501D01*
X176980016Y-101310908D01*
X176845171Y-101361202D01*
X176845164Y-101361206D01*
X176729955Y-101447452D01*
X176729952Y-101447455D01*
X176643706Y-101562664D01*
X176643703Y-101562670D01*
X176633308Y-101590541D01*
X176617983Y-101611011D01*
X176606050Y-101633628D01*
X176597392Y-101638516D01*
X176591436Y-101646474D01*
X176567480Y-101655409D01*
X176545211Y-101667985D01*
X176535285Y-101667417D01*
X176525972Y-101670891D01*
X176500984Y-101665455D01*
X176475455Y-101663995D01*
X176462254Y-101657029D01*
X176457699Y-101656039D01*
X176444250Y-101647531D01*
X176305614Y-101546806D01*
X176262949Y-101491475D01*
X176254500Y-101446488D01*
X176254500Y-101380446D01*
X176254501Y-101380425D01*
X176254501Y-101246781D01*
X176274186Y-101179742D01*
X176290815Y-101159105D01*
X179680963Y-97768957D01*
X179680966Y-97768956D01*
X179786059Y-97663863D01*
X179868629Y-97540287D01*
X179925505Y-97402977D01*
X179954500Y-97257209D01*
X179954500Y-95669725D01*
X179974185Y-95602686D01*
X180005614Y-95569407D01*
X180177510Y-95444517D01*
X180344517Y-95277510D01*
X180483343Y-95086433D01*
X180590568Y-94875992D01*
X180663553Y-94651368D01*
X180688637Y-94492993D01*
X180700500Y-94418097D01*
X180700500Y-94181902D01*
X180663553Y-93948631D01*
X180615259Y-93800000D01*
X180590568Y-93724008D01*
X180590566Y-93724005D01*
X180590566Y-93724003D01*
X180534002Y-93612991D01*
X180483343Y-93513567D01*
X180344517Y-93322490D01*
X180177510Y-93155483D01*
X179986433Y-93016657D01*
X179775996Y-92909433D01*
X179551368Y-92836446D01*
X179318097Y-92799500D01*
X179318092Y-92799500D01*
X179081908Y-92799500D01*
X179081903Y-92799500D01*
X178848631Y-92836446D01*
X178624003Y-92909433D01*
X178413566Y-93016657D01*
X178330047Y-93077338D01*
X178222490Y-93155483D01*
X178222488Y-93155485D01*
X178222487Y-93155485D01*
X178055485Y-93322487D01*
X178055485Y-93322488D01*
X178055483Y-93322490D01*
X178017924Y-93374185D01*
X177916657Y-93513566D01*
X177809433Y-93724003D01*
X177736446Y-93948631D01*
X177699500Y-94181902D01*
X177699500Y-94418097D01*
X177736446Y-94651368D01*
X177809433Y-94875996D01*
X177916519Y-95086163D01*
X177916657Y-95086433D01*
X178055483Y-95277510D01*
X178222490Y-95444517D01*
X178330042Y-95522658D01*
X178394386Y-95569407D01*
X178437051Y-95624737D01*
X178445500Y-95669725D01*
X178445500Y-96819009D01*
X178425815Y-96886048D01*
X178409181Y-96906690D01*
X175379129Y-99936742D01*
X175317806Y-99970227D01*
X175248114Y-99965243D01*
X175203767Y-99936742D01*
X171239976Y-95972950D01*
X171206491Y-95911627D01*
X171211475Y-95841935D01*
X171253347Y-95786002D01*
X171318811Y-95761585D01*
X171347055Y-95762796D01*
X171581948Y-95800000D01*
X171818052Y-95800000D01*
X172051247Y-95763065D01*
X172275802Y-95690102D01*
X172486163Y-95582918D01*
X172486169Y-95582914D01*
X172569104Y-95522658D01*
X172569105Y-95522658D01*
X171829408Y-94782962D01*
X171892993Y-94765925D01*
X172007007Y-94700099D01*
X172100099Y-94607007D01*
X172165925Y-94492993D01*
X172182962Y-94429409D01*
X172922658Y-95169105D01*
X172922658Y-95169104D01*
X172982914Y-95086169D01*
X172982918Y-95086163D01*
X173090102Y-94875802D01*
X173163065Y-94651247D01*
X173200000Y-94418052D01*
X173200000Y-94181947D01*
X173163065Y-93948752D01*
X173090102Y-93724197D01*
X172982914Y-93513828D01*
X172922658Y-93430894D01*
X172922658Y-93430893D01*
X172182962Y-94170590D01*
X172165925Y-94107007D01*
X172100099Y-93992993D01*
X172007007Y-93899901D01*
X171892993Y-93834075D01*
X171829409Y-93817037D01*
X172569105Y-93077340D01*
X172569104Y-93077338D01*
X172486174Y-93017087D01*
X172275802Y-92909897D01*
X172051247Y-92836934D01*
X172051248Y-92836934D01*
X171818052Y-92800000D01*
X171581948Y-92800000D01*
X171348752Y-92836934D01*
X171124197Y-92909897D01*
X170913830Y-93017084D01*
X170830894Y-93077340D01*
X171570591Y-93817037D01*
X171507007Y-93834075D01*
X171392993Y-93899901D01*
X171299901Y-93992993D01*
X171234075Y-94107007D01*
X171217037Y-94170591D01*
X170477340Y-93430894D01*
X170417084Y-93513830D01*
X170309897Y-93724197D01*
X170236934Y-93948752D01*
X170200000Y-94181947D01*
X170200000Y-94418052D01*
X170237203Y-94652944D01*
X170228248Y-94722238D01*
X170183252Y-94775690D01*
X170116501Y-94796329D01*
X170049187Y-94777604D01*
X170027049Y-94760023D01*
X167280968Y-92013942D01*
X167239773Y-91986417D01*
X167157389Y-91931370D01*
X167157386Y-91931368D01*
X167157385Y-91931368D01*
X167076955Y-91898053D01*
X167020080Y-91874495D01*
X167020070Y-91874493D01*
X166995894Y-91869684D01*
X166874314Y-91845499D01*
X166874312Y-91845499D01*
X166725688Y-91845499D01*
X166719574Y-91845499D01*
X166719554Y-91845500D01*
X146125683Y-91845500D01*
X145979927Y-91874493D01*
X145979919Y-91874495D01*
X145842608Y-91931371D01*
X145719035Y-92013939D01*
X145719034Y-92013940D01*
X145666488Y-92066487D01*
X145613941Y-92119034D01*
X145613939Y-92119036D01*
X144413943Y-93319030D01*
X144413942Y-93319031D01*
X144331372Y-93442607D01*
X144331366Y-93442618D01*
X144274496Y-93579916D01*
X144274493Y-93579926D01*
X144245499Y-93725685D01*
X144245499Y-93880425D01*
X144245500Y-93880446D01*
X144245500Y-97460552D01*
X144245499Y-97460578D01*
X144245499Y-97465688D01*
X144245499Y-97614312D01*
X144245499Y-97614314D01*
X144245498Y-97614314D01*
X144274493Y-97760073D01*
X144274496Y-97760083D01*
X144331366Y-97897381D01*
X144331372Y-97897392D01*
X144413942Y-98020968D01*
X144883250Y-98490276D01*
X144916735Y-98551599D01*
X144911751Y-98621291D01*
X144869879Y-98677224D01*
X144814967Y-98700430D01*
X144615582Y-98732009D01*
X144420968Y-98795244D01*
X144238644Y-98888143D01*
X144194077Y-98920523D01*
X144194077Y-98920524D01*
X144873554Y-99600000D01*
X144867339Y-99600000D01*
X144765606Y-99627259D01*
X144674394Y-99679920D01*
X144599920Y-99754394D01*
X144547259Y-99845606D01*
X144520000Y-99947339D01*
X144520000Y-99953553D01*
X143840524Y-99274077D01*
X143840523Y-99274077D01*
X143808143Y-99318644D01*
X143760765Y-99411630D01*
X143712790Y-99462426D01*
X143644969Y-99479221D01*
X143578834Y-99456683D01*
X143539795Y-99411630D01*
X143523641Y-99379926D01*
X143492287Y-99318390D01*
X143492285Y-99318387D01*
X143492284Y-99318385D01*
X143371971Y-99152786D01*
X143227218Y-99008033D01*
X143205613Y-98992336D01*
X143162948Y-98937005D01*
X143154500Y-98892019D01*
X143154500Y-98180446D01*
X143154501Y-98180425D01*
X143154501Y-98025685D01*
X143125506Y-97879925D01*
X143125505Y-97879923D01*
X143125505Y-97879921D01*
X143113743Y-97851526D01*
X143079542Y-97768956D01*
X143068632Y-97742617D01*
X143068631Y-97742616D01*
X143068629Y-97742610D01*
X143016012Y-97663863D01*
X142986060Y-97619035D01*
X142986054Y-97619028D01*
X142876647Y-97509621D01*
X142876624Y-97509600D01*
X141727247Y-96360222D01*
X141693762Y-96298899D01*
X141692455Y-96253142D01*
X141700500Y-96202350D01*
X141700500Y-95997648D01*
X141668477Y-95795465D01*
X141627621Y-95669725D01*
X141605220Y-95600781D01*
X141605218Y-95600778D01*
X141605218Y-95600776D01*
X141525599Y-95444517D01*
X141512287Y-95418390D01*
X141504556Y-95407749D01*
X141391971Y-95252786D01*
X141247213Y-95108028D01*
X141081613Y-94987715D01*
X141081612Y-94987714D01*
X141081610Y-94987713D01*
X141024653Y-94958691D01*
X140899223Y-94894781D01*
X140704534Y-94831522D01*
X140529995Y-94803878D01*
X140502352Y-94799500D01*
X140297648Y-94799500D01*
X140273329Y-94803351D01*
X140095465Y-94831522D01*
X139900776Y-94894781D01*
X139718386Y-94987715D01*
X139552786Y-95108028D01*
X139408028Y-95252786D01*
X139287715Y-95418386D01*
X139194781Y-95600776D01*
X139131522Y-95795465D01*
X139099500Y-95997648D01*
X139099500Y-96202351D01*
X139131522Y-96404534D01*
X139194781Y-96599223D01*
X139258691Y-96724653D01*
X139278029Y-96762605D01*
X139287715Y-96781613D01*
X139408028Y-96947213D01*
X139552786Y-97091971D01*
X139668600Y-97176113D01*
X139718390Y-97212287D01*
X139819478Y-97263794D01*
X139900776Y-97305218D01*
X139900778Y-97305218D01*
X139900781Y-97305220D01*
X140000729Y-97337695D01*
X140095465Y-97368477D01*
X140185783Y-97382782D01*
X140297648Y-97400500D01*
X140297649Y-97400500D01*
X140502351Y-97400500D01*
X140502352Y-97400500D01*
X140553142Y-97392455D01*
X140622436Y-97401409D01*
X140660222Y-97427247D01*
X141609181Y-98376205D01*
X141642666Y-98437528D01*
X141645500Y-98463886D01*
X141645500Y-98862958D01*
X141625815Y-98929997D01*
X141594385Y-98963276D01*
X141532784Y-99008031D01*
X141532778Y-99008036D01*
X141388028Y-99152786D01*
X141267715Y-99318386D01*
X141220485Y-99411080D01*
X141172510Y-99461876D01*
X141104689Y-99478671D01*
X141038554Y-99456134D01*
X140999515Y-99411080D01*
X140983641Y-99379926D01*
X140952287Y-99318390D01*
X140893191Y-99237050D01*
X140831971Y-99152786D01*
X140687213Y-99008028D01*
X140521613Y-98887715D01*
X140521612Y-98887714D01*
X140521610Y-98887713D01*
X140464653Y-98858691D01*
X140339223Y-98794781D01*
X140144534Y-98731522D01*
X139969995Y-98703878D01*
X139942352Y-98699500D01*
X139737648Y-98699500D01*
X139713329Y-98703351D01*
X139535465Y-98731522D01*
X139340776Y-98794781D01*
X139158386Y-98887715D01*
X138992786Y-99008028D01*
X138848028Y-99152786D01*
X138727715Y-99318386D01*
X138680485Y-99411080D01*
X138632510Y-99461876D01*
X138564689Y-99478671D01*
X138498554Y-99456134D01*
X138459515Y-99411080D01*
X138443641Y-99379926D01*
X138412287Y-99318390D01*
X138353191Y-99237050D01*
X138291971Y-99152786D01*
X138147213Y-99008028D01*
X137981613Y-98887715D01*
X137981612Y-98887714D01*
X137981610Y-98887713D01*
X137924653Y-98858691D01*
X137799223Y-98794781D01*
X137604534Y-98731522D01*
X137429995Y-98703878D01*
X137402352Y-98699500D01*
X137197648Y-98699500D01*
X137173329Y-98703351D01*
X136995465Y-98731522D01*
X136800776Y-98794781D01*
X136618386Y-98887715D01*
X136452786Y-99008028D01*
X136308028Y-99152786D01*
X136187715Y-99318386D01*
X136140485Y-99411080D01*
X136092510Y-99461876D01*
X136024689Y-99478671D01*
X135958554Y-99456134D01*
X135919515Y-99411080D01*
X135903641Y-99379926D01*
X135872287Y-99318390D01*
X135813191Y-99237050D01*
X135751971Y-99152786D01*
X135607213Y-99008028D01*
X135441613Y-98887715D01*
X135441612Y-98887714D01*
X135441610Y-98887713D01*
X135384653Y-98858691D01*
X135259223Y-98794781D01*
X135064534Y-98731522D01*
X134889995Y-98703878D01*
X134862352Y-98699500D01*
X134657648Y-98699500D01*
X134633329Y-98703351D01*
X134455465Y-98731522D01*
X134260776Y-98794781D01*
X134078386Y-98887715D01*
X133912786Y-99008028D01*
X133768028Y-99152786D01*
X133647715Y-99318386D01*
X133600485Y-99411080D01*
X133552510Y-99461876D01*
X133484689Y-99478671D01*
X133418554Y-99456134D01*
X133379515Y-99411080D01*
X133363641Y-99379926D01*
X133332287Y-99318390D01*
X133273191Y-99237050D01*
X133211971Y-99152786D01*
X133067221Y-99008036D01*
X133067217Y-99008033D01*
X133005615Y-98963276D01*
X132962949Y-98907946D01*
X132954500Y-98862958D01*
X132954500Y-88377648D01*
X139099500Y-88377648D01*
X139099500Y-88582351D01*
X139131522Y-88784534D01*
X139194781Y-88979223D01*
X139230147Y-89048631D01*
X139278205Y-89142950D01*
X139287715Y-89161613D01*
X139408028Y-89327213D01*
X139552786Y-89471971D01*
X139693644Y-89574308D01*
X139718390Y-89592287D01*
X139828669Y-89648477D01*
X139900776Y-89685218D01*
X139900778Y-89685218D01*
X139900781Y-89685220D01*
X140005137Y-89719127D01*
X140095465Y-89748477D01*
X140196557Y-89764488D01*
X140297648Y-89780500D01*
X140297649Y-89780500D01*
X140502351Y-89780500D01*
X140502352Y-89780500D01*
X140704534Y-89748477D01*
X140899219Y-89685220D01*
X141081610Y-89592287D01*
X141174590Y-89524732D01*
X141247213Y-89471971D01*
X141247215Y-89471968D01*
X141247219Y-89471966D01*
X141391966Y-89327219D01*
X141391968Y-89327215D01*
X141391971Y-89327213D01*
X141444732Y-89254590D01*
X141512287Y-89161610D01*
X141605220Y-88979219D01*
X141668477Y-88784534D01*
X141700500Y-88582352D01*
X141700500Y-88377648D01*
X145599500Y-88377648D01*
X145599500Y-88582351D01*
X145631522Y-88784534D01*
X145694781Y-88979223D01*
X145730147Y-89048631D01*
X145778205Y-89142950D01*
X145787715Y-89161613D01*
X145908028Y-89327213D01*
X146052786Y-89471971D01*
X146193644Y-89574308D01*
X146218390Y-89592287D01*
X146328669Y-89648477D01*
X146400776Y-89685218D01*
X146400778Y-89685218D01*
X146400781Y-89685220D01*
X146505137Y-89719127D01*
X146595465Y-89748477D01*
X146696557Y-89764488D01*
X146797648Y-89780500D01*
X146797649Y-89780500D01*
X147002351Y-89780500D01*
X147002352Y-89780500D01*
X147204534Y-89748477D01*
X147399219Y-89685220D01*
X147581610Y-89592287D01*
X147674590Y-89524732D01*
X147747213Y-89471971D01*
X147747215Y-89471968D01*
X147747219Y-89471966D01*
X147891966Y-89327219D01*
X147891968Y-89327215D01*
X147891971Y-89327213D01*
X147944732Y-89254590D01*
X148012287Y-89161610D01*
X148105220Y-88979219D01*
X148168477Y-88784534D01*
X148200500Y-88582352D01*
X148200500Y-88377648D01*
X150399500Y-88377648D01*
X150399500Y-88582351D01*
X150431522Y-88784534D01*
X150494781Y-88979223D01*
X150530147Y-89048631D01*
X150578205Y-89142950D01*
X150587715Y-89161613D01*
X150708028Y-89327213D01*
X150852786Y-89471971D01*
X150993644Y-89574308D01*
X151018390Y-89592287D01*
X151128669Y-89648477D01*
X151200776Y-89685218D01*
X151200778Y-89685218D01*
X151200781Y-89685220D01*
X151305137Y-89719127D01*
X151395465Y-89748477D01*
X151496557Y-89764488D01*
X151597648Y-89780500D01*
X151597649Y-89780500D01*
X151802351Y-89780500D01*
X151802352Y-89780500D01*
X152004534Y-89748477D01*
X152199219Y-89685220D01*
X152381610Y-89592287D01*
X152474590Y-89524732D01*
X152547213Y-89471971D01*
X152547215Y-89471968D01*
X152547219Y-89471966D01*
X152691966Y-89327219D01*
X152691968Y-89327215D01*
X152691971Y-89327213D01*
X152744732Y-89254590D01*
X152812287Y-89161610D01*
X152905220Y-88979219D01*
X152968477Y-88784534D01*
X153000500Y-88582352D01*
X153000500Y-88377648D01*
X155299500Y-88377648D01*
X155299500Y-88582351D01*
X155331522Y-88784534D01*
X155394781Y-88979223D01*
X155430147Y-89048631D01*
X155478205Y-89142950D01*
X155487715Y-89161613D01*
X155608028Y-89327213D01*
X155752786Y-89471971D01*
X155893644Y-89574308D01*
X155918390Y-89592287D01*
X156028669Y-89648477D01*
X156100776Y-89685218D01*
X156100778Y-89685218D01*
X156100781Y-89685220D01*
X156205137Y-89719127D01*
X156295465Y-89748477D01*
X156396557Y-89764488D01*
X156497648Y-89780500D01*
X156497649Y-89780500D01*
X156702351Y-89780500D01*
X156702352Y-89780500D01*
X156904534Y-89748477D01*
X157099219Y-89685220D01*
X157281610Y-89592287D01*
X157374590Y-89524732D01*
X157447213Y-89471971D01*
X157447215Y-89471968D01*
X157447219Y-89471966D01*
X157591966Y-89327219D01*
X157591968Y-89327215D01*
X157591971Y-89327213D01*
X157644732Y-89254590D01*
X157712287Y-89161610D01*
X157805220Y-88979219D01*
X157868477Y-88784534D01*
X157900500Y-88582352D01*
X157900500Y-88377648D01*
X160099500Y-88377648D01*
X160099500Y-88582351D01*
X160131522Y-88784534D01*
X160194781Y-88979223D01*
X160230147Y-89048631D01*
X160278205Y-89142950D01*
X160287715Y-89161613D01*
X160408028Y-89327213D01*
X160552786Y-89471971D01*
X160693644Y-89574308D01*
X160718390Y-89592287D01*
X160828669Y-89648477D01*
X160900776Y-89685218D01*
X160900778Y-89685218D01*
X160900781Y-89685220D01*
X161005137Y-89719127D01*
X161095465Y-89748477D01*
X161196557Y-89764488D01*
X161297648Y-89780500D01*
X161297649Y-89780500D01*
X161502351Y-89780500D01*
X161502352Y-89780500D01*
X161704534Y-89748477D01*
X161899219Y-89685220D01*
X162081610Y-89592287D01*
X162174590Y-89524732D01*
X162247213Y-89471971D01*
X162247215Y-89471968D01*
X162247219Y-89471966D01*
X162391966Y-89327219D01*
X162391968Y-89327215D01*
X162391971Y-89327213D01*
X162444732Y-89254590D01*
X162512287Y-89161610D01*
X162605220Y-88979219D01*
X162668477Y-88784534D01*
X162700500Y-88582352D01*
X162700500Y-88377648D01*
X162692455Y-88326855D01*
X162693156Y-88321429D01*
X162691244Y-88316303D01*
X162697586Y-88287146D01*
X162698814Y-88277648D01*
X164999500Y-88277648D01*
X164999500Y-88482351D01*
X165031522Y-88684534D01*
X165094781Y-88879223D01*
X165158691Y-89004653D01*
X165181099Y-89048630D01*
X165187715Y-89061613D01*
X165308028Y-89227213D01*
X165452786Y-89371971D01*
X165590420Y-89471966D01*
X165618390Y-89492287D01*
X165734607Y-89551503D01*
X165800776Y-89585218D01*
X165800778Y-89585218D01*
X165800781Y-89585220D01*
X165905137Y-89619127D01*
X165995465Y-89648477D01*
X166096557Y-89664488D01*
X166197648Y-89680500D01*
X166197649Y-89680500D01*
X166402351Y-89680500D01*
X166402352Y-89680500D01*
X166604534Y-89648477D01*
X166799219Y-89585220D01*
X166981610Y-89492287D01*
X167080346Y-89420552D01*
X167147213Y-89371971D01*
X167147215Y-89371968D01*
X167147219Y-89371966D01*
X167291966Y-89227219D01*
X167322192Y-89185615D01*
X167377521Y-89142950D01*
X167422511Y-89134500D01*
X168529554Y-89134500D01*
X168529574Y-89134501D01*
X168535688Y-89134501D01*
X168684314Y-89134501D01*
X168726651Y-89126078D01*
X168805894Y-89110315D01*
X168830080Y-89105505D01*
X168925311Y-89066059D01*
X168967389Y-89048630D01*
X169090966Y-88966059D01*
X171852375Y-86204647D01*
X171913696Y-86171164D01*
X171959447Y-86169857D01*
X172089778Y-86190500D01*
X172089780Y-86190500D01*
X172310221Y-86190500D01*
X172310222Y-86190500D01*
X172527951Y-86156015D01*
X172737606Y-86087895D01*
X172934022Y-85987815D01*
X173112365Y-85858242D01*
X173268242Y-85702365D01*
X173397815Y-85524022D01*
X173497895Y-85327606D01*
X173566015Y-85117951D01*
X173600500Y-84900222D01*
X173600500Y-84679778D01*
X173566015Y-84462049D01*
X173505483Y-84275747D01*
X173497896Y-84252396D01*
X173497895Y-84252393D01*
X173433480Y-84125974D01*
X173397815Y-84055978D01*
X173325959Y-83957076D01*
X173268247Y-83877641D01*
X173268243Y-83877636D01*
X173217683Y-83827076D01*
X173184198Y-83765753D01*
X173189182Y-83696061D01*
X173231054Y-83640128D01*
X173262031Y-83623213D01*
X173342086Y-83593354D01*
X173342093Y-83593350D01*
X173457187Y-83507190D01*
X173457190Y-83507187D01*
X173543350Y-83392093D01*
X173543354Y-83392086D01*
X173593596Y-83257379D01*
X173593598Y-83257372D01*
X173599999Y-83197844D01*
X173600000Y-83197827D01*
X173600000Y-82500000D01*
X172575278Y-82500000D01*
X172619333Y-82423694D01*
X172650000Y-82309244D01*
X172650000Y-82190756D01*
X172619333Y-82076306D01*
X172575278Y-82000000D01*
X173600000Y-82000000D01*
X173600000Y-81302172D01*
X173599999Y-81302155D01*
X173593598Y-81242627D01*
X173593596Y-81242620D01*
X173543354Y-81107913D01*
X173543350Y-81107906D01*
X173457190Y-80992812D01*
X173457187Y-80992809D01*
X173342093Y-80906649D01*
X173342086Y-80906645D01*
X173207379Y-80856403D01*
X173207372Y-80856401D01*
X173147844Y-80850000D01*
X172450000Y-80850000D01*
X172450000Y-81874722D01*
X172373694Y-81830667D01*
X172259244Y-81800000D01*
X172140756Y-81800000D01*
X172026306Y-81830667D01*
X171950000Y-81874722D01*
X171950000Y-80850000D01*
X171252155Y-80850000D01*
X171192627Y-80856401D01*
X171192620Y-80856403D01*
X171057913Y-80906645D01*
X171057906Y-80906649D01*
X170942812Y-80992809D01*
X170942809Y-80992812D01*
X170856649Y-81107906D01*
X170856645Y-81107913D01*
X170806403Y-81242620D01*
X170806401Y-81242627D01*
X170800000Y-81302155D01*
X170800000Y-82000000D01*
X171824722Y-82000000D01*
X171780667Y-82076306D01*
X171750000Y-82190756D01*
X171750000Y-82309244D01*
X171780667Y-82423694D01*
X171824722Y-82500000D01*
X170800000Y-82500000D01*
X170800000Y-83197844D01*
X170806401Y-83257372D01*
X170806403Y-83257379D01*
X170856645Y-83392086D01*
X170856649Y-83392093D01*
X170942809Y-83507187D01*
X170942812Y-83507190D01*
X171057906Y-83593350D01*
X171057913Y-83593354D01*
X171137968Y-83623213D01*
X171193902Y-83665084D01*
X171218319Y-83730549D01*
X171203467Y-83798822D01*
X171182317Y-83827075D01*
X171131756Y-83877636D01*
X171131752Y-83877641D01*
X171002187Y-84055974D01*
X170902104Y-84252393D01*
X170902103Y-84252396D01*
X170833985Y-84462047D01*
X170799500Y-84679778D01*
X170799500Y-84900227D01*
X170820141Y-85030546D01*
X170811187Y-85099839D01*
X170785349Y-85137625D01*
X168333794Y-87589181D01*
X168272471Y-87622666D01*
X168246113Y-87625500D01*
X167422511Y-87625500D01*
X167355472Y-87605815D01*
X167322192Y-87574384D01*
X167291969Y-87532784D01*
X167147213Y-87388028D01*
X166981613Y-87267715D01*
X166981612Y-87267714D01*
X166981610Y-87267713D01*
X166924653Y-87238691D01*
X166799223Y-87174781D01*
X166604534Y-87111522D01*
X166429995Y-87083878D01*
X166402352Y-87079500D01*
X166197648Y-87079500D01*
X166173329Y-87083351D01*
X165995465Y-87111522D01*
X165800776Y-87174781D01*
X165618386Y-87267715D01*
X165452786Y-87388028D01*
X165308028Y-87532786D01*
X165187715Y-87698386D01*
X165094781Y-87880776D01*
X165031522Y-88075465D01*
X164999500Y-88277648D01*
X162698814Y-88277648D01*
X162701410Y-88257562D01*
X162705241Y-88251958D01*
X162706096Y-88248030D01*
X162727244Y-88219779D01*
X164853957Y-86093065D01*
X164915278Y-86059582D01*
X164984970Y-86064566D01*
X165014521Y-86080430D01*
X165031915Y-86093067D01*
X165065978Y-86117815D01*
X165194375Y-86183237D01*
X165262393Y-86217895D01*
X165262396Y-86217896D01*
X165350734Y-86246598D01*
X165472049Y-86286015D01*
X165689778Y-86320500D01*
X165689779Y-86320500D01*
X165910221Y-86320500D01*
X165910222Y-86320500D01*
X166127951Y-86286015D01*
X166337606Y-86217895D01*
X166534022Y-86117815D01*
X166712365Y-85988242D01*
X166868242Y-85832365D01*
X166997815Y-85654022D01*
X167097895Y-85457606D01*
X167166015Y-85247951D01*
X167200500Y-85030222D01*
X167200500Y-84809778D01*
X167166015Y-84592049D01*
X167123776Y-84462049D01*
X167097896Y-84382396D01*
X167097895Y-84382393D01*
X167063237Y-84314375D01*
X166997815Y-84185978D01*
X166954220Y-84125974D01*
X166868247Y-84007641D01*
X166868243Y-84007636D01*
X166817683Y-83957076D01*
X166784198Y-83895753D01*
X166789182Y-83826061D01*
X166831054Y-83770128D01*
X166862031Y-83753213D01*
X166942086Y-83723354D01*
X166942093Y-83723350D01*
X167057187Y-83637190D01*
X167057190Y-83637187D01*
X167143350Y-83522093D01*
X167143354Y-83522086D01*
X167193596Y-83387379D01*
X167193598Y-83387372D01*
X167199999Y-83327844D01*
X167200000Y-83327827D01*
X167200000Y-82630000D01*
X166175278Y-82630000D01*
X166219333Y-82553694D01*
X166250000Y-82439244D01*
X166250000Y-82320756D01*
X166219333Y-82206306D01*
X166175278Y-82130000D01*
X167200000Y-82130000D01*
X167200000Y-81432172D01*
X167199999Y-81432155D01*
X167193598Y-81372627D01*
X167193596Y-81372619D01*
X167182245Y-81342184D01*
X167143354Y-81237913D01*
X167143350Y-81237906D01*
X167057190Y-81122812D01*
X167057187Y-81122809D01*
X166942093Y-81036649D01*
X166942086Y-81036645D01*
X166807379Y-80986403D01*
X166807372Y-80986401D01*
X166747844Y-80980000D01*
X166050000Y-80980000D01*
X166050000Y-82004722D01*
X165973694Y-81960667D01*
X165859244Y-81930000D01*
X165740756Y-81930000D01*
X165626306Y-81960667D01*
X165550000Y-82004722D01*
X165550000Y-80980000D01*
X164852155Y-80980000D01*
X164792627Y-80986401D01*
X164792620Y-80986403D01*
X164657913Y-81036645D01*
X164657906Y-81036649D01*
X164542812Y-81122809D01*
X164542809Y-81122812D01*
X164456649Y-81237906D01*
X164456645Y-81237913D01*
X164406403Y-81372620D01*
X164406401Y-81372627D01*
X164400000Y-81432155D01*
X164400000Y-82130000D01*
X165424722Y-82130000D01*
X165380667Y-82206306D01*
X165350000Y-82320756D01*
X165350000Y-82439244D01*
X165380667Y-82553694D01*
X165424722Y-82630000D01*
X164400000Y-82630000D01*
X164400000Y-83327844D01*
X164406401Y-83387372D01*
X164406403Y-83387379D01*
X164456645Y-83522086D01*
X164456649Y-83522093D01*
X164542809Y-83637187D01*
X164542812Y-83637190D01*
X164657906Y-83723350D01*
X164657913Y-83723354D01*
X164737968Y-83753213D01*
X164793902Y-83795084D01*
X164818319Y-83860549D01*
X164803467Y-83928822D01*
X164782317Y-83957075D01*
X164731756Y-84007636D01*
X164731752Y-84007641D01*
X164602186Y-84185974D01*
X164566135Y-84256727D01*
X164561967Y-84262129D01*
X164560882Y-84266023D01*
X164551460Y-84275747D01*
X164538140Y-84293013D01*
X164531700Y-84298750D01*
X164479034Y-84333941D01*
X164373941Y-84439034D01*
X164373939Y-84439036D01*
X164371417Y-84441557D01*
X164371408Y-84441566D01*
X161660222Y-87152751D01*
X161598899Y-87186236D01*
X161553145Y-87187544D01*
X161502353Y-87179500D01*
X161502352Y-87179500D01*
X161297648Y-87179500D01*
X161273329Y-87183351D01*
X161095465Y-87211522D01*
X160900776Y-87274781D01*
X160718386Y-87367715D01*
X160552786Y-87488028D01*
X160408028Y-87632786D01*
X160287715Y-87798386D01*
X160194781Y-87980776D01*
X160131522Y-88175465D01*
X160099500Y-88377648D01*
X157900500Y-88377648D01*
X157868477Y-88175466D01*
X157805220Y-87980781D01*
X157805218Y-87980778D01*
X157805218Y-87980776D01*
X157754265Y-87880776D01*
X157712287Y-87798390D01*
X157704556Y-87787749D01*
X157591971Y-87632786D01*
X157450785Y-87491600D01*
X157417300Y-87430277D01*
X157422284Y-87360585D01*
X157450783Y-87316240D01*
X158700291Y-86066731D01*
X158761614Y-86033247D01*
X158831306Y-86038231D01*
X158860857Y-86054094D01*
X158865978Y-86057815D01*
X158910362Y-86080430D01*
X159062393Y-86157895D01*
X159062396Y-86157896D01*
X159103232Y-86171164D01*
X159272049Y-86226015D01*
X159489778Y-86260500D01*
X159489779Y-86260500D01*
X159710221Y-86260500D01*
X159710222Y-86260500D01*
X159927951Y-86226015D01*
X160137606Y-86157895D01*
X160334022Y-86057815D01*
X160512365Y-85928242D01*
X160668242Y-85772365D01*
X160797815Y-85594022D01*
X160897895Y-85397606D01*
X160966015Y-85187951D01*
X161000500Y-84970222D01*
X161000500Y-84749778D01*
X160966015Y-84532049D01*
X160907643Y-84352396D01*
X160897896Y-84322396D01*
X160897895Y-84322393D01*
X160862227Y-84252393D01*
X160797815Y-84125978D01*
X160748979Y-84058760D01*
X160668247Y-83947641D01*
X160668243Y-83947636D01*
X160617683Y-83897076D01*
X160584198Y-83835753D01*
X160589182Y-83766061D01*
X160631054Y-83710128D01*
X160662031Y-83693213D01*
X160742086Y-83663354D01*
X160742093Y-83663350D01*
X160857187Y-83577190D01*
X160857190Y-83577187D01*
X160943350Y-83462093D01*
X160943354Y-83462086D01*
X160993596Y-83327379D01*
X160993598Y-83327372D01*
X160999999Y-83267844D01*
X161000000Y-83267827D01*
X161000000Y-82570000D01*
X159975278Y-82570000D01*
X160019333Y-82493694D01*
X160050000Y-82379244D01*
X160050000Y-82260756D01*
X160019333Y-82146306D01*
X159975278Y-82070000D01*
X161000000Y-82070000D01*
X161000000Y-81372172D01*
X160999999Y-81372155D01*
X160993598Y-81312627D01*
X160993596Y-81312620D01*
X160943354Y-81177913D01*
X160943350Y-81177906D01*
X160857190Y-81062812D01*
X160857187Y-81062809D01*
X160742093Y-80976649D01*
X160742086Y-80976645D01*
X160607379Y-80926403D01*
X160607372Y-80926401D01*
X160547844Y-80920000D01*
X159850000Y-80920000D01*
X159850000Y-81944722D01*
X159773694Y-81900667D01*
X159659244Y-81870000D01*
X159540756Y-81870000D01*
X159426306Y-81900667D01*
X159350000Y-81944722D01*
X159350000Y-80920000D01*
X158652155Y-80920000D01*
X158592627Y-80926401D01*
X158592620Y-80926403D01*
X158457913Y-80976645D01*
X158457906Y-80976649D01*
X158342812Y-81062809D01*
X158342809Y-81062812D01*
X158256649Y-81177906D01*
X158256645Y-81177913D01*
X158206403Y-81312620D01*
X158206401Y-81312627D01*
X158200000Y-81372155D01*
X158200000Y-82070000D01*
X159224722Y-82070000D01*
X159180667Y-82146306D01*
X159150000Y-82260756D01*
X159150000Y-82379244D01*
X159180667Y-82493694D01*
X159224722Y-82570000D01*
X158200000Y-82570000D01*
X158200000Y-83267844D01*
X158206401Y-83327372D01*
X158206403Y-83327379D01*
X158256645Y-83462086D01*
X158256649Y-83462093D01*
X158342809Y-83577187D01*
X158342812Y-83577190D01*
X158457906Y-83663350D01*
X158457913Y-83663354D01*
X158537968Y-83693213D01*
X158593902Y-83735084D01*
X158618319Y-83800549D01*
X158603467Y-83868822D01*
X158582317Y-83897075D01*
X158531756Y-83947636D01*
X158531752Y-83947641D01*
X158402185Y-84125976D01*
X158302215Y-84322176D01*
X158300832Y-84324079D01*
X158300566Y-84325303D01*
X158279416Y-84353558D01*
X158253941Y-84379034D01*
X158253939Y-84379036D01*
X156013943Y-86619030D01*
X156013942Y-86619031D01*
X155931372Y-86742607D01*
X155931366Y-86742618D01*
X155874496Y-86879916D01*
X155874493Y-86879926D01*
X155845499Y-87025685D01*
X155845499Y-87180425D01*
X155845500Y-87180446D01*
X155845500Y-87357488D01*
X155825815Y-87424527D01*
X155794385Y-87457806D01*
X155752787Y-87488028D01*
X155752782Y-87488032D01*
X155608028Y-87632786D01*
X155487715Y-87798386D01*
X155394781Y-87980776D01*
X155331522Y-88175465D01*
X155299500Y-88377648D01*
X153000500Y-88377648D01*
X152968477Y-88175466D01*
X152905220Y-87980781D01*
X152905218Y-87980778D01*
X152905218Y-87980776D01*
X152854265Y-87880776D01*
X152812287Y-87798390D01*
X152804556Y-87787749D01*
X152691971Y-87632786D01*
X152547217Y-87488032D01*
X152547212Y-87488028D01*
X152505615Y-87457806D01*
X152462949Y-87402476D01*
X152454500Y-87357488D01*
X152454500Y-86753885D01*
X152474185Y-86686846D01*
X152490815Y-86666208D01*
X152852375Y-86304647D01*
X152913696Y-86271164D01*
X152959447Y-86269857D01*
X153089778Y-86290500D01*
X153089780Y-86290500D01*
X153310221Y-86290500D01*
X153310222Y-86290500D01*
X153527951Y-86256015D01*
X153737606Y-86187895D01*
X153934022Y-86087815D01*
X154112365Y-85958242D01*
X154268242Y-85802365D01*
X154397815Y-85624022D01*
X154497895Y-85427606D01*
X154566015Y-85217951D01*
X154600500Y-85000222D01*
X154600500Y-84779778D01*
X154566015Y-84562049D01*
X154507643Y-84382396D01*
X154497896Y-84352396D01*
X154497895Y-84352393D01*
X154446941Y-84252393D01*
X154397815Y-84155978D01*
X154340896Y-84077635D01*
X154268247Y-83977641D01*
X154268243Y-83977636D01*
X154217683Y-83927076D01*
X154184198Y-83865753D01*
X154189182Y-83796061D01*
X154231054Y-83740128D01*
X154262031Y-83723213D01*
X154342086Y-83693354D01*
X154342093Y-83693350D01*
X154457187Y-83607190D01*
X154457190Y-83607187D01*
X154543350Y-83492093D01*
X154543354Y-83492086D01*
X154593596Y-83357379D01*
X154593598Y-83357372D01*
X154599999Y-83297844D01*
X154600000Y-83297827D01*
X154600000Y-82600000D01*
X153575278Y-82600000D01*
X153619333Y-82523694D01*
X153650000Y-82409244D01*
X153650000Y-82290756D01*
X153619333Y-82176306D01*
X153575278Y-82100000D01*
X154600000Y-82100000D01*
X154600000Y-81402172D01*
X154599999Y-81402162D01*
X154597843Y-81382110D01*
X154597843Y-81382106D01*
X154593598Y-81342627D01*
X154593596Y-81342620D01*
X154543354Y-81207913D01*
X154543350Y-81207906D01*
X154457190Y-81092812D01*
X154457187Y-81092809D01*
X154342093Y-81006649D01*
X154342086Y-81006645D01*
X154207379Y-80956403D01*
X154207372Y-80956401D01*
X154147844Y-80950000D01*
X153450000Y-80950000D01*
X153450000Y-81974722D01*
X153373694Y-81930667D01*
X153259244Y-81900000D01*
X153140756Y-81900000D01*
X153026306Y-81930667D01*
X152950000Y-81974722D01*
X152950000Y-80950000D01*
X152252155Y-80950000D01*
X152192627Y-80956401D01*
X152192620Y-80956403D01*
X152057913Y-81006645D01*
X152057906Y-81006649D01*
X151942812Y-81092809D01*
X151942809Y-81092812D01*
X151856649Y-81207906D01*
X151856645Y-81207913D01*
X151806403Y-81342620D01*
X151806401Y-81342627D01*
X151800000Y-81402155D01*
X151800000Y-82100000D01*
X152824722Y-82100000D01*
X152780667Y-82176306D01*
X152750000Y-82290756D01*
X152750000Y-82409244D01*
X152780667Y-82523694D01*
X152824722Y-82600000D01*
X151800000Y-82600000D01*
X151800000Y-83297844D01*
X151806401Y-83357372D01*
X151806403Y-83357379D01*
X151856645Y-83492086D01*
X151856649Y-83492093D01*
X151942809Y-83607187D01*
X151942812Y-83607190D01*
X152057906Y-83693350D01*
X152057913Y-83693354D01*
X152137968Y-83723213D01*
X152193902Y-83765084D01*
X152218319Y-83830549D01*
X152203467Y-83898822D01*
X152182317Y-83927075D01*
X152131756Y-83977636D01*
X152131752Y-83977641D01*
X152002187Y-84155974D01*
X151902104Y-84352393D01*
X151902103Y-84352396D01*
X151833985Y-84562047D01*
X151799500Y-84779778D01*
X151799500Y-85000227D01*
X151820141Y-85130546D01*
X151811187Y-85199839D01*
X151785349Y-85237625D01*
X151113943Y-85909030D01*
X151113942Y-85909031D01*
X151031372Y-86032607D01*
X151031368Y-86032614D01*
X151009579Y-86085217D01*
X151009571Y-86085238D01*
X151008504Y-86087815D01*
X150974495Y-86169920D01*
X150970920Y-86187895D01*
X150969092Y-86197083D01*
X150969091Y-86197087D01*
X150945499Y-86315686D01*
X150945499Y-86470425D01*
X150945500Y-86470446D01*
X150945500Y-87357488D01*
X150925815Y-87424527D01*
X150894385Y-87457806D01*
X150852787Y-87488028D01*
X150852782Y-87488032D01*
X150708028Y-87632786D01*
X150587715Y-87798386D01*
X150494781Y-87980776D01*
X150431522Y-88175465D01*
X150399500Y-88377648D01*
X148200500Y-88377648D01*
X148168477Y-88175466D01*
X148105220Y-87980781D01*
X148105218Y-87980778D01*
X148105218Y-87980776D01*
X148054265Y-87880776D01*
X148012287Y-87798390D01*
X148004556Y-87787749D01*
X147891971Y-87632786D01*
X147747217Y-87488032D01*
X147747212Y-87488028D01*
X147705615Y-87457806D01*
X147662949Y-87402476D01*
X147654500Y-87357488D01*
X147654500Y-86359392D01*
X147674185Y-86292353D01*
X147726989Y-86246598D01*
X147759092Y-86236921D01*
X147827951Y-86226015D01*
X148037606Y-86157895D01*
X148234022Y-86057815D01*
X148412365Y-85928242D01*
X148568242Y-85772365D01*
X148697815Y-85594022D01*
X148797895Y-85397606D01*
X148866015Y-85187951D01*
X148900500Y-84970222D01*
X148900500Y-84749778D01*
X148866015Y-84532049D01*
X148807643Y-84352396D01*
X148797896Y-84322396D01*
X148797895Y-84322393D01*
X148762227Y-84252393D01*
X148697815Y-84125978D01*
X148648979Y-84058760D01*
X148568247Y-83947641D01*
X148568243Y-83947636D01*
X148517683Y-83897076D01*
X148484198Y-83835753D01*
X148489182Y-83766061D01*
X148531054Y-83710128D01*
X148562031Y-83693213D01*
X148642086Y-83663354D01*
X148642093Y-83663350D01*
X148757187Y-83577190D01*
X148757190Y-83577187D01*
X148843350Y-83462093D01*
X148843354Y-83462086D01*
X148893596Y-83327379D01*
X148893598Y-83327372D01*
X148899999Y-83267844D01*
X148900000Y-83267827D01*
X148900000Y-82570000D01*
X147875278Y-82570000D01*
X147919333Y-82493694D01*
X147950000Y-82379244D01*
X147950000Y-82260756D01*
X147919333Y-82146306D01*
X147875278Y-82070000D01*
X148900000Y-82070000D01*
X148900000Y-81372172D01*
X148899999Y-81372155D01*
X148893598Y-81312627D01*
X148893596Y-81312620D01*
X148843354Y-81177913D01*
X148843350Y-81177906D01*
X148757190Y-81062812D01*
X148757187Y-81062809D01*
X148642093Y-80976649D01*
X148642086Y-80976645D01*
X148507379Y-80926403D01*
X148507372Y-80926401D01*
X148447844Y-80920000D01*
X147750000Y-80920000D01*
X147750000Y-81944722D01*
X147673694Y-81900667D01*
X147559244Y-81870000D01*
X147440756Y-81870000D01*
X147326306Y-81900667D01*
X147250000Y-81944722D01*
X147250000Y-80920000D01*
X146552155Y-80920000D01*
X146492627Y-80926401D01*
X146492620Y-80926403D01*
X146357913Y-80976645D01*
X146357906Y-80976649D01*
X146242812Y-81062809D01*
X146242809Y-81062812D01*
X146156649Y-81177906D01*
X146156645Y-81177913D01*
X146106403Y-81312620D01*
X146106401Y-81312627D01*
X146100000Y-81372155D01*
X146100000Y-82070000D01*
X147124722Y-82070000D01*
X147080667Y-82146306D01*
X147050000Y-82260756D01*
X147050000Y-82379244D01*
X147080667Y-82493694D01*
X147124722Y-82570000D01*
X146100000Y-82570000D01*
X146100000Y-83267844D01*
X146106401Y-83327372D01*
X146106403Y-83327379D01*
X146156645Y-83462086D01*
X146156649Y-83462093D01*
X146242809Y-83577187D01*
X146242812Y-83577190D01*
X146357906Y-83663350D01*
X146357913Y-83663354D01*
X146437968Y-83693213D01*
X146493902Y-83735084D01*
X146518319Y-83800549D01*
X146503467Y-83868822D01*
X146482317Y-83897075D01*
X146431756Y-83947636D01*
X146431752Y-83947641D01*
X146302187Y-84125974D01*
X146202104Y-84322393D01*
X146202103Y-84322396D01*
X146133985Y-84532047D01*
X146099500Y-84749778D01*
X146099500Y-84970221D01*
X146133985Y-85187954D01*
X146155524Y-85254246D01*
X146156438Y-85261543D01*
X146158583Y-85265410D01*
X146158762Y-85280083D01*
X146161333Y-85300596D01*
X146160804Y-85308742D01*
X146145499Y-85385688D01*
X146145499Y-85534312D01*
X146145500Y-85534317D01*
X146145500Y-85544474D01*
X146145500Y-87357488D01*
X146125815Y-87424527D01*
X146094385Y-87457806D01*
X146052787Y-87488028D01*
X146052782Y-87488032D01*
X145908028Y-87632786D01*
X145787715Y-87798386D01*
X145694781Y-87980776D01*
X145631522Y-88175465D01*
X145599500Y-88377648D01*
X141700500Y-88377648D01*
X141668477Y-88175466D01*
X141605220Y-87980781D01*
X141605218Y-87980778D01*
X141605218Y-87980776D01*
X141554265Y-87880776D01*
X141512287Y-87798390D01*
X141504556Y-87787749D01*
X141391971Y-87632786D01*
X141247217Y-87488032D01*
X141247212Y-87488028D01*
X141205615Y-87457806D01*
X141162949Y-87402476D01*
X141154500Y-87357488D01*
X141154500Y-86514500D01*
X141174185Y-86447461D01*
X141226989Y-86401706D01*
X141278500Y-86390500D01*
X141410221Y-86390500D01*
X141410222Y-86390500D01*
X141627951Y-86356015D01*
X141837606Y-86287895D01*
X142034022Y-86187815D01*
X142212365Y-86058242D01*
X142368242Y-85902365D01*
X142497815Y-85724022D01*
X142597895Y-85527606D01*
X142599060Y-85524022D01*
X142605310Y-85504785D01*
X142666015Y-85317951D01*
X142700500Y-85100222D01*
X142700500Y-84879778D01*
X142666015Y-84662049D01*
X142623776Y-84532049D01*
X142597896Y-84452396D01*
X142597895Y-84452393D01*
X142538053Y-84334949D01*
X142497815Y-84255978D01*
X142463206Y-84208343D01*
X142368247Y-84077641D01*
X142368243Y-84077636D01*
X142317683Y-84027076D01*
X142284198Y-83965753D01*
X142289182Y-83896061D01*
X142331054Y-83840128D01*
X142362031Y-83823213D01*
X142442086Y-83793354D01*
X142442093Y-83793350D01*
X142557187Y-83707190D01*
X142557190Y-83707187D01*
X142643350Y-83592093D01*
X142643354Y-83592086D01*
X142693596Y-83457379D01*
X142693598Y-83457372D01*
X142699999Y-83397844D01*
X142700000Y-83397827D01*
X142700000Y-82700000D01*
X141675278Y-82700000D01*
X141719333Y-82623694D01*
X141750000Y-82509244D01*
X141750000Y-82390756D01*
X141719333Y-82276306D01*
X141675278Y-82200000D01*
X142700000Y-82200000D01*
X142700000Y-81502172D01*
X142699999Y-81502155D01*
X142693598Y-81442627D01*
X142693596Y-81442619D01*
X142682245Y-81412184D01*
X142643354Y-81307913D01*
X142643350Y-81307906D01*
X142557190Y-81192812D01*
X142557187Y-81192809D01*
X142442093Y-81106649D01*
X142442086Y-81106645D01*
X142307379Y-81056403D01*
X142307372Y-81056401D01*
X142247844Y-81050000D01*
X141550000Y-81050000D01*
X141550000Y-82074722D01*
X141473694Y-82030667D01*
X141359244Y-82000000D01*
X141240756Y-82000000D01*
X141126306Y-82030667D01*
X141050000Y-82074722D01*
X141050000Y-81050000D01*
X140352155Y-81050000D01*
X140292627Y-81056401D01*
X140292620Y-81056403D01*
X140157913Y-81106645D01*
X140157906Y-81106649D01*
X140042812Y-81192809D01*
X140042809Y-81192812D01*
X139956649Y-81307906D01*
X139956645Y-81307913D01*
X139906403Y-81442620D01*
X139906401Y-81442627D01*
X139900000Y-81502155D01*
X139900000Y-82200000D01*
X140924722Y-82200000D01*
X140880667Y-82276306D01*
X140850000Y-82390756D01*
X140850000Y-82509244D01*
X140880667Y-82623694D01*
X140924722Y-82700000D01*
X139900000Y-82700000D01*
X139900000Y-83397844D01*
X139906401Y-83457372D01*
X139906403Y-83457379D01*
X139956645Y-83592086D01*
X139956649Y-83592093D01*
X140042809Y-83707187D01*
X140042812Y-83707190D01*
X140157906Y-83793350D01*
X140157913Y-83793354D01*
X140237968Y-83823213D01*
X140293902Y-83865084D01*
X140318319Y-83930549D01*
X140303467Y-83998822D01*
X140282317Y-84027075D01*
X140231756Y-84077636D01*
X140231752Y-84077641D01*
X140102187Y-84255974D01*
X140002104Y-84452393D01*
X140002103Y-84452396D01*
X139933985Y-84662047D01*
X139933985Y-84662049D01*
X139899500Y-84879778D01*
X139899500Y-85100222D01*
X139909647Y-85164288D01*
X139920141Y-85230545D01*
X139911186Y-85299839D01*
X139885350Y-85337623D01*
X139813944Y-85409030D01*
X139813940Y-85409034D01*
X139731373Y-85532605D01*
X139731366Y-85532617D01*
X139709461Y-85585505D01*
X139680633Y-85655104D01*
X139679308Y-85658302D01*
X139675490Y-85667517D01*
X139674494Y-85669923D01*
X139674493Y-85669925D01*
X139645499Y-85815685D01*
X139645499Y-85970425D01*
X139645500Y-85970446D01*
X139645500Y-87357488D01*
X139625815Y-87424527D01*
X139594385Y-87457806D01*
X139552787Y-87488028D01*
X139552782Y-87488032D01*
X139408028Y-87632786D01*
X139287715Y-87798386D01*
X139194781Y-87980776D01*
X139131522Y-88175465D01*
X139099500Y-88377648D01*
X132954500Y-88377648D01*
X132954500Y-85809314D01*
X132974185Y-85742275D01*
X133005614Y-85708996D01*
X133079792Y-85655104D01*
X133230104Y-85504792D01*
X133230106Y-85504788D01*
X133230109Y-85504786D01*
X133349991Y-85339781D01*
X133355051Y-85332816D01*
X133451557Y-85143412D01*
X133517246Y-84941243D01*
X133550500Y-84731287D01*
X133550500Y-84268713D01*
X133517246Y-84058757D01*
X133451557Y-83856588D01*
X133355051Y-83667184D01*
X133355049Y-83667181D01*
X133355048Y-83667179D01*
X133230109Y-83495213D01*
X133079786Y-83344890D01*
X132907820Y-83219951D01*
X132718414Y-83123444D01*
X132718413Y-83123443D01*
X132718412Y-83123443D01*
X132516243Y-83057754D01*
X132516241Y-83057753D01*
X132516240Y-83057753D01*
X132354957Y-83032208D01*
X132306287Y-83024500D01*
X132093713Y-83024500D01*
X132045042Y-83032208D01*
X131883760Y-83057753D01*
X131681585Y-83123444D01*
X131492179Y-83219951D01*
X131320213Y-83344890D01*
X131169894Y-83495209D01*
X131169890Y-83495214D01*
X131050318Y-83659793D01*
X130994989Y-83702459D01*
X130925375Y-83708438D01*
X130863580Y-83675833D01*
X130849682Y-83659793D01*
X130730109Y-83495214D01*
X130730105Y-83495209D01*
X130579786Y-83344890D01*
X130407820Y-83219951D01*
X130218414Y-83123444D01*
X130218413Y-83123443D01*
X130218412Y-83123443D01*
X130016243Y-83057754D01*
X130016241Y-83057753D01*
X130016240Y-83057753D01*
X129854957Y-83032208D01*
X129806287Y-83024500D01*
X129593713Y-83024500D01*
X129545042Y-83032208D01*
X129383760Y-83057753D01*
X129181585Y-83123444D01*
X128992179Y-83219951D01*
X128820213Y-83344890D01*
X128669894Y-83495209D01*
X128669890Y-83495214D01*
X128550008Y-83660218D01*
X128494678Y-83702884D01*
X128425065Y-83708863D01*
X128363270Y-83676257D01*
X128349372Y-83660218D01*
X128229727Y-83495540D01*
X128229723Y-83495535D01*
X128079464Y-83345276D01*
X128079459Y-83345272D01*
X127907557Y-83220379D01*
X127718215Y-83123903D01*
X127516124Y-83058241D01*
X127450000Y-83047768D01*
X127450000Y-84095854D01*
X127383343Y-84057370D01*
X127262535Y-84025000D01*
X127137465Y-84025000D01*
X127016657Y-84057370D01*
X126950000Y-84095854D01*
X126950000Y-83047768D01*
X126949999Y-83047768D01*
X126883875Y-83058241D01*
X126681784Y-83123903D01*
X126492442Y-83220379D01*
X126320541Y-83345271D01*
X126181668Y-83484144D01*
X126120345Y-83517628D01*
X126050653Y-83512644D01*
X125994720Y-83470772D01*
X125988448Y-83461558D01*
X125892712Y-83306344D01*
X125768657Y-83182289D01*
X125768656Y-83182288D01*
X125619334Y-83090186D01*
X125452797Y-83035001D01*
X125452795Y-83035000D01*
X125350010Y-83024500D01*
X124049998Y-83024500D01*
X124049981Y-83024501D01*
X123947203Y-83035000D01*
X123947200Y-83035001D01*
X123780668Y-83090185D01*
X123780663Y-83090187D01*
X123631342Y-83182289D01*
X123507289Y-83306342D01*
X123415187Y-83455663D01*
X123415185Y-83455668D01*
X123393174Y-83522093D01*
X123360001Y-83622203D01*
X123360001Y-83622204D01*
X123360000Y-83622204D01*
X123349500Y-83724983D01*
X123349500Y-85275001D01*
X123349501Y-85275018D01*
X123360000Y-85377796D01*
X123360001Y-85377799D01*
X123376505Y-85427603D01*
X123415186Y-85544334D01*
X123507288Y-85693656D01*
X123631344Y-85817712D01*
X123780666Y-85909814D01*
X123860505Y-85936269D01*
X123917949Y-85976041D01*
X123944772Y-86040557D01*
X123945500Y-86053975D01*
X123945500Y-89136112D01*
X123925815Y-89203151D01*
X123909181Y-89223793D01*
X114013943Y-99119030D01*
X114013942Y-99119031D01*
X113931372Y-99242607D01*
X113931366Y-99242618D01*
X113874496Y-99379916D01*
X113874493Y-99379926D01*
X113845499Y-99525685D01*
X113845499Y-99680425D01*
X113845500Y-99680446D01*
X113845500Y-110340552D01*
X113845499Y-110340578D01*
X113845499Y-110345688D01*
X113845499Y-110494312D01*
X113845499Y-110494314D01*
X113845498Y-110494314D01*
X113874493Y-110640073D01*
X113874496Y-110640083D01*
X113931366Y-110777381D01*
X113931372Y-110777392D01*
X114013942Y-110900968D01*
X114013943Y-110900969D01*
X115352752Y-112239776D01*
X115386237Y-112301099D01*
X115387544Y-112346855D01*
X115379500Y-112397643D01*
X115379500Y-112602353D01*
X115387544Y-112653145D01*
X115378588Y-112722438D01*
X115352751Y-112760222D01*
X113213942Y-114899031D01*
X113131372Y-115022607D01*
X113131366Y-115022618D01*
X113074496Y-115159916D01*
X113074493Y-115159926D01*
X113045499Y-115305685D01*
X111500500Y-115305685D01*
X111500500Y-79924500D01*
X111520185Y-79857461D01*
X111572989Y-79811706D01*
X111624500Y-79800500D01*
X113317009Y-79800500D01*
X113384048Y-79820185D01*
G37*
%TD.AperFunction*%
%TD*%
M02*
