M48
; DRILL file {KiCad 9.0.1} date 2025-06-17T17:02:40+0100
; FORMAT={-:-/ absolute / metric / decimal}
; #@! TF.CreationDate,2025-06-17T17:02:40+01:00
; #@! TF.GenerationSoftware,Kicad,Pcbnew,9.0.1
; #@! TF.FileFunction,Plated,1,2,PTH
FMAT,2
METRIC
; #@! TA.AperFunction,Plated,PTH,ComponentDrill
T1C0.800
; #@! TA.AperFunction,Plated,PTH,ComponentDrill
T2C0.900
; #@! TA.AperFunction,Plated,PTH,ComponentDrill
T3C0.950
; #@! TA.AperFunction,Plated,PTH,ComponentDrill
T4C1.000
; #@! TA.AperFunction,Plated,PTH,ComponentDrill
T5C1.100
; #@! TA.AperFunction,Plated,PTH,ComponentDrill
T6C1.200
%
G90
G05
T1
X116.68Y-112.5
X124.3Y-112.5
X129.68Y-100.0
X129.68Y-107.62
X132.22Y-100.0
X132.22Y-107.62
X134.76Y-100.0
X134.76Y-107.62
X137.3Y-100.0
X137.3Y-107.62
X139.84Y-100.0
X139.84Y-107.62
X140.4Y-88.48
X140.4Y-96.1
X142.38Y-100.0
X142.38Y-107.62
X144.92Y-100.0
X144.92Y-107.62
X146.9Y-88.48
X146.9Y-96.1
X147.46Y-100.0
X147.46Y-107.62
X149.1Y-113.3
X150.0Y-100.0
X150.0Y-107.62
X151.7Y-88.48
X151.7Y-96.1
X152.54Y-100.0
X152.54Y-107.62
X153.98Y-113.3
X155.08Y-100.0
X155.08Y-107.62
X156.6Y-88.48
X156.6Y-96.1
X157.62Y-100.0
X157.62Y-107.62
X160.16Y-100.0
X160.16Y-107.62
X161.4Y-88.48
X161.4Y-96.1
X162.7Y-100.0
X162.7Y-107.62
X164.5Y-112.38
X164.5Y-120.0
X166.3Y-88.38
X166.3Y-96.0
T2
X141.3Y-82.45
X141.3Y-84.99
X147.5Y-82.32
X147.5Y-84.86
X153.2Y-82.35
X153.2Y-84.89
X159.6Y-82.32
X159.6Y-84.86
X164.26Y-125.1
X165.8Y-82.38
X165.8Y-84.92
X166.8Y-125.1
X172.2Y-82.25
X172.2Y-84.79
T3
X124.7Y-84.5
X127.2Y-84.5
X129.7Y-84.5
X132.2Y-84.5
T4
X116.95Y-121.9
X122.5Y-129.4
X124.45Y-121.9
X125.04Y-129.4
X127.58Y-129.4
X130.12Y-129.4
X132.66Y-129.4
X135.2Y-129.4
X142.26Y-131.3
X144.8Y-131.3
X147.34Y-131.3
X149.88Y-131.3
X149.9Y-118.7
X149.9Y-126.2
X152.42Y-131.3
X154.96Y-131.3
X156.0Y-118.65
X156.0Y-126.15
X157.5Y-131.3
X160.04Y-131.3
X171.7Y-94.3
X179.2Y-94.3
T5
X118.04Y-101.05
X118.04Y-107.55
X122.54Y-101.05
X122.54Y-107.55
T6
X172.96Y-102.805
X175.5Y-102.805
X178.04Y-102.805
T4
G00X171.1Y-117.257
M15
G01X171.1Y-115.257
M16
G05
G00X175.1Y-111.557
M15
G01X173.1Y-111.557
M16
G05
G00X177.1Y-117.257
M15
G01X177.1Y-115.257
M16
G05
M30
