%TF.GenerationSoftware,KiCad,Pcbnew,9.0.1*%
%TF.CreationDate,2025-06-16T22:26:20+01:00*%
%TF.ProjectId,Test_2,54657374-5f32-42e6-9b69-6361645f7063,rev?*%
%TF.SameCoordinates,Original*%
%TF.FileFunction,Soldermask,Top*%
%TF.FilePolarity,Negative*%
%FSLAX46Y46*%
G04 Gerber Fmt 4.6, Leading zero omitted, Abs format (unit mm)*
G04 Created by KiCad (PCBNEW 9.0.1) date 2025-06-16 22:26:20*
%MOMM*%
%LPD*%
G01*
G04 APERTURE LIST*
G04 Aperture macros list*
%AMRoundRect*
0 Rectangle with rounded corners*
0 $1 Rounding radius*
0 $2 $3 $4 $5 $6 $7 $8 $9 X,Y pos of 4 corners*
0 Add a 4 corners polygon primitive as box body*
4,1,4,$2,$3,$4,$5,$6,$7,$8,$9,$2,$3,0*
0 Add four circle primitives for the rounded corners*
1,1,$1+$1,$2,$3*
1,1,$1+$1,$4,$5*
1,1,$1+$1,$6,$7*
1,1,$1+$1,$8,$9*
0 Add four rect primitives between the rounded corners*
20,1,$1+$1,$2,$3,$4,$5,0*
20,1,$1+$1,$4,$5,$6,$7,0*
20,1,$1+$1,$6,$7,$8,$9,0*
20,1,$1+$1,$8,$9,$2,$3,0*%
G04 Aperture macros list end*
%ADD10R,1.800000X1.800000*%
%ADD11C,1.800000*%
%ADD12RoundRect,0.250000X-0.725000X0.600000X-0.725000X-0.600000X0.725000X-0.600000X0.725000X0.600000X0*%
%ADD13O,1.950000X1.700000*%
%ADD14C,2.000000*%
%ADD15R,1.700000X1.700000*%
%ADD16C,1.700000*%
%ADD17C,1.600000*%
%ADD18O,1.600000X1.600000*%
%ADD19RoundRect,0.250000X-0.550000X-0.550000X0.550000X-0.550000X0.550000X0.550000X-0.550000X0.550000X0*%
%ADD20C,1.500000*%
%TA.AperFunction,Profile*%
%ADD21C,0.050000*%
%TD*%
G04 APERTURE END LIST*
D10*
%TO.C,D1*%
X141732000Y-109220000D03*
D11*
X144272000Y-109220000D03*
%TD*%
D12*
%TO.C,J2*%
X148851500Y-68386000D03*
D13*
X148851500Y-70886000D03*
X148851500Y-73386000D03*
X148851500Y-75886000D03*
%TD*%
D14*
%TO.C,C4*%
X118364000Y-72056000D03*
X118364000Y-62056000D03*
%TD*%
D15*
%TO.C,J1*%
X148336000Y-82804000D03*
D16*
X148336000Y-85344000D03*
X148336000Y-87884000D03*
X148336000Y-90424000D03*
%TD*%
D14*
%TO.C,C2*%
X118750000Y-100000000D03*
X111250000Y-100000000D03*
%TD*%
%TO.C,C1*%
X118700000Y-92800000D03*
X111200000Y-92800000D03*
%TD*%
D17*
%TO.C,R1*%
X142240000Y-96520000D03*
D18*
X142240000Y-104140000D03*
%TD*%
D17*
%TO.C,R2*%
X125984000Y-69810000D03*
D18*
X125984000Y-62190000D03*
%TD*%
D14*
%TO.C,SW1*%
X131370000Y-62774000D03*
X137870000Y-62774000D03*
X131370000Y-67274000D03*
X137870000Y-67274000D03*
%TD*%
D19*
%TO.C,U1*%
X130380000Y-73380000D03*
D17*
X130380000Y-75920000D03*
X130380000Y-78460000D03*
X130380000Y-81000000D03*
X130380000Y-83540000D03*
X130380000Y-86080000D03*
X130380000Y-88620000D03*
X130380000Y-91160000D03*
X130380000Y-93700000D03*
X130380000Y-96240000D03*
X130380000Y-98780000D03*
X130380000Y-101320000D03*
X130380000Y-103860000D03*
X130380000Y-106400000D03*
X138000000Y-106400000D03*
X138000000Y-103860000D03*
X138000000Y-101320000D03*
X138000000Y-98780000D03*
X138000000Y-96240000D03*
X138000000Y-93700000D03*
X138000000Y-91160000D03*
X138000000Y-88620000D03*
X138000000Y-86080000D03*
X138000000Y-83540000D03*
X138000000Y-81000000D03*
X138000000Y-78460000D03*
X138000000Y-75920000D03*
X138000000Y-73380000D03*
%TD*%
D14*
%TO.C,C3*%
X124968000Y-77376000D03*
X124968000Y-87376000D03*
%TD*%
D20*
%TO.C,Y1*%
X124000000Y-98880000D03*
X124000000Y-94000000D03*
%TD*%
D15*
%TO.C,J3*%
X111400000Y-70675000D03*
D16*
X111400000Y-73215000D03*
X111400000Y-75755000D03*
X111400000Y-78295000D03*
X111400000Y-80835000D03*
X111400000Y-83375000D03*
%TD*%
D21*
X102889000Y-59100000D02*
X154048000Y-59100000D01*
X154048000Y-113316000D01*
X102889000Y-113316000D01*
X102889000Y-59100000D01*
M02*
