%TF.GenerationSoftware,KiCad,Pcbnew,9.0.1*%
%TF.CreationDate,2025-06-16T22:26:19+01:00*%
%TF.ProjectId,Test_2,54657374-5f32-42e6-9b69-6361645f7063,rev?*%
%TF.SameCoordinates,Original*%
%TF.FileFunction,Copper,L2,Bot*%
%TF.FilePolarity,Positive*%
%FSLAX46Y46*%
G04 Gerber Fmt 4.6, Leading zero omitted, Abs format (unit mm)*
G04 Created by KiCad (PCBNEW 9.0.1) date 2025-06-16 22:26:19*
%MOMM*%
%LPD*%
G01*
G04 APERTURE LIST*
G04 Aperture macros list*
%AMRoundRect*
0 Rectangle with rounded corners*
0 $1 Rounding radius*
0 $2 $3 $4 $5 $6 $7 $8 $9 X,Y pos of 4 corners*
0 Add a 4 corners polygon primitive as box body*
4,1,4,$2,$3,$4,$5,$6,$7,$8,$9,$2,$3,0*
0 Add four circle primitives for the rounded corners*
1,1,$1+$1,$2,$3*
1,1,$1+$1,$4,$5*
1,1,$1+$1,$6,$7*
1,1,$1+$1,$8,$9*
0 Add four rect primitives between the rounded corners*
20,1,$1+$1,$2,$3,$4,$5,0*
20,1,$1+$1,$4,$5,$6,$7,0*
20,1,$1+$1,$6,$7,$8,$9,0*
20,1,$1+$1,$8,$9,$2,$3,0*%
G04 Aperture macros list end*
%TA.AperFunction,ComponentPad*%
%ADD10R,1.800000X1.800000*%
%TD*%
%TA.AperFunction,ComponentPad*%
%ADD11C,1.800000*%
%TD*%
%TA.AperFunction,ComponentPad*%
%ADD12RoundRect,0.250000X-0.725000X0.600000X-0.725000X-0.600000X0.725000X-0.600000X0.725000X0.600000X0*%
%TD*%
%TA.AperFunction,ComponentPad*%
%ADD13O,1.950000X1.700000*%
%TD*%
%TA.AperFunction,ComponentPad*%
%ADD14C,2.000000*%
%TD*%
%TA.AperFunction,ComponentPad*%
%ADD15R,1.700000X1.700000*%
%TD*%
%TA.AperFunction,ComponentPad*%
%ADD16C,1.700000*%
%TD*%
%TA.AperFunction,ComponentPad*%
%ADD17C,1.600000*%
%TD*%
%TA.AperFunction,ComponentPad*%
%ADD18O,1.600000X1.600000*%
%TD*%
%TA.AperFunction,ComponentPad*%
%ADD19RoundRect,0.250000X-0.550000X-0.550000X0.550000X-0.550000X0.550000X0.550000X-0.550000X0.550000X0*%
%TD*%
%TA.AperFunction,ComponentPad*%
%ADD20C,1.500000*%
%TD*%
%TA.AperFunction,Conductor*%
%ADD21C,0.508000*%
%TD*%
%TA.AperFunction,Conductor*%
%ADD22C,1.016000*%
%TD*%
%TA.AperFunction,Profile*%
%ADD23C,0.050000*%
%TD*%
G04 APERTURE END LIST*
D10*
%TO.P,D1,1,K*%
%TO.N,V-*%
X141732000Y-109220000D03*
D11*
%TO.P,D1,2,A*%
%TO.N,Net-(D1-A)*%
X144272000Y-109220000D03*
%TD*%
D12*
%TO.P,J2,1,Pin_1*%
%TO.N,V+*%
X148851500Y-68386000D03*
D13*
%TO.P,J2,2,Pin_2*%
%TO.N,V-*%
X148851500Y-70886000D03*
%TO.P,J2,3,Pin_3*%
%TO.N,SCL*%
X148851500Y-73386000D03*
%TO.P,J2,4,Pin_4*%
%TO.N,SDA*%
X148851500Y-75886000D03*
%TD*%
D14*
%TO.P,C4,1*%
%TO.N,Net-(J3-Pin_1)*%
X118364000Y-72056000D03*
%TO.P,C4,2*%
%TO.N,RST*%
X118364000Y-62056000D03*
%TD*%
D15*
%TO.P,J1,1,Pin_1*%
%TO.N,SDA*%
X148336000Y-82804000D03*
D16*
%TO.P,J1,2,Pin_2*%
%TO.N,SCL*%
X148336000Y-85344000D03*
%TO.P,J1,3,Pin_3*%
%TO.N,V-*%
X148336000Y-87884000D03*
%TO.P,J1,4,Pin_4*%
%TO.N,V+*%
X148336000Y-90424000D03*
%TD*%
D14*
%TO.P,C2,1*%
%TO.N,XTAL2*%
X118750000Y-100000000D03*
%TO.P,C2,2*%
%TO.N,V-*%
X111250000Y-100000000D03*
%TD*%
%TO.P,C1,1*%
%TO.N,XTAL1*%
X118700000Y-92800000D03*
%TO.P,C1,2*%
%TO.N,V-*%
X111200000Y-92800000D03*
%TD*%
D17*
%TO.P,R1,1*%
%TO.N,Lbuilt*%
X142240000Y-96520000D03*
D18*
%TO.P,R1,2*%
%TO.N,Net-(D1-A)*%
X142240000Y-104140000D03*
%TD*%
D17*
%TO.P,R2,1*%
%TO.N,V+*%
X125984000Y-69810000D03*
D18*
%TO.P,R2,2*%
%TO.N,RST*%
X125984000Y-62190000D03*
%TD*%
D14*
%TO.P,SW1,1,1*%
%TO.N,V-*%
X131370000Y-62774000D03*
X137870000Y-62774000D03*
%TO.P,SW1,2,2*%
%TO.N,RST*%
X131370000Y-67274000D03*
X137870000Y-67274000D03*
%TD*%
D19*
%TO.P,U1,1,~{RESET}/PC6*%
%TO.N,RST*%
X130380000Y-73380000D03*
D17*
%TO.P,U1,2,PD0*%
%TO.N,Tx*%
X130380000Y-75920000D03*
%TO.P,U1,3,PD1*%
%TO.N,Rx*%
X130380000Y-78460000D03*
%TO.P,U1,4,PD2*%
%TO.N,unconnected-(U1-PD2-Pad4)*%
X130380000Y-81000000D03*
%TO.P,U1,5,PD3*%
%TO.N,unconnected-(U1-PD3-Pad5)*%
X130380000Y-83540000D03*
%TO.P,U1,6,PD4*%
%TO.N,unconnected-(U1-PD4-Pad6)*%
X130380000Y-86080000D03*
%TO.P,U1,7,VCC*%
%TO.N,V+*%
X130380000Y-88620000D03*
%TO.P,U1,8,GND*%
%TO.N,V-*%
X130380000Y-91160000D03*
%TO.P,U1,9,XTAL1/PB6*%
%TO.N,XTAL1*%
X130380000Y-93700000D03*
%TO.P,U1,10,XTAL2/PB7*%
%TO.N,XTAL2*%
X130380000Y-96240000D03*
%TO.P,U1,11,PD5*%
%TO.N,unconnected-(U1-PD5-Pad11)*%
X130380000Y-98780000D03*
%TO.P,U1,12,PD6*%
%TO.N,unconnected-(U1-PD6-Pad12)*%
X130380000Y-101320000D03*
%TO.P,U1,13,PD7*%
%TO.N,unconnected-(U1-PD7-Pad13)*%
X130380000Y-103860000D03*
%TO.P,U1,14,PB0*%
%TO.N,unconnected-(U1-PB0-Pad14)*%
X130380000Y-106400000D03*
%TO.P,U1,15,PB1*%
%TO.N,unconnected-(U1-PB1-Pad15)*%
X138000000Y-106400000D03*
%TO.P,U1,16,PB2*%
%TO.N,unconnected-(U1-PB2-Pad16)*%
X138000000Y-103860000D03*
%TO.P,U1,17,PB3*%
%TO.N,unconnected-(U1-PB3-Pad17)*%
X138000000Y-101320000D03*
%TO.P,U1,18,PB4*%
%TO.N,unconnected-(U1-PB4-Pad18)*%
X138000000Y-98780000D03*
%TO.P,U1,19,PB5*%
%TO.N,Lbuilt*%
X138000000Y-96240000D03*
%TO.P,U1,20,AVCC*%
%TO.N,V+*%
X138000000Y-93700000D03*
%TO.P,U1,21,AREF*%
X138000000Y-91160000D03*
%TO.P,U1,22,GND*%
%TO.N,V-*%
X138000000Y-88620000D03*
%TO.P,U1,23,PC0*%
%TO.N,unconnected-(U1-PC0-Pad23)*%
X138000000Y-86080000D03*
%TO.P,U1,24,PC1*%
%TO.N,unconnected-(U1-PC1-Pad24)*%
X138000000Y-83540000D03*
%TO.P,U1,25,PC2*%
%TO.N,unconnected-(U1-PC2-Pad25)*%
X138000000Y-81000000D03*
%TO.P,U1,26,PC3*%
%TO.N,unconnected-(U1-PC3-Pad26)*%
X138000000Y-78460000D03*
%TO.P,U1,27,PC4*%
%TO.N,SDA*%
X138000000Y-75920000D03*
%TO.P,U1,28,PC5*%
%TO.N,SCL*%
X138000000Y-73380000D03*
%TD*%
D14*
%TO.P,C3,1*%
%TO.N,V+*%
X124968000Y-77376000D03*
%TO.P,C3,2*%
%TO.N,V-*%
X124968000Y-87376000D03*
%TD*%
D20*
%TO.P,Y1,1,1*%
%TO.N,XTAL2*%
X124000000Y-98880000D03*
%TO.P,Y1,2,2*%
%TO.N,XTAL1*%
X124000000Y-94000000D03*
%TD*%
D15*
%TO.P,J3,1,Pin_1*%
%TO.N,Net-(J3-Pin_1)*%
X111400000Y-70675000D03*
D16*
%TO.P,J3,2,Pin_2*%
%TO.N,Rx*%
X111400000Y-73215000D03*
%TO.P,J3,3,Pin_3*%
%TO.N,Tx*%
X111400000Y-75755000D03*
%TO.P,J3,4,Pin_4*%
%TO.N,V+*%
X111400000Y-78295000D03*
%TO.P,J3,5,Pin_5*%
%TO.N,unconnected-(J3-Pin_5-Pad5)*%
X111400000Y-80835000D03*
%TO.P,J3,6,Pin_6*%
%TO.N,V-*%
X111400000Y-83375000D03*
%TD*%
D21*
%TO.N,XTAL1*%
X124000000Y-94300000D02*
X124500000Y-94800000D01*
X124500000Y-94800000D02*
X129280000Y-94800000D01*
X129280000Y-94800000D02*
X130380000Y-93700000D01*
X118700000Y-92800000D02*
X119900000Y-94000000D01*
X124000000Y-94000000D02*
X124000000Y-94300000D01*
X119900000Y-94000000D02*
X124000000Y-94000000D01*
%TO.N,XTAL2*%
X130340000Y-96200000D02*
X130380000Y-96240000D01*
X119870000Y-98880000D02*
X124000000Y-98880000D01*
X123988412Y-98891588D02*
X124108412Y-98891588D01*
X126788412Y-96211588D02*
X130328412Y-96211588D01*
X118750000Y-100000000D02*
X119870000Y-98880000D01*
X124108412Y-98891588D02*
X126788412Y-96211588D01*
%TO.N,V+*%
X107500000Y-76700000D02*
X107500000Y-68500000D01*
X111400000Y-78295000D02*
X112319000Y-77376000D01*
X150686000Y-68386000D02*
X153293000Y-70993000D01*
X132520000Y-88620000D02*
X137600000Y-93700000D01*
X111400000Y-78295000D02*
X109095000Y-78295000D01*
X122874000Y-66700000D02*
X125984000Y-69810000D01*
X107500000Y-68500000D02*
X109300000Y-66700000D01*
X148336000Y-90424000D02*
X138736000Y-90424000D01*
X148851500Y-68386000D02*
X150686000Y-68386000D01*
X138736000Y-90424000D02*
X138000000Y-91160000D01*
X112319000Y-77376000D02*
X124968000Y-77376000D01*
X109300000Y-66700000D02*
X122874000Y-66700000D01*
X127700000Y-87600000D02*
X128720000Y-88620000D01*
X127700000Y-80108000D02*
X127700000Y-87600000D01*
X153293000Y-88007000D02*
X150900000Y-90400000D01*
X109095000Y-78295000D02*
X107500000Y-76700000D01*
X130380000Y-88620000D02*
X132520000Y-88620000D01*
X153293000Y-70993000D02*
X153293000Y-88007000D01*
X137600000Y-93700000D02*
X138000000Y-93700000D01*
X150900000Y-90400000D02*
X148360000Y-90400000D01*
X138000000Y-93700000D02*
X138000000Y-91160000D01*
X124968000Y-77376000D02*
X127700000Y-80108000D01*
X148360000Y-90400000D02*
X148336000Y-90424000D01*
X128720000Y-88620000D02*
X130380000Y-88620000D01*
%TO.N,Net-(J3-Pin_1)*%
X111400000Y-70675000D02*
X116983000Y-70675000D01*
X116983000Y-70675000D02*
X118364000Y-72056000D01*
%TO.N,RST*%
X125850000Y-62056000D02*
X125984000Y-62190000D01*
X129250000Y-67150000D02*
X125984000Y-63884000D01*
D22*
X131344000Y-67300000D02*
X131370000Y-67274000D01*
D21*
X131370000Y-67274000D02*
X129374000Y-67274000D01*
X129280000Y-73380000D02*
X128300000Y-72400000D01*
X128300000Y-68100000D02*
X129250000Y-67150000D01*
X128300000Y-72400000D02*
X128300000Y-68100000D01*
X129374000Y-67274000D02*
X129250000Y-67150000D01*
X125984000Y-63884000D02*
X125984000Y-62190000D01*
X137870000Y-67274000D02*
X131370000Y-67274000D01*
X130380000Y-73380000D02*
X129280000Y-73380000D01*
X118364000Y-62056000D02*
X125850000Y-62056000D01*
%TO.N,Net-(D1-A)*%
X144300000Y-109192000D02*
X144272000Y-109220000D01*
X142240000Y-104140000D02*
X144300000Y-106200000D01*
X144300000Y-106200000D02*
X144300000Y-109192000D01*
%TO.N,SCL*%
X138006000Y-73386000D02*
X138000000Y-73380000D01*
X148356000Y-85344000D02*
X150600000Y-83100000D01*
X148851500Y-73386000D02*
X138006000Y-73386000D01*
X150600000Y-83100000D02*
X150600000Y-74800000D01*
X148336000Y-85344000D02*
X148356000Y-85344000D01*
X150600000Y-74800000D02*
X149186000Y-73386000D01*
X149186000Y-73386000D02*
X148851500Y-73386000D01*
%TO.N,SDA*%
X147204000Y-82804000D02*
X146800000Y-82400000D01*
X148851500Y-75886000D02*
X144900000Y-75886000D01*
X138034000Y-75886000D02*
X138000000Y-75920000D01*
X148336000Y-82804000D02*
X147204000Y-82804000D01*
X146800000Y-80403000D02*
X148851500Y-78351500D01*
X146800000Y-82400000D02*
X146800000Y-80403000D01*
X144900000Y-75886000D02*
X138034000Y-75886000D01*
X148851500Y-78351500D02*
X148851500Y-75886000D01*
%TO.N,Rx*%
X111400000Y-73215000D02*
X112785000Y-74600000D01*
X112785000Y-74600000D02*
X126520000Y-74600000D01*
X126520000Y-74600000D02*
X130380000Y-78460000D01*
%TO.N,Tx*%
X109300000Y-73655000D02*
X109300000Y-69500000D01*
X111400000Y-75755000D02*
X109300000Y-73655000D01*
X123000000Y-73200000D02*
X126900000Y-73200000D01*
X110200000Y-68600000D02*
X118400000Y-68600000D01*
X129620000Y-75920000D02*
X130380000Y-75920000D01*
X118400000Y-68600000D02*
X123000000Y-73200000D01*
X109300000Y-69500000D02*
X110200000Y-68600000D01*
X126900000Y-73200000D02*
X129620000Y-75920000D01*
%TO.N,Lbuilt*%
X142240000Y-96520000D02*
X138280000Y-96520000D01*
X138280000Y-96520000D02*
X138000000Y-96240000D01*
%TD*%
%TA.AperFunction,Conductor*%
%TO.N,V-*%
G36*
X153490539Y-59620185D02*
G01*
X153536294Y-59672989D01*
X153547500Y-59724500D01*
X153547500Y-69881112D01*
X153527815Y-69948151D01*
X153475011Y-69993906D01*
X153405853Y-70003850D01*
X153342297Y-69974825D01*
X153335819Y-69968793D01*
X151166968Y-67799942D01*
X151125773Y-67772417D01*
X151043389Y-67717370D01*
X151043386Y-67717368D01*
X151043385Y-67717368D01*
X150962955Y-67684053D01*
X150906080Y-67660495D01*
X150881894Y-67655684D01*
X150760314Y-67631499D01*
X150760312Y-67631499D01*
X150611688Y-67631499D01*
X150605574Y-67631499D01*
X150605554Y-67631500D01*
X150405476Y-67631500D01*
X150338437Y-67611815D01*
X150292682Y-67559011D01*
X150287770Y-67546505D01*
X150261314Y-67466666D01*
X150169212Y-67317344D01*
X150045156Y-67193288D01*
X149895834Y-67101186D01*
X149729297Y-67046001D01*
X149729295Y-67046000D01*
X149626510Y-67035500D01*
X148076498Y-67035500D01*
X148076481Y-67035501D01*
X147973703Y-67046000D01*
X147973700Y-67046001D01*
X147807168Y-67101185D01*
X147807163Y-67101187D01*
X147657842Y-67193289D01*
X147533789Y-67317342D01*
X147441687Y-67466663D01*
X147441686Y-67466666D01*
X147386501Y-67633203D01*
X147386501Y-67633204D01*
X147386500Y-67633204D01*
X147376000Y-67735983D01*
X147376000Y-69036001D01*
X147376001Y-69036018D01*
X147386500Y-69138796D01*
X147386501Y-69138799D01*
X147441685Y-69305331D01*
X147441687Y-69305336D01*
X147533789Y-69454657D01*
X147657844Y-69578712D01*
X147813058Y-69674448D01*
X147859783Y-69726396D01*
X147871006Y-69795358D01*
X147843163Y-69859441D01*
X147835644Y-69867668D01*
X147696771Y-70006541D01*
X147571879Y-70178442D01*
X147475404Y-70367782D01*
X147409742Y-70569870D01*
X147409742Y-70569873D01*
X147399269Y-70636000D01*
X148447354Y-70636000D01*
X148408870Y-70702657D01*
X148376500Y-70823465D01*
X148376500Y-70948535D01*
X148408870Y-71069343D01*
X148447354Y-71136000D01*
X147399269Y-71136000D01*
X147409742Y-71202126D01*
X147409742Y-71202129D01*
X147475404Y-71404217D01*
X147571879Y-71593557D01*
X147696772Y-71765459D01*
X147696776Y-71765464D01*
X147847035Y-71915723D01*
X147847040Y-71915727D01*
X148011718Y-72035372D01*
X148054384Y-72090701D01*
X148060363Y-72160315D01*
X148027758Y-72222110D01*
X148011718Y-72236008D01*
X147846714Y-72355890D01*
X147846709Y-72355894D01*
X147696396Y-72506207D01*
X147642504Y-72580385D01*
X147587174Y-72623051D01*
X147542185Y-72631500D01*
X139126871Y-72631500D01*
X139059832Y-72611815D01*
X139026553Y-72580385D01*
X138991971Y-72532786D01*
X138847213Y-72388028D01*
X138681613Y-72267715D01*
X138681612Y-72267714D01*
X138681610Y-72267713D01*
X138604839Y-72228596D01*
X138499223Y-72174781D01*
X138304534Y-72111522D01*
X138129995Y-72083878D01*
X138102352Y-72079500D01*
X137897648Y-72079500D01*
X137873329Y-72083351D01*
X137695465Y-72111522D01*
X137500776Y-72174781D01*
X137318386Y-72267715D01*
X137152786Y-72388028D01*
X137008028Y-72532786D01*
X136887715Y-72698386D01*
X136794781Y-72880776D01*
X136731522Y-73075465D01*
X136699500Y-73277648D01*
X136699500Y-73482351D01*
X136731522Y-73684534D01*
X136794781Y-73879223D01*
X136887715Y-74061613D01*
X137008028Y-74227213D01*
X137152786Y-74371971D01*
X137250016Y-74442611D01*
X137318390Y-74492287D01*
X137403200Y-74535500D01*
X137411080Y-74539515D01*
X137461876Y-74587490D01*
X137478671Y-74655311D01*
X137456134Y-74721446D01*
X137411080Y-74760485D01*
X137318386Y-74807715D01*
X137152786Y-74928028D01*
X137008028Y-75072786D01*
X136887715Y-75238386D01*
X136794781Y-75420776D01*
X136731522Y-75615465D01*
X136699500Y-75817648D01*
X136699500Y-76022351D01*
X136731522Y-76224534D01*
X136794781Y-76419223D01*
X136858691Y-76544653D01*
X136881576Y-76589566D01*
X136887715Y-76601613D01*
X137008028Y-76767213D01*
X137152786Y-76911971D01*
X137282975Y-77006557D01*
X137318390Y-77032287D01*
X137409840Y-77078883D01*
X137411080Y-77079515D01*
X137461876Y-77127490D01*
X137478671Y-77195311D01*
X137456134Y-77261446D01*
X137411080Y-77300485D01*
X137318386Y-77347715D01*
X137152786Y-77468028D01*
X137008028Y-77612786D01*
X136887715Y-77778386D01*
X136794781Y-77960776D01*
X136731522Y-78155465D01*
X136699500Y-78357648D01*
X136699500Y-78562351D01*
X136731522Y-78764534D01*
X136794781Y-78959223D01*
X136887715Y-79141613D01*
X137008028Y-79307213D01*
X137152786Y-79451971D01*
X137282975Y-79546557D01*
X137318390Y-79572287D01*
X137409840Y-79618883D01*
X137411080Y-79619515D01*
X137461876Y-79667490D01*
X137478671Y-79735311D01*
X137456134Y-79801446D01*
X137411080Y-79840485D01*
X137318386Y-79887715D01*
X137152786Y-80008028D01*
X137008028Y-80152786D01*
X136887715Y-80318386D01*
X136794781Y-80500776D01*
X136731522Y-80695465D01*
X136699500Y-80897648D01*
X136699500Y-81102351D01*
X136731522Y-81304534D01*
X136794781Y-81499223D01*
X136887715Y-81681613D01*
X137008028Y-81847213D01*
X137152786Y-81991971D01*
X137282975Y-82086557D01*
X137318390Y-82112287D01*
X137396814Y-82152246D01*
X137411080Y-82159515D01*
X137461876Y-82207490D01*
X137478671Y-82275311D01*
X137456134Y-82341446D01*
X137411080Y-82380485D01*
X137318386Y-82427715D01*
X137152786Y-82548028D01*
X137008028Y-82692786D01*
X136887715Y-82858386D01*
X136794781Y-83040776D01*
X136731522Y-83235465D01*
X136699500Y-83437648D01*
X136699500Y-83642351D01*
X136731522Y-83844534D01*
X136794781Y-84039223D01*
X136844457Y-84136716D01*
X136871071Y-84188949D01*
X136887715Y-84221613D01*
X137008028Y-84387213D01*
X137152786Y-84531971D01*
X137296219Y-84636179D01*
X137318390Y-84652287D01*
X137395854Y-84691757D01*
X137411080Y-84699515D01*
X137461876Y-84747490D01*
X137478671Y-84815311D01*
X137456134Y-84881446D01*
X137411080Y-84920485D01*
X137318386Y-84967715D01*
X137152786Y-85088028D01*
X137008028Y-85232786D01*
X136887715Y-85398386D01*
X136794781Y-85580776D01*
X136731522Y-85775465D01*
X136699500Y-85977648D01*
X136699500Y-86182351D01*
X136731522Y-86384534D01*
X136794781Y-86579223D01*
X136836575Y-86661246D01*
X136871287Y-86729373D01*
X136887715Y-86761613D01*
X137008028Y-86927213D01*
X137152786Y-87071971D01*
X137318385Y-87192284D01*
X137318387Y-87192285D01*
X137318390Y-87192287D01*
X137411080Y-87239515D01*
X137411630Y-87239795D01*
X137462426Y-87287770D01*
X137479221Y-87355591D01*
X137456684Y-87421725D01*
X137411630Y-87460765D01*
X137318644Y-87508143D01*
X137274077Y-87540523D01*
X137274077Y-87540524D01*
X137953554Y-88220000D01*
X137947339Y-88220000D01*
X137845606Y-88247259D01*
X137754394Y-88299920D01*
X137679920Y-88374394D01*
X137627259Y-88465606D01*
X137600000Y-88567339D01*
X137600000Y-88573553D01*
X136920524Y-87894077D01*
X136920523Y-87894077D01*
X136888143Y-87938644D01*
X136795244Y-88120968D01*
X136732009Y-88315582D01*
X136700000Y-88517682D01*
X136700000Y-88722317D01*
X136732009Y-88924417D01*
X136795244Y-89119031D01*
X136888141Y-89301350D01*
X136888147Y-89301359D01*
X136920523Y-89345921D01*
X136920524Y-89345922D01*
X137600000Y-88666446D01*
X137600000Y-88672661D01*
X137627259Y-88774394D01*
X137679920Y-88865606D01*
X137754394Y-88940080D01*
X137845606Y-88992741D01*
X137947339Y-89020000D01*
X137953553Y-89020000D01*
X137274076Y-89699474D01*
X137318652Y-89731861D01*
X137411628Y-89779234D01*
X137462425Y-89827208D01*
X137479220Y-89895029D01*
X137456683Y-89961164D01*
X137411630Y-90000203D01*
X137318388Y-90047713D01*
X137152786Y-90168028D01*
X137008028Y-90312786D01*
X136887715Y-90478386D01*
X136794781Y-90660776D01*
X136731522Y-90855465D01*
X136699500Y-91057648D01*
X136699500Y-91262351D01*
X136728272Y-91444014D01*
X136719317Y-91513308D01*
X136674321Y-91566760D01*
X136607569Y-91587399D01*
X136540256Y-91568674D01*
X136518118Y-91551093D01*
X133567523Y-88600497D01*
X133000968Y-88033942D01*
X132935571Y-87990246D01*
X132877389Y-87951370D01*
X132877386Y-87951368D01*
X132877385Y-87951368D01*
X132796955Y-87918053D01*
X132740080Y-87894495D01*
X132715894Y-87889684D01*
X132687315Y-87883999D01*
X132594314Y-87865499D01*
X132594312Y-87865499D01*
X132445688Y-87865499D01*
X132439574Y-87865499D01*
X132439554Y-87865500D01*
X131502511Y-87865500D01*
X131435472Y-87845815D01*
X131402192Y-87814384D01*
X131371969Y-87772784D01*
X131227213Y-87628028D01*
X131061614Y-87507715D01*
X131014876Y-87483901D01*
X130968917Y-87460483D01*
X130918123Y-87412511D01*
X130901328Y-87344690D01*
X130923865Y-87278555D01*
X130968917Y-87239516D01*
X131061610Y-87192287D01*
X131083423Y-87176439D01*
X131227213Y-87071971D01*
X131227215Y-87071968D01*
X131227219Y-87071966D01*
X131371966Y-86927219D01*
X131371968Y-86927215D01*
X131371971Y-86927213D01*
X131464252Y-86800197D01*
X131492287Y-86761610D01*
X131585220Y-86579219D01*
X131648477Y-86384534D01*
X131680500Y-86182352D01*
X131680500Y-85977648D01*
X131664400Y-85876000D01*
X131648477Y-85775465D01*
X131585218Y-85580776D01*
X131551503Y-85514607D01*
X131492287Y-85398390D01*
X131484556Y-85387749D01*
X131371971Y-85232786D01*
X131227213Y-85088028D01*
X131061614Y-84967715D01*
X131055006Y-84964348D01*
X130968917Y-84920483D01*
X130918123Y-84872511D01*
X130901328Y-84804690D01*
X130923865Y-84738555D01*
X130968917Y-84699516D01*
X131061610Y-84652287D01*
X131083781Y-84636179D01*
X131227213Y-84531971D01*
X131227215Y-84531968D01*
X131227219Y-84531966D01*
X131371966Y-84387219D01*
X131371968Y-84387215D01*
X131371971Y-84387213D01*
X131468649Y-84254145D01*
X131492287Y-84221610D01*
X131585220Y-84039219D01*
X131648477Y-83844534D01*
X131680500Y-83642352D01*
X131680500Y-83437648D01*
X131661879Y-83320080D01*
X131648477Y-83235465D01*
X131619127Y-83145137D01*
X131585220Y-83040781D01*
X131585218Y-83040778D01*
X131585218Y-83040776D01*
X131518112Y-82909075D01*
X131492287Y-82858390D01*
X131440765Y-82787475D01*
X131371971Y-82692786D01*
X131227213Y-82548028D01*
X131061614Y-82427715D01*
X131055006Y-82424348D01*
X130968917Y-82380483D01*
X130918123Y-82332511D01*
X130901328Y-82264690D01*
X130923865Y-82198555D01*
X130968917Y-82159516D01*
X131061610Y-82112287D01*
X131097025Y-82086557D01*
X131227213Y-81991971D01*
X131227215Y-81991968D01*
X131227219Y-81991966D01*
X131371966Y-81847219D01*
X131371968Y-81847215D01*
X131371971Y-81847213D01*
X131449829Y-81740049D01*
X131492287Y-81681610D01*
X131585220Y-81499219D01*
X131648477Y-81304534D01*
X131680500Y-81102352D01*
X131680500Y-80897648D01*
X131648477Y-80695466D01*
X131585220Y-80500781D01*
X131585218Y-80500778D01*
X131585218Y-80500776D01*
X131525821Y-80384205D01*
X131492287Y-80318390D01*
X131484556Y-80307749D01*
X131371971Y-80152786D01*
X131227213Y-80008028D01*
X131061614Y-79887715D01*
X131055006Y-79884348D01*
X130968917Y-79840483D01*
X130918123Y-79792511D01*
X130901328Y-79724690D01*
X130923865Y-79658555D01*
X130968917Y-79619516D01*
X131061610Y-79572287D01*
X131169975Y-79493556D01*
X131227213Y-79451971D01*
X131227215Y-79451968D01*
X131227219Y-79451966D01*
X131371966Y-79307219D01*
X131371968Y-79307215D01*
X131371971Y-79307213D01*
X131468183Y-79174786D01*
X131492287Y-79141610D01*
X131585220Y-78959219D01*
X131648477Y-78764534D01*
X131680500Y-78562352D01*
X131680500Y-78357648D01*
X131652619Y-78181614D01*
X131648477Y-78155465D01*
X131585218Y-77960776D01*
X131551503Y-77894607D01*
X131492287Y-77778390D01*
X131455218Y-77727368D01*
X131371971Y-77612786D01*
X131227213Y-77468028D01*
X131061614Y-77347715D01*
X131055006Y-77344348D01*
X130968917Y-77300483D01*
X130918123Y-77252511D01*
X130901328Y-77184690D01*
X130923865Y-77118555D01*
X130968917Y-77079516D01*
X131061610Y-77032287D01*
X131210733Y-76923944D01*
X131227213Y-76911971D01*
X131227215Y-76911968D01*
X131227219Y-76911966D01*
X131371966Y-76767219D01*
X131371968Y-76767215D01*
X131371971Y-76767213D01*
X131474793Y-76625688D01*
X131492287Y-76601610D01*
X131585220Y-76419219D01*
X131648477Y-76224534D01*
X131680500Y-76022352D01*
X131680500Y-75817648D01*
X131648477Y-75615466D01*
X131585220Y-75420781D01*
X131585218Y-75420778D01*
X131585218Y-75420776D01*
X131549192Y-75350073D01*
X131492287Y-75238390D01*
X131414628Y-75131500D01*
X131371971Y-75072786D01*
X131227219Y-74928034D01*
X131153276Y-74874312D01*
X131133547Y-74859978D01*
X131090882Y-74804649D01*
X131084903Y-74735036D01*
X131117508Y-74673240D01*
X131167426Y-74641955D01*
X131249334Y-74614814D01*
X131398656Y-74522712D01*
X131522712Y-74398656D01*
X131614814Y-74249334D01*
X131669999Y-74082797D01*
X131680500Y-73980009D01*
X131680499Y-72779992D01*
X131669999Y-72677203D01*
X131614814Y-72510666D01*
X131522712Y-72361344D01*
X131398656Y-72237288D01*
X131297314Y-72174780D01*
X131249336Y-72145187D01*
X131249331Y-72145185D01*
X131226492Y-72137617D01*
X131082797Y-72090001D01*
X131082795Y-72090000D01*
X130980010Y-72079500D01*
X129779998Y-72079500D01*
X129779981Y-72079501D01*
X129677203Y-72090000D01*
X129677200Y-72090001D01*
X129510668Y-72145185D01*
X129510663Y-72145187D01*
X129361331Y-72237296D01*
X129360194Y-72238196D01*
X129359269Y-72238568D01*
X129358433Y-72239084D01*
X129357612Y-72240182D01*
X129326350Y-72251841D01*
X129295394Y-72264324D01*
X129293732Y-72264008D01*
X129292148Y-72264599D01*
X129259531Y-72257503D01*
X129226754Y-72251270D01*
X129224998Y-72249991D01*
X129223875Y-72249747D01*
X129195621Y-72228596D01*
X129090819Y-72123794D01*
X129057334Y-72062471D01*
X129054500Y-72036113D01*
X129054500Y-68463886D01*
X129074185Y-68396847D01*
X129090819Y-68376205D01*
X129402205Y-68064819D01*
X129463528Y-68031334D01*
X129489886Y-68028500D01*
X130000275Y-68028500D01*
X130067314Y-68048185D01*
X130100592Y-68079613D01*
X130225483Y-68251510D01*
X130392490Y-68418517D01*
X130583567Y-68557343D01*
X130676667Y-68604780D01*
X130794003Y-68664566D01*
X130794005Y-68664566D01*
X130794008Y-68664568D01*
X130896024Y-68697715D01*
X131018631Y-68737553D01*
X131251903Y-68774500D01*
X131251908Y-68774500D01*
X131488097Y-68774500D01*
X131721368Y-68737553D01*
X131945992Y-68664568D01*
X132156433Y-68557343D01*
X132347510Y-68418517D01*
X132514517Y-68251510D01*
X132639407Y-68079613D01*
X132694737Y-68036949D01*
X132739725Y-68028500D01*
X136500275Y-68028500D01*
X136567314Y-68048185D01*
X136600592Y-68079613D01*
X136725483Y-68251510D01*
X136892490Y-68418517D01*
X137083567Y-68557343D01*
X137176667Y-68604780D01*
X137294003Y-68664566D01*
X137294005Y-68664566D01*
X137294008Y-68664568D01*
X137396024Y-68697715D01*
X137518631Y-68737553D01*
X137751903Y-68774500D01*
X137751908Y-68774500D01*
X137988097Y-68774500D01*
X138221368Y-68737553D01*
X138445992Y-68664568D01*
X138656433Y-68557343D01*
X138847510Y-68418517D01*
X139014517Y-68251510D01*
X139153343Y-68060433D01*
X139260568Y-67849992D01*
X139333553Y-67625368D01*
X139346044Y-67546505D01*
X139370500Y-67392097D01*
X139370500Y-67155902D01*
X139333553Y-66922631D01*
X139260566Y-66698003D01*
X139204002Y-66586991D01*
X139153343Y-66487567D01*
X139014517Y-66296490D01*
X138847510Y-66129483D01*
X138656433Y-65990657D01*
X138445996Y-65883433D01*
X138221368Y-65810446D01*
X137988097Y-65773500D01*
X137988092Y-65773500D01*
X137751908Y-65773500D01*
X137751903Y-65773500D01*
X137518631Y-65810446D01*
X137294003Y-65883433D01*
X137083566Y-65990657D01*
X136974550Y-66069862D01*
X136892490Y-66129483D01*
X136892488Y-66129485D01*
X136892487Y-66129485D01*
X136725485Y-66296487D01*
X136725485Y-66296488D01*
X136725483Y-66296490D01*
X136600593Y-66468386D01*
X136545263Y-66511051D01*
X136500275Y-66519500D01*
X132739725Y-66519500D01*
X132672686Y-66499815D01*
X132639407Y-66468386D01*
X132514517Y-66296490D01*
X132347510Y-66129483D01*
X132156433Y-65990657D01*
X131945996Y-65883433D01*
X131721368Y-65810446D01*
X131488097Y-65773500D01*
X131488092Y-65773500D01*
X131251908Y-65773500D01*
X131251903Y-65773500D01*
X131018631Y-65810446D01*
X130794003Y-65883433D01*
X130583566Y-65990657D01*
X130474550Y-66069862D01*
X130392490Y-66129483D01*
X130392488Y-66129485D01*
X130392487Y-66129485D01*
X130225485Y-66296487D01*
X130225485Y-66296488D01*
X130225483Y-66296490D01*
X130100593Y-66468386D01*
X130045263Y-66511051D01*
X130000275Y-66519500D01*
X129737886Y-66519500D01*
X129670847Y-66499815D01*
X129650205Y-66483181D01*
X127204105Y-64037080D01*
X126774819Y-63607794D01*
X126760115Y-63580866D01*
X126743523Y-63555048D01*
X126742631Y-63548847D01*
X126741334Y-63546471D01*
X126738500Y-63520113D01*
X126738500Y-63312510D01*
X126758185Y-63245471D01*
X126789613Y-63212193D01*
X126831219Y-63181966D01*
X126975966Y-63037219D01*
X126975966Y-63037218D01*
X126975971Y-63037214D01*
X126975971Y-63037213D01*
X127028732Y-62964590D01*
X127096287Y-62871610D01*
X127189220Y-62689219D01*
X127200031Y-62655947D01*
X129870000Y-62655947D01*
X129870000Y-62892052D01*
X129906934Y-63125247D01*
X129979897Y-63349802D01*
X130087087Y-63560174D01*
X130147338Y-63643104D01*
X130147340Y-63643105D01*
X130846212Y-62944233D01*
X130857482Y-62986292D01*
X130929890Y-63111708D01*
X131032292Y-63214110D01*
X131157708Y-63286518D01*
X131199765Y-63297787D01*
X130500893Y-63996658D01*
X130583828Y-64056914D01*
X130794197Y-64164102D01*
X131018752Y-64237065D01*
X131018751Y-64237065D01*
X131251948Y-64274000D01*
X131488052Y-64274000D01*
X131721247Y-64237065D01*
X131945802Y-64164102D01*
X132156163Y-64056918D01*
X132156169Y-64056914D01*
X132239104Y-63996658D01*
X132239105Y-63996658D01*
X131540233Y-63297787D01*
X131582292Y-63286518D01*
X131707708Y-63214110D01*
X131810110Y-63111708D01*
X131882518Y-62986292D01*
X131893787Y-62944234D01*
X132592658Y-63643105D01*
X132592658Y-63643104D01*
X132652914Y-63560169D01*
X132652918Y-63560163D01*
X132760102Y-63349802D01*
X132833065Y-63125247D01*
X132870000Y-62892052D01*
X132870000Y-62655947D01*
X136370000Y-62655947D01*
X136370000Y-62892052D01*
X136406934Y-63125247D01*
X136479897Y-63349802D01*
X136587087Y-63560174D01*
X136647338Y-63643104D01*
X136647340Y-63643105D01*
X137346212Y-62944233D01*
X137357482Y-62986292D01*
X137429890Y-63111708D01*
X137532292Y-63214110D01*
X137657708Y-63286518D01*
X137699765Y-63297787D01*
X137000893Y-63996658D01*
X137083828Y-64056914D01*
X137294197Y-64164102D01*
X137518752Y-64237065D01*
X137518751Y-64237065D01*
X137751948Y-64274000D01*
X137988052Y-64274000D01*
X138221247Y-64237065D01*
X138445802Y-64164102D01*
X138656163Y-64056918D01*
X138656169Y-64056914D01*
X138739104Y-63996658D01*
X138739105Y-63996658D01*
X138040233Y-63297787D01*
X138082292Y-63286518D01*
X138207708Y-63214110D01*
X138310110Y-63111708D01*
X138382518Y-62986292D01*
X138393787Y-62944234D01*
X139092658Y-63643105D01*
X139092658Y-63643104D01*
X139152914Y-63560169D01*
X139152918Y-63560163D01*
X139260102Y-63349802D01*
X139333065Y-63125247D01*
X139370000Y-62892052D01*
X139370000Y-62655947D01*
X139333065Y-62422752D01*
X139260102Y-62198197D01*
X139152914Y-61987828D01*
X139092658Y-61904894D01*
X139092658Y-61904893D01*
X138393787Y-62603765D01*
X138382518Y-62561708D01*
X138310110Y-62436292D01*
X138207708Y-62333890D01*
X138082292Y-62261482D01*
X138040234Y-62250212D01*
X138739105Y-61551340D01*
X138739104Y-61551338D01*
X138656174Y-61491087D01*
X138445802Y-61383897D01*
X138221247Y-61310934D01*
X138221248Y-61310934D01*
X137988052Y-61274000D01*
X137751948Y-61274000D01*
X137518752Y-61310934D01*
X137294197Y-61383897D01*
X137083830Y-61491084D01*
X137000894Y-61551340D01*
X137699766Y-62250212D01*
X137657708Y-62261482D01*
X137532292Y-62333890D01*
X137429890Y-62436292D01*
X137357482Y-62561708D01*
X137346212Y-62603766D01*
X136647340Y-61904894D01*
X136587084Y-61987830D01*
X136479897Y-62198197D01*
X136406934Y-62422752D01*
X136370000Y-62655947D01*
X132870000Y-62655947D01*
X132833065Y-62422752D01*
X132760102Y-62198197D01*
X132652914Y-61987828D01*
X132592658Y-61904894D01*
X132592658Y-61904893D01*
X131893787Y-62603765D01*
X131882518Y-62561708D01*
X131810110Y-62436292D01*
X131707708Y-62333890D01*
X131582292Y-62261482D01*
X131540234Y-62250212D01*
X132239105Y-61551340D01*
X132239104Y-61551339D01*
X132156174Y-61491087D01*
X131945802Y-61383897D01*
X131721247Y-61310934D01*
X131721248Y-61310934D01*
X131488052Y-61274000D01*
X131251948Y-61274000D01*
X131018752Y-61310934D01*
X130794197Y-61383897D01*
X130583830Y-61491084D01*
X130500894Y-61551340D01*
X131199766Y-62250212D01*
X131157708Y-62261482D01*
X131032292Y-62333890D01*
X130929890Y-62436292D01*
X130857482Y-62561708D01*
X130846212Y-62603766D01*
X130147340Y-61904894D01*
X130087084Y-61987830D01*
X129979897Y-62198197D01*
X129906934Y-62422752D01*
X129870000Y-62655947D01*
X127200031Y-62655947D01*
X127252477Y-62494534D01*
X127284500Y-62292352D01*
X127284500Y-62087648D01*
X127252477Y-61885466D01*
X127189220Y-61690781D01*
X127189218Y-61690778D01*
X127189217Y-61690773D01*
X127170936Y-61654895D01*
X127170935Y-61654894D01*
X127118171Y-61551340D01*
X127096287Y-61508390D01*
X127083714Y-61491084D01*
X126975971Y-61342786D01*
X126831213Y-61198028D01*
X126665613Y-61077715D01*
X126665612Y-61077714D01*
X126665610Y-61077713D01*
X126608653Y-61048691D01*
X126483223Y-60984781D01*
X126288534Y-60921522D01*
X126113995Y-60893878D01*
X126086352Y-60889500D01*
X125881648Y-60889500D01*
X125857329Y-60893351D01*
X125679465Y-60921522D01*
X125484776Y-60984781D01*
X125302386Y-61077715D01*
X125136786Y-61198028D01*
X125136782Y-61198032D01*
X125069634Y-61265181D01*
X125008311Y-61298666D01*
X124981953Y-61301500D01*
X119733725Y-61301500D01*
X119666686Y-61281815D01*
X119633407Y-61250386D01*
X119508517Y-61078490D01*
X119341510Y-60911483D01*
X119150433Y-60772657D01*
X118939996Y-60665433D01*
X118715368Y-60592446D01*
X118482097Y-60555500D01*
X118482092Y-60555500D01*
X118245908Y-60555500D01*
X118245903Y-60555500D01*
X118012631Y-60592446D01*
X117788003Y-60665433D01*
X117577566Y-60772657D01*
X117468550Y-60851862D01*
X117386490Y-60911483D01*
X117386488Y-60911485D01*
X117386487Y-60911485D01*
X117219485Y-61078487D01*
X117219485Y-61078488D01*
X117219483Y-61078490D01*
X117159862Y-61160550D01*
X117080657Y-61269566D01*
X116973433Y-61480003D01*
X116900446Y-61704631D01*
X116863500Y-61937902D01*
X116863500Y-62174097D01*
X116900446Y-62407368D01*
X116973433Y-62631996D01*
X117045789Y-62774001D01*
X117080657Y-62842433D01*
X117219483Y-63033510D01*
X117386490Y-63200517D01*
X117577567Y-63339343D01*
X117676991Y-63390002D01*
X117788003Y-63446566D01*
X117788005Y-63446566D01*
X117788008Y-63446568D01*
X117908412Y-63485689D01*
X118012631Y-63519553D01*
X118245903Y-63556500D01*
X118245908Y-63556500D01*
X118482097Y-63556500D01*
X118715368Y-63519553D01*
X118939992Y-63446568D01*
X119150433Y-63339343D01*
X119341510Y-63200517D01*
X119508517Y-63033510D01*
X119633407Y-62861613D01*
X119688737Y-62818949D01*
X119733725Y-62810500D01*
X124764821Y-62810500D01*
X124831860Y-62830185D01*
X124868674Y-62867795D01*
X124868849Y-62867669D01*
X124869706Y-62868849D01*
X124870548Y-62869709D01*
X124871716Y-62871616D01*
X124992028Y-63037213D01*
X124992034Y-63037219D01*
X125136781Y-63181966D01*
X125178384Y-63212192D01*
X125221050Y-63267520D01*
X125229500Y-63312510D01*
X125229500Y-63804552D01*
X125229499Y-63804578D01*
X125229499Y-63809688D01*
X125229499Y-63958312D01*
X125229499Y-63958314D01*
X125229498Y-63958314D01*
X125258493Y-64104073D01*
X125258496Y-64104083D01*
X125315366Y-64241381D01*
X125315372Y-64241392D01*
X125397942Y-64364968D01*
X125397943Y-64364969D01*
X128095293Y-67062318D01*
X128128778Y-67123641D01*
X128123794Y-67193333D01*
X128095293Y-67237680D01*
X127713942Y-67619031D01*
X127631372Y-67742607D01*
X127631366Y-67742618D01*
X127574496Y-67879916D01*
X127574495Y-67879921D01*
X127545499Y-68025685D01*
X127545499Y-68180425D01*
X127545500Y-68180446D01*
X127545500Y-72325682D01*
X127545499Y-72325688D01*
X127545499Y-72474312D01*
X127546641Y-72480057D01*
X127546726Y-72491827D01*
X127540191Y-72514682D01*
X127538023Y-72538356D01*
X127530763Y-72547660D01*
X127527520Y-72559005D01*
X127509668Y-72574698D01*
X127495044Y-72593442D01*
X127483907Y-72597344D01*
X127475044Y-72605136D01*
X127451537Y-72608687D01*
X127429105Y-72616548D01*
X127417627Y-72613810D01*
X127405959Y-72615573D01*
X127384266Y-72605852D01*
X127361142Y-72600337D01*
X127353839Y-72595815D01*
X127257392Y-72531372D01*
X127257391Y-72531371D01*
X127257389Y-72531370D01*
X127257386Y-72531368D01*
X127257381Y-72531366D01*
X127160991Y-72491440D01*
X127160980Y-72491436D01*
X127156293Y-72489495D01*
X127120080Y-72474495D01*
X127095894Y-72469684D01*
X127088935Y-72468299D01*
X127088930Y-72468298D01*
X126974314Y-72445499D01*
X126974312Y-72445499D01*
X126825688Y-72445499D01*
X126819574Y-72445499D01*
X126819554Y-72445500D01*
X123363886Y-72445500D01*
X123296847Y-72425815D01*
X123276205Y-72409181D01*
X118880969Y-68013943D01*
X118880968Y-68013942D01*
X118757392Y-67931372D01*
X118757391Y-67931371D01*
X118757389Y-67931370D01*
X118757386Y-67931368D01*
X118757381Y-67931366D01*
X118639746Y-67882641D01*
X118639745Y-67882640D01*
X118633179Y-67879921D01*
X118620080Y-67874495D01*
X118595894Y-67869684D01*
X118590916Y-67868693D01*
X118590910Y-67868692D01*
X118474314Y-67845499D01*
X118474312Y-67845499D01*
X118325688Y-67845499D01*
X118319574Y-67845499D01*
X118319554Y-67845500D01*
X110125683Y-67845500D01*
X109979927Y-67874493D01*
X109979919Y-67874495D01*
X109842608Y-67931371D01*
X109719035Y-68013939D01*
X109719034Y-68013940D01*
X109684790Y-68048185D01*
X109613941Y-68119034D01*
X109613939Y-68119036D01*
X108713943Y-69019030D01*
X108713942Y-69019031D01*
X108631372Y-69142607D01*
X108631366Y-69142618D01*
X108574496Y-69279916D01*
X108574493Y-69279926D01*
X108545499Y-69425685D01*
X108545499Y-69580425D01*
X108545500Y-69580446D01*
X108545500Y-73575552D01*
X108545499Y-73575578D01*
X108545499Y-73729313D01*
X108560034Y-73802384D01*
X108560037Y-73802396D01*
X108560863Y-73806547D01*
X108574495Y-73875080D01*
X108586645Y-73904412D01*
X108589684Y-73911751D01*
X108589686Y-73911755D01*
X108631366Y-74012381D01*
X108631372Y-74012392D01*
X108713942Y-74135968D01*
X108713943Y-74135969D01*
X110029050Y-75451075D01*
X110062535Y-75512398D01*
X110063842Y-75558153D01*
X110049500Y-75648707D01*
X110049500Y-75648713D01*
X110049500Y-75861287D01*
X110082754Y-76071243D01*
X110134819Y-76231483D01*
X110148444Y-76273414D01*
X110244951Y-76462820D01*
X110369890Y-76634786D01*
X110520213Y-76785109D01*
X110692182Y-76910050D01*
X110700946Y-76914516D01*
X110751742Y-76962491D01*
X110768536Y-77030312D01*
X110745998Y-77096447D01*
X110700946Y-77135484D01*
X110692182Y-77139949D01*
X110520213Y-77264890D01*
X110369896Y-77415207D01*
X110316004Y-77489385D01*
X110260674Y-77532051D01*
X110215685Y-77540500D01*
X109458886Y-77540500D01*
X109391847Y-77520815D01*
X109371205Y-77504181D01*
X108290819Y-76423794D01*
X108257334Y-76362471D01*
X108254500Y-76336113D01*
X108254500Y-68863886D01*
X108274185Y-68796847D01*
X108290819Y-68776205D01*
X109576205Y-67490819D01*
X109637528Y-67457334D01*
X109663886Y-67454500D01*
X122510113Y-67454500D01*
X122577152Y-67474185D01*
X122597794Y-67490819D01*
X124656752Y-69549776D01*
X124690237Y-69611099D01*
X124691544Y-69656855D01*
X124683500Y-69707643D01*
X124683500Y-69912351D01*
X124715522Y-70114534D01*
X124778781Y-70309223D01*
X124808619Y-70367782D01*
X124847133Y-70443370D01*
X124871715Y-70491613D01*
X124992028Y-70657213D01*
X125136786Y-70801971D01*
X125287519Y-70911483D01*
X125302390Y-70922287D01*
X125418607Y-70981503D01*
X125484776Y-71015218D01*
X125484778Y-71015218D01*
X125484781Y-71015220D01*
X125588367Y-71048877D01*
X125679465Y-71078477D01*
X125780557Y-71094488D01*
X125881648Y-71110500D01*
X125881649Y-71110500D01*
X126086351Y-71110500D01*
X126086352Y-71110500D01*
X126288534Y-71078477D01*
X126483219Y-71015220D01*
X126665610Y-70922287D01*
X126801628Y-70823465D01*
X126831213Y-70801971D01*
X126831215Y-70801968D01*
X126831219Y-70801966D01*
X126975966Y-70657219D01*
X126975968Y-70657215D01*
X126975971Y-70657213D01*
X127039428Y-70569870D01*
X127096287Y-70491610D01*
X127189220Y-70309219D01*
X127252477Y-70114534D01*
X127284500Y-69912352D01*
X127284500Y-69707648D01*
X127252477Y-69505466D01*
X127189220Y-69310781D01*
X127189218Y-69310778D01*
X127189218Y-69310776D01*
X127148399Y-69230665D01*
X127096287Y-69128390D01*
X127088556Y-69117749D01*
X126975971Y-68962786D01*
X126831213Y-68818028D01*
X126665613Y-68697715D01*
X126665612Y-68697714D01*
X126665610Y-68697713D01*
X126608653Y-68668691D01*
X126483223Y-68604781D01*
X126288534Y-68541522D01*
X126113995Y-68513878D01*
X126086352Y-68509500D01*
X125881648Y-68509500D01*
X125881644Y-68509500D01*
X125830855Y-68517544D01*
X125761561Y-68508589D01*
X125723776Y-68482752D01*
X123354969Y-66113943D01*
X123354968Y-66113942D01*
X123231392Y-66031372D01*
X123231391Y-66031371D01*
X123231389Y-66031370D01*
X123231386Y-66031368D01*
X123231381Y-66031366D01*
X123162617Y-66002884D01*
X123133098Y-65990657D01*
X123094080Y-65974495D01*
X123069894Y-65969684D01*
X123062761Y-65968265D01*
X122948314Y-65945499D01*
X122948312Y-65945499D01*
X122799688Y-65945499D01*
X122793574Y-65945499D01*
X122793554Y-65945500D01*
X109225683Y-65945500D01*
X109079927Y-65974493D01*
X109079919Y-65974495D01*
X108942608Y-66031371D01*
X108819035Y-66113939D01*
X108819034Y-66113940D01*
X108766488Y-66166487D01*
X108713941Y-66219034D01*
X108713939Y-66219036D01*
X106913943Y-68019030D01*
X106913942Y-68019031D01*
X106831368Y-68142614D01*
X106799606Y-68219293D01*
X106799600Y-68219308D01*
X106798053Y-68223045D01*
X106774495Y-68279920D01*
X106769684Y-68304105D01*
X106768097Y-68312082D01*
X106768096Y-68312086D01*
X106745499Y-68425685D01*
X106745499Y-68580425D01*
X106745500Y-68580446D01*
X106745500Y-76620552D01*
X106745499Y-76620578D01*
X106745499Y-76625688D01*
X106745499Y-76774312D01*
X106745499Y-76774314D01*
X106745498Y-76774314D01*
X106774493Y-76920073D01*
X106774496Y-76920083D01*
X106831366Y-77057381D01*
X106831372Y-77057392D01*
X106913942Y-77180968D01*
X106913943Y-77180969D01*
X108504600Y-78771624D01*
X108504621Y-78771647D01*
X108614031Y-78881057D01*
X108614034Y-78881059D01*
X108691444Y-78932782D01*
X108737611Y-78963630D01*
X108818045Y-78996946D01*
X108874920Y-79020505D01*
X108874929Y-79020506D01*
X108874930Y-79020507D01*
X108899103Y-79025315D01*
X108899110Y-79025316D01*
X109020686Y-79049501D01*
X109020688Y-79049501D01*
X109175426Y-79049501D01*
X109175446Y-79049500D01*
X110215685Y-79049500D01*
X110282724Y-79069185D01*
X110316004Y-79100615D01*
X110369896Y-79174792D01*
X110520213Y-79325109D01*
X110692182Y-79450050D01*
X110700946Y-79454516D01*
X110751742Y-79502491D01*
X110768536Y-79570312D01*
X110745998Y-79636447D01*
X110700946Y-79675484D01*
X110692182Y-79679949D01*
X110520213Y-79804890D01*
X110369890Y-79955213D01*
X110244951Y-80127179D01*
X110148444Y-80316585D01*
X110148443Y-80316587D01*
X110148443Y-80316588D01*
X110144512Y-80328685D01*
X110082753Y-80518760D01*
X110054766Y-80695465D01*
X110049500Y-80728713D01*
X110049500Y-80941287D01*
X110082754Y-81151243D01*
X110140673Y-81329500D01*
X110148444Y-81353414D01*
X110244951Y-81542820D01*
X110369890Y-81714786D01*
X110520213Y-81865109D01*
X110692179Y-81990048D01*
X110692181Y-81990049D01*
X110692184Y-81990051D01*
X110701493Y-81994794D01*
X110752290Y-82042766D01*
X110769087Y-82110587D01*
X110746552Y-82176722D01*
X110701505Y-82215760D01*
X110692446Y-82220376D01*
X110692440Y-82220380D01*
X110638282Y-82259727D01*
X110638282Y-82259728D01*
X111270591Y-82892037D01*
X111207007Y-82909075D01*
X111092993Y-82974901D01*
X110999901Y-83067993D01*
X110934075Y-83182007D01*
X110917037Y-83245591D01*
X110284728Y-82613282D01*
X110284727Y-82613282D01*
X110245380Y-82667439D01*
X110148904Y-82856782D01*
X110083242Y-83058869D01*
X110083242Y-83058872D01*
X110050000Y-83268753D01*
X110050000Y-83481246D01*
X110083242Y-83691127D01*
X110083242Y-83691130D01*
X110148904Y-83893217D01*
X110245375Y-84082550D01*
X110284728Y-84136716D01*
X110917037Y-83504408D01*
X110934075Y-83567993D01*
X110999901Y-83682007D01*
X111092993Y-83775099D01*
X111207007Y-83840925D01*
X111270590Y-83857962D01*
X110638282Y-84490269D01*
X110638282Y-84490270D01*
X110692449Y-84529624D01*
X110881782Y-84626095D01*
X111083870Y-84691757D01*
X111293754Y-84725000D01*
X111506246Y-84725000D01*
X111716127Y-84691757D01*
X111716130Y-84691757D01*
X111918217Y-84626095D01*
X112107554Y-84529622D01*
X112161716Y-84490270D01*
X112161717Y-84490270D01*
X111529408Y-83857962D01*
X111592993Y-83840925D01*
X111707007Y-83775099D01*
X111800099Y-83682007D01*
X111865925Y-83567993D01*
X111882962Y-83504408D01*
X112515270Y-84136717D01*
X112515270Y-84136716D01*
X112554622Y-84082554D01*
X112651095Y-83893217D01*
X112716757Y-83691130D01*
X112716757Y-83691127D01*
X112750000Y-83481246D01*
X112750000Y-83268753D01*
X112716757Y-83058872D01*
X112716757Y-83058869D01*
X112651095Y-82856782D01*
X112554624Y-82667449D01*
X112515270Y-82613282D01*
X112515269Y-82613282D01*
X111882962Y-83245590D01*
X111865925Y-83182007D01*
X111800099Y-83067993D01*
X111707007Y-82974901D01*
X111592993Y-82909075D01*
X111529409Y-82892037D01*
X112161716Y-82259728D01*
X112107547Y-82220373D01*
X112107547Y-82220372D01*
X112098500Y-82215763D01*
X112047706Y-82167788D01*
X112030912Y-82099966D01*
X112053451Y-82033832D01*
X112098508Y-81994793D01*
X112107816Y-81990051D01*
X112223327Y-81906128D01*
X112279786Y-81865109D01*
X112279788Y-81865106D01*
X112279792Y-81865104D01*
X112430104Y-81714792D01*
X112430106Y-81714788D01*
X112430109Y-81714786D01*
X112555048Y-81542820D01*
X112555047Y-81542820D01*
X112555051Y-81542816D01*
X112651557Y-81353412D01*
X112717246Y-81151243D01*
X112750500Y-80941287D01*
X112750500Y-80728713D01*
X112717246Y-80518757D01*
X112651557Y-80316588D01*
X112555051Y-80127184D01*
X112555049Y-80127181D01*
X112555048Y-80127179D01*
X112430109Y-79955213D01*
X112279786Y-79804890D01*
X112107820Y-79679951D01*
X112107115Y-79679591D01*
X112099054Y-79675485D01*
X112048259Y-79627512D01*
X112031463Y-79559692D01*
X112053999Y-79493556D01*
X112099054Y-79454515D01*
X112107816Y-79450051D01*
X112129789Y-79434086D01*
X112279786Y-79325109D01*
X112279788Y-79325106D01*
X112279792Y-79325104D01*
X112430104Y-79174792D01*
X112430106Y-79174788D01*
X112430109Y-79174786D01*
X112555048Y-79002820D01*
X112555047Y-79002820D01*
X112555051Y-79002816D01*
X112651557Y-78813412D01*
X112717246Y-78611243D01*
X112750500Y-78401287D01*
X112750500Y-78254500D01*
X112770185Y-78187461D01*
X112822989Y-78141706D01*
X112874500Y-78130500D01*
X123598275Y-78130500D01*
X123665314Y-78150185D01*
X123698592Y-78181613D01*
X123823483Y-78353510D01*
X123990490Y-78520517D01*
X124181567Y-78659343D01*
X124278809Y-78708890D01*
X124392003Y-78766566D01*
X124392005Y-78766566D01*
X124392008Y-78766568D01*
X124512412Y-78805689D01*
X124616631Y-78839553D01*
X124849903Y-78876500D01*
X124849908Y-78876500D01*
X125086097Y-78876500D01*
X125295951Y-78843262D01*
X125365244Y-78852216D01*
X125403030Y-78878054D01*
X126909181Y-80384205D01*
X126942666Y-80445528D01*
X126945500Y-80471886D01*
X126945500Y-87520552D01*
X126945499Y-87520578D01*
X126945499Y-87525688D01*
X126945499Y-87674312D01*
X126945499Y-87674314D01*
X126945498Y-87674314D01*
X126974493Y-87820073D01*
X126974496Y-87820083D01*
X127031366Y-87957381D01*
X127031372Y-87957392D01*
X127113942Y-88080968D01*
X127113943Y-88080969D01*
X128129600Y-89096624D01*
X128129621Y-89096647D01*
X128239029Y-89206055D01*
X128239032Y-89206057D01*
X128239034Y-89206059D01*
X128321605Y-89261230D01*
X128362611Y-89288630D01*
X128437052Y-89319464D01*
X128499920Y-89345505D01*
X128499924Y-89345506D01*
X128524104Y-89350315D01*
X128524110Y-89350316D01*
X128645686Y-89374501D01*
X128645688Y-89374501D01*
X128800426Y-89374501D01*
X128800446Y-89374500D01*
X129257489Y-89374500D01*
X129324528Y-89394185D01*
X129357808Y-89425616D01*
X129388030Y-89467215D01*
X129532786Y-89611971D01*
X129698385Y-89732284D01*
X129698387Y-89732285D01*
X129698390Y-89732287D01*
X129790529Y-89779234D01*
X129791630Y-89779795D01*
X129842426Y-89827770D01*
X129859221Y-89895591D01*
X129836684Y-89961725D01*
X129791630Y-90000765D01*
X129698644Y-90048143D01*
X129654077Y-90080523D01*
X129654077Y-90080524D01*
X130333554Y-90760000D01*
X130327339Y-90760000D01*
X130225606Y-90787259D01*
X130134394Y-90839920D01*
X130059920Y-90914394D01*
X130007259Y-91005606D01*
X129980000Y-91107339D01*
X129980000Y-91113553D01*
X129300524Y-90434077D01*
X129300523Y-90434077D01*
X129268143Y-90478644D01*
X129175244Y-90660968D01*
X129112009Y-90855582D01*
X129080000Y-91057682D01*
X129080000Y-91262317D01*
X129112009Y-91464417D01*
X129175244Y-91659031D01*
X129268141Y-91841350D01*
X129268147Y-91841359D01*
X129300523Y-91885921D01*
X129300524Y-91885922D01*
X129980000Y-91206446D01*
X129980000Y-91212661D01*
X130007259Y-91314394D01*
X130059920Y-91405606D01*
X130134394Y-91480080D01*
X130225606Y-91532741D01*
X130327339Y-91560000D01*
X130333553Y-91560000D01*
X129654076Y-92239474D01*
X129698652Y-92271861D01*
X129791628Y-92319234D01*
X129842425Y-92367208D01*
X129859220Y-92435029D01*
X129836683Y-92501164D01*
X129791630Y-92540203D01*
X129698388Y-92587713D01*
X129532786Y-92708028D01*
X129388028Y-92852786D01*
X129267715Y-93018386D01*
X129174781Y-93200776D01*
X129111522Y-93395465D01*
X129079500Y-93597648D01*
X129079500Y-93802352D01*
X129087544Y-93853143D01*
X129086842Y-93858567D01*
X129088754Y-93863691D01*
X129082413Y-93892842D01*
X129078588Y-93922437D01*
X129074756Y-93928039D01*
X129073903Y-93931965D01*
X129052753Y-93960219D01*
X129003795Y-94009179D01*
X128942473Y-94042666D01*
X128916112Y-94045500D01*
X125374500Y-94045500D01*
X125307461Y-94025815D01*
X125261706Y-93973011D01*
X125250500Y-93921500D01*
X125250500Y-93901577D01*
X125219709Y-93707173D01*
X125158882Y-93519970D01*
X125095443Y-93395465D01*
X125069524Y-93344595D01*
X124953828Y-93185354D01*
X124814646Y-93046172D01*
X124655405Y-92930476D01*
X124631100Y-92918092D01*
X124480029Y-92841117D01*
X124292826Y-92780290D01*
X124098422Y-92749500D01*
X124098417Y-92749500D01*
X123901583Y-92749500D01*
X123901578Y-92749500D01*
X123707173Y-92780290D01*
X123519970Y-92841117D01*
X123344594Y-92930476D01*
X123258548Y-92992993D01*
X123185354Y-93046172D01*
X123185352Y-93046174D01*
X123185351Y-93046174D01*
X123046174Y-93185351D01*
X123046169Y-93185357D01*
X123039608Y-93194388D01*
X122984277Y-93237052D01*
X122939292Y-93245500D01*
X120293829Y-93245500D01*
X120226790Y-93225815D01*
X120181035Y-93173011D01*
X120171091Y-93103853D01*
X120171356Y-93102102D01*
X120200500Y-92918097D01*
X120200500Y-92681902D01*
X120163553Y-92448631D01*
X120115259Y-92300000D01*
X120090568Y-92224008D01*
X120090566Y-92224005D01*
X120090566Y-92224003D01*
X119983477Y-92013830D01*
X119983343Y-92013567D01*
X119844517Y-91822490D01*
X119677510Y-91655483D01*
X119486433Y-91516657D01*
X119414647Y-91480080D01*
X119275996Y-91409433D01*
X119051368Y-91336446D01*
X118818097Y-91299500D01*
X118818092Y-91299500D01*
X118581908Y-91299500D01*
X118581903Y-91299500D01*
X118348631Y-91336446D01*
X118124003Y-91409433D01*
X117913566Y-91516657D01*
X117844606Y-91566760D01*
X117722490Y-91655483D01*
X117722488Y-91655485D01*
X117722487Y-91655485D01*
X117555485Y-91822487D01*
X117555485Y-91822488D01*
X117555483Y-91822490D01*
X117509398Y-91885921D01*
X117416657Y-92013566D01*
X117309433Y-92224003D01*
X117236446Y-92448631D01*
X117199500Y-92681902D01*
X117199500Y-92918097D01*
X117236446Y-93151368D01*
X117309433Y-93375996D01*
X117319354Y-93395466D01*
X117416657Y-93586433D01*
X117555483Y-93777510D01*
X117722490Y-93944517D01*
X117913567Y-94083343D01*
X118012991Y-94134002D01*
X118124003Y-94190566D01*
X118124005Y-94190566D01*
X118124008Y-94190568D01*
X118244412Y-94229689D01*
X118348631Y-94263553D01*
X118581903Y-94300500D01*
X118581908Y-94300500D01*
X118818097Y-94300500D01*
X119027951Y-94267262D01*
X119033376Y-94267963D01*
X119038503Y-94266051D01*
X119067653Y-94272392D01*
X119097244Y-94276216D01*
X119102849Y-94280048D01*
X119106776Y-94280903D01*
X119135030Y-94302054D01*
X119309600Y-94476624D01*
X119309621Y-94476647D01*
X119419028Y-94586054D01*
X119419035Y-94586060D01*
X119542608Y-94668628D01*
X119542609Y-94668628D01*
X119542610Y-94668629D01*
X119679920Y-94725505D01*
X119825683Y-94754499D01*
X119825687Y-94754500D01*
X119825688Y-94754500D01*
X122939292Y-94754500D01*
X123006331Y-94774185D01*
X123039608Y-94805612D01*
X123046172Y-94814646D01*
X123185354Y-94953828D01*
X123344595Y-95069524D01*
X123427455Y-95111743D01*
X123519970Y-95158882D01*
X123519972Y-95158882D01*
X123519975Y-95158884D01*
X123628107Y-95194018D01*
X123707167Y-95219707D01*
X123707168Y-95219707D01*
X123707174Y-95219709D01*
X123840276Y-95240789D01*
X123859507Y-95249906D01*
X123880303Y-95254430D01*
X123899731Y-95268974D01*
X123903408Y-95270717D01*
X123908557Y-95275581D01*
X123909600Y-95276624D01*
X123909621Y-95276647D01*
X124019031Y-95386057D01*
X124051443Y-95407714D01*
X124051442Y-95407714D01*
X124142600Y-95468623D01*
X124142604Y-95468625D01*
X124142611Y-95468630D01*
X124184747Y-95486083D01*
X124279920Y-95525505D01*
X124304105Y-95530315D01*
X124383178Y-95546044D01*
X124425686Y-95554501D01*
X124425688Y-95554501D01*
X124580426Y-95554501D01*
X124580446Y-95554500D01*
X126079113Y-95554500D01*
X126146152Y-95574185D01*
X126191907Y-95626989D01*
X126201851Y-95696147D01*
X126172826Y-95759703D01*
X126166794Y-95766181D01*
X124320113Y-97612861D01*
X124258790Y-97646346D01*
X124213034Y-97647653D01*
X124098422Y-97629500D01*
X124098417Y-97629500D01*
X123901583Y-97629500D01*
X123901578Y-97629500D01*
X123707173Y-97660290D01*
X123519970Y-97721117D01*
X123344594Y-97810476D01*
X123253741Y-97876485D01*
X123185354Y-97926172D01*
X123185352Y-97926174D01*
X123185351Y-97926174D01*
X123046174Y-98065351D01*
X123046169Y-98065357D01*
X123039608Y-98074388D01*
X122984277Y-98117052D01*
X122939292Y-98125500D01*
X119795683Y-98125500D01*
X119649927Y-98154493D01*
X119649919Y-98154495D01*
X119512608Y-98211371D01*
X119389035Y-98293939D01*
X119389034Y-98293940D01*
X119336488Y-98346487D01*
X119283941Y-98399034D01*
X119283939Y-98399036D01*
X119207510Y-98475465D01*
X119185029Y-98497946D01*
X119123705Y-98531430D01*
X119077950Y-98532737D01*
X118868097Y-98499500D01*
X118868092Y-98499500D01*
X118631908Y-98499500D01*
X118631903Y-98499500D01*
X118398631Y-98536446D01*
X118174003Y-98609433D01*
X117963566Y-98716657D01*
X117880047Y-98777338D01*
X117772490Y-98855483D01*
X117772488Y-98855485D01*
X117772487Y-98855485D01*
X117605485Y-99022487D01*
X117605485Y-99022488D01*
X117605483Y-99022490D01*
X117560405Y-99084534D01*
X117466657Y-99213566D01*
X117359433Y-99424003D01*
X117286446Y-99648631D01*
X117249500Y-99881902D01*
X117249500Y-100118097D01*
X117286446Y-100351368D01*
X117359433Y-100575996D01*
X117391223Y-100638386D01*
X117466657Y-100786433D01*
X117605483Y-100977510D01*
X117772490Y-101144517D01*
X117963567Y-101283343D01*
X118062991Y-101334002D01*
X118174003Y-101390566D01*
X118174005Y-101390566D01*
X118174008Y-101390568D01*
X118271826Y-101422351D01*
X118398631Y-101463553D01*
X118631903Y-101500500D01*
X118631908Y-101500500D01*
X118868097Y-101500500D01*
X119101368Y-101463553D01*
X119102870Y-101463065D01*
X119325992Y-101390568D01*
X119536433Y-101283343D01*
X119727510Y-101144517D01*
X119894517Y-100977510D01*
X120033343Y-100786433D01*
X120140568Y-100575992D01*
X120213553Y-100351368D01*
X120220579Y-100307007D01*
X120250500Y-100118097D01*
X120250500Y-99881902D01*
X120234027Y-99777898D01*
X120242981Y-99708605D01*
X120287978Y-99655153D01*
X120354729Y-99634513D01*
X120356500Y-99634500D01*
X122939292Y-99634500D01*
X123006331Y-99654185D01*
X123039608Y-99685612D01*
X123046172Y-99694646D01*
X123185354Y-99833828D01*
X123344595Y-99949524D01*
X123401572Y-99978555D01*
X123519970Y-100038882D01*
X123519972Y-100038882D01*
X123519975Y-100038884D01*
X123620317Y-100071487D01*
X123707173Y-100099709D01*
X123901578Y-100130500D01*
X123901583Y-100130500D01*
X124098422Y-100130500D01*
X124292826Y-100099709D01*
X124480025Y-100038884D01*
X124655405Y-99949524D01*
X124814646Y-99833828D01*
X124953828Y-99694646D01*
X125069524Y-99535405D01*
X125158884Y-99360025D01*
X125219709Y-99172826D01*
X125226350Y-99130894D01*
X125250500Y-98978422D01*
X125250500Y-98867886D01*
X125270185Y-98800847D01*
X125286819Y-98780205D01*
X127064617Y-97002407D01*
X127125940Y-96968922D01*
X127152298Y-96966088D01*
X129236846Y-96966088D01*
X129303885Y-96985773D01*
X129337164Y-97017202D01*
X129388030Y-97087213D01*
X129388034Y-97087219D01*
X129532786Y-97231971D01*
X129661680Y-97325616D01*
X129698390Y-97352287D01*
X129789840Y-97398883D01*
X129791080Y-97399515D01*
X129841876Y-97447490D01*
X129858671Y-97515311D01*
X129836134Y-97581446D01*
X129791080Y-97620485D01*
X129698386Y-97667715D01*
X129532786Y-97788028D01*
X129388028Y-97932786D01*
X129267715Y-98098386D01*
X129174781Y-98280776D01*
X129111522Y-98475465D01*
X129079500Y-98677648D01*
X129079500Y-98882351D01*
X129111522Y-99084534D01*
X129174781Y-99279223D01*
X129267715Y-99461613D01*
X129388028Y-99627213D01*
X129532786Y-99771971D01*
X129617927Y-99833828D01*
X129698390Y-99892287D01*
X129780598Y-99934174D01*
X129791080Y-99939515D01*
X129841876Y-99987490D01*
X129858671Y-100055311D01*
X129836134Y-100121446D01*
X129791080Y-100160485D01*
X129698386Y-100207715D01*
X129532786Y-100328028D01*
X129388028Y-100472786D01*
X129267715Y-100638386D01*
X129174781Y-100820776D01*
X129111522Y-101015465D01*
X129079500Y-101217648D01*
X129079500Y-101422351D01*
X129111522Y-101624534D01*
X129174781Y-101819223D01*
X129267715Y-102001613D01*
X129388028Y-102167213D01*
X129532786Y-102311971D01*
X129687749Y-102424556D01*
X129698390Y-102432287D01*
X129789840Y-102478883D01*
X129791080Y-102479515D01*
X129841876Y-102527490D01*
X129858671Y-102595311D01*
X129836134Y-102661446D01*
X129791080Y-102700485D01*
X129698386Y-102747715D01*
X129532786Y-102868028D01*
X129388028Y-103012786D01*
X129267715Y-103178386D01*
X129174781Y-103360776D01*
X129111522Y-103555465D01*
X129079500Y-103757648D01*
X129079500Y-103962351D01*
X129111522Y-104164534D01*
X129174781Y-104359223D01*
X129267715Y-104541613D01*
X129388028Y-104707213D01*
X129532786Y-104851971D01*
X129687749Y-104964556D01*
X129698390Y-104972287D01*
X129789840Y-105018883D01*
X129791080Y-105019515D01*
X129841876Y-105067490D01*
X129858671Y-105135311D01*
X129836134Y-105201446D01*
X129791080Y-105240485D01*
X129698386Y-105287715D01*
X129532786Y-105408028D01*
X129388028Y-105552786D01*
X129267715Y-105718386D01*
X129174781Y-105900776D01*
X129111522Y-106095465D01*
X129079500Y-106297648D01*
X129079500Y-106502351D01*
X129111522Y-106704534D01*
X129174781Y-106899223D01*
X129267715Y-107081613D01*
X129388028Y-107247213D01*
X129532786Y-107391971D01*
X129687749Y-107504556D01*
X129698390Y-107512287D01*
X129814607Y-107571503D01*
X129880776Y-107605218D01*
X129880778Y-107605218D01*
X129880781Y-107605220D01*
X129985137Y-107639127D01*
X130075465Y-107668477D01*
X130176557Y-107684488D01*
X130277648Y-107700500D01*
X130277649Y-107700500D01*
X130482351Y-107700500D01*
X130482352Y-107700500D01*
X130684534Y-107668477D01*
X130879219Y-107605220D01*
X131061610Y-107512287D01*
X131154590Y-107444732D01*
X131227213Y-107391971D01*
X131227215Y-107391968D01*
X131227219Y-107391966D01*
X131371966Y-107247219D01*
X131371968Y-107247215D01*
X131371971Y-107247213D01*
X131424732Y-107174590D01*
X131492287Y-107081610D01*
X131585220Y-106899219D01*
X131648477Y-106704534D01*
X131680500Y-106502352D01*
X131680500Y-106297648D01*
X131648477Y-106095466D01*
X131585220Y-105900781D01*
X131585218Y-105900778D01*
X131585218Y-105900776D01*
X131551503Y-105834607D01*
X131492287Y-105718390D01*
X131484556Y-105707749D01*
X131371971Y-105552786D01*
X131227213Y-105408028D01*
X131061614Y-105287715D01*
X131055006Y-105284348D01*
X130968917Y-105240483D01*
X130918123Y-105192511D01*
X130901328Y-105124690D01*
X130923865Y-105058555D01*
X130968917Y-105019516D01*
X131061610Y-104972287D01*
X131082770Y-104956913D01*
X131227213Y-104851971D01*
X131227215Y-104851968D01*
X131227219Y-104851966D01*
X131371966Y-104707219D01*
X131371968Y-104707215D01*
X131371971Y-104707213D01*
X131424732Y-104634590D01*
X131492287Y-104541610D01*
X131585220Y-104359219D01*
X131648477Y-104164534D01*
X131680500Y-103962352D01*
X131680500Y-103757648D01*
X131648477Y-103555466D01*
X131585220Y-103360781D01*
X131585218Y-103360778D01*
X131585218Y-103360776D01*
X131550572Y-103292781D01*
X131492287Y-103178390D01*
X131470228Y-103148028D01*
X131371971Y-103012786D01*
X131227213Y-102868028D01*
X131061614Y-102747715D01*
X131055006Y-102744348D01*
X130968917Y-102700483D01*
X130918123Y-102652511D01*
X130901328Y-102584690D01*
X130923865Y-102518555D01*
X130968917Y-102479516D01*
X131061610Y-102432287D01*
X131082770Y-102416913D01*
X131227213Y-102311971D01*
X131227215Y-102311968D01*
X131227219Y-102311966D01*
X131371966Y-102167219D01*
X131371968Y-102167215D01*
X131371971Y-102167213D01*
X131424732Y-102094590D01*
X131492287Y-102001610D01*
X131585220Y-101819219D01*
X131648477Y-101624534D01*
X131680500Y-101422352D01*
X131680500Y-101217648D01*
X131648477Y-101015466D01*
X131636144Y-100977510D01*
X131585218Y-100820776D01*
X131551503Y-100754607D01*
X131492287Y-100638390D01*
X131484556Y-100627749D01*
X131371971Y-100472786D01*
X131227213Y-100328028D01*
X131061614Y-100207715D01*
X131032720Y-100192993D01*
X130968917Y-100160483D01*
X130918123Y-100112511D01*
X130901328Y-100044690D01*
X130923865Y-99978555D01*
X130968917Y-99939516D01*
X131061610Y-99892287D01*
X131178989Y-99807007D01*
X131227213Y-99771971D01*
X131227215Y-99771968D01*
X131227219Y-99771966D01*
X131371966Y-99627219D01*
X131371968Y-99627215D01*
X131371971Y-99627213D01*
X131438672Y-99535405D01*
X131492287Y-99461610D01*
X131585220Y-99279219D01*
X131648477Y-99084534D01*
X131680500Y-98882352D01*
X131680500Y-98677648D01*
X131669696Y-98609433D01*
X131648477Y-98475465D01*
X131589496Y-98293941D01*
X131585220Y-98280781D01*
X131585218Y-98280778D01*
X131585218Y-98280776D01*
X131549854Y-98211371D01*
X131492287Y-98098390D01*
X131474849Y-98074388D01*
X131371971Y-97932786D01*
X131227213Y-97788028D01*
X131061614Y-97667715D01*
X131055006Y-97664348D01*
X130968917Y-97620483D01*
X130918123Y-97572511D01*
X130901328Y-97504690D01*
X130923865Y-97438555D01*
X130968917Y-97399516D01*
X131061610Y-97352287D01*
X131098320Y-97325616D01*
X131227213Y-97231971D01*
X131227215Y-97231968D01*
X131227219Y-97231966D01*
X131371966Y-97087219D01*
X131371968Y-97087215D01*
X131371971Y-97087213D01*
X131459972Y-96966088D01*
X131492287Y-96921610D01*
X131585220Y-96739219D01*
X131648477Y-96544534D01*
X131680500Y-96342352D01*
X131680500Y-96137648D01*
X131648477Y-95935466D01*
X131585220Y-95740781D01*
X131585218Y-95740778D01*
X131585218Y-95740776D01*
X131526496Y-95625529D01*
X131492287Y-95558390D01*
X131473200Y-95532119D01*
X131371971Y-95392786D01*
X131227213Y-95248028D01*
X131061614Y-95127715D01*
X131055006Y-95124348D01*
X130968917Y-95080483D01*
X130918123Y-95032511D01*
X130901328Y-94964690D01*
X130923865Y-94898555D01*
X130968917Y-94859516D01*
X131061610Y-94812287D01*
X131082770Y-94796913D01*
X131227213Y-94691971D01*
X131227215Y-94691968D01*
X131227219Y-94691966D01*
X131371966Y-94547219D01*
X131371968Y-94547215D01*
X131371971Y-94547213D01*
X131424732Y-94474590D01*
X131492287Y-94381610D01*
X131585220Y-94199219D01*
X131648477Y-94004534D01*
X131680500Y-93802352D01*
X131680500Y-93597648D01*
X131648477Y-93395466D01*
X131585220Y-93200781D01*
X131585218Y-93200778D01*
X131585218Y-93200776D01*
X131551503Y-93134607D01*
X131492287Y-93018390D01*
X131473835Y-92992993D01*
X131371971Y-92852786D01*
X131227213Y-92708028D01*
X131061611Y-92587713D01*
X130968369Y-92540203D01*
X130917574Y-92492229D01*
X130900779Y-92424407D01*
X130923317Y-92358273D01*
X130968371Y-92319234D01*
X131061346Y-92271861D01*
X131061347Y-92271861D01*
X131105921Y-92239474D01*
X130426447Y-91560000D01*
X130432661Y-91560000D01*
X130534394Y-91532741D01*
X130625606Y-91480080D01*
X130700080Y-91405606D01*
X130752741Y-91314394D01*
X130780000Y-91212661D01*
X130780000Y-91206448D01*
X131459474Y-91885922D01*
X131459474Y-91885921D01*
X131491859Y-91841349D01*
X131584755Y-91659031D01*
X131647990Y-91464417D01*
X131680000Y-91262317D01*
X131680000Y-91057682D01*
X131647990Y-90855582D01*
X131584755Y-90660968D01*
X131491859Y-90478650D01*
X131459474Y-90434077D01*
X131459474Y-90434076D01*
X130780000Y-91113551D01*
X130780000Y-91107339D01*
X130752741Y-91005606D01*
X130700080Y-90914394D01*
X130625606Y-90839920D01*
X130534394Y-90787259D01*
X130432661Y-90760000D01*
X130426446Y-90760000D01*
X131105922Y-90080524D01*
X131105921Y-90080523D01*
X131061359Y-90048147D01*
X131061350Y-90048141D01*
X130968369Y-90000765D01*
X130917573Y-89952790D01*
X130900778Y-89884969D01*
X130923315Y-89818835D01*
X130968370Y-89779795D01*
X130969471Y-89779234D01*
X131061610Y-89732287D01*
X131175124Y-89649815D01*
X131227213Y-89611971D01*
X131227215Y-89611968D01*
X131227219Y-89611966D01*
X131371966Y-89467219D01*
X131402192Y-89425615D01*
X131457521Y-89382950D01*
X131502511Y-89374500D01*
X132156113Y-89374500D01*
X132223152Y-89394185D01*
X132243794Y-89410819D01*
X136683086Y-93850110D01*
X136716571Y-93911433D01*
X136717878Y-93918391D01*
X136731522Y-94004531D01*
X136731523Y-94004534D01*
X136794780Y-94199219D01*
X136846385Y-94300500D01*
X136887715Y-94381613D01*
X137008028Y-94547213D01*
X137152786Y-94691971D01*
X137307749Y-94804556D01*
X137318390Y-94812287D01*
X137409840Y-94858883D01*
X137411080Y-94859515D01*
X137461876Y-94907490D01*
X137478671Y-94975311D01*
X137456134Y-95041446D01*
X137411080Y-95080485D01*
X137318386Y-95127715D01*
X137152786Y-95248028D01*
X137008028Y-95392786D01*
X136887715Y-95558386D01*
X136794781Y-95740776D01*
X136731522Y-95935465D01*
X136699500Y-96137648D01*
X136699500Y-96342351D01*
X136731522Y-96544534D01*
X136794781Y-96739223D01*
X136887715Y-96921613D01*
X137008028Y-97087213D01*
X137152786Y-97231971D01*
X137281680Y-97325616D01*
X137318390Y-97352287D01*
X137409840Y-97398883D01*
X137411080Y-97399515D01*
X137461876Y-97447490D01*
X137478671Y-97515311D01*
X137456134Y-97581446D01*
X137411080Y-97620485D01*
X137318386Y-97667715D01*
X137152786Y-97788028D01*
X137008028Y-97932786D01*
X136887715Y-98098386D01*
X136794781Y-98280776D01*
X136731522Y-98475465D01*
X136699500Y-98677648D01*
X136699500Y-98882351D01*
X136731522Y-99084534D01*
X136794781Y-99279223D01*
X136887715Y-99461613D01*
X137008028Y-99627213D01*
X137152786Y-99771971D01*
X137237927Y-99833828D01*
X137318390Y-99892287D01*
X137400598Y-99934174D01*
X137411080Y-99939515D01*
X137461876Y-99987490D01*
X137478671Y-100055311D01*
X137456134Y-100121446D01*
X137411080Y-100160485D01*
X137318386Y-100207715D01*
X137152786Y-100328028D01*
X137008028Y-100472786D01*
X136887715Y-100638386D01*
X136794781Y-100820776D01*
X136731522Y-101015465D01*
X136699500Y-101217648D01*
X136699500Y-101422351D01*
X136731522Y-101624534D01*
X136794781Y-101819223D01*
X136887715Y-102001613D01*
X137008028Y-102167213D01*
X137152786Y-102311971D01*
X137307749Y-102424556D01*
X137318390Y-102432287D01*
X137409840Y-102478883D01*
X137411080Y-102479515D01*
X137461876Y-102527490D01*
X137478671Y-102595311D01*
X137456134Y-102661446D01*
X137411080Y-102700485D01*
X137318386Y-102747715D01*
X137152786Y-102868028D01*
X137008028Y-103012786D01*
X136887715Y-103178386D01*
X136794781Y-103360776D01*
X136731522Y-103555465D01*
X136699500Y-103757648D01*
X136699500Y-103962351D01*
X136731522Y-104164534D01*
X136794781Y-104359223D01*
X136887715Y-104541613D01*
X137008028Y-104707213D01*
X137152786Y-104851971D01*
X137307749Y-104964556D01*
X137318390Y-104972287D01*
X137409840Y-105018883D01*
X137411080Y-105019515D01*
X137461876Y-105067490D01*
X137478671Y-105135311D01*
X137456134Y-105201446D01*
X137411080Y-105240485D01*
X137318386Y-105287715D01*
X137152786Y-105408028D01*
X137008028Y-105552786D01*
X136887715Y-105718386D01*
X136794781Y-105900776D01*
X136731522Y-106095465D01*
X136699500Y-106297648D01*
X136699500Y-106502351D01*
X136731522Y-106704534D01*
X136794781Y-106899223D01*
X136887715Y-107081613D01*
X137008028Y-107247213D01*
X137152786Y-107391971D01*
X137307749Y-107504556D01*
X137318390Y-107512287D01*
X137434607Y-107571503D01*
X137500776Y-107605218D01*
X137500778Y-107605218D01*
X137500781Y-107605220D01*
X137605137Y-107639127D01*
X137695465Y-107668477D01*
X137796557Y-107684488D01*
X137897648Y-107700500D01*
X137897649Y-107700500D01*
X138102351Y-107700500D01*
X138102352Y-107700500D01*
X138304534Y-107668477D01*
X138499219Y-107605220D01*
X138681610Y-107512287D01*
X138774590Y-107444732D01*
X138847213Y-107391971D01*
X138847215Y-107391968D01*
X138847219Y-107391966D01*
X138991966Y-107247219D01*
X138991968Y-107247215D01*
X138991971Y-107247213D01*
X139044732Y-107174590D01*
X139112287Y-107081610D01*
X139205220Y-106899219D01*
X139268477Y-106704534D01*
X139300500Y-106502352D01*
X139300500Y-106297648D01*
X139268477Y-106095466D01*
X139205220Y-105900781D01*
X139205218Y-105900778D01*
X139205218Y-105900776D01*
X139171503Y-105834607D01*
X139112287Y-105718390D01*
X139104556Y-105707749D01*
X138991971Y-105552786D01*
X138847213Y-105408028D01*
X138681614Y-105287715D01*
X138675006Y-105284348D01*
X138588917Y-105240483D01*
X138538123Y-105192511D01*
X138521328Y-105124690D01*
X138543865Y-105058555D01*
X138588917Y-105019516D01*
X138681610Y-104972287D01*
X138702770Y-104956913D01*
X138847213Y-104851971D01*
X138847215Y-104851968D01*
X138847219Y-104851966D01*
X138991966Y-104707219D01*
X138991968Y-104707215D01*
X138991971Y-104707213D01*
X139044732Y-104634590D01*
X139112287Y-104541610D01*
X139205220Y-104359219D01*
X139268477Y-104164534D01*
X139300500Y-103962352D01*
X139300500Y-103757648D01*
X139268477Y-103555466D01*
X139205220Y-103360781D01*
X139205218Y-103360778D01*
X139205218Y-103360776D01*
X139170572Y-103292781D01*
X139112287Y-103178390D01*
X139090228Y-103148028D01*
X138991971Y-103012786D01*
X138847213Y-102868028D01*
X138681614Y-102747715D01*
X138675006Y-102744348D01*
X138588917Y-102700483D01*
X138538123Y-102652511D01*
X138521328Y-102584690D01*
X138543865Y-102518555D01*
X138588917Y-102479516D01*
X138681610Y-102432287D01*
X138702770Y-102416913D01*
X138847213Y-102311971D01*
X138847215Y-102311968D01*
X138847219Y-102311966D01*
X138991966Y-102167219D01*
X138991968Y-102167215D01*
X138991971Y-102167213D01*
X139044732Y-102094590D01*
X139112287Y-102001610D01*
X139205220Y-101819219D01*
X139268477Y-101624534D01*
X139300500Y-101422352D01*
X139300500Y-101217648D01*
X139268477Y-101015466D01*
X139256144Y-100977510D01*
X139205218Y-100820776D01*
X139171503Y-100754607D01*
X139112287Y-100638390D01*
X139104556Y-100627749D01*
X138991971Y-100472786D01*
X138847213Y-100328028D01*
X138681614Y-100207715D01*
X138652720Y-100192993D01*
X138588917Y-100160483D01*
X138538123Y-100112511D01*
X138521328Y-100044690D01*
X138543865Y-99978555D01*
X138588917Y-99939516D01*
X138681610Y-99892287D01*
X138798989Y-99807007D01*
X138847213Y-99771971D01*
X138847215Y-99771968D01*
X138847219Y-99771966D01*
X138991966Y-99627219D01*
X138991968Y-99627215D01*
X138991971Y-99627213D01*
X139058672Y-99535405D01*
X139112287Y-99461610D01*
X139205220Y-99279219D01*
X139268477Y-99084534D01*
X139300500Y-98882352D01*
X139300500Y-98677648D01*
X139289696Y-98609433D01*
X139268477Y-98475465D01*
X139209496Y-98293941D01*
X139205220Y-98280781D01*
X139205218Y-98280778D01*
X139205218Y-98280776D01*
X139169854Y-98211371D01*
X139112287Y-98098390D01*
X139094849Y-98074388D01*
X138991971Y-97932786D01*
X138847213Y-97788028D01*
X138681614Y-97667715D01*
X138675006Y-97664348D01*
X138588917Y-97620483D01*
X138583111Y-97614999D01*
X138575506Y-97612552D01*
X138558076Y-97591356D01*
X138538123Y-97572511D01*
X138536202Y-97564754D01*
X138531129Y-97558585D01*
X138527925Y-97531331D01*
X138521328Y-97504690D01*
X138523904Y-97497128D01*
X138522972Y-97489193D01*
X138535013Y-97464531D01*
X138543865Y-97438555D01*
X138550904Y-97431982D01*
X138553627Y-97426407D01*
X138571301Y-97412938D01*
X138580887Y-97403990D01*
X138584813Y-97401607D01*
X138681610Y-97352287D01*
X138760243Y-97295156D01*
X138764638Y-97292490D01*
X138793633Y-97284782D01*
X138821886Y-97274702D01*
X138828965Y-97274500D01*
X141117489Y-97274500D01*
X141184528Y-97294185D01*
X141217808Y-97325616D01*
X141248030Y-97367215D01*
X141392786Y-97511971D01*
X141531227Y-97612552D01*
X141558390Y-97632287D01*
X141674607Y-97691503D01*
X141740776Y-97725218D01*
X141740778Y-97725218D01*
X141740781Y-97725220D01*
X141845137Y-97759127D01*
X141935465Y-97788477D01*
X142036557Y-97804488D01*
X142137648Y-97820500D01*
X142137649Y-97820500D01*
X142342351Y-97820500D01*
X142342352Y-97820500D01*
X142544534Y-97788477D01*
X142739219Y-97725220D01*
X142921610Y-97632287D01*
X143023053Y-97558585D01*
X143087213Y-97511971D01*
X143087215Y-97511968D01*
X143087219Y-97511966D01*
X143231966Y-97367219D01*
X143231968Y-97367215D01*
X143231971Y-97367213D01*
X143299330Y-97274500D01*
X143352287Y-97201610D01*
X143445220Y-97019219D01*
X143508477Y-96824534D01*
X143540500Y-96622352D01*
X143540500Y-96417648D01*
X143508477Y-96215466D01*
X143445220Y-96020781D01*
X143445218Y-96020778D01*
X143445218Y-96020776D01*
X143401749Y-95935465D01*
X143352287Y-95838390D01*
X143299330Y-95765500D01*
X143231971Y-95672786D01*
X143087213Y-95528028D01*
X142921612Y-95407714D01*
X142739223Y-95314781D01*
X142544534Y-95251522D01*
X142369995Y-95223878D01*
X142342352Y-95219500D01*
X142137648Y-95219500D01*
X142113329Y-95223351D01*
X141935465Y-95251522D01*
X141740776Y-95314781D01*
X141558388Y-95407714D01*
X141392786Y-95528028D01*
X141248030Y-95672784D01*
X141217808Y-95714384D01*
X141162479Y-95757050D01*
X141117489Y-95765500D01*
X139293802Y-95765500D01*
X139226763Y-95745815D01*
X139183318Y-95697796D01*
X139112287Y-95558390D01*
X139112285Y-95558387D01*
X139112284Y-95558385D01*
X138991971Y-95392786D01*
X138847213Y-95248028D01*
X138681614Y-95127715D01*
X138675006Y-95124348D01*
X138588917Y-95080483D01*
X138538123Y-95032511D01*
X138521328Y-94964690D01*
X138543865Y-94898555D01*
X138588917Y-94859516D01*
X138681610Y-94812287D01*
X138702770Y-94796913D01*
X138847213Y-94691971D01*
X138847215Y-94691968D01*
X138847219Y-94691966D01*
X138991966Y-94547219D01*
X138991968Y-94547215D01*
X138991971Y-94547213D01*
X139044732Y-94474590D01*
X139112287Y-94381610D01*
X139205220Y-94199219D01*
X139268477Y-94004534D01*
X139300500Y-93802352D01*
X139300500Y-93597648D01*
X139268477Y-93395466D01*
X139205220Y-93200781D01*
X139205218Y-93200778D01*
X139205218Y-93200776D01*
X139171503Y-93134607D01*
X139112287Y-93018390D01*
X139093835Y-92992993D01*
X138991971Y-92852786D01*
X138847217Y-92708032D01*
X138847212Y-92708028D01*
X138805615Y-92677806D01*
X138762949Y-92622476D01*
X138754500Y-92577488D01*
X138754500Y-92282510D01*
X138774185Y-92215471D01*
X138805613Y-92182193D01*
X138847219Y-92151966D01*
X138991966Y-92007219D01*
X138991968Y-92007215D01*
X138991971Y-92007213D01*
X139047420Y-91930893D01*
X139112287Y-91841610D01*
X139205220Y-91659219D01*
X139268477Y-91464534D01*
X139297213Y-91283100D01*
X139327142Y-91219967D01*
X139386454Y-91183036D01*
X139419686Y-91178500D01*
X147151685Y-91178500D01*
X147218724Y-91198185D01*
X147252004Y-91229615D01*
X147305896Y-91303792D01*
X147456213Y-91454109D01*
X147628179Y-91579048D01*
X147628181Y-91579049D01*
X147628184Y-91579051D01*
X147817588Y-91675557D01*
X148019757Y-91741246D01*
X148229713Y-91774500D01*
X148229714Y-91774500D01*
X148442286Y-91774500D01*
X148442287Y-91774500D01*
X148652243Y-91741246D01*
X148854412Y-91675557D01*
X149043816Y-91579051D01*
X149133967Y-91513553D01*
X149215786Y-91454109D01*
X149215788Y-91454106D01*
X149215792Y-91454104D01*
X149366104Y-91303792D01*
X149437432Y-91205615D01*
X149492762Y-91162949D01*
X149537751Y-91154500D01*
X150819554Y-91154500D01*
X150819574Y-91154501D01*
X150825688Y-91154501D01*
X150974314Y-91154501D01*
X151010093Y-91147383D01*
X151095894Y-91130315D01*
X151120080Y-91125505D01*
X151199447Y-91092630D01*
X151257389Y-91068630D01*
X151380966Y-90986059D01*
X153335819Y-89031206D01*
X153397142Y-88997721D01*
X153466834Y-89002705D01*
X153522767Y-89044577D01*
X153547184Y-89110041D01*
X153547500Y-89118887D01*
X153547500Y-112691500D01*
X153527815Y-112758539D01*
X153475011Y-112804294D01*
X153423500Y-112815500D01*
X103513500Y-112815500D01*
X103446461Y-112795815D01*
X103400706Y-112743011D01*
X103389500Y-112691500D01*
X103389500Y-108272155D01*
X140332000Y-108272155D01*
X140332000Y-108970000D01*
X141356722Y-108970000D01*
X141312667Y-109046306D01*
X141282000Y-109160756D01*
X141282000Y-109279244D01*
X141312667Y-109393694D01*
X141356722Y-109470000D01*
X140332000Y-109470000D01*
X140332000Y-110167844D01*
X140338401Y-110227372D01*
X140338403Y-110227379D01*
X140388645Y-110362086D01*
X140388649Y-110362093D01*
X140474809Y-110477187D01*
X140474812Y-110477190D01*
X140589906Y-110563350D01*
X140589913Y-110563354D01*
X140724620Y-110613596D01*
X140724627Y-110613598D01*
X140784155Y-110619999D01*
X140784172Y-110620000D01*
X141482000Y-110620000D01*
X141482000Y-109595277D01*
X141558306Y-109639333D01*
X141672756Y-109670000D01*
X141791244Y-109670000D01*
X141905694Y-109639333D01*
X141982000Y-109595277D01*
X141982000Y-110620000D01*
X142679828Y-110620000D01*
X142679844Y-110619999D01*
X142739372Y-110613598D01*
X142739379Y-110613596D01*
X142874086Y-110563354D01*
X142874093Y-110563350D01*
X142989187Y-110477190D01*
X142989190Y-110477187D01*
X143075350Y-110362093D01*
X143075354Y-110362086D01*
X143105213Y-110282031D01*
X143147084Y-110226097D01*
X143212548Y-110201680D01*
X143280821Y-110216531D01*
X143309076Y-110237683D01*
X143359636Y-110288243D01*
X143359641Y-110288247D01*
X143515192Y-110401260D01*
X143537978Y-110417815D01*
X143654501Y-110477187D01*
X143734393Y-110517895D01*
X143734396Y-110517896D01*
X143839221Y-110551955D01*
X143944049Y-110586015D01*
X144161778Y-110620500D01*
X144161779Y-110620500D01*
X144382221Y-110620500D01*
X144382222Y-110620500D01*
X144599951Y-110586015D01*
X144809606Y-110517895D01*
X145006022Y-110417815D01*
X145184365Y-110288242D01*
X145340242Y-110132365D01*
X145469815Y-109954022D01*
X145569895Y-109757606D01*
X145638015Y-109547951D01*
X145672500Y-109330222D01*
X145672500Y-109109778D01*
X145638015Y-108892049D01*
X145603955Y-108787221D01*
X145569896Y-108682396D01*
X145569895Y-108682393D01*
X145535237Y-108614375D01*
X145469815Y-108485978D01*
X145453260Y-108463192D01*
X145340247Y-108307641D01*
X145340243Y-108307636D01*
X145184363Y-108151756D01*
X145184358Y-108151752D01*
X145105615Y-108094542D01*
X145062949Y-108039212D01*
X145054500Y-107994224D01*
X145054500Y-106280446D01*
X145054501Y-106280425D01*
X145054501Y-106125685D01*
X145025506Y-105979926D01*
X145025505Y-105979925D01*
X145025505Y-105979921D01*
X144992725Y-105900781D01*
X144968633Y-105842618D01*
X144968632Y-105842617D01*
X144968630Y-105842611D01*
X144886059Y-105719034D01*
X144886057Y-105719031D01*
X144886056Y-105719030D01*
X143567247Y-104400222D01*
X143533762Y-104338899D01*
X143532455Y-104293142D01*
X143540500Y-104242350D01*
X143540500Y-104037648D01*
X143508477Y-103835465D01*
X143445218Y-103640776D01*
X143401749Y-103555465D01*
X143352287Y-103458390D01*
X143344556Y-103447749D01*
X143231971Y-103292786D01*
X143087213Y-103148028D01*
X142921613Y-103027715D01*
X142921612Y-103027714D01*
X142921610Y-103027713D01*
X142864653Y-102998691D01*
X142739223Y-102934781D01*
X142544534Y-102871522D01*
X142369995Y-102843878D01*
X142342352Y-102839500D01*
X142137648Y-102839500D01*
X142113329Y-102843351D01*
X141935465Y-102871522D01*
X141740776Y-102934781D01*
X141558386Y-103027715D01*
X141392786Y-103148028D01*
X141248028Y-103292786D01*
X141127715Y-103458386D01*
X141034781Y-103640776D01*
X140971522Y-103835465D01*
X140939500Y-104037648D01*
X140939500Y-104242351D01*
X140971522Y-104444534D01*
X141034781Y-104639223D01*
X141127715Y-104821613D01*
X141248028Y-104987213D01*
X141392786Y-105131971D01*
X141542146Y-105240485D01*
X141558390Y-105252287D01*
X141674607Y-105311503D01*
X141740776Y-105345218D01*
X141740778Y-105345218D01*
X141740781Y-105345220D01*
X141845137Y-105379127D01*
X141935465Y-105408477D01*
X142036557Y-105424488D01*
X142137648Y-105440500D01*
X142137649Y-105440500D01*
X142342351Y-105440500D01*
X142342352Y-105440500D01*
X142393142Y-105432455D01*
X142462436Y-105441409D01*
X142500222Y-105467247D01*
X143509181Y-106476206D01*
X143542666Y-106537529D01*
X143545500Y-106563887D01*
X143545500Y-107953538D01*
X143525815Y-108020577D01*
X143494385Y-108053856D01*
X143359641Y-108151752D01*
X143359636Y-108151756D01*
X143309075Y-108202317D01*
X143247752Y-108235801D01*
X143178060Y-108230816D01*
X143122127Y-108188945D01*
X143105213Y-108157968D01*
X143075354Y-108077913D01*
X143075350Y-108077906D01*
X142989190Y-107962812D01*
X142989187Y-107962809D01*
X142874093Y-107876649D01*
X142874086Y-107876645D01*
X142739379Y-107826403D01*
X142739372Y-107826401D01*
X142679844Y-107820000D01*
X141982000Y-107820000D01*
X141982000Y-108844722D01*
X141905694Y-108800667D01*
X141791244Y-108770000D01*
X141672756Y-108770000D01*
X141558306Y-108800667D01*
X141482000Y-108844722D01*
X141482000Y-107820000D01*
X140784155Y-107820000D01*
X140724627Y-107826401D01*
X140724620Y-107826403D01*
X140589913Y-107876645D01*
X140589906Y-107876649D01*
X140474812Y-107962809D01*
X140474809Y-107962812D01*
X140388649Y-108077906D01*
X140388645Y-108077913D01*
X140338403Y-108212620D01*
X140338401Y-108212627D01*
X140332000Y-108272155D01*
X103389500Y-108272155D01*
X103389500Y-99881947D01*
X109750000Y-99881947D01*
X109750000Y-100118052D01*
X109786934Y-100351247D01*
X109859897Y-100575802D01*
X109967087Y-100786174D01*
X110027338Y-100869104D01*
X110027340Y-100869105D01*
X110767037Y-100129408D01*
X110784075Y-100192993D01*
X110849901Y-100307007D01*
X110942993Y-100400099D01*
X111057007Y-100465925D01*
X111120590Y-100482962D01*
X110380893Y-101222658D01*
X110463828Y-101282914D01*
X110674197Y-101390102D01*
X110898752Y-101463065D01*
X110898751Y-101463065D01*
X111131948Y-101500000D01*
X111368052Y-101500000D01*
X111601247Y-101463065D01*
X111825802Y-101390102D01*
X112036163Y-101282918D01*
X112036169Y-101282914D01*
X112119104Y-101222658D01*
X112119105Y-101222658D01*
X111379408Y-100482962D01*
X111442993Y-100465925D01*
X111557007Y-100400099D01*
X111650099Y-100307007D01*
X111715925Y-100192993D01*
X111732962Y-100129409D01*
X112472658Y-100869105D01*
X112472658Y-100869104D01*
X112532914Y-100786169D01*
X112532918Y-100786163D01*
X112640102Y-100575802D01*
X112713065Y-100351247D01*
X112750000Y-100118052D01*
X112750000Y-99881947D01*
X112713065Y-99648752D01*
X112640102Y-99424197D01*
X112532914Y-99213828D01*
X112472658Y-99130894D01*
X112472658Y-99130893D01*
X111732962Y-99870590D01*
X111715925Y-99807007D01*
X111650099Y-99692993D01*
X111557007Y-99599901D01*
X111442993Y-99534075D01*
X111379409Y-99517037D01*
X112119105Y-98777340D01*
X112119104Y-98777338D01*
X112036174Y-98717087D01*
X111825802Y-98609897D01*
X111601247Y-98536934D01*
X111601248Y-98536934D01*
X111368052Y-98500000D01*
X111131948Y-98500000D01*
X110898752Y-98536934D01*
X110674197Y-98609897D01*
X110463830Y-98717084D01*
X110380894Y-98777340D01*
X111120591Y-99517037D01*
X111057007Y-99534075D01*
X110942993Y-99599901D01*
X110849901Y-99692993D01*
X110784075Y-99807007D01*
X110767037Y-99870591D01*
X110027340Y-99130894D01*
X109967084Y-99213830D01*
X109859897Y-99424197D01*
X109786934Y-99648752D01*
X109750000Y-99881947D01*
X103389500Y-99881947D01*
X103389500Y-92681947D01*
X109700000Y-92681947D01*
X109700000Y-92918052D01*
X109736934Y-93151247D01*
X109809897Y-93375802D01*
X109917087Y-93586174D01*
X109977338Y-93669104D01*
X109977340Y-93669105D01*
X110717037Y-92929408D01*
X110734075Y-92992993D01*
X110799901Y-93107007D01*
X110892993Y-93200099D01*
X111007007Y-93265925D01*
X111070590Y-93282962D01*
X110330893Y-94022658D01*
X110413828Y-94082914D01*
X110624197Y-94190102D01*
X110848752Y-94263065D01*
X110848751Y-94263065D01*
X111081948Y-94300000D01*
X111318052Y-94300000D01*
X111551247Y-94263065D01*
X111775802Y-94190102D01*
X111986163Y-94082918D01*
X111986169Y-94082914D01*
X112069104Y-94022658D01*
X112069105Y-94022658D01*
X111329408Y-93282962D01*
X111392993Y-93265925D01*
X111507007Y-93200099D01*
X111600099Y-93107007D01*
X111665925Y-92992993D01*
X111682962Y-92929409D01*
X112422658Y-93669105D01*
X112422658Y-93669104D01*
X112482914Y-93586169D01*
X112482918Y-93586163D01*
X112590102Y-93375802D01*
X112663065Y-93151247D01*
X112700000Y-92918052D01*
X112700000Y-92681947D01*
X112663065Y-92448752D01*
X112590102Y-92224197D01*
X112482914Y-92013828D01*
X112422658Y-91930894D01*
X112422658Y-91930893D01*
X111682962Y-92670590D01*
X111665925Y-92607007D01*
X111600099Y-92492993D01*
X111507007Y-92399901D01*
X111392993Y-92334075D01*
X111329409Y-92317037D01*
X112069105Y-91577340D01*
X112069104Y-91577338D01*
X111986174Y-91517087D01*
X111775802Y-91409897D01*
X111551247Y-91336934D01*
X111551248Y-91336934D01*
X111318052Y-91300000D01*
X111081948Y-91300000D01*
X110848752Y-91336934D01*
X110624197Y-91409897D01*
X110413830Y-91517084D01*
X110330894Y-91577340D01*
X111070591Y-92317037D01*
X111007007Y-92334075D01*
X110892993Y-92399901D01*
X110799901Y-92492993D01*
X110734075Y-92607007D01*
X110717037Y-92670591D01*
X109977340Y-91930894D01*
X109917084Y-92013830D01*
X109809897Y-92224197D01*
X109736934Y-92448752D01*
X109700000Y-92681947D01*
X103389500Y-92681947D01*
X103389500Y-87257947D01*
X123468000Y-87257947D01*
X123468000Y-87494052D01*
X123504934Y-87727247D01*
X123577897Y-87951802D01*
X123685087Y-88162174D01*
X123745338Y-88245104D01*
X123745340Y-88245105D01*
X124485037Y-87505408D01*
X124502075Y-87568993D01*
X124567901Y-87683007D01*
X124660993Y-87776099D01*
X124775007Y-87841925D01*
X124838590Y-87858962D01*
X124098893Y-88598658D01*
X124181828Y-88658914D01*
X124392197Y-88766102D01*
X124616752Y-88839065D01*
X124616751Y-88839065D01*
X124849948Y-88876000D01*
X125086052Y-88876000D01*
X125319247Y-88839065D01*
X125543802Y-88766102D01*
X125754163Y-88658918D01*
X125754169Y-88658914D01*
X125837104Y-88598658D01*
X125837105Y-88598658D01*
X125097408Y-87858962D01*
X125160993Y-87841925D01*
X125275007Y-87776099D01*
X125368099Y-87683007D01*
X125433925Y-87568993D01*
X125450962Y-87505409D01*
X126190658Y-88245105D01*
X126190658Y-88245104D01*
X126250914Y-88162169D01*
X126250918Y-88162163D01*
X126358102Y-87951802D01*
X126431065Y-87727247D01*
X126468000Y-87494052D01*
X126468000Y-87257947D01*
X126431065Y-87024752D01*
X126358102Y-86800197D01*
X126250914Y-86589828D01*
X126190658Y-86506894D01*
X126190658Y-86506893D01*
X125450962Y-87246590D01*
X125433925Y-87183007D01*
X125368099Y-87068993D01*
X125275007Y-86975901D01*
X125160993Y-86910075D01*
X125097409Y-86893037D01*
X125837105Y-86153340D01*
X125837104Y-86153338D01*
X125754174Y-86093087D01*
X125543802Y-85985897D01*
X125319247Y-85912934D01*
X125319248Y-85912934D01*
X125086052Y-85876000D01*
X124849948Y-85876000D01*
X124616752Y-85912934D01*
X124392197Y-85985897D01*
X124181830Y-86093084D01*
X124098894Y-86153340D01*
X124838591Y-86893037D01*
X124775007Y-86910075D01*
X124660993Y-86975901D01*
X124567901Y-87068993D01*
X124502075Y-87183007D01*
X124485037Y-87246591D01*
X123745340Y-86506894D01*
X123685084Y-86589830D01*
X123577897Y-86800197D01*
X123504934Y-87024752D01*
X123468000Y-87257947D01*
X103389500Y-87257947D01*
X103389500Y-59724500D01*
X103409185Y-59657461D01*
X103461989Y-59611706D01*
X103513500Y-59600500D01*
X153423500Y-59600500D01*
X153490539Y-59620185D01*
G37*
%TD.AperFunction*%
%TA.AperFunction,Conductor*%
G36*
X147609224Y-76660185D02*
G01*
X147642503Y-76691614D01*
X147696396Y-76765792D01*
X147846708Y-76916104D01*
X148018684Y-77041051D01*
X148029292Y-77046456D01*
X148080088Y-77094425D01*
X148097000Y-77156941D01*
X148097000Y-77987612D01*
X148077315Y-78054651D01*
X148060681Y-78075293D01*
X146213943Y-79922030D01*
X146213942Y-79922031D01*
X146131372Y-80045607D01*
X146131366Y-80045618D01*
X146074496Y-80182916D01*
X146074493Y-80182926D01*
X146045499Y-80328685D01*
X146045499Y-80483425D01*
X146045500Y-80483446D01*
X146045500Y-82320552D01*
X146045499Y-82320578D01*
X146045499Y-82325688D01*
X146045499Y-82474312D01*
X146045499Y-82474314D01*
X146045498Y-82474314D01*
X146074493Y-82620073D01*
X146074496Y-82620083D01*
X146131366Y-82757381D01*
X146131372Y-82757392D01*
X146213942Y-82880968D01*
X146213943Y-82880969D01*
X146613601Y-83280625D01*
X146613620Y-83280646D01*
X146723028Y-83390054D01*
X146723035Y-83390060D01*
X146846608Y-83472628D01*
X146846611Y-83472630D01*
X146908952Y-83498452D01*
X146963356Y-83542292D01*
X146985421Y-83608586D01*
X146985500Y-83613012D01*
X146985500Y-83701869D01*
X146985501Y-83701876D01*
X146991908Y-83761483D01*
X147042202Y-83896328D01*
X147042206Y-83896335D01*
X147128452Y-84011544D01*
X147128455Y-84011547D01*
X147243664Y-84097793D01*
X147243671Y-84097797D01*
X147375082Y-84146810D01*
X147431016Y-84188681D01*
X147455433Y-84254145D01*
X147440582Y-84322418D01*
X147419431Y-84350673D01*
X147305889Y-84464215D01*
X147180951Y-84636179D01*
X147084444Y-84825585D01*
X147018753Y-85027760D01*
X146985500Y-85237713D01*
X146985500Y-85450286D01*
X147006167Y-85580776D01*
X147018754Y-85660243D01*
X147056192Y-85775466D01*
X147084444Y-85862414D01*
X147180951Y-86051820D01*
X147305890Y-86223786D01*
X147456213Y-86374109D01*
X147628179Y-86499048D01*
X147628181Y-86499049D01*
X147628184Y-86499051D01*
X147637493Y-86503794D01*
X147688290Y-86551766D01*
X147705087Y-86619587D01*
X147682552Y-86685722D01*
X147637505Y-86724760D01*
X147628446Y-86729376D01*
X147628440Y-86729380D01*
X147574282Y-86768727D01*
X147574282Y-86768728D01*
X148206591Y-87401037D01*
X148143007Y-87418075D01*
X148028993Y-87483901D01*
X147935901Y-87576993D01*
X147870075Y-87691007D01*
X147853037Y-87754591D01*
X147220728Y-87122282D01*
X147220727Y-87122282D01*
X147181380Y-87176439D01*
X147084904Y-87365782D01*
X147019242Y-87567869D01*
X147019242Y-87567872D01*
X146986000Y-87777753D01*
X146986000Y-87990246D01*
X147019242Y-88200127D01*
X147019242Y-88200130D01*
X147084904Y-88402217D01*
X147181375Y-88591550D01*
X147220728Y-88645716D01*
X147853037Y-88013408D01*
X147870075Y-88076993D01*
X147935901Y-88191007D01*
X148028993Y-88284099D01*
X148143007Y-88349925D01*
X148206590Y-88366962D01*
X147574282Y-88999269D01*
X147574282Y-88999270D01*
X147628452Y-89038626D01*
X147628451Y-89038626D01*
X147637495Y-89043234D01*
X147688292Y-89091208D01*
X147705087Y-89159029D01*
X147682550Y-89225164D01*
X147637499Y-89264202D01*
X147628182Y-89268949D01*
X147456213Y-89393890D01*
X147305896Y-89544207D01*
X147269441Y-89594385D01*
X147256668Y-89611966D01*
X147252004Y-89618385D01*
X147196674Y-89661051D01*
X147151685Y-89669500D01*
X138747309Y-89669500D01*
X138680270Y-89649815D01*
X138659628Y-89633181D01*
X138046447Y-89020000D01*
X138052661Y-89020000D01*
X138154394Y-88992741D01*
X138245606Y-88940080D01*
X138320080Y-88865606D01*
X138372741Y-88774394D01*
X138400000Y-88672661D01*
X138400000Y-88666447D01*
X139079474Y-89345921D01*
X139111859Y-89301349D01*
X139204755Y-89119031D01*
X139267990Y-88924417D01*
X139300000Y-88722317D01*
X139300000Y-88517682D01*
X139267990Y-88315582D01*
X139204755Y-88120968D01*
X139111859Y-87938650D01*
X139079474Y-87894076D01*
X138400000Y-88573551D01*
X138400000Y-88567339D01*
X138372741Y-88465606D01*
X138320080Y-88374394D01*
X138245606Y-88299920D01*
X138154394Y-88247259D01*
X138052661Y-88220000D01*
X138046446Y-88220000D01*
X138725922Y-87540524D01*
X138725921Y-87540523D01*
X138681359Y-87508147D01*
X138681350Y-87508141D01*
X138588369Y-87460765D01*
X138537573Y-87412790D01*
X138520778Y-87344969D01*
X138543315Y-87278835D01*
X138588370Y-87239795D01*
X138588920Y-87239515D01*
X138681610Y-87192287D01*
X138731144Y-87156298D01*
X138847213Y-87071971D01*
X138847215Y-87071968D01*
X138847219Y-87071966D01*
X138991966Y-86927219D01*
X138991968Y-86927215D01*
X138991971Y-86927213D01*
X139084252Y-86800197D01*
X139112287Y-86761610D01*
X139205220Y-86579219D01*
X139268477Y-86384534D01*
X139300500Y-86182352D01*
X139300500Y-85977648D01*
X139284400Y-85876000D01*
X139268477Y-85775465D01*
X139205218Y-85580776D01*
X139171503Y-85514607D01*
X139112287Y-85398390D01*
X139104556Y-85387749D01*
X138991971Y-85232786D01*
X138847213Y-85088028D01*
X138681614Y-84967715D01*
X138675006Y-84964348D01*
X138588917Y-84920483D01*
X138538123Y-84872511D01*
X138521328Y-84804690D01*
X138543865Y-84738555D01*
X138588917Y-84699516D01*
X138681610Y-84652287D01*
X138703781Y-84636179D01*
X138847213Y-84531971D01*
X138847215Y-84531968D01*
X138847219Y-84531966D01*
X138991966Y-84387219D01*
X138991968Y-84387215D01*
X138991971Y-84387213D01*
X139088649Y-84254145D01*
X139112287Y-84221610D01*
X139205220Y-84039219D01*
X139268477Y-83844534D01*
X139300500Y-83642352D01*
X139300500Y-83437648D01*
X139281879Y-83320080D01*
X139268477Y-83235465D01*
X139239127Y-83145137D01*
X139205220Y-83040781D01*
X139205218Y-83040778D01*
X139205218Y-83040776D01*
X139138112Y-82909075D01*
X139112287Y-82858390D01*
X139060765Y-82787475D01*
X138991971Y-82692786D01*
X138847213Y-82548028D01*
X138681614Y-82427715D01*
X138675006Y-82424348D01*
X138588917Y-82380483D01*
X138538123Y-82332511D01*
X138521328Y-82264690D01*
X138543865Y-82198555D01*
X138588917Y-82159516D01*
X138681610Y-82112287D01*
X138717025Y-82086557D01*
X138847213Y-81991971D01*
X138847215Y-81991968D01*
X138847219Y-81991966D01*
X138991966Y-81847219D01*
X138991968Y-81847215D01*
X138991971Y-81847213D01*
X139069829Y-81740049D01*
X139112287Y-81681610D01*
X139205220Y-81499219D01*
X139268477Y-81304534D01*
X139300500Y-81102352D01*
X139300500Y-80897648D01*
X139268477Y-80695466D01*
X139205220Y-80500781D01*
X139205218Y-80500778D01*
X139205218Y-80500776D01*
X139145821Y-80384205D01*
X139112287Y-80318390D01*
X139104556Y-80307749D01*
X138991971Y-80152786D01*
X138847213Y-80008028D01*
X138681614Y-79887715D01*
X138675006Y-79884348D01*
X138588917Y-79840483D01*
X138538123Y-79792511D01*
X138521328Y-79724690D01*
X138543865Y-79658555D01*
X138588917Y-79619516D01*
X138681610Y-79572287D01*
X138789975Y-79493556D01*
X138847213Y-79451971D01*
X138847215Y-79451968D01*
X138847219Y-79451966D01*
X138991966Y-79307219D01*
X138991968Y-79307215D01*
X138991971Y-79307213D01*
X139088183Y-79174786D01*
X139112287Y-79141610D01*
X139205220Y-78959219D01*
X139268477Y-78764534D01*
X139300500Y-78562352D01*
X139300500Y-78357648D01*
X139272619Y-78181614D01*
X139268477Y-78155465D01*
X139205218Y-77960776D01*
X139171503Y-77894607D01*
X139112287Y-77778390D01*
X139075218Y-77727368D01*
X138991971Y-77612786D01*
X138847213Y-77468028D01*
X138681614Y-77347715D01*
X138675006Y-77344348D01*
X138588917Y-77300483D01*
X138538123Y-77252511D01*
X138521328Y-77184690D01*
X138543865Y-77118555D01*
X138588917Y-77079516D01*
X138681610Y-77032287D01*
X138830733Y-76923944D01*
X138847213Y-76911971D01*
X138847215Y-76911968D01*
X138847219Y-76911966D01*
X138991966Y-76767219D01*
X139046894Y-76691615D01*
X139102223Y-76648949D01*
X139147213Y-76640500D01*
X144825688Y-76640500D01*
X147542185Y-76640500D01*
X147609224Y-76660185D01*
G37*
%TD.AperFunction*%
%TA.AperFunction,Conductor*%
G36*
X150440085Y-69216157D02*
G01*
X150472408Y-69239433D01*
X152502181Y-71269205D01*
X152535666Y-71330528D01*
X152538500Y-71356886D01*
X152538500Y-87643113D01*
X152518815Y-87710152D01*
X152502181Y-87730794D01*
X150623794Y-89609181D01*
X150562471Y-89642666D01*
X150536113Y-89645500D01*
X149502878Y-89645500D01*
X149435839Y-89625815D01*
X149402560Y-89594385D01*
X149366107Y-89544211D01*
X149215786Y-89393890D01*
X149043817Y-89268949D01*
X149034504Y-89264204D01*
X148983707Y-89216230D01*
X148966912Y-89148409D01*
X148989449Y-89082274D01*
X149034507Y-89043232D01*
X149043555Y-89038622D01*
X149097716Y-88999270D01*
X149097717Y-88999270D01*
X148465408Y-88366962D01*
X148528993Y-88349925D01*
X148643007Y-88284099D01*
X148736099Y-88191007D01*
X148801925Y-88076993D01*
X148818962Y-88013408D01*
X149451270Y-88645717D01*
X149451270Y-88645716D01*
X149490622Y-88591554D01*
X149587095Y-88402217D01*
X149652757Y-88200130D01*
X149652757Y-88200127D01*
X149686000Y-87990246D01*
X149686000Y-87777753D01*
X149652757Y-87567872D01*
X149652757Y-87567869D01*
X149587095Y-87365782D01*
X149490624Y-87176449D01*
X149451270Y-87122282D01*
X149451269Y-87122282D01*
X148818962Y-87754590D01*
X148801925Y-87691007D01*
X148736099Y-87576993D01*
X148643007Y-87483901D01*
X148528993Y-87418075D01*
X148465409Y-87401037D01*
X149097716Y-86768728D01*
X149043547Y-86729373D01*
X149043547Y-86729372D01*
X149034500Y-86724763D01*
X148983706Y-86676788D01*
X148966912Y-86608966D01*
X148989451Y-86542832D01*
X149034508Y-86503793D01*
X149043816Y-86499051D01*
X149123007Y-86441515D01*
X149215786Y-86374109D01*
X149215788Y-86374106D01*
X149215792Y-86374104D01*
X149366104Y-86223792D01*
X149366106Y-86223788D01*
X149366109Y-86223786D01*
X149491048Y-86051820D01*
X149491047Y-86051820D01*
X149491051Y-86051816D01*
X149587557Y-85862412D01*
X149653246Y-85660243D01*
X149686500Y-85450287D01*
X149686500Y-85237713D01*
X149674890Y-85164416D01*
X149683844Y-85095127D01*
X149709679Y-85057343D01*
X151080963Y-83686060D01*
X151080966Y-83686059D01*
X151186059Y-83580966D01*
X151268629Y-83457390D01*
X151325505Y-83320080D01*
X151354500Y-83174312D01*
X151354500Y-74880446D01*
X151354501Y-74880425D01*
X151354501Y-74725685D01*
X151325506Y-74579926D01*
X151325505Y-74579922D01*
X151307105Y-74535500D01*
X151289206Y-74492288D01*
X151289206Y-74492287D01*
X151268630Y-74442611D01*
X151186059Y-74319034D01*
X151186057Y-74319031D01*
X150363319Y-73496293D01*
X150329834Y-73434970D01*
X150327000Y-73408612D01*
X150327000Y-73279713D01*
X150293746Y-73069760D01*
X150293746Y-73069757D01*
X150228057Y-72867588D01*
X150131551Y-72678184D01*
X150131549Y-72678181D01*
X150131548Y-72678179D01*
X150006609Y-72506213D01*
X149856290Y-72355894D01*
X149856285Y-72355890D01*
X149691281Y-72236008D01*
X149648615Y-72180678D01*
X149642636Y-72111065D01*
X149675241Y-72049270D01*
X149691281Y-72035371D01*
X149855966Y-71915721D01*
X150006223Y-71765464D01*
X150006227Y-71765459D01*
X150131120Y-71593557D01*
X150227595Y-71404217D01*
X150293257Y-71202129D01*
X150293257Y-71202126D01*
X150303731Y-71136000D01*
X149255646Y-71136000D01*
X149294130Y-71069343D01*
X149326500Y-70948535D01*
X149326500Y-70823465D01*
X149294130Y-70702657D01*
X149255646Y-70636000D01*
X150303731Y-70636000D01*
X150293257Y-70569873D01*
X150293257Y-70569870D01*
X150227595Y-70367782D01*
X150131120Y-70178442D01*
X150006227Y-70006540D01*
X150006223Y-70006535D01*
X149867356Y-69867668D01*
X149833871Y-69806345D01*
X149838855Y-69736653D01*
X149880727Y-69680720D01*
X149889941Y-69674448D01*
X149895831Y-69670814D01*
X149895834Y-69670814D01*
X150045156Y-69578712D01*
X150169212Y-69454656D01*
X150261314Y-69305334D01*
X150267021Y-69288108D01*
X150306794Y-69230665D01*
X150371309Y-69203842D01*
X150440085Y-69216157D01*
G37*
%TD.AperFunction*%
%TD*%
D23*
X102889000Y-59100000D02*
X154048000Y-59100000D01*
X154048000Y-113316000D01*
X102889000Y-113316000D01*
X102889000Y-59100000D01*
M02*
