M48
; DRILL file {KiCad 9.0.1} date 2025-06-16T22:27:45+0100
; FORMAT={-:-/ absolute / metric / decimal}
; #@! TF.CreationDate,2025-06-16T22:27:45+01:00
; #@! TF.GenerationSoftware,Kicad,Pcbnew,9.0.1
; #@! TF.FileFunction,Plated,1,2,PTH
FMAT,2
METRIC
; #@! TA.AperFunction,Plated,PTH,ComponentDrill
T1C0.800
; #@! TA.AperFunction,Plated,PTH,ComponentDrill
T2C0.900
; #@! TA.AperFunction,Plated,PTH,ComponentDrill
T3C0.950
; #@! TA.AperFunction,Plated,PTH,ComponentDrill
T4C1.000
; #@! TA.AperFunction,Plated,PTH,ComponentDrill
T5C1.100
%
G90
G05
T1
X124.0Y-94.0
X124.0Y-98.88
X125.984Y-62.19
X125.984Y-69.81
X130.38Y-73.38
X130.38Y-75.92
X130.38Y-78.46
X130.38Y-81.0
X130.38Y-83.54
X130.38Y-86.08
X130.38Y-88.62
X130.38Y-91.16
X130.38Y-93.7
X130.38Y-96.24
X130.38Y-98.78
X130.38Y-101.32
X130.38Y-103.86
X130.38Y-106.4
X138.0Y-73.38
X138.0Y-75.92
X138.0Y-78.46
X138.0Y-81.0
X138.0Y-83.54
X138.0Y-86.08
X138.0Y-88.62
X138.0Y-91.16
X138.0Y-93.7
X138.0Y-96.24
X138.0Y-98.78
X138.0Y-101.32
X138.0Y-103.86
X138.0Y-106.4
X142.24Y-96.52
X142.24Y-104.14
T2
X141.732Y-109.22
X144.272Y-109.22
T3
X148.851Y-68.386
X148.851Y-70.886
X148.851Y-73.386
X148.851Y-75.886
T4
X111.2Y-92.8
X111.25Y-100.0
X111.4Y-70.675
X111.4Y-73.215
X111.4Y-75.755
X111.4Y-78.295
X111.4Y-80.835
X111.4Y-83.375
X118.364Y-62.056
X118.364Y-72.056
X118.7Y-92.8
X118.75Y-100.0
X124.968Y-77.376
X124.968Y-87.376
X148.336Y-82.804
X148.336Y-85.344
X148.336Y-87.884
X148.336Y-90.424
T5
X131.37Y-62.774
X131.37Y-67.274
X137.87Y-62.774
X137.87Y-67.274
M30
